<?xml version="1.0" encoding="UTF-8"?>
<svg id="Layer_1" data-name="Layer 1" xmlns="http://www.w3.org/2000/svg" viewBox="0 0 360 90">
  <defs>
    <style>
      .cls-1 {
        fill: none;
      }

      .cls-2 {
        fill: #231f20;
      }
    </style>
  </defs>
  <path class="cls-1" d="M239.73,29.93c-5.31,0-8.97,5.38-8.97,13.1s3.66,13.31,8.97,13.31c4.83,0,8.97-5.38,8.97-13.31s-4.14-13.1-8.97-13.1Z"/>
  <path class="cls-1" d="M107.79,43.58l4,.07,4.14-.07c-1.79-4.62-3.52-9.03-4.21-11.38-.83,2.9-2.41,7.17-3.93,11.38Z"/>
  <path class="cls-1" d="M154.83,30.89h-3.17c-.48,3.52-.48,8.83-.48,11.86.69.28,2.76.62,4.41.62,4.35,0,6.14-3.45,6.14-6.35,0-3.59-2.07-6.14-6.9-6.14Z"/>
  <path class="cls-1" d="M74,30.55c-1.59,0-2.9.07-4.55.28-.41,4.55-.41,7.45-.41,12.28,0,4,0,7.79.41,12.35,1.66.21,2.97.28,4.55.28,5.17,0,9.66-2.69,9.66-11.86,0-10.07-4.48-13.31-9.66-13.31Z"/>
  <path class="cls-2" d="M295.87,55.38c3.86-4.28,7.45-10.62,7.45-18.9,0-9.66-5.93-13.52-12.21-13.52s-11.31,3.52-14.21,9.1c.41-4.28,1.38-6.9,3.86-8.07h-17.93c4.14,1.93,4.14,8.07,4.14,19.17s0,17.17-4.14,19.1h17.93c-3.72-1.72-4.07-6.97-4.14-16.14,1.1-8.07,6.14-14.83,10.28-14.83,3.31,0,6.14,2.9,6.14,9.38,0,8.41-5.1,19.59-9.17,21.59h20.9v-16.55c-.69,3.24-4.41,7.86-8.9,9.66Z"/>
  <path class="cls-2" d="M74.2,23.65c-5.79,0-11.45.34-18.97.34,4.14,1.93,4.14,8.07,4.14,19.1s0,17.24-4.14,19.17c7.52,0,13.17.34,18.97.34,9.45,0,20.14-6.35,20.14-20,0-12.83-10.69-18.97-20.14-18.97ZM74,55.72c-1.59,0-2.9-.07-4.55-.28-.41-4.55-.41-8.35-.41-12.35,0-4.83,0-7.72.41-12.28,1.66-.21,2.97-.28,4.55-.28,5.17,0,9.66,3.24,9.66,13.31,0,9.17-4.48,11.86-9.66,11.86Z"/>
  <path class="cls-2" d="M218,43.03h-17.93c4.14,1.93,4.76,4.9,4.76,6.62,0,4.14-3.1,6.48-6.9,6.48-4.55,0-9.66-3.72-9.66-12.76s5.72-13.52,11.59-13.52c5.03,0,10.14,3.17,11.59,9.86h.14v-13.04c-2.83-2.41-7.1-3.72-11.66-3.72-10.41,0-22.35,6.55-22.35,21.04s11.86,19.31,19.04,19.31c4.9,0,8.83-1.66,11.93-5.1,2.28,2.34,5.31,4.07,8.69,4.07-3.1-5.86-3.45-8.83-3.45-11.24,0-2.55.07-6.07,4.21-8Z"/>
  <path class="cls-2" d="M122.27,28.69c0-1.93.41-3.59,1.31-4.69h-21.1c.83.97,1.17,2.55,1.17,4.48,0,6.97-4.41,18.76-6.48,24.21-.97,2.55-2.62,6.41-5.24,9.59h14.41c-2.14-.97-2.76-2.9-2.76-4.83,0-1.45.34-2.9.69-3.93l.97-2.83c1.72-.07,4.14-.14,6.55-.14,2.55,0,5.17.07,6.9.21l1.03,2.69c.62,1.79,1.03,3.38,1.03,4.76,0,1.72-.62,3.1-2.41,4.07h16.62c-2.48-3.17-4.21-6.97-5.31-9.59-3.72-8.55-7.38-17.93-7.38-24ZM111.79,43.65l-4-.07c1.52-4.21,3.1-8.48,3.93-11.38.69,2.34,2.41,6.76,4.21,11.38l-4.14.07Z"/>
  <path class="cls-2" d="M240.9,22.96c-10.28,0-20.83,7.03-20.83,20.9,0,12.76,9.66,19.45,18.41,19.45,10.28,0,20.9-7.03,20.9-20.83,0-12.83-9.66-19.52-18.48-19.52ZM239.73,56.34c-5.31,0-8.97-5.38-8.97-13.31s3.66-13.1,8.97-13.1c4.83,0,8.97,5.38,8.97,13.1s-4.14,13.31-8.97,13.31Z"/>
  <path class="cls-2" d="M170.14,52.27c-2.21,0-3.93-1.66-5.31-3.79,4.35-2,7.59-5.86,7.59-12.14,0-10.28-9.1-12.35-15.79-12.35h-19.24c4.14,1.93,4.14,8.07,4.14,19.1s0,17.24-4.14,19.17h17.93c-3.24-1.52-3.93-5.45-4.07-12.35,1.31.21,2.76.34,4.21.34,2.21,5.72,6,13.04,11.66,13.04s7.38-5.93,7.38-13.93c-1.1,1.38-2.41,2.9-4.35,2.9ZM155.59,43.38c-1.66,0-3.72-.34-4.41-.62,0-3.03,0-8.35.48-11.86h3.17c4.83,0,6.9,2.55,6.9,6.14,0,2.9-1.79,6.35-6.14,6.35Z"/>
</svg>