<?xml version="1.0" encoding="utf-8"?>
<!-- Generator: Adobe Illustrator 27.8.1, SVG Export Plug-In . SVG Version: 6.00 Build 0)  -->
<svg version="1.1" id="Layer_1" xmlns="http://www.w3.org/2000/svg" xmlns:xlink="http://www.w3.org/1999/xlink" x="0px" y="0px"
	 viewBox="0 0 360 90" style="enable-background:new 0 0 360 90;" xml:space="preserve">
<path d="M105.1,64.7l4-10l2.5,0.8c-1.3,4.1,0,7.2,4.9,7.2c3.8,0,7.4-1.9,7.4-6.3c0-2.9-1.5-5.4-5.1-9.8c-3.6-4.3-5.4-7.2-5.4-10.6
	c0-6.3,5.8-11.3,14.2-11.3c4.2,0,7.8,1.3,10.7,3.1l-4,10l-2.5-0.8c1.9-6-1.2-7.5-4.5-7.5c-4.5,0-6.6,2.8-6.6,5.3
	c0,2.5,2.1,5,4.5,7.9c4.3,5.1,6.1,8.1,6.1,11.9c0,6.9-5.9,12.9-16.1,12.9C110.9,67.5,108,66.5,105.1,64.7z"/>
<path d="M143.5,30.6l1-3c1.8-5.5,3.7-6.5,10.3-7.1l0.7-0.1l-0.7,1.6c-2.8,6.1-7.5,17.1-9.2,21.9l-1,2.8l0.2,0.1
	c3.9-5.8,8-8.9,11.6-8.9c3.4,0,4.8,2.7,4.8,5.7c0,5.1-4.3,9.4-8.4,11.2l0.9,3.4c0.4,1.7,0.9,2.7,1.6,2.7c0.8,0,1.9-1.1,3.8-4.3
	l1.9,1.1c-3.4,7.5-6.8,9.8-9.5,9.8c-2.5,0-3.6-1.9-4.3-6l-1.6-8.2l0.2-0.1c0.5,0.4,1.2,0.7,2.2,0.7c3.4,0,6-3.4,6-6.5
	c0-1.7-0.8-2.8-1.9-2.8c-2.7,0-7.7,6.2-10,13.1l-1.7,5.4c-1,3.2-2.2,3.8-6,3.8h-3.2l0.2-0.4C133.9,60.4,134.8,57.9,143.5,30.6z"/>
<path d="M163.3,58.5c0-8.9,8-20.6,18.4-20.6c4.5,0,6.5,2.2,6.5,5.1c0,5.4-6.9,9.4-17.2,11.4c-0.1,0.8-0.2,1.4-0.2,2.1
	c0,3.4,1.5,5.5,4.2,5.5c2.6,0,5-2,7.4-6.1l2,1.1c-2,4.1-5.8,10.4-12.8,10.4C166.4,67.5,163.3,64.1,163.3,58.5z M182.3,45.3
	c0-1.3-1-2.1-2.7-2.1c-3.8,0-6.6,4.3-7.9,8.5C176.7,50.5,182.3,48.3,182.3,45.3z"/>
<path d="M188.1,58.5c0-8.9,8-20.6,18.4-20.6c4.5,0,6.5,2.2,6.5,5.1c0,5.4-6.9,9.4-17.2,11.4c-0.1,0.8-0.2,1.4-0.2,2.1
	c0,3.4,1.5,5.5,4.2,5.5c2.6,0,5-2,7.4-6.1l2,1.1c-2,4.1-5.8,10.4-12.8,10.4C191.1,67.5,188.1,64.1,188.1,58.5z M207,45.3
	c0-1.3-1-2.1-2.7-2.1c-3.8,0-6.6,4.3-7.9,8.5C201.4,50.5,207,48.3,207,45.3z"/>
<path d="M212.3,60.2c0-9.6,8.6-22.2,15.9-22.2c3,0,4.5,2.1,5.1,5.7h0.2l5.7-17c1.7-5.2,4.5-5.6,10.1-6.1l0.7-0.1
	c-5.3,11-14.5,32.5-14.7,38.9c-0.1,0.9,0.1,1.5,0.7,1.5c0.7,0,1.7-0.9,3.6-4.2l1.9,1.1c-2.7,6.6-6.7,9.7-9.8,9.7
	c-2.7,0-3.4-2.5-3.4-4.3c0-0.9,0.2-2.2,0.4-2.8l-0.2-0.1c-3.7,4.8-7.4,7.2-10.4,7.2C215,67.5,212.3,65.5,212.3,60.2z M231.6,47.1
	c0-2.4-1.1-3.7-2.8-3.7c-4.5,0-9.1,9.7-9.1,15c0,2,0.7,3.1,1.9,3.1C225.1,61.5,231.6,52.9,231.6,47.1z"/>
</svg>
