<?xml version="1.0" encoding="utf-8"?>
<!-- Generator: Adobe Illustrator 27.8.1, SVG Export Plug-In . SVG Version: 6.00 Build 0)  -->
<svg version="1.1" id="Layer_1" xmlns="http://www.w3.org/2000/svg" xmlns:xlink="http://www.w3.org/1999/xlink" x="0px" y="0px"
	 viewBox="0 0 360 90" style="enable-background:new 0 0 360 90;" xml:space="preserve">
<style type="text/css">
	.st0{fill:none;}
	.st1{fill:#231F20;}
</style>
<path class="st0" d="M179.6,56.2c0,0.2,0.1,0.4,0.3,0.6c0.2,0.2,0.4,0.2,0.7,0.2c0.7,0,1.5-0.5,2.5-1.6s2.3-2.6,3.8-4.7
	c-1.9,0.8-3.6,1.7-5.1,2.8C180.4,54.6,179.6,55.5,179.6,56.2L179.6,56.2z"/>
<path class="st0" d="M89.8,56.2c0,0.2,0.1,0.4,0.3,0.6c0.2,0.2,0.4,0.2,0.7,0.2c0.7,0,1.4-0.5,2.3-1.5s2-2.5,3.3-4.6
	c-1.7,0.8-3.2,1.7-4.6,2.7S89.8,55.4,89.8,56.2z"/>
<path class="st0" d="M235.8,56.2c0,0.2,0.1,0.4,0.3,0.6c0.2,0.2,0.4,0.2,0.7,0.2c0.7,0,1.4-0.5,2.3-1.5s2-2.5,3.3-4.6
	c-1.7,0.8-3.2,1.7-4.6,2.7S235.8,55.4,235.8,56.2L235.8,56.2z"/>
<path class="st1" d="M167.3,29.3c3.4-1.2,5.9-2.4,7.3-3.6c-0.9-3.7-1.5-6.5-1.9-8.5c-3.2,2-5.9,3.6-8.1,4.8c0.5,1,1,2.2,1.5,3.6
	S167.1,28.2,167.3,29.3L167.3,29.3z"/>
<path class="st1" d="M220.8,32.2c-1.8-0.6-3.6-1-5.2-1.2l-1,1c-2.4,2.4-5,4.6-7.6,6.6c-2.6,2-5.7,4.1-9.2,6.2
	c3.7-5.4,7.7-10.2,12-14.5c4.3-4.3,9.6-8,15.8-11c-3-1.5-6.4-2.6-10.3-3.3c-3.6,2.3-7.2,5.6-10.8,10.1c-3.5,4.5-7.7,10.2-12.6,17.3
	l-4,5.9c-4.1,1.5-6.8,2.9-8.2,4.1s-2.1,2.4-2.1,3.7s0.8,2.2,2.4,2.9c1.6,0.7,3.7,1.3,6.4,1.8c1.5-1.7,3.7-4.8,6.5-9.3l3.3-5.1
	l12-6.6c-2.7,4.1-5.3,7.5-7.9,10.2s-5.9,5.2-10,7.5c2.1,1.6,5.2,2.8,9.3,3.7c1.2-1.2,2.2-2.5,3.1-3.8c0.9-1.3,2.1-3.2,3.7-5.6
	c1.9-3,3.5-5.5,5-7.5c1.5-2,3.3-4,5.5-6l0,0c2.2-2,4.8-3.8,7.8-5.3C224,33.3,222.7,32.8,220.8,32.2z M183.1,55.4
	c-1,1.1-1.9,1.6-2.5,1.6c-0.3,0-0.5-0.1-0.7-0.2c-0.2-0.2-0.3-0.4-0.3-0.6c0-0.7,0.7-1.6,2.2-2.7c1.5-1.1,3.2-2,5.1-2.8
	C185.4,52.8,184.1,54.3,183.1,55.4z"/>
<path class="st1" d="M184.9,32.2c-1.9,0-3.6-0.1-4.9-0.4c-1.3-0.3-3.1-0.8-5.2-1.5l-1.6,1.5c-2.4,2.2-4.3,4.1-5.7,5.9
	c3.2-0.9,5.9-1.3,8.1-1.3c1.6,0,3.1,0.4,4.6,1.3c-1,3.5-2.9,6.9-5.6,10.4c-3.6,4.7-6.5,7-8.8,7.1c-0.5,0-1-0.2-1.2-0.5
	c-0.3-0.3-0.4-0.7-0.4-1.1c0.1-2.6,3.9-7.9,11.3-15.8c-2.5,0.5-5.5,1.4-9,2.5c-1.6,1.7-3.3,3.4-4.8,5.2c-1.6,1.8-3,3.6-4.3,5.3
	c-2.5,3.1-4.7,5.8-6.6,7.9c-1.9,2.1-4.3,4.3-7.2,6.5s-6.3,4.4-10.4,6.6c1.9,1.8,5.4,3.1,10.5,4.1c1-0.9,2.2-2.2,3.5-3.8
	s3.1-3.9,5.3-6.8c3.4-4.4,6-7.6,7.7-9.7c-0.2,0.7-0.3,1.5-0.3,2.2c0,1.2,0.4,2.3,1.1,3.1c0.7,0.9,1.7,1.3,2.9,1.3
	c3.3,0,6.8-1.7,10.5-5.1c3.7-3.4,6.9-7.5,9.5-12.3c2.6-4.8,4-9,4.2-12.6l0,0L184.9,32.2z"/>
<path class="st1" d="M145.4,58.5c0.9-1.4,2-3.2,3.3-5.4c1.8-3.1,3.5-5.8,4.9-7.9c1.5-2.2,3.4-4.2,5.7-6.3c2.3-2,5-3.7,8.2-5.1
	c-1.6-0.7-3.2-1.3-4.6-1.7c-1.4-0.4-3.3-0.8-5.5-1.1c-0.9,0.8-1.9,2-2.9,3.4c-1.1,1.5-2.1,3-3.2,4.5c-2.9,4.4-5.8,8.2-8.6,11.3
	c-2.8,3.1-6.3,5.9-10.6,8.2c2.1,1.5,5.6,2.8,10.4,3.7C143.5,61.1,144.5,59.9,145.4,58.5z"/>
<path class="st1" d="M277.1,32.2c-1.9-0.6-3.6-1-5.3-1.2l-1,1c-2.7,2.7-5.5,5.1-8.5,7.3c-3,2.2-6.5,4.5-10.6,6.9
	c1.6-2.7,3.5-5.1,5.8-7.3c2.3-2.1,5.3-4.1,9.2-5.9c-3.5-1.1-6.9-1.8-10.4-2c-1.6,1.3-3.3,3.2-5,5.6c-1.7,2.4-3.8,5.7-6.2,9.8
	l-1.7,2.9c-3.7,1.5-6.3,2.8-7.6,4c-1.3,1.2-2,2.4-2,3.6c0,1.2,0.7,2.2,2.2,2.9s3.5,1.3,6.2,1.8c1.4-1.5,2.6-3,3.6-4.6
	c1-1.6,2-3.5,3.1-5.8l1.6-3.1c3.5-1.8,8.1-4.2,13.9-7.4c-2.6,4-5.3,7.3-7.9,10.1c-2.6,2.8-6.1,5.3-10.4,7.5
	c2.5,1.6,5.9,2.8,10.2,3.7c0.9-0.9,1.8-2,2.7-3.3c0.9-1.3,2-3,3.3-5.2l0,0c1.9-3.1,3.7-5.8,5.2-8c1.5-2.2,3.5-4.3,5.9-6.5
	c2.4-2.1,5.1-3.9,8.2-5.4C280.5,33.3,279,32.8,277.1,32.2z M239.1,55.5L239.1,55.5c-0.9,1-1.7,1.5-2.3,1.5c-0.3,0-0.5-0.1-0.7-0.2
	c-0.2-0.2-0.3-0.4-0.3-0.6c0-0.7,0.7-1.6,2-2.6c1.4-1,2.9-1.9,4.6-2.7C241.1,52.9,240,54.4,239.1,55.5z"/>
<path class="st1" d="M219.2,58.4c2.8,0,5.7-0.3,8.7-0.8c4.1-3,7.8-6.4,11.1-10.3s5-7.4,5-10.5c0-1.6-0.5-2.9-1.6-4s-2.5-1.6-4.4-1.6
	c-3.6,0-7.5,1.5-11.8,4.5c-4.3,3-7.9,6.6-10.9,10.8c-3,4.2-4.5,7.7-4.5,10.5c0,1.8,0.6,3.1,1.8,4s2.8,1.4,4.9,1.4
	c1.2,0,2.6-0.2,4.1-0.6s2.8-1,3.9-1.6c-2.9,0.1-4.9-0.3-6.1-1c-1.1-0.7-1.7-1.7-1.7-2.8c0-1.5,1.1-3.8,3.4-6.8
	c2.3-3,4.8-5.8,7.6-8.4c2.8-2.5,4.8-3.8,6-3.8c0.4,0,0.7,0.1,1,0.4c0.3,0.2,0.4,0.6,0.4,1.1c0,1.7-1.9,4.5-5.6,8.7
	S223.2,55.3,219.2,58.4L219.2,58.4z"/>
<path class="st1" d="M277.1,56.3c-6.2,2.8-11.1,5.3-14.8,7.8c-3.7,2.4-5.5,4.9-5.5,7.3c0.8,1.3,2.2,2.5,4.1,3.4
	c1.9,1,3.8,1.4,5.7,1.4c2,0,4.6-0.5,7.7-1.5c3.1-1,5.6-2.1,7.6-3.3c0-1.7-0.1-3.2-0.3-4.5c-0.2-1.3-0.5-2.7-1-4.2
	c-1,1.2-2.5,2.6-4.6,4.1c-2.1,1.5-4.2,2.9-6.3,4c-2.1,1.1-3.7,1.7-4.8,1.7h-0.1c0.6-2,1.6-3.9,3.1-5.5c1.5-1.6,3.2-3,5-4.2
	c1.9-1.2,4.4-2.7,7.6-4.4c3.6-2,6.7-3.8,9.2-5.4c2.5-1.6,5-3.6,7.6-5.9c2.6-2.3,5-5.1,7.1-8.2c-0.5-1.6-1.3-3.2-2.4-4.7l0,0
	c-1-1.5-2-2.6-2.8-3.2c-3,6.3-6.3,11.5-10,15.4c-3.6,4-7.8,6.4-12.5,7.2l1.6-2.4c1.2-1.9,2.2-3.5,3.2-4.7c1-1.3,2.4-2.6,4.1-4
	c1.8-1.4,4-2.7,6.6-3.8c-1.3-3.7-2.6-6.6-3.9-8.5c-2.4,1.3-4.6,3.2-6.7,5.7c-2,2.6-4.5,6.1-7.3,10.5c-1.8,2.8-3.3,5-4.6,6.8
	s-2.6,3.3-3.9,4.5C269.6,57.7,273.3,57.2,277.1,56.3"/>
<path class="st1" d="M155.5,27.8c-3,0-6.4,0.2-10.2,0.7l-3.4,3.8l0,0l-1.6-0.2l-6.1,5.6l2.4,0.2c0,0,0,0,0,0l-1.1,1.2l-4,4.3
	c-4.4,4.7-7.5,8.2-9.4,10.6c-1.8,2.3-2.8,4.2-2.8,5.8c0,1.5,0.4,2.6,1.2,3.2c3.3-0.7,6.2-1.5,8.8-2.3c-0.2-0.4-0.4-0.8-0.5-1.2
	s-0.2-0.9-0.2-1.5h0c0-1.8,1.3-4.5,4-8c2.6-3.5,5.9-7.3,9.9-11.4l0,0l3.9,0.2l7.9-6.1c-2.1,0.2-4,0.2-5.7,0.2
	C151.1,30.8,153.5,29.1,155.5,27.8z"/>
<path class="st1" d="M104.9,21c-4.8,4.3-8.2,6.4-10.4,6.4c-1.3,0-2-0.8-2-2.4c0-0.9,0.2-1.7,0.5-2.4c-2.6,1.5-4.4,2.6-5.2,3.1
	C87,26.3,86.1,27,85.1,28c0,1.5,0.6,2.7,1.7,3.6l0,0c-1.5,3-3.6,6.3-6.1,9.8c-2.6,3.5-5.2,6.7-7.9,9.4c-2.7,2.8-5.1,4.6-7.2,5.5
	c-0.8-2-1.2-4.1-1.2-6.3c0-4.4,1.3-8.9,3.9-13.5c2.6-4.6,5.9-8.2,9.9-10.9c4.2-2.9,8.4-4.3,12.6-4.3c3,0,5.8,0.8,8.5,2.3
	c-0.3-1.2-0.8-2.7-1.6-4.4c-0.8-1.7-1.7-3.3-2.8-4.9c-0.7-0.2-1.7-0.2-2.8-0.2c-4.1,0-8.6,1.4-13.3,4.1c-4.4,2.6-8.4,5.9-12,10.1
	c-3.6,4.1-6.4,8.6-8.4,13.3c-2,4.7-3,9.2-3,13.5c0,3.1,0.5,5.7,1.5,7.9c4.4-1.2,8.7-3.4,12.8-6.7c4.1-3.3,7.8-7.1,11-11.4
	c3.2-4.3,5.9-8.5,8-12.6l0,0c0.5,0.1,1,0.2,1.3,0.2c1.6,0,3.4-0.5,5.4-1.6c-1.8,1.8-3.6,3.8-5.5,6.3c-1.9,2.4-4.2,5.6-6.9,9.5
	c-2.7,3.7-5,6.8-7,9.4c-2,2.6-3.8,4.7-5.6,6.5c1.1,0.3,2.7,0.4,4.7,0.4c1.5,0,3.1-0.1,4.7-0.2c1.6-0.2,2.8-0.4,3.8-0.6
	c0.7-4.1,2.2-8.2,4.4-12.4c2.2-4.2,4.9-8,8.2-11.5l0,0c3.2-3.5,6.8-6.3,10.6-8.5C106.5,26.7,105.9,23.8,104.9,21z"/>
<path class="st1" d="M127.3,39.2c2.4-2.2,5.1-3.9,8.3-5.4c-1.1-0.5-2.6-1-4.5-1.6c-1.9-0.6-3.6-1-5.3-1.2l-1,1
	c-2.7,2.7-5.5,5.1-8.5,7.3s-6.5,4.5-10.6,6.9c1.6-2.7,3.5-5.1,5.8-7.3c2.3-2.2,5.3-4.1,9.2-5.9c-3.5-1.1-6.9-1.8-10.4-2
	c-1.7,1.3-3.3,3.2-5,5.6c-1.7,2.4-3.8,5.7-6.2,9.8l-1.7,2.9c-3.7,1.5-6.3,2.8-7.6,4s-2,2.4-2,3.6s0.7,2.2,2.2,2.9
	c1.5,0.7,3.6,1.3,6.2,1.8c1.4-1.5,2.6-3,3.6-4.6c1-1.6,2-3.5,3.1-5.8l1.7-3.1c3.5-1.8,8.1-4.2,13.9-7.4c-2.6,4-5.3,7.3-7.9,10.1
	c-2.6,2.8-6.1,5.3-10.4,7.5c2.5,1.6,5.9,2.8,10.2,3.7c0.9-0.9,1.8-2,2.7-3.3c0.9-1.3,2-3,3.3-5.2c1.9-3.1,3.7-5.8,5.2-8
	C123,43.5,125,41.3,127.3,39.2L127.3,39.2z M93.1,55.5c-0.9,1-1.7,1.5-2.3,1.5c-0.3,0-0.5-0.1-0.7-0.2c-0.2-0.2-0.3-0.4-0.3-0.6
	c0-0.7,0.7-1.6,2-2.6c1.3-1,2.9-1.9,4.6-2.7C95.1,52.9,94,54.4,93.1,55.5z"/>
</svg>
