<?xml version="1.0" encoding="utf-8"?>
<!-- Generator: Adobe Illustrator 27.8.1, SVG Export Plug-In . SVG Version: 6.00 Build 0)  -->
<svg version="1.1" id="Layer_1" xmlns="http://www.w3.org/2000/svg" xmlns:xlink="http://www.w3.org/1999/xlink" x="0px" y="0px"
	 viewBox="0 0 360 90" style="enable-background:new 0 0 360 90;" xml:space="preserve">
<style type="text/css">
	.st0{fill:none;}
</style>
<path class="st0" d="M247.8,60.6c0,1.2,0.9,2.8,3.5,2.8c0.7,0,1.4-0.2,2.1-0.5v-5.2c-1.6,0.2-4.5,0.9-5.3,1.7
	C248,59.5,247.8,60,247.8,60.6z"/>
<path d="M240.7,59.6c0-0.4,0.1-0.7,0.2-1.1c0.6-0.9,2.9-1.5,4.2-1.7v4.9c-0.3,0.2-0.9,0.3-1.5,0.3C241.5,61.9,240.7,60.8,240.7,59.6
	 M245.1,49.7v2.7l-5.9,1.7c-5.3,1.5-8,4.2-8,7.8c0,3.9,2.3,6.8,6.8,6.8c3.6,0,6.1-1.6,7.1-4.2v3.7h11.5v-0.4l-1.2-4.9V48.3
	c0-6.3-2.6-9.5-10.8-9.5c-7.5,0-12.8,2.7-12.8,9.4c0,3.9,2.3,5.2,4.5,5.2c2.2,0,4.1-1,4.1-3.5c0-2.1-1.4-3-3.5-3.2
	c1.2-1,2.9-1.4,4.3-1.4c1.5,0,2.9,0.5,3.4,1C244.9,46.7,245.1,48.1,245.1,49.7 M186.8,68.1H199v-0.4l-0.9-4.9V47.9
	c0.7-0.5,1.4-0.7,2.2-0.7c1.2,0,2.3,0.7,2.3,2.2v13.4l-0.9,4.9v0.4h12.2v-0.4l-0.9-4.9V47.9c0.7-0.5,1.4-0.7,2.2-0.7
	c1.2,0,2.3,0.7,2.3,2.2v13.4l-0.9,4.9v0.4h12.2v-0.4l-0.9-4.9V47.1c0-5.9-3.4-8.3-6.8-8.3c-3.6,0-7.3,2.3-8.4,6.3
	c-0.6-4.5-3.6-6.3-6.6-6.3c-3.5,0-7,2.2-8.3,5.9v-5l-0.3-0.4h-11.6v0.4l1.4,4.8v18.3l-0.9,4.9L186.8,68.1L186.8,68.1z M177.1,38.2
	c3.5,0,5.6-2.1,5.6-5.5c0-3.3-2.1-5.4-5.6-5.4c-3.6,0-5.7,2.1-5.7,5.4C171.4,36.1,173.5,38.2,177.1,38.2 M171.5,68.1h12.4v-0.4
	l-0.9-4.9V39.7l-0.3-0.4h-11.7v0.4l1.4,4.8v18.3l-0.9,4.9L171.5,68.1L171.5,68.1z M141.4,68.1h12.2v-0.4l-0.9-4.9V47.9
	c0.7-0.5,1.4-0.7,2.2-0.7c1.2,0,2.3,0.7,2.3,2.2v13.4l-0.9,4.9v0.4h12.2v-0.4l-0.9-4.9V47.1c0-5.9-3.4-8.3-6.8-8.3
	c-3.4,0-7,2.2-8.3,5.9v-5l-0.3-0.4h-11.6v0.4l1.4,4.8v18.3l-0.9,4.9L141.4,68.1L141.4,68.1z M117.8,51.3l3.1-13.6l0.3,1.5l2.7,12.1
	L117.8,51.3L117.8,51.3z M128.8,24.5l-3.5-9.6H125c-2.3,3.2-6.8,8.4-9.6,10.9l0.6,1.5L128.8,24.5L128.8,24.5z M103.2,68.1h12.2v-0.4
	l-0.2-4.7l0.8-3.6h9.7l0.8,3.6l-0.3,4.7v0.4h14.2v-0.4l-1.9-4.7l-10.4-34.4h-13l-10,34.4l-1.9,4.7L103.2,68.1L103.2,68.1z"/>
</svg>
