<?xml version="1.0" encoding="utf-8"?>
<!-- Generator: Adobe Illustrator 27.8.1, SVG Export Plug-In . SVG Version: 6.00 Build 0)  -->
<svg version="1.1" id="Layer_1" xmlns="http://www.w3.org/2000/svg" xmlns:xlink="http://www.w3.org/1999/xlink" x="0px" y="0px"
	 viewBox="0 0 360 90" style="enable-background:new 0 0 360 90;" xml:space="preserve">
<g>
	<g id="Layer_11">
		<g>
			<path d="M154.5,41c1.1,9.2-4.1,16.1-8.6,16.1c-4.5,0-8-3.8-9-11.7c-1.1-9.2,4.1-16,8.6-16S153.5,33.1,154.5,41L154.5,41z
				 M151.2,43.4c-1-7.9-4.3-10.9-7.2-10.9c-2.6,0-4.8,2.3-3.8,10.6c1,7.9,4.3,10.9,7.2,10.9C150,53.9,152.2,51.7,151.2,43.4
				C151.2,43.4,151.2,43.4,151.2,43.4z"/>
			<path d="M159.8,34.1c-0.6,0-1.1,0.9-2.3,3.3h-1.2c1.7-5,3.8-8,5.7-8c1.2,0,1.6,1,2,3.7c0.4,2.4,0.9,7.4,1.2,10.8
				c1.3-5.8,4.7-14.5,8.2-14.5c1.8,0,2.6,1.6,3.2,6.9l0.8,7.6c1.3-5.7,4.8-14.5,8.3-14.5c1.8,0,2.5,1.6,3.2,6.9l1.3,10.8
				c0.5,4.3,0.7,4.9,1.2,4.9c0.5,0,1.1-1.3,2.2-4.1h1.1c-1.7,5.6-3.2,9.1-5.2,9.1c-1,0-1.8-0.6-2.3-4.3l-1.7-13.4
				c-0.5-4.1-0.9-5.4-1.8-5.4c-1.7,0-4.8,7.9-5.8,13.7l1.2,8.8c-0.5,0.4-1.3,0.7-2,0.7c-1.2,0-1.9-0.5-2.1-2.2
				c-0.3-1.3-0.3-4.4-0.3-5.8l-1.3-9.9c-0.5-4.1-1.1-5.4-1.9-5.4c-1.7,0-4.7,7.9-5.7,13.7l1.2,8.8c-0.5,0.4-1.3,0.7-2,0.7
				c-1.2,0-1.9-0.5-2.1-2.2c-0.3-1.3-0.3-4.4-0.3-5.8l-1.7-11.7C160.4,34.9,160.3,34.2,159.8,34.1L159.8,34.1L159.8,34.1z"/>
			<path d="M204.1,56.9l0.3,2.6c0.6,4.9,1.1,5.3,1.8,5.3c0.5,0,1.3-0.3,3.2-1.7l0.5,0.9c-2.3,2.1-4.7,4.2-6.3,4.2
				c-1,0-1.7-0.4-2.1-3.8c-0.9-6.3-2.4-20.4-3.3-27c-0.3-2.6-0.5-3.3-1-3.3c-0.6,0-1.1,0.9-2.3,3.3h-1.2c1.7-5,3.8-8,5.7-8
				c1.2,0,1.6,1,2,3.7c0.3,2.1,0.6,6.4,1,9.8c1.4-8.3,4.5-13.6,7.3-13.6c2.7,0,5.7,5.1,6.1,12.4c0.4,9.9-5.1,15.4-10,15.4
				C205.1,57.1,204.5,57,204.1,56.9L204.1,56.9L204.1,56.9z M202.8,46.7l0.8,6.4c1.5,0.6,3.1,0.7,4.3,0.7c2.5,0,4.8-1.2,4.7-7.2
				c-0.2-8.1-2.6-13.3-4.4-13.3S204.1,38.8,202.8,46.7L202.8,46.7L202.8,46.7z"/>
			<path d="M219.8,46.6c-1.1-9.2,4.1-16.6,9.8-16.6c0.5,0,1,0,1.4,0.2c-0.1-1.2-0.3-2.4-0.4-3.4c0.8-0.1,1.2-0.2,1.8,0
				c0.9,0.2,2.4,0.8,2.7,2.9c0.5,2.7,0.5,5.5,0.5,9.5c1.4,12.4,1.9,13,2.6,13c0.5,0,0.9-1,2.2-4.2h1.1c-1.9,6.4-3.4,9.1-5.1,9.1
				c-1.4,0-2-1.6-2.7-6.3c-0.3-1.8-0.5-3.4-0.8-5.5c-1.6,7-4.8,11.8-7.3,11.8C223.2,57.1,220.6,53.1,219.8,46.6L219.8,46.6
				L219.8,46.6z M227.1,53.1c1.6,0,4-4.7,5.4-11.2c-0.3-2.5-0.7-5.1-1-7.8c-1.3-0.5-2.7-0.8-4.1-0.8c-2.9,0-5.3,2.8-4.4,9.9
				C223.6,49.5,225.7,53.1,227.1,53.1L227.1,53.1L227.1,53.1z"/>
			<path d="M242.2,37.1c0-3.9,3.7-7.8,7.3-7.8c2.7,0,4,1.4,4,2.9c0,0.9-0.3,1.5-1.4,2.3c-1.7-1.2-3.3-1.8-4.8-1.8
				c-1.8,0-2.9,1-2.9,2.5c0,1.6,1,2.7,5.1,5.1c5.1,3.1,6.6,4.9,6.6,7.9c0,4.5-4,9-7.9,9c-2.9,0-4.8-1.8-4.8-3.6c0-1.2,0.7-2,1.4-2.4
				c1.8,1.7,3.6,2.7,5.4,2.7c2.3,0,3.6-1.4,3.6-3.3c0-2.1-1.9-4.2-6.1-6.7C243.8,41.5,242.2,39.6,242.2,37.1L242.2,37.1L242.2,37.1z
				"/>
		</g>
	</g>
	<path d="M107,26.3c-0.4-3.4-1.3-4.1-5-4.2l-0.2-1.3H115l0.2,1.3c-3.9,0.4-4.5,1.2-4.1,4.4l3,24.7c0.4,3.3,1.9,3.8,6.1,4.2l0.2,1.3
		h-14.2l-0.2-1.3c3.9-0.4,4.5-1.2,4.1-4.4L107,26.3z M136.7,55.3l0.2,1.2c-1.1,0.3-2,0.5-3.1,0.5c-2.8,0-4.9-1.4-7-3.9l-13-15
		l-0.2-1.3l8.7-9.8c3.1-3.5,2.6-4.8-1.1-5l-0.2-1.3h11l0.2,1.3c-2.4,0.7-4.5,2.3-7.2,5.3l-7.8,8.7l12.9,14.7
		C133.3,54.5,134.3,55.2,136.7,55.3L136.7,55.3z"/>
</g>
</svg>
