<?xml version="1.0" encoding="UTF-8"?>
<svg id="Layer_1" data-name="Layer 1" xmlns="http://www.w3.org/2000/svg" viewBox="0 0 360 90">
  <defs>
    <style>
      .cls-1 {
        fill: none;
      }

      .cls-2 {
        fill: #231f20;
      }
    </style>
  </defs>
  <path class="cls-1" d="M131.09,49.67c0,1.74.99,3.78,3.33,3.78,2.49,0,4.17-1.99,4.22-6.61v-1.69c-.75.1-1.39.25-2.09.35-3.83.65-5.47,1.94-5.47,4.17Z"/>
  <path class="cls-1" d="M166.62,34.61c-2.29,0-3.68,1.59-3.68,5.72,0,3.88,1.39,5.72,3.68,5.72,2.58,0,3.98-1.84,3.98-5.67,0-4.17-1.39-5.77-3.98-5.77Z"/>
  <path class="cls-1" d="M167.91,66.87c4.52,0,6.61-1.64,6.61-3.53,0-1.54-1.89-2.58-5.17-2.78l-6.81-.4c-.1,0-.25,0-.35-.05-.75.94-1.09,1.84-1.09,2.83,0,2.29,1.94,3.93,6.81,3.93Z"/>
  <path class="cls-1" d="M274.67,34.71c-2.09,0-3.88,1.09-4.27,6.86h7.95v-.05c.15-5.12-1.24-6.81-3.68-6.81Z"/>
  <path class="cls-2" d="M218.11,29.05c2.78,0,4.67-1.84,4.67-4.57s-1.89-4.72-4.67-4.72-4.62,1.89-4.62,4.72,1.79,4.57,4.62,4.57Z"/>
  <path class="cls-2" d="M200.51,41.22l-5.32-1.54c-2.78-.84-3.53-1.44-3.53-2.78s1.44-2.19,3.88-2.19c2.63,0,5.62.94,7.55,3.88h2.93l-.3-7.41h-3.13l-.6,1.94h-.05c-1.09-.75-3.33-1.79-6.66-1.79-5.72-.05-10.09,2.68-10.09,7.9,0,4.08,2.83,6.76,6.81,7.9l5.96,1.69c2.63.8,3.68,1.39,3.68,3.03,0,1.49-.8,2.58-4.13,2.58s-6.71-1.84-8.3-4.67h-3.28l.15,7.9h3.08l.75-1.99h.15c1.29,1.04,4.47,2.48,7.45,2.48,6.51,0,10.64-2.98,10.64-8.8,0-4.37-2.39-6.61-7.65-8.15Z"/>
  <path class="cls-2" d="M256.23,52.45v-11.93c0-6.86-4.37-9.05-8.75-9.05-3.48,0-6.16,1.44-8.05,4.97l.2-3.53-1.84-1.24c-3.18.35-6.31.65-9.49.8v2.88l1.24.25c1.19.25,1.94,1.04,1.94,3.28v13.57c0,.89-.65,1.39-1.29,1.49l-1.84.3v2.88h14.16v-2.93l-1.34-.25c-1.04-.2-1.44-.65-1.44-1.49v-10.09c0-4.72,2.49-6.06,4.57-6.06s3.63,1.34,3.63,5.52v10.64c0,.89-.6,1.34-1.24,1.49l-1.64.3v2.88h14.06v-2.93l-1.89-.3c-.65-.1-.99-.6-.99-1.44Z"/>
  <path class="cls-2" d="M222.63,52.45v-19.53l-1.79-1.24c-3.13.35-6.31.65-9.54.8v2.88l1.09.25c1.19.25,1.94,1.04,1.94,2.93v13.92c0,.89-.55,1.39-1.24,1.44l-1.74.35v2.88h14.21v-2.93l-1.89-.35c-.65-.1-1.04-.55-1.04-1.39Z"/>
  <path class="cls-2" d="M286.94,42.66c0-7.01-4.17-11.33-11.93-11.33-5.42,0-13.32,3.08-13.32,13.37,0,8.95,5.86,13.47,14.16,13.47,3.83,0,7.85-1.49,11.08-5.12l-1.59-2.78c-2.83,2.09-5.27,2.93-7.75,2.93-4.03,0-7.01-2.09-7.26-8.1h16.6s0-1.84,0-2.44ZM278.34,41.52v.05h-7.95c.4-5.77,2.19-6.86,4.27-6.86,2.44,0,3.83,1.69,3.68,6.81Z"/>
  <path class="cls-2" d="M179.29,26.61c-3.48,0-5.72,2.14-6.41,5.81-1.69-.6-3.78-.94-6.16-.94-7.7,0-12.23,3.23-12.23,8.85,0,3.98,2.29,6.76,6.36,8.05v.25c-3.23,1.44-5.37,2.93-5.37,6.01,0,1.99,1.99,3.98,4.42,4.92-3.88.35-6.56,1.89-6.56,4.52,0,3.43,2.98,6.16,12.67,6.16,8.85,0,16.05-4.03,16.05-11.18,0-3.13-2.53-5.96-10.04-6.41l-8.2-.45c-.84-.05-1.74-.5-1.74-1.44,0-.55.4-1.14,1.24-1.84,1.04.15,2.19.25,3.38.25,7.85,0,12.28-3.33,12.28-8.85,0-2.73-1.29-5.12-3.68-6.71.5-2.09,1.79-2.68,2.58-2.68.45,0,.5.1.89.3l-.5,2.53c.4.5,1.54.99,2.63.99,1.24,0,3.38-.84,3.38-3.88,0-2.04-1.24-4.27-5.02-4.27ZM162.2,60.11c.1.05.25.05.35.05l6.81.4c3.28.2,5.17,1.24,5.17,2.78,0,1.89-2.09,3.53-6.61,3.53-4.87,0-6.81-1.64-6.81-3.93,0-.99.35-1.89,1.09-2.83ZM166.62,46.04c-2.29,0-3.68-1.84-3.68-5.72,0-4.13,1.39-5.72,3.68-5.72,2.58,0,3.98,1.59,3.98,5.77,0,3.83-1.39,5.67-3.98,5.67Z"/>
  <path class="cls-2" d="M96.34,44.01l-6.91-19.78h-15.8v2.98l1.54.3c2.14.4,2.63,1.54,2.63,3.13v18.64c0,3.13-.65,4.42-2.78,4.72l-1.99.3v2.83h14.96v-2.83l-2.39-.25c-2.19-.25-3.13-1.59-3.13-4.77v-18.54l8.85,23.91h5.22l9.44-24.01v20.38c0,1.99-1.34,2.44-3.48,2.98l-.6.1v3.03h16.8v-3.03l-.94-.1c-2.24-.4-2.98-.94-2.98-3.03v-20.53c0-1.59.55-2.78,2.63-3.08l1.34-.2v-2.93h-14.76l-7.65,19.78Z"/>
  <path class="cls-2" d="M148.13,53.9c-.84,0-1.24-.7-1.24-1.99v-11.98c0-6.41-3.53-8.6-10.98-8.6s-12.13,2.58-12.13,6.91c0,2.04,1.19,3.63,3.88,3.63,2.39,0,3.98-.89,4.47-1.94l-1.34-4.52c.99-.45,1.89-.75,3.53-.75,2.88,0,4.32.89,4.32,5.62v1.84c-1.79.3-3.53.6-4.22.75-10.04,2.29-11.63,5.42-11.63,8.5,0,3.58,2.78,6.81,8.05,6.81,3.58,0,6.91-1.29,9.19-5.42.3,2.68,1.59,5.42,5.32,5.42,4.82,0,7.01-1.39,7.01-8.75h-2.73c0,3.18-.4,4.47-1.49,4.47ZM138.64,46.84c-.05,4.62-1.74,6.61-4.22,6.61-2.34,0-3.33-2.04-3.33-3.78,0-2.24,1.64-3.53,5.47-4.17.7-.1,1.34-.25,2.09-.35v1.69Z"/>
</svg>