<?xml version="1.0" encoding="UTF-8"?>
<svg id="Layer_1" data-name="Layer 1" xmlns="http://www.w3.org/2000/svg" viewBox="0 0 360 90">
  <defs>
    <style>
      .cls-1 {
        fill: none;
      }

      .cls-2 {
        fill: #231f20;
      }
    </style>
  </defs>
  <path class="cls-1" d="M257.18,36.14c-1.28,0-2.57.41-3.03.99-.47.53-.82,3.21-.93,6.59,7.47-.06,7.76-.23,7.76-1.28,0-4.44-.99-6.3-3.79-6.3Z"/>
  <path class="cls-1" d="M101.77,26.92c-.82,0-1.69.06-2.45.18v15.35c.93.23,2.1.35,3.09.35,2.63,0,4.2-.7,4.79-1.28.99-.99,1.81-3.91,1.81-7.12,0-5.6-2.51-7.47-7.24-7.47Z"/>
  <path class="cls-2" d="M102.64,21.43c-3.44,0-7.47.35-11.73.82v40.56h8.4v-13.71c11.5-1.05,18.56-7.06,18.56-16.46,0-8.7-5.89-11.21-15.23-11.21ZM107.2,41.51c-.58.58-2.16,1.28-4.79,1.28-.99,0-2.16-.12-3.09-.35v-15.35c.76-.12,1.63-.18,2.45-.18,4.73,0,7.24,1.87,7.24,7.47,0,3.21-.82,6.13-1.81,7.12Z"/>
  <path class="cls-2" d="M168.53,42.97c-3.62-2.45-5.54-3.74-5.54-5.31,0-.93.76-1.63,1.87-1.63,2.39,0,4.44,2.57,7.12,2.57,2.1,0,4.14-1.58,4.14-3.68,0-2.63-3.21-4.32-7.53-4.32-7.24,0-12.26,4.67-12.26,10.21,0,2.98,1.11,4.9,6.36,8.46,4.79,3.27,6.59,4.49,6.59,5.84,0,.82-.53,1.28-3.38,1.28-3.27,0-6.01-.18-8.05-.18-1.52,0-2.28.58-2.28,1.81,0,2.39,3.03,5.49,8.05,5.49,6.65.06,12.55-5.89,12.55-11.61,0-3.21-2.22-5.25-7.65-8.93Z"/>
  <path class="cls-2" d="M148.28,18.05c-3.09,0-5.02,1.98-5.02,4.49,0,2.8,1.93,6.59,4.49,6.59,2.16,0,4.61-2.8,4.61-6.3,0-3.09-1.58-4.79-4.09-4.79Z"/>
  <path class="cls-2" d="M137.54,31c-2.8,0-5.95,5.49-7.88,11.67v-11.38h-8.29v31.52h8.29v-16.22c0-3.27,3.15-2.74,5.89-3.74,2.1-.76,4.32-2.45,4.32-7.35,0-3.09-.88-4.49-2.33-4.49Z"/>
  <path class="cls-2" d="M196.08,37.13c1.63,0,2.51-2.28,2.51-4.32,0-1.34-.47-2.28-1.98-2.28-.58,0-1.34,0-4.14.35l-3.15.41v-6.48l-.93-.29c-3.62,3.38-7.24,5.89-10.86,7.88v1.58l3.62.58v21.42c0,4.84,2.68,7.53,7.18,7.53,4.14,0,7.65-2.28,10.27-6.48l-.99-1.05c-1.52.82-3.03,1.23-4.49,1.23-2.16,0-3.79-.88-3.79-3.91v-18.09c3.74,1.28,5.49,1.93,6.77,1.93Z"/>
  <rect class="cls-2" x="143.61" y="31.29" width="8.29" height="31.52"/>
  <path class="cls-2" d="M269.09,41.33c0-6.65-3.03-10.74-9.4-10.74-8.23,0-14.82,6.83-14.82,18.21,0,9.45,4.32,14.71,11.96,14.71,5.49,0,10.1-3.38,12.02-7.59l-.99-.93c-2.22,1.28-4.73,2.04-7.3,2.04-4.38,0-6.94-2.1-7.35-8.29l9.45-2.74c5.95-1.75,6.42-2.04,6.42-4.67ZM253.21,43.72c.12-3.38.47-6.07.93-6.59.47-.58,1.75-.99,3.03-.99,2.8,0,3.79,1.87,3.79,6.3,0,1.05-.29,1.23-7.76,1.28Z"/>
  <path class="cls-2" d="M233.43,30.59c-3.62,0-6.77,1.75-9.57,5.25v-4.55h-7.7v31.52h8.29v-24.69c.99-.64,2.63-1.11,4.14-1.11,2.86,0,4.14,1.58,4.14,4.96v20.83h8.29v-22.94c0-6.24-2.8-9.28-7.59-9.28Z"/>
  <path class="cls-2" d="M206.82,18.05c-3.09,0-5.02,1.98-5.02,4.49,0,2.8,1.93,6.59,4.49,6.59,2.16,0,4.61-2.8,4.61-6.3,0-3.09-1.58-4.79-4.08-4.79Z"/>
  <rect class="cls-2" x="202.15" y="31.29" width="8.29" height="31.52"/>
</svg>