<?xml version="1.0" encoding="UTF-8"?>
<svg id="Layer_1" data-name="Layer 1" xmlns="http://www.w3.org/2000/svg" viewBox="0 0 360 90">
  <defs>
    <style>
      .cls-1 {
        fill: none;
      }

      .cls-2 {
        fill: #231f20;
      }
    </style>
  </defs>
  <path class="cls-1" d="M84.61,31.55h-2.92v17.56c0,2.05.78,2.96,3.19,2.96,4.83,0,6.38-2.1,6.38-10.26s-1.64-10.26-6.66-10.26Z"/>
  <path class="cls-1" d="M234.54,51.02c0,1.46,1,2.42,2.64,2.42,1.73,0,3.19-.82,3.19-3.19v-3.24c-1.82,1-5.84,1.23-5.84,4.01Z"/>
  <path class="cls-2" d="M121.13,30.18c5.93,0,8.21-1.41,8.21-4.1s-2.28-4.1-8.21-4.1-8.21,1.32-8.21,4.1,2.28,4.1,8.21,4.1Z"/>
  <path class="cls-2" d="M156.56,40.39c-4.47-.27-8.53-.05-8.53-1.28,0-1.14,2.92-1.64,8.03-1.64,4.24,0,6.57.36,9.3.91l-1.6-5.93c-3.15-.27-6.89-.46-11.31-.46-12.08,0-18.56,3.56-18.56,9.85,0,7.48,5.34,8.94,12.9,9.35,3.88.23,7.11-.09,7.11,1.05s-2.74,1.64-8.89,1.64c-3.24,0-7.62-.73-11.67-1.37l1.6,5.93c4.42.55,8.98.91,14.96.91,12.13,0,18.15-3.06,18.15-9.85s-4.2-8.66-11.49-9.12Z"/>
  <path class="cls-2" d="M129.57,32l-18.01.46c1.41,3.78,1.82,7.75,1.82,13.22s-.41,9.58-1.82,13.22h19.15c-1.64-4.2-1.82-8.89-1.82-15.5,0-4.7.32-7.93.68-11.4Z"/>
  <path class="cls-2" d="M212.88,32.46l-3.69,15-3.69-15h-15.05l.78,3.28-2.87,11.72-3.69-15h-17.33c3.28,7.62,6.16,15.91,8.71,26.45h14.82l3.19-11.58,2.83,11.58h15.05c2.55-10.53,5.43-18.83,8.71-26.45h-7.75Z"/>
  <path class="cls-2" d="M255.88,42.26c0-7.71-4.65-10.26-16.32-10.26-5.2,0-10.72.73-14.68,1.82l-2.28,6.84c4.01-1.6,8.3-2.28,12.13-2.28s5.65.68,5.65,2.1c0,5.06-21.8.09-21.8,11.86,0,4.06,3.37,7.02,11.81,7.02,4.33,0,8.16-.73,11.13-3.6l1.14,3.15h15.5c-1.82-1.82-2.28-4.2-2.28-13.45v-3.19ZM240.37,50.24c0,2.37-1.46,3.19-3.19,3.19-1.64,0-2.64-.96-2.64-2.42,0-2.78,4.01-3.01,5.84-4.01v3.24Z"/>
  <path class="cls-2" d="M285.61,32.46l-5.06,14.14-5.06-14.14h-20.06c5.56,8.3,9.21,15.59,13.27,26.45l-5.52,9.12h16.19l3.47-9.12c4.1-10.85,7.71-18.15,13.27-26.45h-10.49Z"/>
  <path class="cls-2" d="M90.99,24.71h-27.09c1.37,4.56,1.82,10.4,1.82,17.1s-.46,12.54-1.82,17.1h27.09c12.4,0,17.15-5.52,17.15-17.1s-4.74-17.1-17.15-17.1ZM84.88,52.07c-2.42,0-3.19-.91-3.19-2.96v-17.56h2.92c5.02,0,6.66,2.1,6.66,10.26s-1.55,10.26-6.38,10.26Z"/>
</svg>