<?xml version="1.0" encoding="UTF-8"?>
<svg id="Layer_1" xmlns="http://www.w3.org/2000/svg" version="1.1" viewBox="0 0 360 90">
  <!-- Generator: Adobe Illustrator 29.7.1, SVG Export Plug-In . SVG Version: 2.1.1 Build 8)  -->
  <path d="M26.5,20.6c.5.6,1.2.7,1.8.2.7-.4,1.3-1.1,1.9-1.9.6-.8,1.1-1.8,1.7-2.9.5-.8.7-1.2.8-1.1,0,0-.1.9-.6,2.4-.5,1.6-1.1,3.8-2,6.6,2.8-.9,5-1.5,6.6-2,1.6-.5,2.4-.6,2.4-.6,0,0-.3.3-1.1.8-1.1.6-2,1.2-2.9,1.7-.8.6-1.5,1.2-1.9,1.9-.4.7-.4,1.3.2,1.8-.6-.6-1.2-.6-1.9-.1-.7.5-1.3,1.2-1.9,2-.6.8-1.2,1.9-1.9,3.1-.5.9-.7,1.3-.8,1.2s.2-.9.6-2.6c.5-1.7,1.2-4,2.2-7-2.9,1-5.2,1.7-6.8,2.3-1.6.6-2.5.8-2.5.8s.3-.3,1.1-.8c1.1-.7,2.1-1.3,2.9-2,.9-.6,1.5-1.3,2-2,.5-.7.4-1.3-.2-1.9ZM32.4,20.6c.6.6,1.2.7,1.8.2.7-.4,1.3-1.1,1.9-1.9.6-.8,1.1-1.8,1.7-2.9.5-.8.7-1.2.8-1.1,0,0-.1.9-.6,2.4-.5,1.6-1.1,3.8-2,6.6,2.8-.9,5-1.5,6.6-2,1.6-.5,2.4-.6,2.4-.6,0,0-.3.3-1.1.8-1.1.6-2,1.2-2.9,1.7-.8.6-1.5,1.2-1.9,1.9-.4.7-.4,1.3.2,1.8-.6-.6-1.2-.6-1.9-.1-.7.5-1.3,1.2-1.9,2-.6.8-1.2,1.9-1.9,3.1-.5.9-.7,1.3-.8,1.2,0,0,.2-.9.6-2.6.5-1.7,1.2-4,2.2-7-2.9,1-5.2,1.7-6.8,2.3-1.6.6-2.5.8-2.5.8,0,0,.3-.3,1.1-.8,1.1-.7,2.1-1.3,2.9-2,.9-.6,1.5-1.3,2-2,.5-.7.4-1.3-.2-1.9ZM32.4,26.5c.6.6,1.2.7,1.8.2.7-.4,1.3-1.1,1.9-1.9.6-.8,1.1-1.8,1.7-2.9.5-.8.7-1.2.8-1.1,0,0-.1.9-.6,2.4-.5,1.6-1.1,3.8-2,6.6,2.8-.9,5-1.5,6.6-2,1.6-.5,2.4-.6,2.4-.6,0,0-.3.3-1.1.8-1.1.6-2,1.2-2.9,1.7-.8.6-1.5,1.2-1.9,1.9-.4.7-.4,1.3.2,1.8-.6-.6-1.2-.6-1.9-.1-.7.5-1.3,1.2-1.9,2-.6.8-1.2,1.9-1.9,3.1-.5.9-.7,1.3-.8,1.2s.2-.9.6-2.6c.5-1.7,1.2-4,2.2-7-2.9,1-5.2,1.7-6.8,2.3-1.6.6-2.5.8-2.5.8,0,0,.3-.3,1.1-.8,1.1-.7,2.1-1.3,2.9-2,.9-.6,1.5-1.3,2-2,.5-.7.4-1.3-.2-1.9ZM32.4,32.4c.6.6,1.2.7,1.8.2.7-.4,1.3-1.1,1.9-1.9.6-.8,1.1-1.8,1.7-2.9.5-.8.7-1.2.8-1.1,0,0-.1.9-.6,2.4-.5,1.6-1.1,3.8-2,6.6,2.8-.9,5-1.5,6.6-2,1.6-.5,2.4-.6,2.4-.6,0,0-.3.3-1.1.8-1.1.6-2,1.2-2.9,1.7-.8.6-1.5,1.2-1.9,1.9-.4.7-.4,1.3.2,1.8-.6-.6-1.2-.6-1.9-.1-.7.5-1.3,1.2-1.9,2-.6.8-1.2,1.9-1.9,3.1-.5.9-.7,1.3-.8,1.2,0,0,.2-.9.6-2.6.5-1.7,1.2-4,2.2-7-2.9,1-5.2,1.7-6.8,2.3-1.6.6-2.5.8-2.5.8,0,0,.3-.3,1.1-.8,1.1-.7,2.1-1.3,2.9-2,.9-.6,1.5-1.3,2-2,.5-.7.4-1.3-.2-1.9ZM32.4,38.3c.6.6,1.2.7,1.8.2.7-.4,1.3-1.1,1.9-1.9.6-.8,1.1-1.8,1.7-2.9.5-.8.7-1.2.8-1.1,0,0-.1.9-.6,2.4-.5,1.6-1.1,3.8-2,6.6,2.8-.9,5-1.5,6.6-2,1.6-.5,2.4-.6,2.4-.6,0,0-.3.3-1.1.8-1.1.6-2,1.2-2.9,1.7-.8.6-1.5,1.2-1.9,1.9-.4.7-.4,1.3.2,1.8-.6-.6-1.2-.6-1.9-.1-.7.5-1.3,1.2-1.9,2-.6.8-1.2,1.9-1.9,3.1-.5.9-.7,1.3-.8,1.2s.2-.9.6-2.6c.5-1.7,1.2-4,2.2-7-2.9,1-5.2,1.7-6.8,2.3-1.6.6-2.5.8-2.5.8,0,0,.3-.3,1.1-.8,1.1-.7,2.1-1.3,2.9-2,.9-.6,1.5-1.3,2-2,.5-.7.4-1.3-.2-1.9ZM32.4,44.2c.6.6,1.2.7,1.8.2.7-.4,1.3-1.1,1.9-1.9.6-.8,1.1-1.8,1.7-2.9.5-.8.7-1.2.8-1.1,0,0-.1.9-.6,2.4-.5,1.6-1.1,3.8-2,6.6,2.8-.9,5-1.5,6.6-2,1.6-.5,2.4-.6,2.4-.6,0,0-.3.3-1.1.8-1.1.6-2,1.2-2.9,1.7-.8.6-1.5,1.2-1.9,1.9-.4.7-.4,1.3.2,1.8-.6-.6-1.2-.6-1.9-.1-.7.5-1.3,1.2-1.9,2-.6.8-1.2,1.9-1.9,3.1-.5.9-.7,1.3-.8,1.2s.2-.9.6-2.6c.5-1.7,1.2-4,2.2-7-2.9,1-5.2,1.7-6.8,2.3-1.6.6-2.5.8-2.5.8,0,0,.3-.3,1.1-.8,1.1-.7,2.1-1.3,2.9-2,.9-.6,1.5-1.3,2-2,.5-.7.4-1.3-.2-1.9ZM32.4,50.1c.6.6,1.2.7,1.8.2.7-.4,1.3-1.1,1.9-1.9.6-.8,1.1-1.8,1.7-2.9.5-.8.7-1.2.8-1.1,0,0-.1.9-.6,2.4-.5,1.6-1.1,3.8-2,6.6,2.8-.9,5-1.5,6.6-2,1.6-.5,2.4-.6,2.4-.6,0,0-.3.3-1.1.8-1.1.6-2,1.2-2.9,1.7-.8.6-1.5,1.2-1.9,1.9-.4.7-.4,1.3.2,1.8-.6-.6-1.2-.6-1.9-.1-.7.5-1.3,1.2-1.9,2-.6.8-1.2,1.9-1.9,3.1-.5.9-.7,1.3-.8,1.2,0,0,.2-.9.6-2.6.5-1.7,1.2-4,2.2-7-2.9,1-5.2,1.7-6.8,2.3-1.6.6-2.5.8-2.5.8,0,0,.3-.3,1.1-.8,1.1-.7,2.1-1.3,2.9-2,.9-.6,1.5-1.3,2-2,.5-.7.4-1.3-.2-1.9ZM32.4,56c.6.6,1.2.7,1.8.2.7-.4,1.3-1.1,1.9-1.9.6-.8,1.1-1.8,1.7-2.9.5-.8.7-1.2.8-1.1,0,0-.1.9-.6,2.4-.5,1.6-1.1,3.8-2,6.6,2.8-.9,5-1.5,6.6-2,1.6-.5,2.4-.6,2.4-.6,0,0-.3.3-1.1.8-1.1.6-2,1.2-2.9,1.7-.8.6-1.5,1.2-1.9,1.9-.4.7-.4,1.3.2,1.8-.6-.6-1.2-.6-1.9-.1-.7.5-1.3,1.2-1.9,2-.6.8-1.2,1.9-1.9,3.1-.5.9-.7,1.3-.8,1.2s.2-.9.6-2.6c.5-1.7,1.2-4,2.2-7-2.9,1-5.2,1.7-6.8,2.3-1.6.5-2.5.8-2.5.8s.3-.3,1.1-.8c1.1-.7,2.1-1.3,2.9-2,.9-.6,1.5-1.3,2-2,.5-.7.4-1.3-.2-1.9ZM38.3,20.6c.5.6,1.2.7,1.8.2.7-.4,1.3-1.1,1.9-1.9.6-.8,1.1-1.8,1.7-2.9.5-.8.7-1.2.8-1.1,0,0-.1.9-.6,2.4-.5,1.6-1.1,3.8-2,6.6,2.8-.9,5-1.5,6.6-2,1.6-.5,2.4-.6,2.4-.6,0,0-.3.3-1.1.8-1.1.6-2,1.2-2.9,1.7-.8.6-1.5,1.2-1.9,1.9-.4.7-.4,1.3.2,1.8-.6-.6-1.2-.6-1.9-.1-.7.5-1.3,1.2-1.9,2-.6.8-1.2,1.9-1.9,3.1-.5.9-.7,1.3-.8,1.2s.2-.9.6-2.6c.5-1.7,1.2-4,2.2-7-2.9,1-5.2,1.7-6.8,2.3-1.6.6-2.5.8-2.5.8,0,0,.3-.3,1.1-.8,1.1-.7,2.1-1.3,2.9-2,.9-.6,1.5-1.3,2-2,.5-.7.4-1.3-.2-1.9Z"/>
  <path d="M45.1,32.4c.5.6,1.2.7,1.8.2.7-.4,1.3-1.1,1.9-1.9.6-.8,1.1-1.8,1.7-2.9.5-.8.7-1.2.8-1.1,0,0-.1.9-.6,2.4-.5,1.6-1.1,3.8-2,6.6,2.8-.9,5-1.5,6.6-2,1.6-.5,2.4-.6,2.4-.6,0,0-.3.3-1.1.8-1.1.6-2,1.2-2.9,1.7-.8.6-1.5,1.2-1.9,1.9-.4.7-.4,1.3.2,1.8-.6-.6-1.2-.6-1.9-.1-.7.5-1.3,1.2-1.9,2-.6.8-1.2,1.9-1.9,3.1-.5.9-.7,1.3-.8,1.2s.2-.9.6-2.6c.5-1.7,1.2-4,2.2-7-2.9,1-5.2,1.7-6.8,2.3-1.6.6-2.5.8-2.5.8,0,0,.3-.3,1.1-.8,1.1-.7,2.1-1.3,2.9-2,.9-.6,1.5-1.3,2-2,.5-.7.4-1.3-.2-1.9ZM45.1,38.3c.5.6,1.2.7,1.8.2.7-.4,1.3-1.1,1.9-1.9.6-.8,1.1-1.8,1.7-2.9.5-.8.7-1.2.8-1.1,0,0-.1.9-.6,2.4-.5,1.6-1.1,3.8-2,6.6,2.8-.9,5-1.5,6.6-2,1.6-.5,2.4-.6,2.4-.6,0,0-.3.3-1.1.8-1.1.6-2,1.2-2.9,1.7-.8.6-1.5,1.2-1.9,1.9-.4.7-.4,1.3.2,1.8-.6-.6-1.2-.6-1.9-.1-.7.5-1.3,1.2-1.9,2-.6.8-1.2,1.9-1.9,3.1-.5.9-.7,1.3-.8,1.2,0,0,.2-.9.6-2.6.5-1.7,1.2-4,2.2-7-2.9,1-5.2,1.7-6.8,2.3-1.6.6-2.5.8-2.5.8s.3-.3,1.1-.8c1.1-.7,2.1-1.3,2.9-2,.9-.6,1.5-1.3,2-2,.5-.7.4-1.3-.2-1.9ZM45.1,44.2c.5.6,1.2.7,1.8.2.7-.4,1.3-1.1,1.9-1.9.6-.8,1.1-1.8,1.7-2.9.5-.8.7-1.2.8-1.1,0,0-.1.9-.6,2.4-.5,1.6-1.1,3.8-2,6.6,2.8-.9,5-1.5,6.6-2,1.6-.5,2.4-.6,2.4-.6,0,0-.3.3-1.1.8-1.1.6-2,1.2-2.9,1.7-.8.6-1.5,1.2-1.9,1.9-.4.7-.4,1.3.2,1.8-.6-.6-1.2-.6-1.9-.1-.7.5-1.3,1.2-1.9,2-.6.8-1.2,1.9-1.9,3.1-.5.9-.7,1.3-.8,1.2,0,0,.2-.9.6-2.6.5-1.7,1.2-4,2.2-7-2.9,1-5.2,1.7-6.8,2.3-1.6.6-2.5.8-2.5.8s.3-.3,1.1-.8c1.1-.7,2.1-1.3,2.9-2,.9-.6,1.5-1.3,2-2,.5-.7.4-1.3-.2-1.9ZM45.1,50.1c.5.6,1.2.7,1.8.2.7-.4,1.3-1.1,1.9-1.9.6-.8,1.1-1.8,1.7-2.9.5-.8.7-1.2.8-1.1,0,0-.1.9-.6,2.4-.5,1.6-1.1,3.8-2,6.6,2.8-.9,5-1.5,6.6-2,1.6-.5,2.4-.6,2.4-.6,0,0-.3.3-1.1.8-1.1.6-2,1.2-2.9,1.7-.8.6-1.5,1.2-1.9,1.9-.4.7-.4,1.3.2,1.8-.6-.6-1.2-.6-1.9-.1-.7.5-1.3,1.2-1.9,2-.6.8-1.2,1.9-1.9,3.1-.5.9-.7,1.3-.8,1.2s.2-.9.6-2.6c.5-1.7,1.2-4,2.2-7-2.9,1-5.2,1.7-6.8,2.3-1.6.6-2.5.8-2.5.8s.3-.3,1.1-.8c1.1-.7,2.1-1.3,2.9-2,.9-.6,1.5-1.3,2-2,.5-.7.4-1.3-.2-1.9ZM45.1,56c.5.6,1.2.7,1.8.2.7-.4,1.3-1.1,1.9-1.9.6-.8,1.1-1.8,1.7-2.9.5-.8.7-1.2.8-1.1,0,0-.1.9-.6,2.4-.5,1.6-1.1,3.8-2,6.6,2.8-.9,5-1.5,6.6-2,1.6-.5,2.4-.6,2.4-.6,0,0-.3.3-1.1.8-1.1.6-2,1.2-2.9,1.7-.8.6-1.5,1.2-1.9,1.9-.4.7-.4,1.3.2,1.8-.6-.6-1.2-.6-1.9-.1-.7.5-1.3,1.2-1.9,2-.6.8-1.2,1.9-1.9,3.1-.5.9-.7,1.3-.8,1.2,0,0,.2-.9.6-2.6.5-1.7,1.2-4,2.2-7-2.9,1-5.2,1.7-6.8,2.3-1.6.5-2.5.8-2.5.8,0,0,.3-.3,1.1-.8,1.1-.7,2.1-1.3,2.9-2,.9-.6,1.5-1.3,2-2,.5-.7.4-1.3-.2-1.9ZM45.1,67.8c.5.6,1.2.7,1.8.2.7-.4,1.3-1.1,1.9-1.9.6-.8,1.1-1.8,1.7-2.9.5-.8.7-1.2.8-1.1,0,0-.1.9-.6,2.4-.5,1.6-1.1,3.8-2,6.6,2.8-.9,5-1.5,6.6-2,1.6-.5,2.4-.6,2.4-.6,0,0-.3.3-1.1.8-1.1.6-2,1.2-2.9,1.7-.8.6-1.5,1.2-1.9,1.9-.4.7-.4,1.3.2,1.8-.6-.6-1.2-.6-1.9-.1-.7.5-1.3,1.2-1.9,2-.6.8-1.2,1.9-1.9,3.1-.5.9-.7,1.3-.8,1.2,0,0,.2-.9.6-2.6.5-1.7,1.2-4,2.2-7-2.9,1-5.2,1.7-6.8,2.3-1.6.6-2.5.8-2.5.8,0,0,.3-.3,1.1-.8,1.1-.7,2.1-1.3,2.9-2,.9-.6,1.5-1.3,2-2,.5-.7.4-1.3-.2-1.9ZM51,56c.6.6,1.2.7,1.8.2.7-.4,1.3-1.1,1.9-1.9.6-.8,1.1-1.8,1.7-2.9.5-.8.7-1.2.8-1.1,0,0-.1.9-.6,2.4-.5,1.6-1.1,3.8-2,6.6,2.8-.9,5-1.5,6.6-2,1.6-.5,2.4-.6,2.4-.6,0,0-.3.3-1.1.8-1.1.6-2,1.2-2.9,1.7-.8.6-1.5,1.2-1.9,1.9-.4.7-.4,1.3.2,1.8-.6-.6-1.2-.6-1.9-.1-.7.5-1.3,1.2-1.9,2-.6.8-1.2,1.9-1.9,3.1-.5.9-.7,1.3-.8,1.2s.2-.9.6-2.6c.5-1.7,1.2-4,2.2-7-2.9,1-5.2,1.7-6.8,2.3-1.6.5-2.5.8-2.5.8s.3-.3,1.1-.8c1.1-.7,2.1-1.3,2.9-2,.9-.6,1.5-1.3,2-2,.5-.7.4-1.3-.2-1.9ZM51,67.8c.6.6,1.2.7,1.8.2.7-.4,1.3-1.1,1.9-1.9.6-.8,1.1-1.8,1.7-2.9.5-.8.7-1.2.8-1.1,0,0-.1.9-.6,2.4-.5,1.6-1.1,3.8-2,6.6,2.8-.9,5-1.5,6.6-2,1.6-.5,2.4-.6,2.4-.6,0,0-.3.3-1.1.8-1.1.6-2,1.2-2.9,1.7-.8.6-1.5,1.2-1.9,1.9-.4.7-.4,1.3.2,1.8-.6-.6-1.2-.6-1.9-.1-.7.5-1.3,1.2-1.9,2-.6.8-1.2,1.9-1.9,3.1-.5.9-.7,1.3-.8,1.2s.2-.9.6-2.6c.5-1.7,1.2-4,2.2-7-2.9,1-5.2,1.7-6.8,2.3-1.6.6-2.5.8-2.5.8s.3-.3,1.1-.8c1.1-.7,2.1-1.3,2.9-2,.9-.6,1.5-1.3,2-2,.5-.7.4-1.3-.2-1.9ZM56.9,32.4c.5.6,1.2.7,1.8.2.7-.4,1.3-1.1,1.9-1.9.6-.8,1.1-1.8,1.7-2.9.5-.8.7-1.2.8-1.1,0,0-.1.9-.6,2.4-.5,1.6-1.1,3.8-2,6.6,2.8-.9,5-1.5,6.6-2,1.6-.5,2.4-.6,2.4-.6,0,0-.3.3-1.1.8-1.1.6-2,1.2-2.9,1.7-.8.6-1.5,1.2-1.9,1.9-.4.7-.4,1.3.2,1.8-.6-.6-1.2-.6-1.9-.1-.7.5-1.3,1.2-1.9,2-.6.8-1.2,1.9-1.9,3.1-.5.9-.7,1.3-.8,1.2s.2-.9.6-2.6c.5-1.7,1.2-4,2.2-7-2.9,1-5.2,1.7-6.8,2.3-1.6.6-2.5.8-2.5.8,0,0,.3-.3,1.1-.8,1.1-.7,2.1-1.3,2.9-2,.9-.6,1.5-1.3,2-2,.5-.7.4-1.3-.2-1.9ZM56.9,38.3c.5.6,1.2.7,1.8.2.7-.4,1.3-1.1,1.9-1.9.6-.8,1.1-1.8,1.7-2.9.5-.8.7-1.2.8-1.1,0,0-.1.9-.6,2.4-.5,1.6-1.1,3.8-2,6.6,2.8-.9,5-1.5,6.6-2,1.6-.5,2.4-.6,2.4-.6,0,0-.3.3-1.1.8-1.1.6-2,1.2-2.9,1.7-.8.6-1.5,1.2-1.9,1.9-.4.7-.4,1.3.2,1.8-.6-.6-1.2-.6-1.9-.1-.7.5-1.3,1.2-1.9,2-.6.8-1.2,1.9-1.9,3.1-.5.9-.7,1.3-.8,1.2,0,0,.2-.9.6-2.6.5-1.7,1.2-4,2.2-7-2.9,1-5.2,1.7-6.8,2.3-1.6.6-2.5.8-2.5.8,0,0,.3-.3,1.1-.8,1.1-.7,2.1-1.3,2.9-2,.9-.6,1.5-1.3,2-2,.5-.7.4-1.3-.2-1.9ZM56.9,44.2c.5.6,1.2.7,1.8.2.7-.4,1.3-1.1,1.9-1.9.6-.8,1.1-1.8,1.7-2.9.5-.8.7-1.2.8-1.1,0,0-.1.9-.6,2.4-.5,1.6-1.1,3.8-2,6.6,2.8-.9,5-1.5,6.6-2,1.6-.5,2.4-.6,2.4-.6,0,0-.3.3-1.1.8-1.1.6-2,1.2-2.9,1.7-.8.6-1.5,1.2-1.9,1.9-.4.7-.4,1.3.2,1.8-.6-.6-1.2-.6-1.9-.1-.7.5-1.3,1.2-1.9,2-.6.8-1.2,1.9-1.9,3.1-.5.9-.7,1.3-.8,1.2,0,0,.2-.9.6-2.6.5-1.7,1.2-4,2.2-7-2.9,1-5.2,1.7-6.8,2.3-1.6.6-2.5.8-2.5.8,0,0,.3-.3,1.1-.8,1.1-.7,2.1-1.3,2.9-2,.9-.6,1.5-1.3,2-2,.5-.7.4-1.3-.2-1.9ZM56.9,50.1c.5.6,1.2.7,1.8.2.7-.4,1.3-1.1,1.9-1.9.6-.8,1.1-1.8,1.7-2.9.5-.8.7-1.2.8-1.1,0,0-.1.9-.6,2.4-.5,1.6-1.1,3.8-2,6.6,2.8-.9,5-1.5,6.6-2,1.6-.5,2.4-.6,2.4-.6,0,0-.3.3-1.1.8-1.1.6-2,1.2-2.9,1.7-.8.6-1.5,1.2-1.9,1.9-.4.7-.4,1.3.2,1.8-.6-.6-1.2-.6-1.9-.1-.7.5-1.3,1.2-1.9,2-.6.8-1.2,1.9-1.9,3.1-.5.9-.7,1.3-.8,1.2s.2-.9.6-2.6c.5-1.7,1.2-4,2.2-7-2.9,1-5.2,1.7-6.8,2.3-1.6.6-2.5.8-2.5.8,0,0,.3-.3,1.1-.8,1.1-.7,2.1-1.3,2.9-2,.9-.6,1.5-1.3,2-2,.5-.7.4-1.3-.2-1.9ZM56.9,56c.5.6,1.2.7,1.8.2.7-.4,1.3-1.1,1.9-1.9.6-.8,1.1-1.8,1.7-2.9.5-.8.7-1.2.8-1.1,0,0-.1.9-.6,2.4-.5,1.6-1.1,3.8-2,6.6,2.8-.9,5-1.5,6.6-2,1.6-.5,2.4-.6,2.4-.6,0,0-.3.3-1.1.8-1.1.6-2,1.2-2.9,1.7-.8.6-1.5,1.2-1.9,1.9-.4.7-.4,1.3.2,1.8-.6-.6-1.2-.6-1.9-.1-.7.5-1.3,1.2-1.9,2-.6.8-1.2,1.9-1.9,3.1-.5.9-.7,1.3-.8,1.2,0,0,.2-.9.6-2.6.5-1.7,1.2-4,2.2-7-2.9,1-5.2,1.7-6.8,2.3-1.6.5-2.5.8-2.5.8s.3-.3,1.1-.8c1.1-.7,2.1-1.3,2.9-2,.9-.6,1.5-1.3,2-2,.5-.7.4-1.3-.2-1.9ZM56.9,61.9c.5.6,1.2.7,1.8.2.7-.4,1.3-1.1,1.9-1.9.6-.8,1.1-1.8,1.7-2.9.5-.8.7-1.2.8-1.1,0,0-.1.9-.6,2.4-.5,1.6-1.1,3.8-2,6.6,2.8-.9,5-1.5,6.6-2,1.6-.5,2.4-.6,2.4-.6,0,0-.3.3-1.1.8-1.1.6-2,1.2-2.9,1.7-.8.6-1.5,1.2-1.9,1.9-.4.7-.4,1.3.2,1.8-.6-.6-1.2-.6-1.9-.1-.7.5-1.3,1.2-1.9,2-.6.8-1.2,1.9-1.9,3.1-.5.9-.7,1.3-.8,1.2s.2-.9.6-2.6c.5-1.7,1.2-4,2.2-7-2.9,1-5.2,1.7-6.8,2.3-1.6.6-2.5.8-2.5.8s.3-.3,1.1-.8c1.1-.7,2.1-1.3,2.9-2,.9-.6,1.5-1.3,2-2,.5-.7.4-1.3-.2-1.9Z"/>
  <path d="M69.7,38.3c.5.6,1.2.7,1.8.2.7-.4,1.3-1.1,1.9-1.9.6-.8,1.1-1.8,1.7-2.9.5-.8.7-1.2.8-1.1,0,0-.1.9-.6,2.4-.5,1.6-1.1,3.8-2,6.6,2.8-.9,5-1.5,6.6-2,1.6-.5,2.4-.6,2.4-.6,0,0-.3.3-1.1.8-1.1.6-2,1.2-2.9,1.7-.8.6-1.5,1.2-1.9,1.9-.4.7-.4,1.3.2,1.8-.6-.6-1.2-.6-1.9-.1-.7.5-1.3,1.2-1.9,2-.6.8-1.2,1.9-1.9,3.1-.5.9-.7,1.3-.8,1.2,0,0,.2-.9.6-2.6.5-1.7,1.2-4,2.2-7-2.9,1-5.2,1.7-6.8,2.3-1.6.6-2.5.8-2.5.8s.3-.3,1.1-.8c1.1-.7,2.1-1.3,2.9-2,.9-.6,1.5-1.3,2-2,.5-.7.4-1.3-.2-1.9ZM69.7,44.2c.5.6,1.2.7,1.8.2.7-.4,1.3-1.1,1.9-1.9.6-.8,1.1-1.8,1.7-2.9.5-.8.7-1.2.8-1.1,0,0-.1.9-.6,2.4-.5,1.6-1.1,3.8-2,6.6,2.8-.9,5-1.5,6.6-2,1.6-.5,2.4-.6,2.4-.6,0,0-.3.3-1.1.8-1.1.6-2,1.2-2.9,1.7-.8.6-1.5,1.2-1.9,1.9-.4.7-.4,1.3.2,1.8-.6-.6-1.2-.6-1.9-.1-.7.5-1.3,1.2-1.9,2-.6.8-1.2,1.9-1.9,3.1-.5.9-.7,1.3-.8,1.2,0,0,.2-.9.6-2.6.5-1.7,1.2-4,2.2-7-2.9,1-5.2,1.7-6.8,2.3-1.6.6-2.5.8-2.5.8s.3-.3,1.1-.8c1.1-.7,2.1-1.3,2.9-2,.9-.6,1.5-1.3,2-2,.5-.7.4-1.3-.2-1.9ZM69.7,50.1c.5.6,1.2.7,1.8.2.7-.4,1.3-1.1,1.9-1.9.6-.8,1.1-1.8,1.7-2.9.5-.8.7-1.2.8-1.1,0,0-.1.9-.6,2.4-.5,1.6-1.1,3.8-2,6.6,2.8-.9,5-1.5,6.6-2,1.6-.5,2.4-.6,2.4-.6,0,0-.3.3-1.1.8-1.1.6-2,1.2-2.9,1.7-.8.6-1.5,1.2-1.9,1.9-.4.7-.4,1.3.2,1.8-.6-.6-1.2-.6-1.9-.1-.7.5-1.3,1.2-1.9,2-.6.8-1.2,1.9-1.9,3.1-.5.9-.7,1.3-.8,1.2s.2-.9.6-2.6c.5-1.7,1.2-4,2.2-7-2.9,1-5.2,1.7-6.8,2.3-1.6.6-2.5.8-2.5.8s.3-.3,1.1-.8c1.1-.7,2.1-1.3,2.9-2,.9-.6,1.5-1.3,2-2,.5-.7.4-1.3-.2-1.9ZM69.7,56c.5.6,1.2.7,1.8.2.7-.4,1.3-1.1,1.9-1.9.6-.8,1.1-1.8,1.7-2.9.5-.8.7-1.2.8-1.1,0,0-.1.9-.6,2.4-.5,1.6-1.1,3.8-2,6.6,2.8-.9,5-1.5,6.6-2,1.6-.5,2.4-.6,2.4-.6,0,0-.3.3-1.1.8-1.1.6-2,1.2-2.9,1.7-.8.6-1.5,1.2-1.9,1.9-.4.7-.4,1.3.2,1.8-.6-.6-1.2-.6-1.9-.1-.7.5-1.3,1.2-1.9,2-.6.8-1.2,1.9-1.9,3.1-.5.9-.7,1.3-.8,1.2,0,0,.2-.9.6-2.6.5-1.7,1.2-4,2.2-7-2.9,1-5.2,1.7-6.8,2.3-1.6.5-2.5.8-2.5.8,0,0,.3-.3,1.1-.8,1.1-.7,2.1-1.3,2.9-2,.9-.6,1.5-1.3,2-2,.5-.7.4-1.3-.2-1.9ZM69.7,61.9c.5.6,1.2.7,1.8.2.7-.4,1.3-1.1,1.9-1.9.6-.8,1.1-1.8,1.7-2.9.5-.8.7-1.2.8-1.1,0,0-.1.9-.6,2.4-.5,1.6-1.1,3.8-2,6.6,2.8-.9,5-1.5,6.6-2,1.6-.5,2.4-.6,2.4-.6,0,0-.3.3-1.1.8-1.1.6-2,1.2-2.9,1.7-.8.6-1.5,1.2-1.9,1.9-.4.7-.4,1.3.2,1.8-.6-.6-1.2-.6-1.9-.1-.7.5-1.3,1.2-1.9,2-.6.8-1.2,1.9-1.9,3.1-.5.9-.7,1.3-.8,1.2s.2-.9.6-2.6c.5-1.7,1.2-4,2.2-7-2.9,1-5.2,1.7-6.8,2.3-1.6.6-2.5.8-2.5.8,0,0,.3-.3,1.1-.8,1.1-.7,2.1-1.3,2.9-2,.9-.6,1.5-1.3,2-2,.5-.7.4-1.3-.2-1.9ZM69.7,67.8c.5.6,1.2.7,1.8.2.7-.4,1.3-1.1,1.9-1.9.6-.8,1.1-1.8,1.7-2.9.5-.8.7-1.2.8-1.1,0,0-.1.9-.6,2.4-.5,1.6-1.1,3.8-2,6.6,2.8-.9,5-1.5,6.6-2,1.6-.5,2.4-.6,2.4-.6,0,0-.3.3-1.1.8-1.1.6-2,1.2-2.9,1.7-.8.6-1.5,1.2-1.9,1.9-.4.7-.4,1.3.2,1.8-.6-.6-1.2-.6-1.9-.1-.7.5-1.3,1.2-1.9,2-.6.8-1.2,1.9-1.9,3.1-.5.9-.7,1.3-.8,1.2,0,0,.2-.9.6-2.6.5-1.7,1.2-4,2.2-7-2.9,1-5.2,1.7-6.8,2.3-1.6.6-2.5.8-2.5.8,0,0,.3-.3,1.1-.8,1.1-.7,2.1-1.3,2.9-2,.9-.6,1.5-1.3,2-2,.5-.7.4-1.3-.2-1.9ZM75.6,32.4c.6.6,1.2.7,1.8.2.7-.4,1.3-1.1,1.9-1.9.6-.8,1.1-1.8,1.7-2.9.5-.8.7-1.2.8-1.1,0,0-.1.9-.6,2.4-.5,1.6-1.1,3.8-2,6.6,2.8-.9,5-1.5,6.6-2,1.6-.5,2.4-.6,2.4-.6,0,0-.3.3-1.1.8-1.1.6-2,1.2-2.9,1.7-.8.6-1.5,1.2-1.9,1.9-.4.7-.4,1.3.2,1.8-.6-.6-1.2-.6-1.9-.1-.7.5-1.3,1.2-1.9,2-.6.8-1.2,1.9-1.9,3.1-.5.9-.7,1.3-.8,1.2,0,0,.2-.9.6-2.6.5-1.7,1.2-4,2.2-7-2.9,1-5.2,1.7-6.8,2.3-1.6.6-2.5.8-2.5.8,0,0,.3-.3,1.1-.8,1.1-.7,2.1-1.3,2.9-2,.9-.6,1.5-1.3,2-2,.5-.7.4-1.3-.2-1.9ZM75.6,56c.6.6,1.2.7,1.8.2.7-.4,1.3-1.1,1.9-1.9.6-.8,1.1-1.8,1.7-2.9.5-.8.7-1.2.8-1.1,0,0-.1.9-.6,2.4-.5,1.6-1.1,3.8-2,6.6,2.8-.9,5-1.5,6.6-2,1.6-.5,2.4-.6,2.4-.6,0,0-.3.3-1.1.8-1.1.6-2,1.2-2.9,1.7-.8.6-1.5,1.2-1.9,1.9-.4.7-.4,1.3.2,1.8-.6-.6-1.2-.6-1.9-.1-.7.5-1.3,1.2-1.9,2-.6.8-1.2,1.9-1.9,3.1-.5.9-.7,1.3-.8,1.2s.2-.9.6-2.6c.5-1.7,1.2-4,2.2-7-2.9,1-5.2,1.7-6.8,2.3-1.6.5-2.5.8-2.5.8s.3-.3,1.1-.8c1.1-.7,2.1-1.3,2.9-2,.9-.6,1.5-1.3,2-2,.5-.7.4-1.3-.2-1.9ZM81.4,32.4c.5.6,1.2.7,1.8.2.7-.4,1.3-1.1,1.9-1.9.6-.8,1.1-1.8,1.7-2.9.5-.8.7-1.2.8-1.1,0,0-.1.9-.6,2.4-.5,1.6-1.1,3.8-2,6.6,2.8-.9,5-1.5,6.6-2,1.6-.5,2.4-.6,2.4-.6,0,0-.3.3-1.1.8-1.1.6-2,1.2-2.9,1.7-.8.6-1.5,1.2-1.9,1.9-.4.7-.4,1.3.2,1.8-.6-.6-1.2-.6-1.9-.1-.7.5-1.3,1.2-1.9,2-.6.8-1.2,1.9-1.9,3.1-.5.9-.7,1.3-.8,1.2s.2-.9.6-2.6c.5-1.7,1.2-4,2.2-7-2.9,1-5.2,1.7-6.8,2.3-1.6.6-2.5.8-2.5.8,0,0,.3-.3,1.1-.8,1.1-.7,2.1-1.3,2.9-2,.9-.6,1.5-1.3,2-2,.5-.7.4-1.3-.2-1.9ZM81.4,38.3c.5.6,1.2.7,1.8.2.7-.4,1.3-1.1,1.9-1.9.6-.8,1.1-1.8,1.7-2.9.5-.8.7-1.2.8-1.1,0,0-.1.9-.6,2.4-.5,1.6-1.1,3.8-2,6.6,2.8-.9,5-1.5,6.6-2,1.6-.5,2.4-.6,2.4-.6,0,0-.3.3-1.1.8-1.1.6-2,1.2-2.9,1.7-.8.6-1.5,1.2-1.9,1.9-.4.7-.4,1.3.2,1.8-.6-.6-1.2-.6-1.9-.1-.7.5-1.3,1.2-1.9,2-.6.8-1.2,1.9-1.9,3.1-.5.9-.7,1.3-.8,1.2,0,0,.2-.9.6-2.6.5-1.7,1.2-4,2.2-7-2.9,1-5.2,1.7-6.8,2.3-1.6.6-2.5.8-2.5.8,0,0,.3-.3,1.1-.8,1.1-.7,2.1-1.3,2.9-2,.9-.6,1.5-1.3,2-2,.5-.7.4-1.3-.2-1.9ZM81.4,44.2c.5.6,1.2.7,1.8.2.7-.4,1.3-1.1,1.9-1.9.6-.8,1.1-1.8,1.7-2.9.5-.8.7-1.2.8-1.1,0,0-.1.9-.6,2.4-.5,1.6-1.1,3.8-2,6.6,2.8-.9,5-1.5,6.6-2,1.6-.5,2.4-.6,2.4-.6,0,0-.3.3-1.1.8-1.1.6-2,1.2-2.9,1.7-.8.6-1.5,1.2-1.9,1.9-.4.7-.4,1.3.2,1.8-.6-.6-1.2-.6-1.9-.1-.7.5-1.3,1.2-1.9,2-.6.8-1.2,1.9-1.9,3.1-.5.9-.7,1.3-.8,1.2,0,0,.2-.9.6-2.6.5-1.7,1.2-4,2.2-7-2.9,1-5.2,1.7-6.8,2.3-1.6.6-2.5.8-2.5.8,0,0,.3-.3,1.1-.8,1.1-.7,2.1-1.3,2.9-2,.9-.6,1.5-1.3,2-2,.5-.7.4-1.3-.2-1.9ZM81.4,50.1c.5.6,1.2.7,1.8.2.7-.4,1.3-1.1,1.9-1.9.6-.8,1.1-1.8,1.7-2.9.5-.8.7-1.2.8-1.1,0,0-.1.9-.6,2.4-.5,1.6-1.1,3.8-2,6.6,2.8-.9,5-1.5,6.6-2,1.6-.5,2.4-.6,2.4-.6,0,0-.3.3-1.1.8-1.1.6-2,1.2-2.9,1.7-.8.6-1.5,1.2-1.9,1.9-.4.7-.4,1.3.2,1.8-.6-.6-1.2-.6-1.9-.1-.7.5-1.3,1.2-1.9,2-.6.8-1.2,1.9-1.9,3.1-.5.9-.7,1.3-.8,1.2s.2-.9.6-2.6c.5-1.7,1.2-4,2.2-7-2.9,1-5.2,1.7-6.8,2.3-1.6.6-2.5.8-2.5.8,0,0,.3-.3,1.1-.8,1.1-.7,2.1-1.3,2.9-2,.9-.6,1.5-1.3,2-2,.5-.7.4-1.3-.2-1.9Z"/>
  <path d="M94.2,38.3c.5.6,1.2.7,1.8.2.7-.4,1.3-1.1,1.9-1.9.6-.8,1.1-1.8,1.7-2.9.5-.8.7-1.2.8-1.1,0,0-.1.9-.6,2.4-.5,1.6-1.1,3.8-2,6.6,2.8-.9,5-1.5,6.6-2,1.6-.5,2.4-.6,2.4-.6,0,0-.3.3-1.1.8-1.1.6-2,1.2-2.9,1.7-.8.6-1.5,1.2-1.9,1.9-.4.7-.4,1.3.2,1.8-.6-.6-1.2-.6-1.9-.1-.7.5-1.3,1.2-1.9,2-.6.8-1.2,1.9-1.9,3.1-.5.9-.7,1.3-.8,1.2,0,0,.2-.9.6-2.6.5-1.7,1.2-4,2.2-7-2.9,1-5.2,1.7-6.8,2.3-1.6.6-2.5.8-2.5.8s.3-.3,1.1-.8c1.1-.7,2.1-1.3,2.9-2,.9-.6,1.5-1.3,2-2,.5-.7.4-1.3-.2-1.9ZM94.2,44.2c.5.6,1.2.7,1.8.2.7-.4,1.3-1.1,1.9-1.9.6-.8,1.1-1.8,1.7-2.9.5-.8.7-1.2.8-1.1,0,0-.1.9-.6,2.4-.5,1.6-1.1,3.8-2,6.6,2.8-.9,5-1.5,6.6-2,1.6-.5,2.4-.6,2.4-.6,0,0-.3.3-1.1.8-1.1.6-2,1.2-2.9,1.7-.8.6-1.5,1.2-1.9,1.9-.4.7-.4,1.3.2,1.8-.6-.6-1.2-.6-1.9-.1-.7.5-1.3,1.2-1.9,2-.6.8-1.2,1.9-1.9,3.1-.5.9-.7,1.3-.8,1.2,0,0,.2-.9.6-2.6.5-1.7,1.2-4,2.2-7-2.9,1-5.2,1.7-6.8,2.3-1.6.6-2.5.8-2.5.8s.3-.3,1.1-.8c1.1-.7,2.1-1.3,2.9-2,.9-.6,1.5-1.3,2-2,.5-.7.4-1.3-.2-1.9ZM94.2,50.1c.5.6,1.2.7,1.8.2.7-.4,1.3-1.1,1.9-1.9.6-.8,1.1-1.8,1.7-2.9.5-.8.7-1.2.8-1.1,0,0-.1.9-.6,2.4-.5,1.6-1.1,3.8-2,6.6,2.8-.9,5-1.5,6.6-2,1.6-.5,2.4-.6,2.4-.6,0,0-.3.3-1.1.8-1.1.6-2,1.2-2.9,1.7-.8.6-1.5,1.2-1.9,1.9-.4.7-.4,1.3.2,1.8-.6-.6-1.2-.6-1.9-.1-.7.5-1.3,1.2-1.9,2-.6.8-1.2,1.9-1.9,3.1-.5.9-.7,1.3-.8,1.2s.2-.9.6-2.6c.5-1.7,1.2-4,2.2-7-2.9,1-5.2,1.7-6.8,2.3-1.6.6-2.5.8-2.5.8s.3-.3,1.1-.8c1.1-.7,2.1-1.3,2.9-2,.9-.6,1.5-1.3,2-2,.5-.7.4-1.3-.2-1.9ZM94.2,56c.5.6,1.2.7,1.8.2.7-.4,1.3-1.1,1.9-1.9.6-.8,1.1-1.8,1.7-2.9.5-.8.7-1.2.8-1.1,0,0-.1.9-.6,2.4-.5,1.6-1.1,3.8-2,6.6,2.8-.9,5-1.5,6.6-2,1.6-.5,2.4-.6,2.4-.6,0,0-.3.3-1.1.8-1.1.6-2,1.2-2.9,1.7-.8.6-1.5,1.2-1.9,1.9-.4.7-.4,1.3.2,1.8-.6-.6-1.2-.6-1.9-.1-.7.5-1.3,1.2-1.9,2-.6.8-1.2,1.9-1.9,3.1-.5.9-.7,1.3-.8,1.2,0,0,.2-.9.6-2.6.5-1.7,1.2-4,2.2-7-2.9,1-5.2,1.7-6.8,2.3-1.6.5-2.5.8-2.5.8,0,0,.3-.3,1.1-.8,1.1-.7,2.1-1.3,2.9-2,.9-.6,1.5-1.3,2-2,.5-.7.4-1.3-.2-1.9ZM100.1,32.4c.6.6,1.2.7,1.8.2.7-.4,1.3-1.1,1.9-1.9.6-.8,1.1-1.8,1.7-2.9.5-.8.7-1.2.8-1.1,0,0-.1.9-.6,2.4-.5,1.6-1.1,3.8-2,6.6,2.8-.9,5-1.5,6.6-2,1.6-.5,2.4-.6,2.4-.6,0,0-.3.3-1.1.8-1.1.6-2,1.2-2.9,1.7-.8.6-1.5,1.2-1.9,1.9-.4.7-.4,1.3.2,1.8-.6-.6-1.2-.6-1.9-.1-.7.5-1.3,1.2-1.9,2-.6.8-1.2,1.9-1.9,3.1-.5.9-.7,1.3-.8,1.2,0,0,.2-.9.6-2.6.5-1.7,1.2-4,2.2-7-2.9,1-5.2,1.7-6.8,2.3-1.6.6-2.5.8-2.5.8,0,0,.3-.3,1.1-.8,1.1-.7,2.1-1.3,2.9-2,.9-.6,1.5-1.3,2-2,.5-.7.4-1.3-.2-1.9ZM100.1,44.2c.6.6,1.2.7,1.8.2.7-.4,1.3-1.1,1.9-1.9.6-.8,1.1-1.8,1.7-2.9.5-.8.7-1.2.8-1.1,0,0-.1.9-.6,2.4-.5,1.6-1.1,3.8-2,6.6,2.8-.9,5-1.5,6.6-2,1.6-.5,2.4-.6,2.4-.6,0,0-.3.3-1.1.8-1.1.6-2,1.2-2.9,1.7-.8.6-1.5,1.2-1.9,1.9-.4.7-.4,1.3.2,1.8-.6-.6-1.2-.6-1.9-.1-.7.5-1.3,1.2-1.9,2-.6.8-1.2,1.9-1.9,3.1-.5.9-.7,1.3-.8,1.2s.2-.9.6-2.6c.5-1.7,1.2-4,2.2-7-2.9,1-5.2,1.7-6.8,2.3-1.6.6-2.5.8-2.5.8,0,0,.3-.3,1.1-.8,1.1-.7,2.1-1.3,2.9-2,.9-.6,1.5-1.3,2-2,.5-.7.4-1.3-.2-1.9ZM100.1,56c.6.6,1.2.7,1.8.2.7-.4,1.3-1.1,1.9-1.9.6-.8,1.1-1.8,1.7-2.9.5-.8.7-1.2.8-1.1,0,0-.1.9-.6,2.4-.5,1.6-1.1,3.8-2,6.6,2.8-.9,5-1.5,6.6-2,1.6-.5,2.4-.6,2.4-.6,0,0-.3.3-1.1.8-1.1.6-2,1.2-2.9,1.7-.8.6-1.5,1.2-1.9,1.9-.4.7-.4,1.3.2,1.8-.6-.6-1.2-.6-1.9-.1-.7.5-1.3,1.2-1.9,2-.6.8-1.2,1.9-1.9,3.1-.5.9-.7,1.3-.8,1.2s.2-.9.6-2.6c.5-1.7,1.2-4,2.2-7-2.9,1-5.2,1.7-6.8,2.3-1.6.5-2.5.8-2.5.8s.3-.3,1.1-.8c1.1-.7,2.1-1.3,2.9-2,.9-.6,1.5-1.3,2-2,.5-.7.4-1.3-.2-1.9ZM106,32.4c.5.6,1.2.7,1.8.2.7-.4,1.3-1.1,1.9-1.9.6-.8,1.1-1.8,1.7-2.9.5-.8.7-1.2.8-1.1,0,0-.1.9-.6,2.4-.5,1.6-1.1,3.8-2,6.6,2.8-.9,5-1.5,6.6-2,1.6-.5,2.4-.6,2.4-.6,0,0-.3.3-1.1.8-1.1.6-2,1.2-2.9,1.7-.8.6-1.5,1.2-1.9,1.9-.4.7-.4,1.3.2,1.8-.6-.6-1.2-.6-1.9-.1-.7.5-1.3,1.2-1.9,2-.6.8-1.2,1.9-1.9,3.1-.5.9-.7,1.3-.8,1.2s.2-.9.6-2.6c.5-1.7,1.2-4,2.2-7-2.9,1-5.2,1.7-6.8,2.3-1.6.6-2.5.8-2.5.8,0,0,.3-.3,1.1-.8,1.1-.7,2.1-1.3,2.9-2,.9-.6,1.5-1.3,2-2,.5-.7.4-1.3-.2-1.9ZM106,38.3c.5.6,1.2.7,1.8.2.7-.4,1.3-1.1,1.9-1.9.6-.8,1.1-1.8,1.7-2.9.5-.8.7-1.2.8-1.1,0,0-.1.9-.6,2.4-.5,1.6-1.1,3.8-2,6.6,2.8-.9,5-1.5,6.6-2,1.6-.5,2.4-.6,2.4-.6,0,0-.3.3-1.1.8-1.1.6-2,1.2-2.9,1.7-.8.6-1.5,1.2-1.9,1.9-.4.7-.4,1.3.2,1.8-.6-.6-1.2-.6-1.9-.1-.7.5-1.3,1.2-1.9,2-.6.8-1.2,1.9-1.9,3.1-.5.9-.7,1.3-.8,1.2,0,0,.2-.9.6-2.6.5-1.7,1.2-4,2.2-7-2.9,1-5.2,1.7-6.8,2.3-1.6.6-2.5.8-2.5.8,0,0,.3-.3,1.1-.8,1.1-.7,2.1-1.3,2.9-2,.9-.6,1.5-1.3,2-2,.5-.7.4-1.3-.2-1.9ZM106,50.1c.5.6,1.2.7,1.8.2.7-.4,1.3-1.1,1.9-1.9.6-.8,1.1-1.8,1.7-2.9.5-.8.7-1.2.8-1.1,0,0-.1.9-.6,2.4-.5,1.6-1.1,3.8-2,6.6,2.8-.9,5-1.5,6.6-2,1.6-.5,2.4-.6,2.4-.6,0,0-.3.3-1.1.8-1.1.6-2,1.2-2.9,1.7-.8.6-1.5,1.2-1.9,1.9-.4.7-.4,1.3.2,1.8-.6-.6-1.2-.6-1.9-.1-.7.5-1.3,1.2-1.9,2-.6.8-1.2,1.9-1.9,3.1-.5.9-.7,1.3-.8,1.2s.2-.9.6-2.6c.5-1.7,1.2-4,2.2-7-2.9,1-5.2,1.7-6.8,2.3-1.6.6-2.5.8-2.5.8,0,0,.3-.3,1.1-.8,1.1-.7,2.1-1.3,2.9-2,.9-.6,1.5-1.3,2-2,.5-.7.4-1.3-.2-1.9Z"/>
  <path d="M118.7,20.6c.5.6,1.2.7,1.8.2.7-.4,1.3-1.1,1.9-1.9.6-.8,1.1-1.8,1.7-2.9.5-.8.7-1.2.8-1.1,0,0-.1.9-.6,2.4-.5,1.6-1.1,3.8-2,6.6,2.8-.9,5-1.5,6.6-2,1.6-.5,2.4-.6,2.4-.6,0,0-.3.3-1.1.8-1.1.6-2,1.2-2.9,1.7-.8.6-1.5,1.2-1.9,1.9-.4.7-.4,1.3.2,1.8-.6-.6-1.2-.6-1.9-.1-.7.5-1.3,1.2-1.9,2-.6.8-1.2,1.9-1.9,3.1-.5.9-.7,1.3-.8,1.2s.2-.9.6-2.6c.5-1.7,1.2-4,2.2-7-2.9,1-5.2,1.7-6.8,2.3-1.6.6-2.5.8-2.5.8s.3-.3,1.1-.8c1.1-.7,2.1-1.3,2.9-2,.9-.6,1.5-1.3,2-2,.5-.7.4-1.3-.2-1.9ZM118.7,26.5c.5.6,1.2.7,1.8.2.7-.4,1.3-1.1,1.9-1.9.6-.8,1.1-1.8,1.7-2.9.5-.8.7-1.2.8-1.1,0,0-.1.9-.6,2.4-.5,1.6-1.1,3.8-2,6.6,2.8-.9,5-1.5,6.6-2,1.6-.5,2.4-.6,2.4-.6,0,0-.3.3-1.1.8-1.1.6-2,1.2-2.9,1.7-.8.6-1.5,1.2-1.9,1.9-.4.7-.4,1.3.2,1.8-.6-.6-1.2-.6-1.9-.1-.7.5-1.3,1.2-1.9,2-.6.8-1.2,1.9-1.9,3.1-.5.9-.7,1.3-.8,1.2,0,0,.2-.9.6-2.6.5-1.7,1.2-4,2.2-7-2.9,1-5.2,1.7-6.8,2.3-1.6.6-2.5.8-2.5.8s.3-.3,1.1-.8c1.1-.7,2.1-1.3,2.9-2,.9-.6,1.5-1.3,2-2,.5-.7.4-1.3-.2-1.9ZM118.7,32.4c.5.6,1.2.7,1.8.2.7-.4,1.3-1.1,1.9-1.9.6-.8,1.1-1.8,1.7-2.9.5-.8.7-1.2.8-1.1,0,0-.1.9-.6,2.4-.5,1.6-1.1,3.8-2,6.6,2.8-.9,5-1.5,6.6-2,1.6-.5,2.4-.6,2.4-.6,0,0-.3.3-1.1.8-1.1.6-2,1.2-2.9,1.7-.8.6-1.5,1.2-1.9,1.9-.4.7-.4,1.3.2,1.8-.6-.6-1.2-.6-1.9-.1-.7.5-1.3,1.2-1.9,2-.6.8-1.2,1.9-1.9,3.1-.5.9-.7,1.3-.8,1.2s.2-.9.6-2.6c.5-1.7,1.2-4,2.2-7-2.9,1-5.2,1.7-6.8,2.3-1.6.6-2.5.8-2.5.8,0,0,.3-.3,1.1-.8,1.1-.7,2.1-1.3,2.9-2,.9-.6,1.5-1.3,2-2,.5-.7.4-1.3-.2-1.9ZM118.7,38.3c.5.6,1.2.7,1.8.2.7-.4,1.3-1.1,1.9-1.9.6-.8,1.1-1.8,1.7-2.9.5-.8.7-1.2.8-1.1,0,0-.1.9-.6,2.4-.5,1.6-1.1,3.8-2,6.6,2.8-.9,5-1.5,6.6-2,1.6-.5,2.4-.6,2.4-.6,0,0-.3.3-1.1.8-1.1.6-2,1.2-2.9,1.7-.8.6-1.5,1.2-1.9,1.9-.4.7-.4,1.3.2,1.8-.6-.6-1.2-.6-1.9-.1-.7.5-1.3,1.2-1.9,2-.6.8-1.2,1.9-1.9,3.1-.5.9-.7,1.3-.8,1.2,0,0,.2-.9.6-2.6.5-1.7,1.2-4,2.2-7-2.9,1-5.2,1.7-6.8,2.3-1.6.6-2.5.8-2.5.8s.3-.3,1.1-.8c1.1-.7,2.1-1.3,2.9-2,.9-.6,1.5-1.3,2-2,.5-.7.4-1.3-.2-1.9ZM118.7,44.2c.5.6,1.2.7,1.8.2.7-.4,1.3-1.1,1.9-1.9.6-.8,1.1-1.8,1.7-2.9.5-.8.7-1.2.8-1.1,0,0-.1.9-.6,2.4-.5,1.6-1.1,3.8-2,6.6,2.8-.9,5-1.5,6.6-2,1.6-.5,2.4-.6,2.4-.6,0,0-.3.3-1.1.8-1.1.6-2,1.2-2.9,1.7-.8.6-1.5,1.2-1.9,1.9-.4.7-.4,1.3.2,1.8-.6-.6-1.2-.6-1.9-.1-.7.5-1.3,1.2-1.9,2-.6.8-1.2,1.9-1.9,3.1-.5.9-.7,1.3-.8,1.2,0,0,.2-.9.6-2.6.5-1.7,1.2-4,2.2-7-2.9,1-5.2,1.7-6.8,2.3-1.6.6-2.5.8-2.5.8s.3-.3,1.1-.8c1.1-.7,2.1-1.3,2.9-2,.9-.6,1.5-1.3,2-2,.5-.7.4-1.3-.2-1.9ZM118.7,50.1c.5.6,1.2.7,1.8.2.7-.4,1.3-1.1,1.9-1.9.6-.8,1.1-1.8,1.7-2.9.5-.8.7-1.2.8-1.1,0,0-.1.9-.6,2.4-.5,1.6-1.1,3.8-2,6.6,2.8-.9,5-1.5,6.6-2,1.6-.5,2.4-.6,2.4-.6,0,0-.3.3-1.1.8-1.1.6-2,1.2-2.9,1.7-.8.6-1.5,1.2-1.9,1.9-.4.7-.4,1.3.2,1.8-.6-.6-1.2-.6-1.9-.1-.7.5-1.3,1.2-1.9,2-.6.8-1.2,1.9-1.9,3.1-.5.9-.7,1.3-.8,1.2s.2-.9.6-2.6c.5-1.7,1.2-4,2.2-7-2.9,1-5.2,1.7-6.8,2.3-1.6.6-2.5.8-2.5.8s.3-.3,1.1-.8c1.1-.7,2.1-1.3,2.9-2,.9-.6,1.5-1.3,2-2,.5-.7.4-1.3-.2-1.9ZM118.7,56c.5.6,1.2.7,1.8.2.7-.4,1.3-1.1,1.9-1.9.6-.8,1.1-1.8,1.7-2.9.5-.8.7-1.2.8-1.1,0,0-.1.9-.6,2.4-.5,1.6-1.1,3.8-2,6.6,2.8-.9,5-1.5,6.6-2,1.6-.5,2.4-.6,2.4-.6,0,0-.3.3-1.1.8-1.1.6-2,1.2-2.9,1.7-.8.6-1.5,1.2-1.9,1.9-.4.7-.4,1.3.2,1.8-.6-.6-1.2-.6-1.9-.1-.7.5-1.3,1.2-1.9,2-.6.8-1.2,1.9-1.9,3.1-.5.9-.7,1.3-.8,1.2,0,0,.2-.9.6-2.6.5-1.7,1.2-4,2.2-7-2.9,1-5.2,1.7-6.8,2.3-1.6.5-2.5.8-2.5.8,0,0,.3-.3,1.1-.8,1.1-.7,2.1-1.3,2.9-2,.9-.6,1.5-1.3,2-2,.5-.7.4-1.3-.2-1.9ZM124.6,26.5c.6.6,1.2.7,1.8.2.7-.4,1.3-1.1,1.9-1.9.6-.8,1.1-1.8,1.7-2.9.5-.8.7-1.2.8-1.1,0,0-.1.9-.6,2.4-.5,1.6-1.1,3.8-2,6.6,2.8-.9,5-1.5,6.6-2,1.6-.5,2.4-.6,2.4-.6,0,0-.3.3-1.1.8-1.1.6-2,1.2-2.9,1.7-.8.6-1.5,1.2-1.9,1.9-.4.7-.4,1.3.2,1.8-.6-.6-1.2-.6-1.9-.1-.7.5-1.3,1.2-1.9,2-.6.8-1.2,1.9-1.9,3.1-.5.9-.7,1.3-.8,1.2s.2-.9.6-2.6c.5-1.7,1.2-4,2.2-7-2.9,1-5.2,1.7-6.8,2.3-1.6.6-2.5.8-2.5.8,0,0,.3-.3,1.1-.8,1.1-.7,2.1-1.3,2.9-2,.9-.6,1.5-1.3,2-2,.5-.7.4-1.3-.2-1.9ZM130.5,20.6c.5.6,1.2.7,1.8.2.7-.4,1.3-1.1,1.9-1.9.6-.8,1.1-1.8,1.7-2.9.5-.8.7-1.2.8-1.1,0,0-.1.9-.6,2.4-.5,1.6-1.1,3.8-2,6.6,2.8-.9,5-1.5,6.6-2,1.6-.5,2.4-.6,2.4-.6,0,0-.3.3-1.1.8-1.1.6-2,1.2-2.9,1.7-.8.6-1.5,1.2-1.9,1.9-.4.7-.4,1.3.2,1.8-.6-.6-1.2-.6-1.9-.1-.7.5-1.3,1.2-1.9,2-.6.8-1.2,1.9-1.9,3.1-.5.9-.7,1.3-.8,1.2s.2-.9.6-2.6c.5-1.7,1.2-4,2.2-7-2.9,1-5.2,1.7-6.8,2.3-1.6.6-2.5.8-2.5.8,0,0,.3-.3,1.1-.8,1.1-.7,2.1-1.3,2.9-2,.9-.6,1.5-1.3,2-2,.5-.7.4-1.3-.2-1.9ZM130.5,26.5c.5.6,1.2.7,1.8.2.7-.4,1.3-1.1,1.9-1.9.6-.8,1.1-1.8,1.7-2.9.5-.8.7-1.2.8-1.1,0,0-.1.9-.6,2.4-.5,1.6-1.1,3.8-2,6.6,2.8-.9,5-1.5,6.6-2,1.6-.5,2.4-.6,2.4-.6,0,0-.3.3-1.1.8-1.1.6-2,1.2-2.9,1.7-.8.6-1.5,1.2-1.9,1.9-.4.7-.4,1.3.2,1.8-.6-.6-1.2-.6-1.9-.1-.7.5-1.3,1.2-1.9,2-.6.8-1.2,1.9-1.9,3.1-.5.9-.7,1.3-.8,1.2,0,0,.2-.9.6-2.6.5-1.7,1.2-4,2.2-7-2.9,1-5.2,1.7-6.8,2.3-1.6.6-2.5.8-2.5.8,0,0,.3-.3,1.1-.8,1.1-.7,2.1-1.3,2.9-2,.9-.6,1.5-1.3,2-2,.5-.7.4-1.3-.2-1.9ZM130.5,32.4c.5.6,1.2.7,1.8.2.7-.4,1.3-1.1,1.9-1.9.6-.8,1.1-1.8,1.7-2.9.5-.8.7-1.2.8-1.1,0,0-.1.9-.6,2.4-.5,1.6-1.1,3.8-2,6.6,2.8-.9,5-1.5,6.6-2,1.6-.5,2.4-.6,2.4-.6,0,0-.3.3-1.1.8-1.1.6-2,1.2-2.9,1.7-.8.6-1.5,1.2-1.9,1.9-.4.7-.4,1.3.2,1.8-.6-.6-1.2-.6-1.9-.1-.7.5-1.3,1.2-1.9,2-.6.8-1.2,1.9-1.9,3.1-.5.9-.7,1.3-.8,1.2s.2-.9.6-2.6c.5-1.7,1.2-4,2.2-7-2.9,1-5.2,1.7-6.8,2.3-1.6.6-2.5.8-2.5.8,0,0,.3-.3,1.1-.8,1.1-.7,2.1-1.3,2.9-2,.9-.6,1.5-1.3,2-2,.5-.7.4-1.3-.2-1.9ZM130.5,38.3c.5.6,1.2.7,1.8.2.7-.4,1.3-1.1,1.9-1.9.6-.8,1.1-1.8,1.7-2.9.5-.8.7-1.2.8-1.1,0,0-.1.9-.6,2.4-.5,1.6-1.1,3.8-2,6.6,2.8-.9,5-1.5,6.6-2,1.6-.5,2.4-.6,2.4-.6,0,0-.3.3-1.1.8-1.1.6-2,1.2-2.9,1.7-.8.6-1.5,1.2-1.9,1.9-.4.7-.4,1.3.2,1.8-.6-.6-1.2-.6-1.9-.1-.7.5-1.3,1.2-1.9,2-.6.8-1.2,1.9-1.9,3.1-.5.9-.7,1.3-.8,1.2,0,0,.2-.9.6-2.6.5-1.7,1.2-4,2.2-7-2.9,1-5.2,1.7-6.8,2.3-1.6.6-2.5.8-2.5.8,0,0,.3-.3,1.1-.8,1.1-.7,2.1-1.3,2.9-2,.9-.6,1.5-1.3,2-2,.5-.7.4-1.3-.2-1.9ZM130.5,44.2c.5.6,1.2.7,1.8.2.7-.4,1.3-1.1,1.9-1.9.6-.8,1.1-1.8,1.7-2.9.5-.8.7-1.2.8-1.1,0,0-.1.9-.6,2.4-.5,1.6-1.1,3.8-2,6.6,2.8-.9,5-1.5,6.6-2,1.6-.5,2.4-.6,2.4-.6,0,0-.3.3-1.1.8-1.1.6-2,1.2-2.9,1.7-.8.6-1.5,1.2-1.9,1.9-.4.7-.4,1.3.2,1.8-.6-.6-1.2-.6-1.9-.1-.7.5-1.3,1.2-1.9,2-.6.8-1.2,1.9-1.9,3.1-.5.9-.7,1.3-.8,1.2,0,0,.2-.9.6-2.6.5-1.7,1.2-4,2.2-7-2.9,1-5.2,1.7-6.8,2.3-1.6.6-2.5.8-2.5.8,0,0,.3-.3,1.1-.8,1.1-.7,2.1-1.3,2.9-2,.9-.6,1.5-1.3,2-2,.5-.7.4-1.3-.2-1.9ZM130.5,50.1c.5.6,1.2.7,1.8.2.7-.4,1.3-1.1,1.9-1.9.6-.8,1.1-1.8,1.7-2.9.5-.8.7-1.2.8-1.1,0,0-.1.9-.6,2.4-.5,1.6-1.1,3.8-2,6.6,2.8-.9,5-1.5,6.6-2,1.6-.5,2.4-.6,2.4-.6,0,0-.3.3-1.1.8-1.1.6-2,1.2-2.9,1.7-.8.6-1.5,1.2-1.9,1.9-.4.7-.4,1.3.2,1.8-.6-.6-1.2-.6-1.9-.1-.7.5-1.3,1.2-1.9,2-.6.8-1.2,1.9-1.9,3.1-.5.9-.7,1.3-.8,1.2s.2-.9.6-2.6c.5-1.7,1.2-4,2.2-7-2.9,1-5.2,1.7-6.8,2.3-1.6.6-2.5.8-2.5.8,0,0,.3-.3,1.1-.8,1.1-.7,2.1-1.3,2.9-2,.9-.6,1.5-1.3,2-2,.5-.7.4-1.3-.2-1.9ZM130.5,56c.5.6,1.2.7,1.8.2.7-.4,1.3-1.1,1.9-1.9.6-.8,1.1-1.8,1.7-2.9.5-.8.7-1.2.8-1.1,0,0-.1.9-.6,2.4-.5,1.6-1.1,3.8-2,6.6,2.8-.9,5-1.5,6.6-2,1.6-.5,2.4-.6,2.4-.6,0,0-.3.3-1.1.8-1.1.6-2,1.2-2.9,1.7-.8.6-1.5,1.2-1.9,1.9-.4.7-.4,1.3.2,1.8-.6-.6-1.2-.6-1.9-.1-.7.5-1.3,1.2-1.9,2-.6.8-1.2,1.9-1.9,3.1-.5.9-.7,1.3-.8,1.2,0,0,.2-.9.6-2.6.5-1.7,1.2-4,2.2-7-2.9,1-5.2,1.7-6.8,2.3-1.6.5-2.5.8-2.5.8s.3-.3,1.1-.8c1.1-.7,2.1-1.3,2.9-2,.9-.6,1.5-1.3,2-2,.5-.7.4-1.3-.2-1.9ZM136.4,26.5c.5.6,1.2.7,1.8.2.7-.4,1.3-1.1,1.9-1.9.6-.8,1.1-1.8,1.7-2.9.5-.8.7-1.2.8-1.1,0,0-.1.9-.6,2.4-.5,1.6-1.1,3.8-2,6.6,2.8-.9,5-1.5,6.6-2,1.6-.5,2.4-.6,2.4-.6,0,0-.3.3-1.1.8-1.1.6-2,1.2-2.9,1.7-.8.6-1.5,1.2-1.9,1.9-.4.7-.4,1.3.2,1.8-.6-.6-1.2-.6-1.9-.1-.7.5-1.3,1.2-1.9,2-.6.8-1.2,1.9-1.9,3.1-.5.9-.7,1.3-.8,1.2s.2-.9.6-2.6c.5-1.7,1.2-4,2.2-7-2.9,1-5.2,1.7-6.8,2.3-1.6.6-2.5.8-2.5.8,0,0,.3-.3,1.1-.8,1.1-.7,2.1-1.3,2.9-2,.9-.6,1.5-1.3,2-2,.5-.7.4-1.3-.2-1.9ZM142.3,20.6c.6.6,1.2.7,1.8.2.7-.4,1.3-1.1,1.9-1.9.6-.8,1.1-1.8,1.7-2.9.5-.8.7-1.2.8-1.1,0,0-.1.9-.6,2.4-.5,1.6-1.1,3.8-2,6.6,2.8-.9,5-1.5,6.6-2,1.6-.5,2.4-.6,2.4-.6,0,0-.3.3-1.1.8-1.1.6-2,1.2-2.9,1.7-.8.6-1.5,1.2-1.9,1.9-.4.7-.4,1.3.2,1.8-.6-.6-1.2-.6-1.9-.1-.7.5-1.3,1.2-1.9,2-.6.8-1.2,1.9-1.9,3.1-.5.9-.7,1.3-.8,1.2s.2-.9.6-2.6c.5-1.7,1.2-4,2.2-7-2.9,1-5.2,1.7-6.8,2.3-1.6.6-2.5.8-2.5.8,0,0,.3-.3,1.1-.8,1.1-.7,2.1-1.3,2.9-2,.9-.6,1.5-1.3,2-2,.5-.7.4-1.3-.2-1.9ZM142.3,26.5c.6.6,1.2.7,1.8.2.7-.4,1.3-1.1,1.9-1.9.6-.8,1.1-1.8,1.7-2.9.5-.8.7-1.2.8-1.1,0,0-.1.9-.6,2.4-.5,1.6-1.1,3.8-2,6.6,2.8-.9,5-1.5,6.6-2,1.6-.5,2.4-.6,2.4-.6,0,0-.3.3-1.1.8-1.1.6-2,1.2-2.9,1.7-.8.6-1.5,1.2-1.9,1.9-.4.7-.4,1.3.2,1.8-.6-.6-1.2-.6-1.9-.1-.7.5-1.3,1.2-1.9,2-.6.8-1.2,1.9-1.9,3.1-.5.9-.7,1.3-.8,1.2,0,0,.2-.9.6-2.6.5-1.7,1.2-4,2.2-7-2.9,1-5.2,1.7-6.8,2.3-1.6.6-2.5.8-2.5.8,0,0,.3-.3,1.1-.8,1.1-.7,2.1-1.3,2.9-2,.9-.6,1.5-1.3,2-2,.5-.7.4-1.3-.2-1.9ZM142.3,32.4c.6.6,1.2.7,1.8.2.7-.4,1.3-1.1,1.9-1.9.6-.8,1.1-1.8,1.7-2.9.5-.8.7-1.2.8-1.1,0,0-.1.9-.6,2.4-.5,1.6-1.1,3.8-2,6.6,2.8-.9,5-1.5,6.6-2,1.6-.5,2.4-.6,2.4-.6,0,0-.3.3-1.1.8-1.1.6-2,1.2-2.9,1.7-.8.6-1.5,1.2-1.9,1.9-.4.7-.4,1.3.2,1.8-.6-.6-1.2-.6-1.9-.1-.7.5-1.3,1.2-1.9,2-.6.8-1.2,1.9-1.9,3.1-.5.9-.7,1.3-.8,1.2s.2-.9.6-2.6c.5-1.7,1.2-4,2.2-7-2.9,1-5.2,1.7-6.8,2.3-1.6.6-2.5.8-2.5.8,0,0,.3-.3,1.1-.8,1.1-.7,2.1-1.3,2.9-2,.9-.6,1.5-1.3,2-2,.5-.7.4-1.3-.2-1.9ZM142.3,38.3c.6.6,1.2.7,1.8.2.7-.4,1.3-1.1,1.9-1.9.6-.8,1.1-1.8,1.7-2.9.5-.8.7-1.2.8-1.1,0,0-.1.9-.6,2.4-.5,1.6-1.1,3.8-2,6.6,2.8-.9,5-1.5,6.6-2,1.6-.5,2.4-.6,2.4-.6,0,0-.3.3-1.1.8-1.1.6-2,1.2-2.9,1.7-.8.6-1.5,1.2-1.9,1.9-.4.7-.4,1.3.2,1.8-.6-.6-1.2-.6-1.9-.1-.7.5-1.3,1.2-1.9,2-.6.8-1.2,1.9-1.9,3.1-.5.9-.7,1.3-.8,1.2,0,0,.2-.9.6-2.6.5-1.7,1.2-4,2.2-7-2.9,1-5.2,1.7-6.8,2.3-1.6.6-2.5.8-2.5.8,0,0,.3-.3,1.1-.8,1.1-.7,2.1-1.3,2.9-2,.9-.6,1.5-1.3,2-2,.5-.7.4-1.3-.2-1.9ZM142.3,44.2c.6.6,1.2.7,1.8.2.7-.4,1.3-1.1,1.9-1.9.6-.8,1.1-1.8,1.7-2.9.5-.8.7-1.2.8-1.1,0,0-.1.9-.6,2.4-.5,1.6-1.1,3.8-2,6.6,2.8-.9,5-1.5,6.6-2,1.6-.5,2.4-.6,2.4-.6,0,0-.3.3-1.1.8-1.1.6-2,1.2-2.9,1.7-.8.6-1.5,1.2-1.9,1.9-.4.7-.4,1.3.2,1.8-.6-.6-1.2-.6-1.9-.1-.7.5-1.3,1.2-1.9,2-.6.8-1.2,1.9-1.9,3.1-.5.9-.7,1.3-.8,1.2,0,0,.2-.9.6-2.6.5-1.7,1.2-4,2.2-7-2.9,1-5.2,1.7-6.8,2.3-1.6.6-2.5.8-2.5.8,0,0,.3-.3,1.1-.8,1.1-.7,2.1-1.3,2.9-2,.9-.6,1.5-1.3,2-2,.5-.7.4-1.3-.2-1.9ZM142.3,50.1c.6.6,1.2.7,1.8.2.7-.4,1.3-1.1,1.9-1.9.6-.8,1.1-1.8,1.7-2.9.5-.8.7-1.2.8-1.1,0,0-.1.9-.6,2.4-.5,1.6-1.1,3.8-2,6.6,2.8-.9,5-1.5,6.6-2,1.6-.5,2.4-.6,2.4-.6,0,0-.3.3-1.1.8-1.1.6-2,1.2-2.9,1.7-.8.6-1.5,1.2-1.9,1.9-.4.7-.4,1.3.2,1.8-.6-.6-1.2-.6-1.9-.1-.7.5-1.3,1.2-1.9,2-.6.8-1.2,1.9-1.9,3.1-.5.9-.7,1.3-.8,1.2s.2-.9.6-2.6c.5-1.7,1.2-4,2.2-7-2.9,1-5.2,1.7-6.8,2.3-1.6.6-2.5.8-2.5.8,0,0,.3-.3,1.1-.8,1.1-.7,2.1-1.3,2.9-2,.9-.6,1.5-1.3,2-2,.5-.7.4-1.3-.2-1.9ZM142.3,56c.6.6,1.2.7,1.8.2.7-.4,1.3-1.1,1.9-1.9.6-.8,1.1-1.8,1.7-2.9.5-.8.7-1.2.8-1.1,0,0-.1.9-.6,2.4-.5,1.6-1.1,3.8-2,6.6,2.8-.9,5-1.5,6.6-2,1.6-.5,2.4-.6,2.4-.6,0,0-.3.3-1.1.8-1.1.6-2,1.2-2.9,1.7-.8.6-1.5,1.2-1.9,1.9-.4.7-.4,1.3.2,1.8-.6-.6-1.2-.6-1.9-.1-.7.5-1.3,1.2-1.9,2-.6.8-1.2,1.9-1.9,3.1-.5.9-.7,1.3-.8,1.2,0,0,.2-.9.6-2.6.5-1.7,1.2-4,2.2-7-2.9,1-5.2,1.7-6.8,2.3-1.6.5-2.5.8-2.5.8,0,0,.3-.3,1.1-.8,1.1-.7,2.1-1.3,2.9-2,.9-.6,1.5-1.3,2-2,.5-.7.4-1.3-.2-1.9Z"/>
  <path d="M155,38.3c.5.6,1.2.7,1.8.2.7-.4,1.3-1.1,1.9-1.9.6-.8,1.1-1.8,1.7-2.9.5-.8.7-1.2.8-1.1,0,0-.1.9-.6,2.4-.5,1.6-1.1,3.8-2,6.6,2.8-.9,5-1.5,6.6-2,1.6-.5,2.4-.6,2.4-.6,0,0-.3.3-1.1.8-1.1.6-2,1.2-2.9,1.7-.8.6-1.5,1.2-1.9,1.9-.4.7-.4,1.3.2,1.8-.6-.6-1.2-.6-1.9-.1-.7.5-1.3,1.2-1.9,2-.6.8-1.2,1.9-1.9,3.1-.5.9-.7,1.3-.8,1.2,0,0,.2-.9.6-2.6.5-1.7,1.2-4,2.2-7-2.9,1-5.2,1.7-6.8,2.3-1.6.6-2.5.8-2.5.8s.3-.3,1.1-.8c1.1-.7,2.1-1.3,2.9-2,.9-.6,1.5-1.3,2-2,.5-.7.4-1.3-.2-1.9ZM155,44.2c.5.6,1.2.7,1.8.2.7-.4,1.3-1.1,1.9-1.9.6-.8,1.1-1.8,1.7-2.9.5-.8.7-1.2.8-1.1,0,0-.1.9-.6,2.4-.5,1.6-1.1,3.8-2,6.6,2.8-.9,5-1.5,6.6-2,1.6-.5,2.4-.6,2.4-.6,0,0-.3.3-1.1.8-1.1.6-2,1.2-2.9,1.7-.8.6-1.5,1.2-1.9,1.9-.4.7-.4,1.3.2,1.8-.6-.6-1.2-.6-1.9-.1-.7.5-1.3,1.2-1.9,2-.6.8-1.2,1.9-1.9,3.1-.5.9-.7,1.3-.8,1.2,0,0,.2-.9.6-2.6.5-1.7,1.2-4,2.2-7-2.9,1-5.2,1.7-6.8,2.3-1.6.6-2.5.8-2.5.8s.3-.3,1.1-.8c1.1-.7,2.1-1.3,2.9-2,.9-.6,1.5-1.3,2-2,.5-.7.4-1.3-.2-1.9ZM155,50.1c.5.6,1.2.7,1.8.2.7-.4,1.3-1.1,1.9-1.9.6-.8,1.1-1.8,1.7-2.9.5-.8.7-1.2.8-1.1,0,0-.1.9-.6,2.4-.5,1.6-1.1,3.8-2,6.6,2.8-.9,5-1.5,6.6-2,1.6-.5,2.4-.6,2.4-.6,0,0-.3.3-1.1.8-1.1.6-2,1.2-2.9,1.7-.8.6-1.5,1.2-1.9,1.9-.4.7-.4,1.3.2,1.8-.6-.6-1.2-.6-1.9-.1-.7.5-1.3,1.2-1.9,2-.6.8-1.2,1.9-1.9,3.1-.5.9-.7,1.3-.8,1.2s.2-.9.6-2.6c.5-1.7,1.2-4,2.2-7-2.9,1-5.2,1.7-6.8,2.3-1.6.6-2.5.8-2.5.8s.3-.3,1.1-.8c1.1-.7,2.1-1.3,2.9-2,.9-.6,1.5-1.3,2-2,.5-.7.4-1.3-.2-1.9ZM155,56c.5.6,1.2.7,1.8.2.7-.4,1.3-1.1,1.9-1.9.6-.8,1.1-1.8,1.7-2.9.5-.8.7-1.2.8-1.1,0,0-.1.9-.6,2.4-.5,1.6-1.1,3.8-2,6.6,2.8-.9,5-1.5,6.6-2,1.6-.5,2.4-.6,2.4-.6,0,0-.3.3-1.1.8-1.1.6-2,1.2-2.9,1.7-.8.6-1.5,1.2-1.9,1.9-.4.7-.4,1.3.2,1.8-.6-.6-1.2-.6-1.9-.1-.7.5-1.3,1.2-1.9,2-.6.8-1.2,1.9-1.9,3.1-.5.9-.7,1.3-.8,1.2,0,0,.2-.9.6-2.6.5-1.7,1.2-4,2.2-7-2.9,1-5.2,1.7-6.8,2.3-1.6.5-2.5.8-2.5.8,0,0,.3-.3,1.1-.8,1.1-.7,2.1-1.3,2.9-2,.9-.6,1.5-1.3,2-2,.5-.7.4-1.3-.2-1.9ZM160.9,32.4c.6.6,1.2.7,1.8.2.7-.4,1.3-1.1,1.9-1.9.6-.8,1.1-1.8,1.7-2.9.5-.8.7-1.2.8-1.1,0,0-.1.9-.6,2.4-.5,1.6-1.1,3.8-2,6.6,2.8-.9,5-1.5,6.6-2,1.6-.5,2.4-.6,2.4-.6,0,0-.3.3-1.1.8-1.1.6-2,1.2-2.9,1.7-.8.6-1.5,1.2-1.9,1.9-.4.7-.4,1.3.2,1.8-.6-.6-1.2-.6-1.9-.1-.7.5-1.3,1.2-1.9,2-.6.8-1.2,1.9-1.9,3.1-.5.9-.7,1.3-.8,1.2,0,0,.2-.9.6-2.6.5-1.7,1.2-4,2.2-7-2.9,1-5.2,1.7-6.8,2.3-1.6.6-2.5.8-2.5.8,0,0,.3-.3,1.1-.8,1.1-.7,2.1-1.3,2.9-2,.9-.6,1.5-1.3,2-2,.5-.7.4-1.3-.2-1.9ZM160.9,44.2c.6.6,1.2.7,1.8.2.7-.4,1.3-1.1,1.9-1.9.6-.8,1.1-1.8,1.7-2.9.5-.8.7-1.2.8-1.1,0,0-.1.9-.6,2.4-.5,1.6-1.1,3.8-2,6.6,2.8-.9,5-1.5,6.6-2,1.6-.5,2.4-.6,2.4-.6,0,0-.3.3-1.1.8-1.1.6-2,1.2-2.9,1.7-.8.6-1.5,1.2-1.9,1.9-.4.7-.4,1.3.2,1.8-.6-.6-1.2-.6-1.9-.1-.7.5-1.3,1.2-1.9,2-.6.8-1.2,1.9-1.9,3.1-.5.9-.7,1.3-.8,1.2s.2-.9.6-2.6c.5-1.7,1.2-4,2.2-7-2.9,1-5.2,1.7-6.8,2.3-1.6.6-2.5.8-2.5.8,0,0,.3-.3,1.1-.8,1.1-.7,2.1-1.3,2.9-2,.9-.6,1.5-1.3,2-2,.5-.7.4-1.3-.2-1.9ZM160.9,56c.6.6,1.2.7,1.8.2.7-.4,1.3-1.1,1.9-1.9.6-.8,1.1-1.8,1.7-2.9.5-.8.7-1.2.8-1.1,0,0-.1.9-.6,2.4-.5,1.6-1.1,3.8-2,6.6,2.8-.9,5-1.5,6.6-2,1.6-.5,2.4-.6,2.4-.6,0,0-.3.3-1.1.8-1.1.6-2,1.2-2.9,1.7-.8.6-1.5,1.2-1.9,1.9-.4.7-.4,1.3.2,1.8-.6-.6-1.2-.6-1.9-.1-.7.5-1.3,1.2-1.9,2-.6.8-1.2,1.9-1.9,3.1-.5.9-.7,1.3-.8,1.2s.2-.9.6-2.6c.5-1.7,1.2-4,2.2-7-2.9,1-5.2,1.7-6.8,2.3-1.6.5-2.5.8-2.5.8s.3-.3,1.1-.8c1.1-.7,2.1-1.3,2.9-2,.9-.6,1.5-1.3,2-2,.5-.7.4-1.3-.2-1.9ZM166.8,32.4c.5.6,1.2.7,1.8.2.7-.4,1.3-1.1,1.9-1.9.6-.8,1.1-1.8,1.7-2.9.5-.8.7-1.2.8-1.1,0,0-.1.9-.6,2.4-.5,1.6-1.1,3.8-2,6.6,2.8-.9,5-1.5,6.6-2,1.6-.5,2.4-.6,2.4-.6,0,0-.3.3-1.1.8-1.1.6-2,1.2-2.9,1.7-.8.6-1.5,1.2-1.9,1.9-.4.7-.4,1.3.2,1.8-.6-.6-1.2-.6-1.9-.1-.7.5-1.3,1.2-1.9,2-.6.8-1.2,1.9-1.9,3.1-.5.9-.7,1.3-.8,1.2s.2-.9.6-2.6c.5-1.7,1.2-4,2.2-7-2.9,1-5.2,1.7-6.8,2.3-1.6.6-2.5.8-2.5.8,0,0,.3-.3,1.1-.8,1.1-.7,2.1-1.3,2.9-2,.9-.6,1.5-1.3,2-2,.5-.7.4-1.3-.2-1.9ZM166.8,38.3c.5.6,1.2.7,1.8.2.7-.4,1.3-1.1,1.9-1.9.6-.8,1.1-1.8,1.7-2.9.5-.8.7-1.2.8-1.1,0,0-.1.9-.6,2.4-.5,1.6-1.1,3.8-2,6.6,2.8-.9,5-1.5,6.6-2,1.6-.5,2.4-.6,2.4-.6,0,0-.3.3-1.1.8-1.1.6-2,1.2-2.9,1.7-.8.6-1.5,1.2-1.9,1.9-.4.7-.4,1.3.2,1.8-.6-.6-1.2-.6-1.9-.1-.7.5-1.3,1.2-1.9,2-.6.8-1.2,1.9-1.9,3.1-.5.9-.7,1.3-.8,1.2,0,0,.2-.9.6-2.6.5-1.7,1.2-4,2.2-7-2.9,1-5.2,1.7-6.8,2.3-1.6.6-2.5.8-2.5.8,0,0,.3-.3,1.1-.8,1.1-.7,2.1-1.3,2.9-2,.9-.6,1.5-1.3,2-2,.5-.7.4-1.3-.2-1.9ZM166.8,50.1c.5.6,1.2.7,1.8.2.7-.4,1.3-1.1,1.9-1.9.6-.8,1.1-1.8,1.7-2.9.5-.8.7-1.2.8-1.1,0,0-.1.9-.6,2.4-.5,1.6-1.1,3.8-2,6.6,2.8-.9,5-1.5,6.6-2,1.6-.5,2.4-.6,2.4-.6,0,0-.3.3-1.1.8-1.1.6-2,1.2-2.9,1.7-.8.6-1.5,1.2-1.9,1.9-.4.7-.4,1.3.2,1.8-.6-.6-1.2-.6-1.9-.1-.7.5-1.3,1.2-1.9,2-.6.8-1.2,1.9-1.9,3.1-.5.9-.7,1.3-.8,1.2s.2-.9.6-2.6c.5-1.7,1.2-4,2.2-7-2.9,1-5.2,1.7-6.8,2.3-1.6.6-2.5.8-2.5.8,0,0,.3-.3,1.1-.8,1.1-.7,2.1-1.3,2.9-2,.9-.6,1.5-1.3,2-2,.5-.7.4-1.3-.2-1.9Z"/>
  <path d="M179.5,32.4c.5.6,1.2.7,1.8.2.7-.4,1.3-1.1,1.9-1.9.6-.8,1.1-1.8,1.7-2.9.5-.8.7-1.2.8-1.1,0,0-.1.9-.6,2.4-.5,1.6-1.1,3.8-2,6.6,2.8-.9,5-1.5,6.6-2,1.6-.5,2.4-.6,2.4-.6,0,0-.3.3-1.1.8-1.1.6-2,1.2-2.9,1.7-.8.6-1.5,1.2-1.9,1.9-.4.7-.4,1.3.2,1.8-.6-.6-1.2-.6-1.9-.1-.7.5-1.3,1.2-1.9,2-.6.8-1.2,1.9-1.9,3.1-.5.9-.7,1.3-.8,1.2s.2-.9.6-2.6c.5-1.7,1.2-4,2.2-7-2.9,1-5.2,1.7-6.8,2.3-1.6.6-2.5.8-2.5.8,0,0,.3-.3,1.1-.8,1.1-.7,2.1-1.3,2.9-2,.9-.6,1.5-1.3,2-2,.5-.7.4-1.3-.2-1.9ZM179.5,38.3c.5.6,1.2.7,1.8.2.7-.4,1.3-1.1,1.9-1.9.6-.8,1.1-1.8,1.7-2.9.5-.8.7-1.2.8-1.1,0,0-.1.9-.6,2.4-.5,1.6-1.1,3.8-2,6.6,2.8-.9,5-1.5,6.6-2,1.6-.5,2.4-.6,2.4-.6,0,0-.3.3-1.1.8-1.1.6-2,1.2-2.9,1.7-.8.6-1.5,1.2-1.9,1.9-.4.7-.4,1.3.2,1.8-.6-.6-1.2-.6-1.9-.1-.7.5-1.3,1.2-1.9,2-.6.8-1.2,1.9-1.9,3.1-.5.9-.7,1.3-.8,1.2,0,0,.2-.9.6-2.6.5-1.7,1.2-4,2.2-7-2.9,1-5.2,1.7-6.8,2.3-1.6.6-2.5.8-2.5.8s.3-.3,1.1-.8c1.1-.7,2.1-1.3,2.9-2,.9-.6,1.5-1.3,2-2,.5-.7.4-1.3-.2-1.9ZM179.5,44.2c.5.6,1.2.7,1.8.2.7-.4,1.3-1.1,1.9-1.9.6-.8,1.1-1.8,1.7-2.9.5-.8.7-1.2.8-1.1,0,0-.1.9-.6,2.4-.5,1.6-1.1,3.8-2,6.6,2.8-.9,5-1.5,6.6-2,1.6-.5,2.4-.6,2.4-.6,0,0-.3.3-1.1.8-1.1.6-2,1.2-2.9,1.7-.8.6-1.5,1.2-1.9,1.9-.4.7-.4,1.3.2,1.8-.6-.6-1.2-.6-1.9-.1-.7.5-1.3,1.2-1.9,2-.6.8-1.2,1.9-1.9,3.1-.5.9-.7,1.3-.8,1.2,0,0,.2-.9.6-2.6.5-1.7,1.2-4,2.2-7-2.9,1-5.2,1.7-6.8,2.3-1.6.6-2.5.8-2.5.8s.3-.3,1.1-.8c1.1-.7,2.1-1.3,2.9-2,.9-.6,1.5-1.3,2-2,.5-.7.4-1.3-.2-1.9ZM179.5,50.1c.5.6,1.2.7,1.8.2.7-.4,1.3-1.1,1.9-1.9.6-.8,1.1-1.8,1.7-2.9.5-.8.7-1.2.8-1.1,0,0-.1.9-.6,2.4-.5,1.6-1.1,3.8-2,6.6,2.8-.9,5-1.5,6.6-2,1.6-.5,2.4-.6,2.4-.6,0,0-.3.3-1.1.8-1.1.6-2,1.2-2.9,1.7-.8.6-1.5,1.2-1.9,1.9-.4.7-.4,1.3.2,1.8-.6-.6-1.2-.6-1.9-.1-.7.5-1.3,1.2-1.9,2-.6.8-1.2,1.9-1.9,3.1-.5.9-.7,1.3-.8,1.2s.2-.9.6-2.6c.5-1.7,1.2-4,2.2-7-2.9,1-5.2,1.7-6.8,2.3-1.6.6-2.5.8-2.5.8s.3-.3,1.1-.8c1.1-.7,2.1-1.3,2.9-2,.9-.6,1.5-1.3,2-2,.5-.7.4-1.3-.2-1.9ZM179.5,56c.5.6,1.2.7,1.8.2.7-.4,1.3-1.1,1.9-1.9.6-.8,1.1-1.8,1.7-2.9.5-.8.7-1.2.8-1.1,0,0-.1.9-.6,2.4-.5,1.6-1.1,3.8-2,6.6,2.8-.9,5-1.5,6.6-2,1.6-.5,2.4-.6,2.4-.6,0,0-.3.3-1.1.8-1.1.6-2,1.2-2.9,1.7-.8.6-1.5,1.2-1.9,1.9-.4.7-.4,1.3.2,1.8-.6-.6-1.2-.6-1.9-.1-.7.5-1.3,1.2-1.9,2-.6.8-1.2,1.9-1.9,3.1-.5.9-.7,1.3-.8,1.2,0,0,.2-.9.6-2.6.5-1.7,1.2-4,2.2-7-2.9,1-5.2,1.7-6.8,2.3-1.6.5-2.5.8-2.5.8,0,0,.3-.3,1.1-.8,1.1-.7,2.1-1.3,2.9-2,.9-.6,1.5-1.3,2-2,.5-.7.4-1.3-.2-1.9ZM185.4,32.4c.6.6,1.2.7,1.8.2.7-.4,1.3-1.1,1.9-1.9.6-.8,1.1-1.8,1.7-2.9.5-.8.7-1.2.8-1.1,0,0-.1.9-.6,2.4-.5,1.6-1.1,3.8-2,6.6,2.8-.9,5-1.5,6.6-2,1.6-.5,2.4-.6,2.4-.6,0,0-.3.3-1.1.8-1.1.6-2,1.2-2.9,1.7-.8.6-1.5,1.2-1.9,1.9-.4.7-.4,1.3.2,1.8-.6-.6-1.2-.6-1.9-.1-.7.5-1.3,1.2-1.9,2-.6.8-1.2,1.9-1.9,3.1-.5.9-.7,1.3-.8,1.2,0,0,.2-.9.6-2.6.5-1.7,1.2-4,2.2-7-2.9,1-5.2,1.7-6.8,2.3-1.6.6-2.5.8-2.5.8,0,0,.3-.3,1.1-.8,1.1-.7,2.1-1.3,2.9-2,.9-.6,1.5-1.3,2-2,.5-.7.4-1.3-.2-1.9ZM185.4,56c.6.6,1.2.7,1.8.2.7-.4,1.3-1.1,1.9-1.9.6-.8,1.1-1.8,1.7-2.9.5-.8.7-1.2.8-1.1,0,0-.1.9-.6,2.4-.5,1.6-1.1,3.8-2,6.6,2.8-.9,5-1.5,6.6-2,1.6-.5,2.4-.6,2.4-.6,0,0-.3.3-1.1.8-1.1.6-2,1.2-2.9,1.7-.8.6-1.5,1.2-1.9,1.9-.4.7-.4,1.3.2,1.8-.6-.6-1.2-.6-1.9-.1-.7.5-1.3,1.2-1.9,2-.6.8-1.2,1.9-1.9,3.1-.5.9-.7,1.3-.8,1.2s.2-.9.6-2.6c.5-1.7,1.2-4,2.2-7-2.9,1-5.2,1.7-6.8,2.3-1.6.5-2.5.8-2.5.8s.3-.3,1.1-.8c1.1-.7,2.1-1.3,2.9-2,.9-.6,1.5-1.3,2-2,.5-.7.4-1.3-.2-1.9ZM191.3,20.6c.5.6,1.2.7,1.8.2.7-.4,1.3-1.1,1.9-1.9.6-.8,1.1-1.8,1.7-2.9.5-.8.7-1.2.8-1.1,0,0-.1.9-.6,2.4-.5,1.6-1.1,3.8-2,6.6,2.8-.9,5-1.5,6.6-2,1.6-.5,2.4-.6,2.4-.6,0,0-.3.3-1.1.8-1.1.6-2,1.2-2.9,1.7-.8.6-1.5,1.2-1.9,1.9-.4.7-.4,1.3.2,1.8-.6-.6-1.2-.6-1.9-.1-.7.5-1.3,1.2-1.9,2-.6.8-1.2,1.9-1.9,3.1-.5.9-.7,1.3-.8,1.2s.2-.9.6-2.6c.5-1.7,1.2-4,2.2-7-2.9,1-5.2,1.7-6.8,2.3-1.6.6-2.5.8-2.5.8,0,0,.3-.3,1.1-.8,1.1-.7,2.1-1.3,2.9-2,.9-.6,1.5-1.3,2-2,.5-.7.4-1.3-.2-1.9ZM191.3,26.5c.5.6,1.2.7,1.8.2.7-.4,1.3-1.1,1.9-1.9.6-.8,1.1-1.8,1.7-2.9.5-.8.7-1.2.8-1.1,0,0-.1.9-.6,2.4-.5,1.6-1.1,3.8-2,6.6,2.8-.9,5-1.5,6.6-2,1.6-.5,2.4-.6,2.4-.6,0,0-.3.3-1.1.8-1.1.6-2,1.2-2.9,1.7-.8.6-1.5,1.2-1.9,1.9-.4.7-.4,1.3.2,1.8-.6-.6-1.2-.6-1.9-.1-.7.5-1.3,1.2-1.9,2-.6.8-1.2,1.9-1.9,3.1-.5.9-.7,1.3-.8,1.2,0,0,.2-.9.6-2.6.5-1.7,1.2-4,2.2-7-2.9,1-5.2,1.7-6.8,2.3-1.6.6-2.5.8-2.5.8,0,0,.3-.3,1.1-.8,1.1-.7,2.1-1.3,2.9-2,.9-.6,1.5-1.3,2-2,.5-.7.4-1.3-.2-1.9ZM191.3,32.4c.5.6,1.2.7,1.8.2.7-.4,1.3-1.1,1.9-1.9.6-.8,1.1-1.8,1.7-2.9.5-.8.7-1.2.8-1.1,0,0-.1.9-.6,2.4-.5,1.6-1.1,3.8-2,6.6,2.8-.9,5-1.5,6.6-2,1.6-.5,2.4-.6,2.4-.6,0,0-.3.3-1.1.8-1.1.6-2,1.2-2.9,1.7-.8.6-1.5,1.2-1.9,1.9-.4.7-.4,1.3.2,1.8-.6-.6-1.2-.6-1.9-.1-.7.5-1.3,1.2-1.9,2-.6.8-1.2,1.9-1.9,3.1-.5.9-.7,1.3-.8,1.2s.2-.9.6-2.6c.5-1.7,1.2-4,2.2-7-2.9,1-5.2,1.7-6.8,2.3-1.6.6-2.5.8-2.5.8,0,0,.3-.3,1.1-.8,1.1-.7,2.1-1.3,2.9-2,.9-.6,1.5-1.3,2-2,.5-.7.4-1.3-.2-1.9ZM191.3,38.3c.5.6,1.2.7,1.8.2.7-.4,1.3-1.1,1.9-1.9.6-.8,1.1-1.8,1.7-2.9.5-.8.7-1.2.8-1.1,0,0-.1.9-.6,2.4-.5,1.6-1.1,3.8-2,6.6,2.8-.9,5-1.5,6.6-2,1.6-.5,2.4-.6,2.4-.6,0,0-.3.3-1.1.8-1.1.6-2,1.2-2.9,1.7-.8.6-1.5,1.2-1.9,1.9-.4.7-.4,1.3.2,1.8-.6-.6-1.2-.6-1.9-.1-.7.5-1.3,1.2-1.9,2-.6.8-1.2,1.9-1.9,3.1-.5.9-.7,1.3-.8,1.2,0,0,.2-.9.6-2.6.5-1.7,1.2-4,2.2-7-2.9,1-5.2,1.7-6.8,2.3-1.6.6-2.5.8-2.5.8,0,0,.3-.3,1.1-.8,1.1-.7,2.1-1.3,2.9-2,.9-.6,1.5-1.3,2-2,.5-.7.4-1.3-.2-1.9ZM191.3,44.2c.5.6,1.2.7,1.8.2.7-.4,1.3-1.1,1.9-1.9.6-.8,1.1-1.8,1.7-2.9.5-.8.7-1.2.8-1.1,0,0-.1.9-.6,2.4-.5,1.6-1.1,3.8-2,6.6,2.8-.9,5-1.5,6.6-2,1.6-.5,2.4-.6,2.4-.6,0,0-.3.3-1.1.8-1.1.6-2,1.2-2.9,1.7-.8.6-1.5,1.2-1.9,1.9-.4.7-.4,1.3.2,1.8-.6-.6-1.2-.6-1.9-.1-.7.5-1.3,1.2-1.9,2-.6.8-1.2,1.9-1.9,3.1-.5.9-.7,1.3-.8,1.2,0,0,.2-.9.6-2.6.5-1.7,1.2-4,2.2-7-2.9,1-5.2,1.7-6.8,2.3-1.6.6-2.5.8-2.5.8,0,0,.3-.3,1.1-.8,1.1-.7,2.1-1.3,2.9-2,.9-.6,1.5-1.3,2-2,.5-.7.4-1.3-.2-1.9ZM191.3,50.1c.5.6,1.2.7,1.8.2.7-.4,1.3-1.1,1.9-1.9.6-.8,1.1-1.8,1.7-2.9.5-.8.7-1.2.8-1.1,0,0-.1.9-.6,2.4-.5,1.6-1.1,3.8-2,6.6,2.8-.9,5-1.5,6.6-2,1.6-.5,2.4-.6,2.4-.6,0,0-.3.3-1.1.8-1.1.6-2,1.2-2.9,1.7-.8.6-1.5,1.2-1.9,1.9-.4.7-.4,1.3.2,1.8-.6-.6-1.2-.6-1.9-.1-.7.5-1.3,1.2-1.9,2-.6.8-1.2,1.9-1.9,3.1-.5.9-.7,1.3-.8,1.2s.2-.9.6-2.6c.5-1.7,1.2-4,2.2-7-2.9,1-5.2,1.7-6.8,2.3-1.6.6-2.5.8-2.5.8,0,0,.3-.3,1.1-.8,1.1-.7,2.1-1.3,2.9-2,.9-.6,1.5-1.3,2-2,.5-.7.4-1.3-.2-1.9Z"/>
  <path d="M204,20.6c.5.6,1.2.7,1.8.2.7-.4,1.3-1.1,1.9-1.9.6-.8,1.1-1.8,1.7-2.9.5-.8.7-1.2.8-1.1,0,0-.1.9-.6,2.4-.5,1.6-1.1,3.8-2,6.6,2.8-.9,5-1.5,6.6-2,1.6-.5,2.4-.6,2.4-.6,0,0-.3.3-1.1.8-1.1.6-2,1.2-2.9,1.7-.8.6-1.5,1.2-1.9,1.9-.4.7-.4,1.3.2,1.8-.6-.6-1.2-.6-1.9-.1-.7.5-1.3,1.2-1.9,2-.6.8-1.2,1.9-1.9,3.1-.5.9-.7,1.3-.8,1.2s.2-.9.6-2.6c.5-1.7,1.2-4,2.2-7-2.9,1-5.2,1.7-6.8,2.3-1.6.6-2.5.8-2.5.8s.3-.3,1.1-.8c1.1-.7,2.1-1.3,2.9-2,.9-.6,1.5-1.3,2-2,.5-.7.4-1.3-.2-1.9ZM204,32.4c.5.6,1.2.7,1.8.2.7-.4,1.3-1.1,1.9-1.9.6-.8,1.1-1.8,1.7-2.9.5-.8.7-1.2.8-1.1,0,0-.1.9-.6,2.4-.5,1.6-1.1,3.8-2,6.6,2.8-.9,5-1.5,6.6-2,1.6-.5,2.4-.6,2.4-.6,0,0-.3.3-1.1.8-1.1.6-2,1.2-2.9,1.7-.8.6-1.5,1.2-1.9,1.9-.4.7-.4,1.3.2,1.8-.6-.6-1.2-.6-1.9-.1-.7.5-1.3,1.2-1.9,2-.6.8-1.2,1.9-1.9,3.1-.5.9-.7,1.3-.8,1.2s.2-.9.6-2.6c.5-1.7,1.2-4,2.2-7-2.9,1-5.2,1.7-6.8,2.3-1.6.6-2.5.8-2.5.8,0,0,.3-.3,1.1-.8,1.1-.7,2.1-1.3,2.9-2,.9-.6,1.5-1.3,2-2,.5-.7.4-1.3-.2-1.9ZM204,38.3c.5.6,1.2.7,1.8.2.7-.4,1.3-1.1,1.9-1.9.6-.8,1.1-1.8,1.7-2.9.5-.8.7-1.2.8-1.1,0,0-.1.9-.6,2.4-.5,1.6-1.1,3.8-2,6.6,2.8-.9,5-1.5,6.6-2,1.6-.5,2.4-.6,2.4-.6,0,0-.3.3-1.1.8-1.1.6-2,1.2-2.9,1.7-.8.6-1.5,1.2-1.9,1.9-.4.7-.4,1.3.2,1.8-.6-.6-1.2-.6-1.9-.1-.7.5-1.3,1.2-1.9,2-.6.8-1.2,1.9-1.9,3.1-.5.9-.7,1.3-.8,1.2,0,0,.2-.9.6-2.6.5-1.7,1.2-4,2.2-7-2.9,1-5.2,1.7-6.8,2.3-1.6.6-2.5.8-2.5.8s.3-.3,1.1-.8c1.1-.7,2.1-1.3,2.9-2,.9-.6,1.5-1.3,2-2,.5-.7.4-1.3-.2-1.9ZM204,44.2c.5.6,1.2.7,1.8.2.7-.4,1.3-1.1,1.9-1.9.6-.8,1.1-1.8,1.7-2.9.5-.8.7-1.2.8-1.1,0,0-.1.9-.6,2.4-.5,1.6-1.1,3.8-2,6.6,2.8-.9,5-1.5,6.6-2,1.6-.5,2.4-.6,2.4-.6,0,0-.3.3-1.1.8-1.1.6-2,1.2-2.9,1.7-.8.6-1.5,1.2-1.9,1.9-.4.7-.4,1.3.2,1.8-.6-.6-1.2-.6-1.9-.1-.7.5-1.3,1.2-1.9,2-.6.8-1.2,1.9-1.9,3.1-.5.9-.7,1.3-.8,1.2,0,0,.2-.9.6-2.6.5-1.7,1.2-4,2.2-7-2.9,1-5.2,1.7-6.8,2.3-1.6.6-2.5.8-2.5.8s.3-.3,1.1-.8c1.1-.7,2.1-1.3,2.9-2,.9-.6,1.5-1.3,2-2,.5-.7.4-1.3-.2-1.9ZM204,50.1c.5.6,1.2.7,1.8.2.7-.4,1.3-1.1,1.9-1.9.6-.8,1.1-1.8,1.7-2.9.5-.8.7-1.2.8-1.1,0,0-.1.9-.6,2.4-.5,1.6-1.1,3.8-2,6.6,2.8-.9,5-1.5,6.6-2,1.6-.5,2.4-.6,2.4-.6,0,0-.3.3-1.1.8-1.1.6-2,1.2-2.9,1.7-.8.6-1.5,1.2-1.9,1.9-.4.7-.4,1.3.2,1.8-.6-.6-1.2-.6-1.9-.1-.7.5-1.3,1.2-1.9,2-.6.8-1.2,1.9-1.9,3.1-.5.9-.7,1.3-.8,1.2s.2-.9.6-2.6c.5-1.7,1.2-4,2.2-7-2.9,1-5.2,1.7-6.8,2.3-1.6.6-2.5.8-2.5.8s.3-.3,1.1-.8c1.1-.7,2.1-1.3,2.9-2,.9-.6,1.5-1.3,2-2,.5-.7.4-1.3-.2-1.9ZM204,56c.5.6,1.2.7,1.8.2.7-.4,1.3-1.1,1.9-1.9.6-.8,1.1-1.8,1.7-2.9.5-.8.7-1.2.8-1.1,0,0-.1.9-.6,2.4-.5,1.6-1.1,3.8-2,6.6,2.8-.9,5-1.5,6.6-2,1.6-.5,2.4-.6,2.4-.6,0,0-.3.3-1.1.8-1.1.6-2,1.2-2.9,1.7-.8.6-1.5,1.2-1.9,1.9-.4.7-.4,1.3.2,1.8-.6-.6-1.2-.6-1.9-.1-.7.5-1.3,1.2-1.9,2-.6.8-1.2,1.9-1.9,3.1-.5.9-.7,1.3-.8,1.2,0,0,.2-.9.6-2.6.5-1.7,1.2-4,2.2-7-2.9,1-5.2,1.7-6.8,2.3-1.6.5-2.5.8-2.5.8,0,0,.3-.3,1.1-.8,1.1-.7,2.1-1.3,2.9-2,.9-.6,1.5-1.3,2-2,.5-.7.4-1.3-.2-1.9Z"/>
  <path d="M216.8,32.4c.5.6,1.2.7,1.8.2.7-.4,1.3-1.1,1.9-1.9.6-.8,1.1-1.8,1.7-2.9.5-.8.7-1.2.8-1.1,0,0-.1.9-.6,2.4-.5,1.6-1.1,3.8-2,6.6,2.8-.9,5-1.5,6.6-2,1.6-.5,2.4-.6,2.4-.6,0,0-.3.3-1.1.8-1.1.6-2,1.2-2.9,1.7-.8.6-1.5,1.2-1.9,1.9-.4.7-.4,1.3.2,1.8-.6-.6-1.2-.6-1.9-.1-.7.5-1.3,1.2-1.9,2-.6.8-1.2,1.9-1.9,3.1-.5.9-.7,1.3-.8,1.2s.2-.9.6-2.6c.5-1.7,1.2-4,2.2-7-2.9,1-5.2,1.7-6.8,2.3-1.6.6-2.5.8-2.5.8,0,0,.3-.3,1.1-.8,1.1-.7,2.1-1.3,2.9-2,.9-.6,1.5-1.3,2-2,.5-.7.4-1.3-.2-1.9ZM216.8,44.2c.5.6,1.2.7,1.8.2.7-.4,1.3-1.1,1.9-1.9.6-.8,1.1-1.8,1.7-2.9.5-.8.7-1.2.8-1.1,0,0-.1.9-.6,2.4-.5,1.6-1.1,3.8-2,6.6,2.8-.9,5-1.5,6.6-2,1.6-.5,2.4-.6,2.4-.6,0,0-.3.3-1.1.8-1.1.6-2,1.2-2.9,1.7-.8.6-1.5,1.2-1.9,1.9-.4.7-.4,1.3.2,1.8-.6-.6-1.2-.6-1.9-.1-.7.5-1.3,1.2-1.9,2-.6.8-1.2,1.9-1.9,3.1-.5.9-.7,1.3-.8,1.2,0,0,.2-.9.6-2.6.5-1.7,1.2-4,2.2-7-2.9,1-5.2,1.7-6.8,2.3-1.6.6-2.5.8-2.5.8s.3-.3,1.1-.8c1.1-.7,2.1-1.3,2.9-2,.9-.6,1.5-1.3,2-2,.5-.7.4-1.3-.2-1.9ZM216.8,50.1c.5.6,1.2.7,1.8.2.7-.4,1.3-1.1,1.9-1.9.6-.8,1.1-1.8,1.7-2.9.5-.8.7-1.2.8-1.1,0,0-.1.9-.6,2.4-.5,1.6-1.1,3.8-2,6.6,2.8-.9,5-1.5,6.6-2,1.6-.5,2.4-.6,2.4-.6,0,0-.3.3-1.1.8-1.1.6-2,1.2-2.9,1.7-.8.6-1.5,1.2-1.9,1.9-.4.7-.4,1.3.2,1.8-.6-.6-1.2-.6-1.9-.1-.7.5-1.3,1.2-1.9,2-.6.8-1.2,1.9-1.9,3.1-.5.9-.7,1.3-.8,1.2s.2-.9.6-2.6c.5-1.7,1.2-4,2.2-7-2.9,1-5.2,1.7-6.8,2.3-1.6.6-2.5.8-2.5.8s.3-.3,1.1-.8c1.1-.7,2.1-1.3,2.9-2,.9-.6,1.5-1.3,2-2,.5-.7.4-1.3-.2-1.9ZM216.8,56c.5.6,1.2.7,1.8.2.7-.4,1.3-1.1,1.9-1.9.6-.8,1.1-1.8,1.7-2.9.5-.8.7-1.2.8-1.1,0,0-.1.9-.6,2.4-.5,1.6-1.1,3.8-2,6.6,2.8-.9,5-1.5,6.6-2,1.6-.5,2.4-.6,2.4-.6,0,0-.3.3-1.1.8-1.1.6-2,1.2-2.9,1.7-.8.6-1.5,1.2-1.9,1.9-.4.7-.4,1.3.2,1.8-.6-.6-1.2-.6-1.9-.1-.7.5-1.3,1.2-1.9,2-.6.8-1.2,1.9-1.9,3.1-.5.9-.7,1.3-.8,1.2,0,0,.2-.9.6-2.6.5-1.7,1.2-4,2.2-7-2.9,1-5.2,1.7-6.8,2.3-1.6.5-2.5.8-2.5.8,0,0,.3-.3,1.1-.8,1.1-.7,2.1-1.3,2.9-2,.9-.6,1.5-1.3,2-2,.5-.7.4-1.3-.2-1.9ZM222.7,32.4c.6.6,1.2.7,1.8.2.7-.4,1.3-1.1,1.9-1.9.6-.8,1.1-1.8,1.7-2.9.5-.8.7-1.2.8-1.1,0,0-.1.9-.6,2.4-.5,1.6-1.1,3.8-2,6.6,2.8-.9,5-1.5,6.6-2,1.6-.5,2.4-.6,2.4-.6,0,0-.3.3-1.1.8-1.1.6-2,1.2-2.9,1.7-.8.6-1.5,1.2-1.9,1.9-.4.7-.4,1.3.2,1.8-.6-.6-1.2-.6-1.9-.1-.7.5-1.3,1.2-1.9,2-.6.8-1.2,1.9-1.9,3.1-.5.9-.7,1.3-.8,1.2,0,0,.2-.9.6-2.6.5-1.7,1.2-4,2.2-7-2.9,1-5.2,1.7-6.8,2.3-1.6.6-2.5.8-2.5.8,0,0,.3-.3,1.1-.8,1.1-.7,2.1-1.3,2.9-2,.9-.6,1.5-1.3,2-2,.5-.7.4-1.3-.2-1.9ZM222.7,44.2c.6.6,1.2.7,1.8.2.7-.4,1.3-1.1,1.9-1.9.6-.8,1.1-1.8,1.7-2.9.5-.8.7-1.2.8-1.1,0,0-.1.9-.6,2.4-.5,1.6-1.1,3.8-2,6.6,2.8-.9,5-1.5,6.6-2,1.6-.5,2.4-.6,2.4-.6,0,0-.3.3-1.1.8-1.1.6-2,1.2-2.9,1.7-.8.6-1.5,1.2-1.9,1.9-.4.7-.4,1.3.2,1.8-.6-.6-1.2-.6-1.9-.1-.7.5-1.3,1.2-1.9,2-.6.8-1.2,1.9-1.9,3.1-.5.9-.7,1.3-.8,1.2s.2-.9.6-2.6c.5-1.7,1.2-4,2.2-7-2.9,1-5.2,1.7-6.8,2.3-1.6.6-2.5.8-2.5.8,0,0,.3-.3,1.1-.8,1.1-.7,2.1-1.3,2.9-2,.9-.6,1.5-1.3,2-2,.5-.7.4-1.3-.2-1.9ZM222.7,56c.6.6,1.2.7,1.8.2.7-.4,1.3-1.1,1.9-1.9.6-.8,1.1-1.8,1.7-2.9.5-.8.7-1.2.8-1.1,0,0-.1.9-.6,2.4-.5,1.6-1.1,3.8-2,6.6,2.8-.9,5-1.5,6.6-2,1.6-.5,2.4-.6,2.4-.6,0,0-.3.3-1.1.8-1.1.6-2,1.2-2.9,1.7-.8.6-1.5,1.2-1.9,1.9-.4.7-.4,1.3.2,1.8-.6-.6-1.2-.6-1.9-.1-.7.5-1.3,1.2-1.9,2-.6.8-1.2,1.9-1.9,3.1-.5.9-.7,1.3-.8,1.2s.2-.9.6-2.6c.5-1.7,1.2-4,2.2-7-2.9,1-5.2,1.7-6.8,2.3-1.6.5-2.5.8-2.5.8s.3-.3,1.1-.8c1.1-.7,2.1-1.3,2.9-2,.9-.6,1.5-1.3,2-2,.5-.7.4-1.3-.2-1.9ZM228.6,32.4c.5.6,1.2.7,1.8.2.7-.4,1.3-1.1,1.9-1.9.6-.8,1.1-1.8,1.7-2.9.5-.8.7-1.2.8-1.1,0,0-.1.9-.6,2.4-.5,1.6-1.1,3.8-2,6.6,2.8-.9,5-1.5,6.6-2,1.6-.5,2.4-.6,2.4-.6,0,0-.3.3-1.1.8-1.1.6-2,1.2-2.9,1.7-.8.6-1.5,1.2-1.9,1.9-.4.7-.4,1.3.2,1.8-.6-.6-1.2-.6-1.9-.1-.7.5-1.3,1.2-1.9,2-.6.8-1.2,1.9-1.9,3.1-.5.9-.7,1.3-.8,1.2s.2-.9.6-2.6c.5-1.7,1.2-4,2.2-7-2.9,1-5.2,1.7-6.8,2.3-1.6.6-2.5.8-2.5.8,0,0,.3-.3,1.1-.8,1.1-.7,2.1-1.3,2.9-2,.9-.6,1.5-1.3,2-2,.5-.7.4-1.3-.2-1.9ZM228.6,38.3c.5.6,1.2.7,1.8.2.7-.4,1.3-1.1,1.9-1.9.6-.8,1.1-1.8,1.7-2.9.5-.8.7-1.2.8-1.1,0,0-.1.9-.6,2.4-.5,1.6-1.1,3.8-2,6.6,2.8-.9,5-1.5,6.6-2,1.6-.5,2.4-.6,2.4-.6,0,0-.3.3-1.1.8-1.1.6-2,1.2-2.9,1.7-.8.6-1.5,1.2-1.9,1.9-.4.7-.4,1.3.2,1.8-.6-.6-1.2-.6-1.9-.1-.7.5-1.3,1.2-1.9,2-.6.8-1.2,1.9-1.9,3.1-.5.9-.7,1.3-.8,1.2,0,0,.2-.9.6-2.6.5-1.7,1.2-4,2.2-7-2.9,1-5.2,1.7-6.8,2.3-1.6.6-2.5.8-2.5.8,0,0,.3-.3,1.1-.8,1.1-.7,2.1-1.3,2.9-2,.9-.6,1.5-1.3,2-2,.5-.7.4-1.3-.2-1.9ZM228.6,44.2c.5.6,1.2.7,1.8.2.7-.4,1.3-1.1,1.9-1.9.6-.8,1.1-1.8,1.7-2.9.5-.8.7-1.2.8-1.1,0,0-.1.9-.6,2.4-.5,1.6-1.1,3.8-2,6.6,2.8-.9,5-1.5,6.6-2,1.6-.5,2.4-.6,2.4-.6,0,0-.3.3-1.1.8-1.1.6-2,1.2-2.9,1.7-.8.6-1.5,1.2-1.9,1.9-.4.7-.4,1.3.2,1.8-.6-.6-1.2-.6-1.9-.1-.7.5-1.3,1.2-1.9,2-.6.8-1.2,1.9-1.9,3.1-.5.9-.7,1.3-.8,1.2,0,0,.2-.9.6-2.6.5-1.7,1.2-4,2.2-7-2.9,1-5.2,1.7-6.8,2.3-1.6.6-2.5.8-2.5.8,0,0,.3-.3,1.1-.8,1.1-.7,2.1-1.3,2.9-2,.9-.6,1.5-1.3,2-2,.5-.7.4-1.3-.2-1.9ZM228.6,50.1c.5.6,1.2.7,1.8.2.7-.4,1.3-1.1,1.9-1.9.6-.8,1.1-1.8,1.7-2.9.5-.8.7-1.2.8-1.1,0,0-.1.9-.6,2.4-.5,1.6-1.1,3.8-2,6.6,2.8-.9,5-1.5,6.6-2,1.6-.5,2.4-.6,2.4-.6,0,0-.3.3-1.1.8-1.1.6-2,1.2-2.9,1.7-.8.6-1.5,1.2-1.9,1.9-.4.7-.4,1.3.2,1.8-.6-.6-1.2-.6-1.9-.1-.7.5-1.3,1.2-1.9,2-.6.8-1.2,1.9-1.9,3.1-.5.9-.7,1.3-.8,1.2s.2-.9.6-2.6c.5-1.7,1.2-4,2.2-7-2.9,1-5.2,1.7-6.8,2.3-1.6.6-2.5.8-2.5.8,0,0,.3-.3,1.1-.8,1.1-.7,2.1-1.3,2.9-2,.9-.6,1.5-1.3,2-2,.5-.7.4-1.3-.2-1.9Z"/>
  <path d="M241.3,26.5c.5.6,1.2.7,1.8.2.7-.4,1.3-1.1,1.9-1.9.6-.8,1.1-1.8,1.7-2.9.5-.8.7-1.2.8-1.1,0,0-.1.9-.6,2.4-.5,1.6-1.1,3.8-2,6.6,2.8-.9,5-1.5,6.6-2,1.6-.5,2.4-.6,2.4-.6,0,0-.3.3-1.1.8-1.1.6-2,1.2-2.9,1.7-.8.6-1.5,1.2-1.9,1.9-.4.7-.4,1.3.2,1.8-.6-.6-1.2-.6-1.9-.1-.7.5-1.3,1.2-1.9,2-.6.8-1.2,1.9-1.9,3.1-.5.9-.7,1.3-.8,1.2,0,0,.2-.9.6-2.6.5-1.7,1.2-4,2.2-7-2.9,1-5.2,1.7-6.8,2.3-1.6.6-2.5.8-2.5.8s.3-.3,1.1-.8c1.1-.7,2.1-1.3,2.9-2,.9-.6,1.5-1.3,2-2,.5-.7.4-1.3-.2-1.9ZM241.3,32.4c.5.6,1.2.7,1.8.2.7-.4,1.3-1.1,1.9-1.9.6-.8,1.1-1.8,1.7-2.9.5-.8.7-1.2.8-1.1,0,0-.1.9-.6,2.4-.5,1.6-1.1,3.8-2,6.6,2.8-.9,5-1.5,6.6-2,1.6-.5,2.4-.6,2.4-.6,0,0-.3.3-1.1.8-1.1.6-2,1.2-2.9,1.7-.8.6-1.5,1.2-1.9,1.9-.4.7-.4,1.3.2,1.8-.6-.6-1.2-.6-1.9-.1-.7.5-1.3,1.2-1.9,2-.6.8-1.2,1.9-1.9,3.1-.5.9-.7,1.3-.8,1.2s.2-.9.6-2.6c.5-1.7,1.2-4,2.2-7-2.9,1-5.2,1.7-6.8,2.3-1.6.6-2.5.8-2.5.8,0,0,.3-.3,1.1-.8,1.1-.7,2.1-1.3,2.9-2,.9-.6,1.5-1.3,2-2,.5-.7.4-1.3-.2-1.9ZM241.3,50.1c.5.6,1.2.7,1.8.2.7-.4,1.3-1.1,1.9-1.9.6-.8,1.1-1.8,1.7-2.9.5-.8.7-1.2.8-1.1,0,0-.1.9-.6,2.4-.5,1.6-1.1,3.8-2,6.6,2.8-.9,5-1.5,6.6-2,1.6-.5,2.4-.6,2.4-.6,0,0-.3.3-1.1.8-1.1.6-2,1.2-2.9,1.7-.8.6-1.5,1.2-1.9,1.9-.4.7-.4,1.3.2,1.8-.6-.6-1.2-.6-1.9-.1-.7.5-1.3,1.2-1.9,2-.6.8-1.2,1.9-1.9,3.1-.5.9-.7,1.3-.8,1.2s.2-.9.6-2.6c.5-1.7,1.2-4,2.2-7-2.9,1-5.2,1.7-6.8,2.3-1.6.6-2.5.8-2.5.8s.3-.3,1.1-.8c1.1-.7,2.1-1.3,2.9-2,.9-.6,1.5-1.3,2-2,.5-.7.4-1.3-.2-1.9ZM241.3,56c.5.6,1.2.7,1.8.2.7-.4,1.3-1.1,1.9-1.9.6-.8,1.1-1.8,1.7-2.9.5-.8.7-1.2.8-1.1,0,0-.1.9-.6,2.4-.5,1.6-1.1,3.8-2,6.6,2.8-.9,5-1.5,6.6-2,1.6-.5,2.4-.6,2.4-.6,0,0-.3.3-1.1.8-1.1.6-2,1.2-2.9,1.7-.8.6-1.5,1.2-1.9,1.9-.4.7-.4,1.3.2,1.8-.6-.6-1.2-.6-1.9-.1-.7.5-1.3,1.2-1.9,2-.6.8-1.2,1.9-1.9,3.1-.5.9-.7,1.3-.8,1.2,0,0,.2-.9.6-2.6.5-1.7,1.2-4,2.2-7-2.9,1-5.2,1.7-6.8,2.3-1.6.5-2.5.8-2.5.8,0,0,.3-.3,1.1-.8,1.1-.7,2.1-1.3,2.9-2,.9-.6,1.5-1.3,2-2,.5-.7.4-1.3-.2-1.9ZM247.2,20.6c.6.6,1.2.7,1.8.2.7-.4,1.3-1.1,1.9-1.9.6-.8,1.1-1.8,1.7-2.9.5-.8.7-1.2.8-1.1,0,0-.1.9-.6,2.4-.5,1.6-1.1,3.8-2,6.6,2.8-.9,5-1.5,6.6-2,1.6-.5,2.4-.6,2.4-.6,0,0-.3.3-1.1.8-1.1.6-2,1.2-2.9,1.7-.8.6-1.5,1.2-1.9,1.9-.4.7-.4,1.3.2,1.8-.6-.6-1.2-.6-1.9-.1-.7.5-1.3,1.2-1.9,2-.6.8-1.2,1.9-1.9,3.1-.5.9-.7,1.3-.8,1.2,0,0,.2-.9.6-2.6.5-1.7,1.2-4,2.2-7-2.9,1-5.2,1.7-6.8,2.3-1.6.6-2.5.8-2.5.8,0,0,.3-.3,1.1-.8,1.1-.7,2.1-1.3,2.9-2,.9-.6,1.5-1.3,2-2,.5-.7.4-1.3-.2-1.9ZM247.2,44.2c.6.6,1.2.7,1.8.2.7-.4,1.3-1.1,1.9-1.9.6-.8,1.1-1.8,1.7-2.9.5-.8.7-1.2.8-1.1,0,0-.1.9-.6,2.4-.5,1.6-1.1,3.8-2,6.6,2.8-.9,5-1.5,6.6-2,1.6-.5,2.4-.6,2.4-.6,0,0-.3.3-1.1.8-1.1.6-2,1.2-2.9,1.7-.8.6-1.5,1.2-1.9,1.9-.4.7-.4,1.3.2,1.8-.6-.6-1.2-.6-1.9-.1-.7.5-1.3,1.2-1.9,2-.6.8-1.2,1.9-1.9,3.1-.5.9-.7,1.3-.8,1.2s.2-.9.6-2.6c.5-1.7,1.2-4,2.2-7-2.9,1-5.2,1.7-6.8,2.3-1.6.6-2.5.8-2.5.8,0,0,.3-.3,1.1-.8,1.1-.7,2.1-1.3,2.9-2,.9-.6,1.5-1.3,2-2,.5-.7.4-1.3-.2-1.9ZM247.2,56c.6.6,1.2.7,1.8.2.7-.4,1.3-1.1,1.9-1.9.6-.8,1.1-1.8,1.7-2.9.5-.8.7-1.2.8-1.1,0,0-.1.9-.6,2.4-.5,1.6-1.1,3.8-2,6.6,2.8-.9,5-1.5,6.6-2,1.6-.5,2.4-.6,2.4-.6,0,0-.3.3-1.1.8-1.1.6-2,1.2-2.9,1.7-.8.6-1.5,1.2-1.9,1.9-.4.7-.4,1.3.2,1.8-.6-.6-1.2-.6-1.9-.1-.7.5-1.3,1.2-1.9,2-.6.8-1.2,1.9-1.9,3.1-.5.9-.7,1.3-.8,1.2s.2-.9.6-2.6c.5-1.7,1.2-4,2.2-7-2.9,1-5.2,1.7-6.8,2.3-1.6.5-2.5.8-2.5.8s.3-.3,1.1-.8c1.1-.7,2.1-1.3,2.9-2,.9-.6,1.5-1.3,2-2,.5-.7.4-1.3-.2-1.9ZM253.1,20.6c.5.6,1.2.7,1.8.2.7-.4,1.3-1.1,1.9-1.9.6-.8,1.1-1.8,1.7-2.9.5-.8.7-1.2.8-1.1,0,0-.1.9-.6,2.4-.5,1.6-1.1,3.8-2,6.6,2.8-.9,5-1.5,6.6-2,1.6-.5,2.4-.6,2.4-.6,0,0-.3.3-1.1.8-1.1.6-2,1.2-2.9,1.7-.8.6-1.5,1.2-1.9,1.9-.4.7-.4,1.3.2,1.8-.6-.6-1.2-.6-1.9-.1-.7.5-1.3,1.2-1.9,2-.6.8-1.2,1.9-1.9,3.1-.5.9-.7,1.3-.8,1.2s.2-.9.6-2.6c.5-1.7,1.2-4,2.2-7-2.9,1-5.2,1.7-6.8,2.3-1.6.6-2.5.8-2.5.8,0,0,.3-.3,1.1-.8,1.1-.7,2.1-1.3,2.9-2,.9-.6,1.5-1.3,2-2,.5-.7.4-1.3-.2-1.9ZM253.1,26.5c.5.6,1.2.7,1.8.2.7-.4,1.3-1.1,1.9-1.9.6-.8,1.1-1.8,1.7-2.9.5-.8.7-1.2.8-1.1,0,0-.1.9-.6,2.4-.5,1.6-1.1,3.8-2,6.6,2.8-.9,5-1.5,6.6-2,1.6-.5,2.4-.6,2.4-.6,0,0-.3.3-1.1.8-1.1.6-2,1.2-2.9,1.7-.8.6-1.5,1.2-1.9,1.9-.4.7-.4,1.3.2,1.8-.6-.6-1.2-.6-1.9-.1-.7.5-1.3,1.2-1.9,2-.6.8-1.2,1.9-1.9,3.1-.5.9-.7,1.3-.8,1.2,0,0,.2-.9.6-2.6.5-1.7,1.2-4,2.2-7-2.9,1-5.2,1.7-6.8,2.3-1.6.6-2.5.8-2.5.8,0,0,.3-.3,1.1-.8,1.1-.7,2.1-1.3,2.9-2,.9-.6,1.5-1.3,2-2,.5-.7.4-1.3-.2-1.9ZM253.1,32.4c.5.6,1.2.7,1.8.2.7-.4,1.3-1.1,1.9-1.9.6-.8,1.1-1.8,1.7-2.9.5-.8.7-1.2.8-1.1,0,0-.1.9-.6,2.4-.5,1.6-1.1,3.8-2,6.6,2.8-.9,5-1.5,6.6-2,1.6-.5,2.4-.6,2.4-.6,0,0-.3.3-1.1.8-1.1.6-2,1.2-2.9,1.7-.8.6-1.5,1.2-1.9,1.9-.4.7-.4,1.3.2,1.8-.6-.6-1.2-.6-1.9-.1-.7.5-1.3,1.2-1.9,2-.6.8-1.2,1.9-1.9,3.1-.5.9-.7,1.3-.8,1.2s.2-.9.6-2.6c.5-1.7,1.2-4,2.2-7-2.9,1-5.2,1.7-6.8,2.3-1.6.6-2.5.8-2.5.8,0,0,.3-.3,1.1-.8,1.1-.7,2.1-1.3,2.9-2,.9-.6,1.5-1.3,2-2,.5-.7.4-1.3-.2-1.9ZM253.1,38.3c.5.6,1.2.7,1.8.2.7-.4,1.3-1.1,1.9-1.9.6-.8,1.1-1.8,1.7-2.9.5-.8.7-1.2.8-1.1,0,0-.1.9-.6,2.4-.5,1.6-1.1,3.8-2,6.6,2.8-.9,5-1.5,6.6-2,1.6-.5,2.4-.6,2.4-.6,0,0-.3.3-1.1.8-1.1.6-2,1.2-2.9,1.7-.8.6-1.5,1.2-1.9,1.9-.4.7-.4,1.3.2,1.8-.6-.6-1.2-.6-1.9-.1-.7.5-1.3,1.2-1.9,2-.6.8-1.2,1.9-1.9,3.1-.5.9-.7,1.3-.8,1.2,0,0,.2-.9.6-2.6.5-1.7,1.2-4,2.2-7-2.9,1-5.2,1.7-6.8,2.3-1.6.6-2.5.8-2.5.8,0,0,.3-.3,1.1-.8,1.1-.7,2.1-1.3,2.9-2,.9-.6,1.5-1.3,2-2,.5-.7.4-1.3-.2-1.9ZM253.1,56c.5.6,1.2.7,1.8.2.7-.4,1.3-1.1,1.9-1.9.6-.8,1.1-1.8,1.7-2.9.5-.8.7-1.2.8-1.1,0,0-.1.9-.6,2.4-.5,1.6-1.1,3.8-2,6.6,2.8-.9,5-1.5,6.6-2,1.6-.5,2.4-.6,2.4-.6,0,0-.3.3-1.1.8-1.1.6-2,1.2-2.9,1.7-.8.6-1.5,1.2-1.9,1.9-.4.7-.4,1.3.2,1.8-.6-.6-1.2-.6-1.9-.1-.7.5-1.3,1.2-1.9,2-.6.8-1.2,1.9-1.9,3.1-.5.9-.7,1.3-.8,1.2,0,0,.2-.9.6-2.6.5-1.7,1.2-4,2.2-7-2.9,1-5.2,1.7-6.8,2.3-1.6.5-2.5.8-2.5.8s.3-.3,1.1-.8c1.1-.7,2.1-1.3,2.9-2,.9-.6,1.5-1.3,2-2,.5-.7.4-1.3-.2-1.9Z"/>
  <path d="M265.8,26.5c.5.6,1.2.7,1.8.2.7-.4,1.3-1.1,1.9-1.9.6-.8,1.1-1.8,1.7-2.9.5-.8.7-1.2.8-1.1,0,0-.1.9-.6,2.4-.5,1.6-1.1,3.8-2,6.6,2.8-.9,5-1.5,6.6-2,1.6-.5,2.4-.6,2.4-.6,0,0-.3.3-1.1.8-1.1.6-2,1.2-2.9,1.7-.8.6-1.5,1.2-1.9,1.9-.4.7-.4,1.3.2,1.8-.6-.6-1.2-.6-1.9-.1-.7.5-1.3,1.2-1.9,2-.6.8-1.2,1.9-1.9,3.1-.5.9-.7,1.3-.8,1.2,0,0,.2-.9.6-2.6.5-1.7,1.2-4,2.2-7-2.9,1-5.2,1.7-6.8,2.3-1.6.6-2.5.8-2.5.8s.3-.3,1.1-.8c1.1-.7,2.1-1.3,2.9-2,.9-.6,1.5-1.3,2-2,.5-.7.4-1.3-.2-1.9ZM265.8,38.3c.5.6,1.2.7,1.8.2.7-.4,1.3-1.1,1.9-1.9.6-.8,1.1-1.8,1.7-2.9.5-.8.7-1.2.8-1.1,0,0-.1.9-.6,2.4-.5,1.6-1.1,3.8-2,6.6,2.8-.9,5-1.5,6.6-2,1.6-.5,2.4-.6,2.4-.6,0,0-.3.3-1.1.8-1.1.6-2,1.2-2.9,1.7-.8.6-1.5,1.2-1.9,1.9-.4.7-.4,1.3.2,1.8-.6-.6-1.2-.6-1.9-.1-.7.5-1.3,1.2-1.9,2-.6.8-1.2,1.9-1.9,3.1-.5.9-.7,1.3-.8,1.2,0,0,.2-.9.6-2.6.5-1.7,1.2-4,2.2-7-2.9,1-5.2,1.7-6.8,2.3-1.6.6-2.5.8-2.5.8s.3-.3,1.1-.8c1.1-.7,2.1-1.3,2.9-2,.9-.6,1.5-1.3,2-2,.5-.7.4-1.3-.2-1.9ZM265.8,56c.5.6,1.2.7,1.8.2.7-.4,1.3-1.1,1.9-1.9.6-.8,1.1-1.8,1.7-2.9.5-.8.7-1.2.8-1.1,0,0-.1.9-.6,2.4-.5,1.6-1.1,3.8-2,6.6,2.8-.9,5-1.5,6.6-2,1.6-.5,2.4-.6,2.4-.6,0,0-.3.3-1.1.8-1.1.6-2,1.2-2.9,1.7-.8.6-1.5,1.2-1.9,1.9-.4.7-.4,1.3.2,1.8-.6-.6-1.2-.6-1.9-.1-.7.5-1.3,1.2-1.9,2-.6.8-1.2,1.9-1.9,3.1-.5.9-.7,1.3-.8,1.2,0,0,.2-.9.6-2.6.5-1.7,1.2-4,2.2-7-2.9,1-5.2,1.7-6.8,2.3-1.6.5-2.5.8-2.5.8,0,0,.3-.3,1.1-.8,1.1-.7,2.1-1.3,2.9-2,.9-.6,1.5-1.3,2-2,.5-.7.4-1.3-.2-1.9ZM271.7,20.6c.6.6,1.2.7,1.8.2.7-.4,1.3-1.1,1.9-1.9.6-.8,1.1-1.8,1.7-2.9.5-.8.7-1.2.8-1.1,0,0-.1.9-.6,2.4-.5,1.6-1.1,3.8-2,6.6,2.8-.9,5-1.5,6.6-2,1.6-.5,2.4-.6,2.4-.6,0,0-.3.3-1.1.8-1.1.6-2,1.2-2.9,1.7-.8.6-1.5,1.2-1.9,1.9-.4.7-.4,1.3.2,1.8-.6-.6-1.2-.6-1.9-.1-.7.5-1.3,1.2-1.9,2-.6.8-1.2,1.9-1.9,3.1-.5.9-.7,1.3-.8,1.2,0,0,.2-.9.6-2.6.5-1.7,1.2-4,2.2-7-2.9,1-5.2,1.7-6.8,2.3-1.6.6-2.5.8-2.5.8,0,0,.3-.3,1.1-.8,1.1-.7,2.1-1.3,2.9-2,.9-.6,1.5-1.3,2-2,.5-.7.4-1.3-.2-1.9ZM271.7,38.3c.6.6,1.2.7,1.8.2.7-.4,1.3-1.1,1.9-1.9.6-.8,1.1-1.8,1.7-2.9.5-.8.7-1.2.8-1.1,0,0-.1.9-.6,2.4-.5,1.6-1.1,3.8-2,6.6,2.8-.9,5-1.5,6.6-2,1.6-.5,2.4-.6,2.4-.6,0,0-.3.3-1.1.8-1.1.6-2,1.2-2.9,1.7-.8.6-1.5,1.2-1.9,1.9-.4.7-.4,1.3.2,1.8-.6-.6-1.2-.6-1.9-.1-.7.5-1.3,1.2-1.9,2-.6.8-1.2,1.9-1.9,3.1-.5.9-.7,1.3-.8,1.2s.2-.9.6-2.6c.5-1.7,1.2-4,2.2-7-2.9,1-5.2,1.7-6.8,2.3-1.6.6-2.5.8-2.5.8,0,0,.3-.3,1.1-.8,1.1-.7,2.1-1.3,2.9-2,.9-.6,1.5-1.3,2-2,.5-.7.4-1.3-.2-1.9ZM271.7,56c.6.6,1.2.7,1.8.2.7-.4,1.3-1.1,1.9-1.9.6-.8,1.1-1.8,1.7-2.9.5-.8.7-1.2.8-1.1,0,0-.1.9-.6,2.4-.5,1.6-1.1,3.8-2,6.6,2.8-.9,5-1.5,6.6-2,1.6-.5,2.4-.6,2.4-.6,0,0-.3.3-1.1.8-1.1.6-2,1.2-2.9,1.7-.8.6-1.5,1.2-1.9,1.9-.4.7-.4,1.3.2,1.8-.6-.6-1.2-.6-1.9-.1-.7.5-1.3,1.2-1.9,2-.6.8-1.2,1.9-1.9,3.1-.5.9-.7,1.3-.8,1.2s.2-.9.6-2.6c.5-1.7,1.2-4,2.2-7-2.9,1-5.2,1.7-6.8,2.3-1.6.5-2.5.8-2.5.8s.3-.3,1.1-.8c1.1-.7,2.1-1.3,2.9-2,.9-.6,1.5-1.3,2-2,.5-.7.4-1.3-.2-1.9ZM277.6,20.6c.5.6,1.2.7,1.8.2.7-.4,1.3-1.1,1.9-1.9.6-.8,1.1-1.8,1.7-2.9.5-.8.7-1.2.8-1.1,0,0-.1.9-.6,2.4-.5,1.6-1.1,3.8-2,6.6,2.8-.9,5-1.5,6.6-2,1.6-.5,2.4-.6,2.4-.6,0,0-.3.3-1.1.8-1.1.6-2,1.2-2.9,1.7-.8.6-1.5,1.2-1.9,1.9-.4.7-.4,1.3.2,1.8-.6-.6-1.2-.6-1.9-.1-.7.5-1.3,1.2-1.9,2-.6.8-1.2,1.9-1.9,3.1-.5.9-.7,1.3-.8,1.2s.2-.9.6-2.6c.5-1.7,1.2-4,2.2-7-2.9,1-5.2,1.7-6.8,2.3-1.6.6-2.5.8-2.5.8,0,0,.3-.3,1.1-.8,1.1-.7,2.1-1.3,2.9-2,.9-.6,1.5-1.3,2-2,.5-.7.4-1.3-.2-1.9ZM277.6,26.5c.5.6,1.2.7,1.8.2.7-.4,1.3-1.1,1.9-1.9.6-.8,1.1-1.8,1.7-2.9.5-.8.7-1.2.8-1.1,0,0-.1.9-.6,2.4-.5,1.6-1.1,3.8-2,6.6,2.8-.9,5-1.5,6.6-2,1.6-.5,2.4-.6,2.4-.6,0,0-.3.3-1.1.8-1.1.6-2,1.2-2.9,1.7-.8.6-1.5,1.2-1.9,1.9-.4.7-.4,1.3.2,1.8-.6-.6-1.2-.6-1.9-.1-.7.5-1.3,1.2-1.9,2-.6.8-1.2,1.9-1.9,3.1-.5.9-.7,1.3-.8,1.2,0,0,.2-.9.6-2.6.5-1.7,1.2-4,2.2-7-2.9,1-5.2,1.7-6.8,2.3-1.6.6-2.5.8-2.5.8,0,0,.3-.3,1.1-.8,1.1-.7,2.1-1.3,2.9-2,.9-.6,1.5-1.3,2-2,.5-.7.4-1.3-.2-1.9ZM277.6,32.4c.5.6,1.2.7,1.8.2.7-.4,1.3-1.1,1.9-1.9.6-.8,1.1-1.8,1.7-2.9.5-.8.7-1.2.8-1.1,0,0-.1.9-.6,2.4-.5,1.6-1.1,3.8-2,6.6,2.8-.9,5-1.5,6.6-2,1.6-.5,2.4-.6,2.4-.6,0,0-.3.3-1.1.8-1.1.6-2,1.2-2.9,1.7-.8.6-1.5,1.2-1.9,1.9-.4.7-.4,1.3.2,1.8-.6-.6-1.2-.6-1.9-.1-.7.5-1.3,1.2-1.9,2-.6.8-1.2,1.9-1.9,3.1-.5.9-.7,1.3-.8,1.2s.2-.9.6-2.6c.5-1.7,1.2-4,2.2-7-2.9,1-5.2,1.7-6.8,2.3-1.6.6-2.5.8-2.5.8,0,0,.3-.3,1.1-.8,1.1-.7,2.1-1.3,2.9-2,.9-.6,1.5-1.3,2-2,.5-.7.4-1.3-.2-1.9ZM277.6,44.2c.5.6,1.2.7,1.8.2.7-.4,1.3-1.1,1.9-1.9.6-.8,1.1-1.8,1.7-2.9.5-.8.7-1.2.8-1.1,0,0-.1.9-.6,2.4-.5,1.6-1.1,3.8-2,6.6,2.8-.9,5-1.5,6.6-2,1.6-.5,2.4-.6,2.4-.6,0,0-.3.3-1.1.8-1.1.6-2,1.2-2.9,1.7-.8.6-1.5,1.2-1.9,1.9-.4.7-.4,1.3.2,1.8-.6-.6-1.2-.6-1.9-.1-.7.5-1.3,1.2-1.9,2-.6.8-1.2,1.9-1.9,3.1-.5.9-.7,1.3-.8,1.2,0,0,.2-.9.6-2.6.5-1.7,1.2-4,2.2-7-2.9,1-5.2,1.7-6.8,2.3-1.6.6-2.5.8-2.5.8,0,0,.3-.3,1.1-.8,1.1-.7,2.1-1.3,2.9-2,.9-.6,1.5-1.3,2-2,.5-.7.4-1.3-.2-1.9ZM277.6,50.1c.5.6,1.2.7,1.8.2.7-.4,1.3-1.1,1.9-1.9.6-.8,1.1-1.8,1.7-2.9.5-.8.7-1.2.8-1.1,0,0-.1.9-.6,2.4-.5,1.6-1.1,3.8-2,6.6,2.8-.9,5-1.5,6.6-2,1.6-.5,2.4-.6,2.4-.6,0,0-.3.3-1.1.8-1.1.6-2,1.2-2.9,1.7-.8.6-1.5,1.2-1.9,1.9-.4.7-.4,1.3.2,1.8-.6-.6-1.2-.6-1.9-.1-.7.5-1.3,1.2-1.9,2-.6.8-1.2,1.9-1.9,3.1-.5.9-.7,1.3-.8,1.2s.2-.9.6-2.6c.5-1.7,1.2-4,2.2-7-2.9,1-5.2,1.7-6.8,2.3-1.6.6-2.5.8-2.5.8,0,0,.3-.3,1.1-.8,1.1-.7,2.1-1.3,2.9-2,.9-.6,1.5-1.3,2-2,.5-.7.4-1.3-.2-1.9Z"/>
  <path d="M290.3,26.5c.5.6,1.2.7,1.8.2.7-.4,1.3-1.1,1.9-1.9.6-.8,1.1-1.8,1.7-2.9.5-.8.7-1.2.8-1.1,0,0-.1.9-.6,2.4-.5,1.6-1.1,3.8-2,6.6,2.8-.9,5-1.5,6.6-2,1.6-.5,2.4-.6,2.4-.6,0,0-.3.3-1.1.8-1.1.6-2,1.2-2.9,1.7-.8.6-1.5,1.2-1.9,1.9-.4.7-.4,1.3.2,1.8-.6-.6-1.2-.6-1.9-.1-.7.5-1.3,1.2-1.9,2-.6.8-1.2,1.9-1.9,3.1-.5.9-.7,1.3-.8,1.2,0,0,.2-.9.6-2.6.5-1.7,1.2-4,2.2-7-2.9,1-5.2,1.7-6.8,2.3-1.6.6-2.5.8-2.5.8s.3-.3,1.1-.8c1.1-.7,2.1-1.3,2.9-2,.9-.6,1.5-1.3,2-2,.5-.7.4-1.3-.2-1.9ZM290.3,32.4c.5.6,1.2.7,1.8.2.7-.4,1.3-1.1,1.9-1.9.6-.8,1.1-1.8,1.7-2.9.5-.8.7-1.2.8-1.1,0,0-.1.9-.6,2.4-.5,1.6-1.1,3.8-2,6.6,2.8-.9,5-1.5,6.6-2,1.6-.5,2.4-.6,2.4-.6,0,0-.3.3-1.1.8-1.1.6-2,1.2-2.9,1.7-.8.6-1.5,1.2-1.9,1.9-.4.7-.4,1.3.2,1.8-.6-.6-1.2-.6-1.9-.1-.7.5-1.3,1.2-1.9,2-.6.8-1.2,1.9-1.9,3.1-.5.9-.7,1.3-.8,1.2s.2-.9.6-2.6c.5-1.7,1.2-4,2.2-7-2.9,1-5.2,1.7-6.8,2.3-1.6.6-2.5.8-2.5.8,0,0,.3-.3,1.1-.8,1.1-.7,2.1-1.3,2.9-2,.9-.6,1.5-1.3,2-2,.5-.7.4-1.3-.2-1.9ZM290.3,50.1c.5.6,1.2.7,1.8.2.7-.4,1.3-1.1,1.9-1.9.6-.8,1.1-1.8,1.7-2.9.5-.8.7-1.2.8-1.1,0,0-.1.9-.6,2.4-.5,1.6-1.1,3.8-2,6.6,2.8-.9,5-1.5,6.6-2,1.6-.5,2.4-.6,2.4-.6,0,0-.3.3-1.1.8-1.1.6-2,1.2-2.9,1.7-.8.6-1.5,1.2-1.9,1.9-.4.7-.4,1.3.2,1.8-.6-.6-1.2-.6-1.9-.1-.7.5-1.3,1.2-1.9,2-.6.8-1.2,1.9-1.9,3.1-.5.9-.7,1.3-.8,1.2s.2-.9.6-2.6c.5-1.7,1.2-4,2.2-7-2.9,1-5.2,1.7-6.8,2.3-1.6.6-2.5.8-2.5.8s.3-.3,1.1-.8c1.1-.7,2.1-1.3,2.9-2,.9-.6,1.5-1.3,2-2,.5-.7.4-1.3-.2-1.9ZM290.3,56c.5.6,1.2.7,1.8.2.7-.4,1.3-1.1,1.9-1.9.6-.8,1.1-1.8,1.7-2.9.5-.8.7-1.2.8-1.1,0,0-.1.9-.6,2.4-.5,1.6-1.1,3.8-2,6.6,2.8-.9,5-1.5,6.6-2,1.6-.5,2.4-.6,2.4-.6,0,0-.3.3-1.1.8-1.1.6-2,1.2-2.9,1.7-.8.6-1.5,1.2-1.9,1.9-.4.7-.4,1.3.2,1.8-.6-.6-1.2-.6-1.9-.1-.7.5-1.3,1.2-1.9,2-.6.8-1.2,1.9-1.9,3.1-.5.9-.7,1.3-.8,1.2,0,0,.2-.9.6-2.6.5-1.7,1.2-4,2.2-7-2.9,1-5.2,1.7-6.8,2.3-1.6.5-2.5.8-2.5.8,0,0,.3-.3,1.1-.8,1.1-.7,2.1-1.3,2.9-2,.9-.6,1.5-1.3,2-2,.5-.7.4-1.3-.2-1.9ZM296.2,20.6c.6.6,1.2.7,1.8.2.7-.4,1.3-1.1,1.9-1.9.6-.8,1.1-1.8,1.7-2.9.5-.8.7-1.2.8-1.1,0,0-.1.9-.6,2.4-.5,1.6-1.1,3.8-2,6.6,2.8-.9,5-1.5,6.6-2,1.6-.5,2.4-.6,2.4-.6,0,0-.3.3-1.1.8-1.1.6-2,1.2-2.9,1.7-.8.6-1.5,1.2-1.9,1.9-.4.7-.4,1.3.2,1.8-.6-.6-1.2-.6-1.9-.1-.7.5-1.3,1.2-1.9,2-.6.8-1.2,1.9-1.9,3.1-.5.9-.7,1.3-.8,1.2,0,0,.2-.9.6-2.6.5-1.7,1.2-4,2.2-7-2.9,1-5.2,1.7-6.8,2.3-1.6.6-2.5.8-2.5.8,0,0,.3-.3,1.1-.8,1.1-.7,2.1-1.3,2.9-2,.9-.6,1.5-1.3,2-2,.5-.7.4-1.3-.2-1.9ZM296.2,44.2c.6.6,1.2.7,1.8.2.7-.4,1.3-1.1,1.9-1.9.6-.8,1.1-1.8,1.7-2.9.5-.8.7-1.2.8-1.1,0,0-.1.9-.6,2.4-.5,1.6-1.1,3.8-2,6.6,2.8-.9,5-1.5,6.6-2,1.6-.5,2.4-.6,2.4-.6,0,0-.3.3-1.1.8-1.1.6-2,1.2-2.9,1.7-.8.6-1.5,1.2-1.9,1.9-.4.7-.4,1.3.2,1.8-.6-.6-1.2-.6-1.9-.1-.7.5-1.3,1.2-1.9,2-.6.8-1.2,1.9-1.9,3.1-.5.9-.7,1.3-.8,1.2s.2-.9.6-2.6c.5-1.7,1.2-4,2.2-7-2.9,1-5.2,1.7-6.8,2.3-1.6.6-2.5.8-2.5.8,0,0,.3-.3,1.1-.8,1.1-.7,2.1-1.3,2.9-2,.9-.6,1.5-1.3,2-2,.5-.7.4-1.3-.2-1.9ZM296.2,56c.6.6,1.2.7,1.8.2.7-.4,1.3-1.1,1.9-1.9.6-.8,1.1-1.8,1.7-2.9.5-.8.7-1.2.8-1.1,0,0-.1.9-.6,2.4-.5,1.6-1.1,3.8-2,6.6,2.8-.9,5-1.5,6.6-2,1.6-.5,2.4-.6,2.4-.6,0,0-.3.3-1.1.8-1.1.6-2,1.2-2.9,1.7-.8.6-1.5,1.2-1.9,1.9-.4.7-.4,1.3.2,1.8-.6-.6-1.2-.6-1.9-.1-.7.5-1.3,1.2-1.9,2-.6.8-1.2,1.9-1.9,3.1-.5.9-.7,1.3-.8,1.2s.2-.9.6-2.6c.5-1.7,1.2-4,2.2-7-2.9,1-5.2,1.7-6.8,2.3-1.6.5-2.5.8-2.5.8s.3-.3,1.1-.8c1.1-.7,2.1-1.3,2.9-2,.9-.6,1.5-1.3,2-2,.5-.7.4-1.3-.2-1.9ZM302.1,20.6c.5.6,1.2.7,1.8.2.7-.4,1.3-1.1,1.9-1.9.6-.8,1.1-1.8,1.7-2.9.5-.8.7-1.2.8-1.1,0,0-.1.9-.6,2.4-.5,1.6-1.1,3.8-2,6.6,2.8-.9,5-1.5,6.6-2,1.6-.5,2.4-.6,2.4-.6,0,0-.3.3-1.1.8-1.1.6-2,1.2-2.9,1.7-.8.6-1.5,1.2-1.9,1.9-.4.7-.4,1.3.2,1.8-.6-.6-1.2-.6-1.9-.1-.7.5-1.3,1.2-1.9,2-.6.8-1.2,1.9-1.9,3.1-.5.9-.7,1.3-.8,1.2s.2-.9.6-2.6c.5-1.7,1.2-4,2.2-7-2.9,1-5.2,1.7-6.8,2.3-1.6.6-2.5.8-2.5.8,0,0,.3-.3,1.1-.8,1.1-.7,2.1-1.3,2.9-2,.9-.6,1.5-1.3,2-2,.5-.7.4-1.3-.2-1.9ZM302.1,26.5c.5.6,1.2.7,1.8.2.7-.4,1.3-1.1,1.9-1.9.6-.8,1.1-1.8,1.7-2.9.5-.8.7-1.2.8-1.1,0,0-.1.9-.6,2.4-.5,1.6-1.1,3.8-2,6.6,2.8-.9,5-1.5,6.6-2,1.6-.5,2.4-.6,2.4-.6,0,0-.3.3-1.1.8-1.1.6-2,1.2-2.9,1.7-.8.6-1.5,1.2-1.9,1.9-.4.7-.4,1.3.2,1.8-.6-.6-1.2-.6-1.9-.1-.7.5-1.3,1.2-1.9,2-.6.8-1.2,1.9-1.9,3.1-.5.9-.7,1.3-.8,1.2,0,0,.2-.9.6-2.6.5-1.7,1.2-4,2.2-7-2.9,1-5.2,1.7-6.8,2.3-1.6.6-2.5.8-2.5.8,0,0,.3-.3,1.1-.8,1.1-.7,2.1-1.3,2.9-2,.9-.6,1.5-1.3,2-2,.5-.7.4-1.3-.2-1.9ZM302.1,32.4c.5.6,1.2.7,1.8.2.7-.4,1.3-1.1,1.9-1.9.6-.8,1.1-1.8,1.7-2.9.5-.8.7-1.2.8-1.1,0,0-.1.9-.6,2.4-.5,1.6-1.1,3.8-2,6.6,2.8-.9,5-1.5,6.6-2,1.6-.5,2.4-.6,2.4-.6,0,0-.3.3-1.1.8-1.1.6-2,1.2-2.9,1.7-.8.6-1.5,1.2-1.9,1.9-.4.7-.4,1.3.2,1.8-.6-.6-1.2-.6-1.9-.1-.7.5-1.3,1.2-1.9,2-.6.8-1.2,1.9-1.9,3.1-.5.9-.7,1.3-.8,1.2s.2-.9.6-2.6c.5-1.7,1.2-4,2.2-7-2.9,1-5.2,1.7-6.8,2.3-1.6.6-2.5.8-2.5.8,0,0,.3-.3,1.1-.8,1.1-.7,2.1-1.3,2.9-2,.9-.6,1.5-1.3,2-2,.5-.7.4-1.3-.2-1.9ZM302.1,38.3c.5.6,1.2.7,1.8.2.7-.4,1.3-1.1,1.9-1.9.6-.8,1.1-1.8,1.7-2.9.5-.8.7-1.2.8-1.1,0,0-.1.9-.6,2.4-.5,1.6-1.1,3.8-2,6.6,2.8-.9,5-1.5,6.6-2,1.6-.5,2.4-.6,2.4-.6,0,0-.3.3-1.1.8-1.1.6-2,1.2-2.9,1.7-.8.6-1.5,1.2-1.9,1.9-.4.7-.4,1.3.2,1.8-.6-.6-1.2-.6-1.9-.1-.7.5-1.3,1.2-1.9,2-.6.8-1.2,1.9-1.9,3.1-.5.9-.7,1.3-.8,1.2,0,0,.2-.9.6-2.6.5-1.7,1.2-4,2.2-7-2.9,1-5.2,1.7-6.8,2.3-1.6.6-2.5.8-2.5.8,0,0,.3-.3,1.1-.8,1.1-.7,2.1-1.3,2.9-2,.9-.6,1.5-1.3,2-2,.5-.7.4-1.3-.2-1.9ZM302.1,56c.5.6,1.2.7,1.8.2.7-.4,1.3-1.1,1.9-1.9.6-.8,1.1-1.8,1.7-2.9.5-.8.7-1.2.8-1.1,0,0-.1.9-.6,2.4-.5,1.6-1.1,3.8-2,6.6,2.8-.9,5-1.5,6.6-2,1.6-.5,2.4-.6,2.4-.6,0,0-.3.3-1.1.8-1.1.6-2,1.2-2.9,1.7-.8.6-1.5,1.2-1.9,1.9-.4.7-.4,1.3.2,1.8-.6-.6-1.2-.6-1.9-.1-.7.5-1.3,1.2-1.9,2-.6.8-1.2,1.9-1.9,3.1-.5.9-.7,1.3-.8,1.2,0,0,.2-.9.6-2.6.5-1.7,1.2-4,2.2-7-2.9,1-5.2,1.7-6.8,2.3-1.6.5-2.5.8-2.5.8s.3-.3,1.1-.8c1.1-.7,2.1-1.3,2.9-2,.9-.6,1.5-1.3,2-2,.5-.7.4-1.3-.2-1.9Z"/>
  <path d="M314.9,32.4c.5.6,1.2.7,1.8.2.7-.4,1.3-1.1,1.9-1.9.6-.8,1.1-1.8,1.7-2.9.5-.8.7-1.2.8-1.1,0,0-.1.9-.6,2.4-.5,1.6-1.1,3.8-2,6.6,2.8-.9,5-1.5,6.6-2,1.6-.5,2.4-.6,2.4-.6,0,0-.3.3-1.1.8-1.1.6-2,1.2-2.9,1.7-.8.6-1.5,1.2-1.9,1.9-.4.7-.4,1.3.2,1.8-.6-.6-1.2-.6-1.9-.1-.7.5-1.3,1.2-1.9,2-.6.8-1.2,1.9-1.9,3.1-.5.9-.7,1.3-.8,1.2s.2-.9.6-2.6c.5-1.7,1.2-4,2.2-7-2.9,1-5.2,1.7-6.8,2.3-1.6.6-2.5.8-2.5.8,0,0,.3-.3,1.1-.8,1.1-.7,2.1-1.3,2.9-2,.9-.6,1.5-1.3,2-2,.5-.7.4-1.3-.2-1.9ZM314.9,38.3c.5.6,1.2.7,1.8.2.7-.4,1.3-1.1,1.9-1.9.6-.8,1.1-1.8,1.7-2.9.5-.8.7-1.2.8-1.1,0,0-.1.9-.6,2.4-.5,1.6-1.1,3.8-2,6.6,2.8-.9,5-1.5,6.6-2,1.6-.5,2.4-.6,2.4-.6,0,0-.3.3-1.1.8-1.1.6-2,1.2-2.9,1.7-.8.6-1.5,1.2-1.9,1.9-.4.7-.4,1.3.2,1.8-.6-.6-1.2-.6-1.9-.1-.7.5-1.3,1.2-1.9,2-.6.8-1.2,1.9-1.9,3.1-.5.9-.7,1.3-.8,1.2,0,0,.2-.9.6-2.6.5-1.7,1.2-4,2.2-7-2.9,1-5.2,1.7-6.8,2.3-1.6.6-2.5.8-2.5.8s.3-.3,1.1-.8c1.1-.7,2.1-1.3,2.9-2,.9-.6,1.5-1.3,2-2,.5-.7.4-1.3-.2-1.9ZM320.8,20.6c.6.6,1.2.7,1.8.2.7-.4,1.3-1.1,1.9-1.9.6-.8,1.1-1.8,1.7-2.9.5-.8.7-1.2.8-1.1,0,0-.1.9-.6,2.4-.5,1.6-1.1,3.8-2,6.6,2.8-.9,5-1.5,6.6-2,1.6-.5,2.4-.6,2.4-.6,0,0-.3.3-1.1.8-1.1.6-2,1.2-2.9,1.7-.8.6-1.5,1.2-1.9,1.9-.4.7-.4,1.3.2,1.8-.6-.6-1.2-.6-1.9-.1-.7.5-1.3,1.2-1.9,2-.6.8-1.2,1.9-1.9,3.1-.5.9-.7,1.3-.8,1.2,0,0,.2-.9.6-2.6.5-1.7,1.2-4,2.2-7-2.9,1-5.2,1.7-6.8,2.3-1.6.6-2.5.8-2.5.8,0,0,.3-.3,1.1-.8,1.1-.7,2.1-1.3,2.9-2,.9-.6,1.5-1.3,2-2,.5-.7.4-1.3-.2-1.9ZM320.8,26.5c.6.6,1.2.7,1.8.2.7-.4,1.3-1.1,1.9-1.9.6-.8,1.1-1.8,1.7-2.9.5-.8.7-1.2.8-1.1,0,0-.1.9-.6,2.4-.5,1.6-1.1,3.8-2,6.6,2.8-.9,5-1.5,6.6-2,1.6-.5,2.4-.6,2.4-.6,0,0-.3.3-1.1.8-1.1.6-2,1.2-2.9,1.7-.8.6-1.5,1.2-1.9,1.9-.4.7-.4,1.3.2,1.8-.6-.6-1.2-.6-1.9-.1-.7.5-1.3,1.2-1.9,2-.6.8-1.2,1.9-1.9,3.1-.5.9-.7,1.3-.8,1.2,0,0,.2-.9.6-2.6.5-1.7,1.2-4,2.2-7-2.9,1-5.2,1.7-6.8,2.3-1.6.6-2.5.8-2.5.8,0,0,.3-.3,1.1-.8,1.1-.7,2.1-1.3,2.9-2,.9-.6,1.5-1.3,2-2,.5-.7.4-1.3-.2-1.9ZM320.8,38.3c.6.6,1.2.7,1.8.2.7-.4,1.3-1.1,1.9-1.9.6-.8,1.1-1.8,1.7-2.9.5-.8.7-1.2.8-1.1,0,0-.1.9-.6,2.4-.5,1.6-1.1,3.8-2,6.6,2.8-.9,5-1.5,6.6-2,1.6-.5,2.4-.6,2.4-.6,0,0-.3.3-1.1.8-1.1.6-2,1.2-2.9,1.7-.8.6-1.5,1.2-1.9,1.9-.4.7-.4,1.3.2,1.8-.6-.6-1.2-.6-1.9-.1-.7.5-1.3,1.2-1.9,2-.6.8-1.2,1.9-1.9,3.1-.5.9-.7,1.3-.8,1.2,0,0,.2-.9.6-2.6.5-1.7,1.2-4,2.2-7-2.9,1-5.2,1.7-6.8,2.3-1.6.6-2.5.8-2.5.8,0,0,.3-.3,1.1-.8,1.1-.7,2.1-1.3,2.9-2,.9-.6,1.5-1.3,2-2,.5-.7.4-1.3-.2-1.9ZM320.8,44.2c.6.6,1.2.7,1.8.2.7-.4,1.3-1.1,1.9-1.9.6-.8,1.1-1.8,1.7-2.9.5-.8.7-1.2.8-1.1,0,0-.1.9-.6,2.4-.5,1.6-1.1,3.8-2,6.6,2.8-.9,5-1.5,6.6-2,1.6-.5,2.4-.6,2.4-.6,0,0-.3.3-1.1.8-1.1.6-2,1.2-2.9,1.7-.8.6-1.5,1.2-1.9,1.9-.4.7-.4,1.3.2,1.8-.6-.6-1.2-.6-1.9-.1-.7.5-1.3,1.2-1.9,2-.6.8-1.2,1.9-1.9,3.1-.5.9-.7,1.3-.8,1.2,0,0,.2-.9.6-2.6.5-1.7,1.2-4,2.2-7-2.9,1-5.2,1.7-6.8,2.3-1.6.6-2.5.8-2.5.8,0,0,.3-.3,1.1-.8,1.1-.7,2.1-1.3,2.9-2,.9-.6,1.5-1.3,2-2,.5-.7.4-1.3-.2-1.9ZM320.8,50.1c.6.6,1.2.7,1.8.2.7-.4,1.3-1.1,1.9-1.9.6-.8,1.1-1.8,1.7-2.9.5-.8.7-1.2.8-1.1,0,0-.1.9-.6,2.4-.5,1.6-1.1,3.8-2,6.6,2.8-.9,5-1.5,6.6-2,1.6-.5,2.4-.6,2.4-.6,0,0-.3.3-1.1.8-1.1.6-2,1.2-2.9,1.7-.8.6-1.5,1.2-1.9,1.9-.4.7-.4,1.3.2,1.8-.6-.6-1.2-.6-1.9-.1-.7.5-1.3,1.2-1.9,2-.6.8-1.2,1.9-1.9,3.1-.5.9-.7,1.3-.8,1.2,0,0,.2-.9.6-2.6.5-1.7,1.2-4,2.2-7-2.9,1-5.2,1.7-6.8,2.3-1.6.6-2.5.8-2.5.8,0,0,.3-.3,1.1-.8,1.1-.7,2.1-1.3,2.9-2,.9-.6,1.5-1.3,2-2,.5-.7.4-1.3-.2-1.9ZM320.8,56c.6.6,1.2.7,1.8.2.7-.4,1.3-1.1,1.9-1.9.6-.8,1.1-1.8,1.7-2.9.5-.8.7-1.2.8-1.1,0,0-.1.9-.6,2.4-.5,1.6-1.1,3.8-2,6.6,2.8-.9,5-1.5,6.6-2,1.6-.5,2.4-.6,2.4-.6,0,0-.3.3-1.1.8-1.1.6-2,1.2-2.9,1.7-.8.6-1.5,1.2-1.9,1.9-.4.7-.4,1.3.2,1.8-.6-.6-1.2-.6-1.9-.1s-1.3,1.2-1.9,2c-.6.8-1.2,1.9-1.9,3.1-.5.9-.7,1.3-.8,1.2,0,0,.2-.9.6-2.6.5-1.7,1.2-4,2.2-7-2.9,1-5.2,1.7-6.8,2.3-1.6.5-2.5.8-2.5.8s.3-.3,1.1-.8c1.1-.7,2.1-1.3,2.9-2,.9-.6,1.5-1.3,2-2,.5-.7.4-1.3-.2-1.9ZM326.6,20.6c.6.6,1.2.7,1.8.2.7-.4,1.3-1.1,1.9-1.9.6-.8,1.1-1.8,1.7-2.9.5-.8.7-1.2.8-1.1,0,0-.1.9-.6,2.4s-1.1,3.8-2,6.6c2.8-.9,5-1.5,6.6-2,1.6-.5,2.4-.6,2.4-.6,0,0-.3.3-1.1.8-1.1.6-2,1.2-2.9,1.7-.8.6-1.5,1.2-1.9,1.9-.4.7-.4,1.3.2,1.8-.6-.6-1.2-.6-1.9-.1-.7.5-1.3,1.2-1.9,2-.6.8-1.2,1.9-1.9,3.1-.5.9-.7,1.3-.8,1.2,0,0,.2-.9.6-2.6.5-1.7,1.2-4,2.2-7-2.9,1-5.2,1.7-6.8,2.3-1.6.6-2.5.8-2.5.8,0,0,.3-.3,1.1-.8,1.1-.7,2.1-1.3,2.9-2,.9-.6,1.5-1.3,2-2,.5-.7.4-1.3-.2-1.9ZM326.6,38.3c.6.6,1.2.7,1.8.2.7-.4,1.3-1.1,1.9-1.9.6-.8,1.1-1.8,1.7-2.9.5-.8.7-1.2.8-1.1,0,0-.1.9-.6,2.4-.5,1.6-1.1,3.8-2,6.6,2.8-.9,5-1.5,6.6-2,1.6-.5,2.4-.6,2.4-.6,0,0-.3.3-1.1.8-1.1.6-2,1.2-2.9,1.7-.8.6-1.5,1.2-1.9,1.9-.4.7-.4,1.3.2,1.8-.6-.6-1.2-.6-1.9-.1-.7.5-1.3,1.2-1.9,2-.6.8-1.2,1.9-1.9,3.1-.5.9-.7,1.3-.8,1.2,0,0,.2-.9.6-2.6.5-1.7,1.2-4,2.2-7-2.9,1-5.2,1.7-6.8,2.3-1.6.6-2.5.8-2.5.8,0,0,.3-.3,1.1-.8,1.1-.7,2.1-1.3,2.9-2,.9-.6,1.5-1.3,2-2,.5-.7.4-1.3-.2-1.9Z"/>
</svg>