<?xml version="1.0" encoding="UTF-8"?>
<svg id="Layer_1" data-name="Layer 1" xmlns="http://www.w3.org/2000/svg" xmlns:xlink="http://www.w3.org/1999/xlink" viewBox="0 0 839.06 595.28">
  <defs>
    <style>
      .cls-1, .cls-2, .cls-3, .cls-4 {
        fill: none;
      }

      .cls-5 {
        fill: #1d1d1b;
      }

      .cls-6 {
        clip-path: url(#clippath-1);
      }

      .cls-7 {
        clip-path: url(#clippath-2);
      }

      .cls-2 {
        stroke-width: 2.05px;
      }

      .cls-2, .cls-3, .cls-4 {
        stroke: #1d1d1b;
        stroke-linecap: round;
        stroke-linejoin: round;
      }

      .cls-3 {
        stroke-width: 6px;
      }

      .cls-4 {
        stroke-width: 4px;
      }

      .cls-8 {
        clip-path: url(#clippath);
      }
    </style>
    <clipPath id="clippath">
      <rect class="cls-1" x="60.91" y="85.16" width="717.24" height="424.95"/>
    </clipPath>
    <clipPath id="clippath-1">
      <rect class="cls-1" x="60.91" y="85.16" width="717.24" height="424.95"/>
    </clipPath>
    <clipPath id="clippath-2">
      <rect class="cls-1" x="60.91" y="85.16" width="717.24" height="424.95"/>
    </clipPath>
  </defs>
  <g>
    <path class="cls-5" d="M182.22,291.04c0-6-.41-11.22-1.63-15.31h24.25c11.1,0,15.35,4.94,15.35,15.31s-4.25,15.31-15.35,15.31h-24.25c1.22-4.08,1.63-9.31,1.63-15.31ZM199.36,300.22c4.33,0,5.71-1.88,5.71-9.18s-1.47-9.18-5.96-9.18h-2.61v15.71c0,1.84.69,2.65,2.86,2.65Z"/>
    <path class="cls-5" d="M224.46,294.51c0-4.9-.37-8.45-1.63-11.84l16.12-.41c-.33,3.1-.61,6-.61,10.2,0,5.92.16,10.12,1.63,13.88h-17.14c1.27-3.27,1.63-6.78,1.63-11.84ZM224.05,276.96c0-2.49,2.04-3.67,7.35-3.67s7.35,1.18,7.35,3.67-2.04,3.67-7.35,3.67-7.35-1.27-7.35-3.67Z"/>
    <path class="cls-5" d="M242.3,291.08c0-5.63,5.8-8.82,16.61-8.82,3.96,0,7.31.16,10.12.41l1.43,5.31c-2.45-.49-4.53-.82-8.33-.82-4.57,0-7.18.45-7.18,1.47,0,1.1,3.63.9,7.63,1.14,6.53.41,10.29,2.33,10.29,8.16s-5.39,8.82-16.25,8.82c-5.35,0-9.43-.33-13.39-.82l-1.43-5.31c3.63.57,7.55,1.22,10.45,1.22,5.51,0,7.96-.45,7.96-1.47s-2.9-.74-6.37-.94c-6.78-.37-11.55-1.67-11.55-8.37Z"/>
    <path class="cls-5" d="M272.17,282.67h15.51l3.31,13.43,2.57-10.49-.69-2.94h13.47l3.31,13.43,3.31-13.43h6.94c-2.94,6.82-5.51,14.25-7.8,23.67h-13.47l-2.53-10.37-2.86,10.37h-13.27c-2.29-9.43-4.86-16.86-7.8-23.67Z"/>
    <path class="cls-5" d="M318.94,300.47c0-10.53,19.51-6.08,19.51-10.61,0-1.27-1.47-1.88-5.06-1.88s-7.27.61-10.86,2.04l2.04-6.12c3.55-.98,8.49-1.63,13.14-1.63,10.45,0,14.61,2.29,14.61,9.18v2.86c0,8.29.41,10.41,2.04,12.04h-13.88l-1.02-2.82c-2.65,2.57-6.08,3.22-9.96,3.22-7.55,0-10.57-2.65-10.57-6.29ZM335.59,301.45c1.55,0,2.86-.73,2.86-2.86v-2.9c-1.63.9-5.22,1.1-5.22,3.59,0,1.31.9,2.16,2.37,2.16Z"/>
    <path class="cls-5" d="M374.08,314.51h-14.49l4.94-8.16c-3.63-9.71-6.9-16.25-11.88-23.67h17.96l4.53,12.65,4.53-12.65h9.39c-4.98,7.43-8.2,13.96-11.88,23.67l-3.1,8.16Z"/>
  </g>
  <g>
    <path class="cls-5" d="M466.28,275.73h22.49c7.84,0,11.35,3.18,11.35,9.8,0,8.73-6.61,20.82-21.8,20.82h-22.49c5.18-8.16,10.04-22.45,10.45-30.61ZM475.62,300.55c6.69,0,10.33-10.25,10.33-15.55,0-2.65-1.39-3.47-4.29-3.47h-2.57l-5.47,16.41c-.69,1.88-.16,2.61,2,2.61Z"/>
    <path class="cls-5" d="M511.7,306.34h-14.86c3.71-5.39,7.31-14.12,8.41-20.41l.53-3.1,13.67-.41c-3.84,9.92-6.73,17.96-7.75,23.92ZM507.7,278.1c0-1.76,1.06-4,8.73-4,4.53,0,6.12,1.14,6.12,2.94,0,2-1.06,4-8.74,4-4.49,0-6.12-1.14-6.12-2.94Z"/>
    <path class="cls-5" d="M527.04,301.65c2.29,0,3.1-.69,3.1-1.8,0-3.14-10.2-2.45-10.2-9.51,0-3.47,2.57-7.92,14.65-7.92,4.49,0,7.84.61,9.84,1.14l.16,5.92c-2.53-1.43-4.9-1.96-8.16-1.96-2,0-3.06.65-3.06,1.59,0,3.14,10.2,2.82,10.2,9.88,0,3.92-3.75,7.75-13.35,7.75-4.29,0-8.37-.37-11.67-1.14l-1.67-7.06c3.51,2.16,6.98,3.1,10.16,3.1Z"/>
    <path class="cls-5" d="M547.78,306.34c1.18-9.39,1.96-16.69.9-23.51h14.37l-1.96,13.76,6.78-9.92c-.08-1.31-.2-2.57-.41-3.84h13.75l-1.06,13.35,7.8-13.35h7.43c-5.27,6.65-10.9,14.2-16.21,23.51h-11.84c.08-4.25.37-8.08.49-11.67l-8.16,11.67h-11.88Z"/>
    <path class="cls-5" d="M589.98,299.57c0-8.08,7.39-17.14,30.9-17.14,3.18,0,5.67,0,7.84.41-4.49,8.41-6.49,15.22-7.39,20.49l-.53,3.02h-12.73l.94-4.94c-3.8,3.67-7.31,5.35-11.39,5.35-4.61,0-7.63-2.41-7.63-7.18ZM611.32,294.67l2.33-6.12c-.37-.2-1.18-.41-2.08-.41-4.2,0-7.18,3.75-7.18,8.2,0,1.88.94,2.9,2.37,2.9s3.02-.41,4.57-4.57Z"/>
    <path class="cls-5" d="M626.38,314.1l-2.04-6.69c2.49,1.47,5.18,2.04,9.59,2.04s8.2-1.35,9.55-4.74l1.18-3.14c-4.08,3.71-8.53,5.18-12.61,5.18-4.82,0-6.94-2.12-6.08-6.49.57-3.55,3.96-9.18,4.82-14.41l.49-3.02,14.82-.41c-3.96,6.82-5.8,11.31-6.29,14.29-.33,2,.04,3.06,1.43,3.06,3.18,0,7.22-6.98,8.61-15.43l.25-1.51,14.78-.41c-5.35,9.92-7.55,17.84-9.55,23.88-2.04,6.33-8.82,8.61-19.43,8.61-3.8,0-6.9-.2-9.51-.82Z"/>
  </g>
  <g class="cls-8">
    <path class="cls-3" d="M139.35,231.66c-4.47,0-10.83,2.38-14.2,5.32l-58.72,51.21c-3.37,2.94-3.37,7.71,0,10.65l58.72,51.21c3.37,2.94,9.73,5.32,14.2,5.32h261c4.47,0,8.1-3.63,8.1-8.1v-107.51c0-4.47-3.62-8.1-8.1-8.1H139.35Z"/>
    <path class="cls-3" d="M699.7,231.66c4.47,0,10.83,2.38,14.2,5.32l58.72,51.21c3.37,2.94,3.37,7.71,0,10.65l-58.72,51.21c-3.37,2.94-9.73,5.32-14.2,5.32h-261c-4.47,0-8.1-3.63-8.1-8.1v-107.51c0-4.47,3.62-8.1,8.1-8.1h261Z"/>
    <path class="cls-5" d="M147.6,306.98c.71-.57,1.21-1.16,1.5-1.78,1.18-.32,2.59-.9,3.83-1.58.75-.37,1.5-.81,2.16-1.29l8.86.48c.49.03.93-.2,1.13-.59.93-1.52,1.46-5.24,1.47-9.42,0-3.89-.27-8.14-.85-10.87l-.2-.93c-.13-.6-.71-1.03-1.39-.96l-7.89.49c-.47-.6-.88-1.2-1.37-1.86-1.15-1.49-2.43-2.26-3.68-2.9-.89-.58-1.75-1.02-2.39-2.07-.78-1.36-1.33-3.33-1.74-4.91-.74-2.83-1.53-3.92-3.79-3.44-1.73.37-3.23,2.15-3.89,4.93-.56,2.27-.58,5.13.03,7.99.03.13.06.27.08.4-2.23-.36-5.84-.98-9.63-1.5-6.44-.86-13.47-1.58-15.87-1.07l-.4.08c-.2.04-.38.15-.5.25-.57.26-1.02.77-1.32,1.32-.22.6-.36,1.26-.2,1.99.31,1.46,1.78,3.45,4.74,5.32,1.52.93,3.38,1.85,5.63,2.63-.78.58-1.26,1.24-1.59,2.01-.45,1.14-.44,2.53-.2,3.65.4,1.86,1.58,3.21,3.42,4,0,.35.04.83.14,1.29l.04.2c.26,1.2.78,3.03,2.77,4.21.63.35,1.38.61,2.33.82.02.41.04.83.14,1.29l.04.2c.23,1.06.73,2.76,2.69,3.81,1.65.9,4.62,1.45,10.07.29,2.73-.58,4.62-1.47,5.8-2.48M135.81,286.83c-2.87-.43-6.09-.51-8.83-.35-4.01-.88-7.07-2.18-9.31-3.58-2.08-1.29-3.34-2.63-3.56-3.69-.03-.13-.06-.27,0-.35.05-.08.24-.19.24-.19q.05-.08.12-.1s.07-.01,0,0h-.07c.01.08-.05.1-.05.1l.18-.11c2.26-.48,8.9.33,14.99,1.19,4.71.6,9.04,1.34,10.91,1.64l.12.25c-.95.41-.69,2.3-.44,3.5.23,1.06.55,2.25,1.07,3.39-1.41-.74-3.27-1.32-5.37-1.71M124.41,289.46c1-.21,3.18-.4,4.21-.48,2.2-.12,4.59,0,6.75.37,3.03.54,6.04,1.29,6.42,3.08.18.86-4.15,2.06-5.54,2.36-5.59,1.19-12.95.88-13.56-1.98-.14-.67-.18-1.49.09-2.17.22-.6.76-1,1.62-1.18M127.87,300.82c-1.26-.71-1.42-1.78-1.58-2.51l-.04-.2v-.07c.13.04.35.06.49.1,2.92.35,6.58-.08,10.04-.81,1.06-.23,2.25-.55,3.27-.97.76.32,1.46.66,1.94.98.4.26.74.54.82.94.2.93-4.04,2.25-6.1,2.69-6.38,1.36-8.21.29-8.85-.13M133,306.96c-1.1-.6-1.3-1.53-1.43-2.13l-.04-.2c-.04-.2-.07-.33-.05-.55,1.53.02,3.44-.18,5.76-.67,2.19-.47,4.08-1.07,5.41-1.71,1.38.26,2.49.58,3.25.91.47.25.86.44.94.84.11.53-.25,1.1-.85,1.57-1.02.77-2.54,1.44-4.74,1.91-4.46.95-6.92.78-8.27.02M155.57,284.64c.4.89,1.12,1.01,1.76.74.77-.3.96-1.04.61-1.73-.11-.19-.23-.44-.27-.64l5.56-.35c.51,2.39.81,6.43.76,10.12.02,3.05-.21,5.88-.78,7.46l-6.61-.29c1.01-.94,1.3-1.15,1.15-1.82-.13-.6-.69-.96-1.29-.84-.47.1-.85.6-1.11,1-.66.83-2.33,2.44-3.59,3.06-.81.45-1.71.78-2.48,1.08-.33-.9-1.03-1.59-2.35-2.21-.54-.23-1.12-.39-1.86-.58.29-.62.36-1.26.22-1.92-.21-1-.79-1.78-1.86-2.52-.16-.1-.39-.19-.57-.37.83-.66,1.3-1.39,1.44-2.04.24.16.57.37.81.52.56.37,1.35.13,1.71-.43.37-.56.18-1.43-.38-1.79-1.18-.65-1.95-1.67-2.54-2.8-.53-.86-.81-1.84-1.09-2.83.29.08.59.15.92.08.6-.13,1.27-.9.63-1.94-.55-.93-1.02-1.87-1.5-2.81l-.62-1.61c-.1-.46-.26-.92-.38-1.45-.52-2.46-.49-4.9,0-6.88.38-1.47.87-2.76,1.94-2.98.47-.1.63.35.76.95.49,2.33,1.01,4.44,2.07,6.16.87,1.48,2,2.22,3.28,2.99.94.49,1.96,1.04,2.91,2.23.58.78,1.08,1.51,1.59,2.23.44.74.79,1.43,1.16,2.19"/>
    <path class="cls-5" d="M691.46,306.98c-.71-.57-1.21-1.16-1.5-1.78-1.18-.32-2.59-.9-3.83-1.58-.76-.37-1.5-.81-2.16-1.29l-8.86.48c-.49.03-.93-.2-1.13-.59-.93-1.52-1.46-5.24-1.47-9.42,0-3.89.27-8.14.85-10.87l.2-.93c.13-.6.71-1.03,1.39-.96l7.89.49c.47-.6.88-1.2,1.37-1.86,1.15-1.49,2.43-2.26,3.68-2.9.89-.58,1.74-1.02,2.38-2.07.78-1.36,1.33-3.33,1.74-4.91.74-2.83,1.53-3.92,3.79-3.44,1.73.37,3.23,2.15,3.89,4.93.56,2.27.58,5.13-.03,7.99l-.08.4c2.23-.36,5.84-.98,9.63-1.5,6.44-.86,13.47-1.58,15.87-1.07l.4.08c.2.04.39.15.5.25.57.26,1.02.77,1.32,1.32.22.6.36,1.26.2,1.99-.31,1.46-1.77,3.45-4.74,5.32-1.52.93-3.38,1.85-5.63,2.63.78.58,1.27,1.24,1.59,2.01.45,1.14.44,2.53.2,3.65-.4,1.86-1.58,3.21-3.42,4,0,.35-.04.83-.14,1.29l-.04.2c-.26,1.2-.78,3.03-2.77,4.21-.63.35-1.38.61-2.33.82-.02.41-.04.83-.14,1.29l-.04.2c-.23,1.06-.73,2.76-2.69,3.81-1.65.9-4.62,1.45-10.07.29-2.73-.58-4.62-1.47-5.8-2.48M703.25,286.83c2.87-.43,6.09-.51,8.83-.35,4.01-.88,7.07-2.18,9.31-3.58,2.08-1.29,3.34-2.63,3.57-3.69.03-.13.06-.27,0-.35-.05-.08-.24-.19-.24-.19q-.05-.08-.12-.1s-.07-.01,0,0h.07c-.01.08.05.1.05.1l-.18-.11c-2.26-.48-8.9.33-14.99,1.19-4.71.6-9.04,1.34-10.91,1.64l-.12.25c.96.41.69,2.3.44,3.5-.23,1.06-.55,2.25-1.07,3.39,1.41-.74,3.27-1.32,5.37-1.71M714.64,289.46c-1-.21-3.18-.4-4.21-.48-2.2-.12-4.59,0-6.75.37-3.03.54-6.04,1.29-6.42,3.08-.18.86,4.15,2.06,5.54,2.36,5.59,1.19,12.95.88,13.56-1.98.14-.67.18-1.49-.09-2.17-.22-.6-.76-1-1.62-1.18M711.18,300.82c1.26-.71,1.42-1.78,1.58-2.51l.04-.2v-.07c-.13.04-.35.06-.49.1-2.92.35-6.58-.08-10.04-.81-1.06-.23-2.25-.55-3.27-.97-.76.32-1.46.66-1.95.98-.4.26-.74.54-.82.94-.2.93,4.04,2.25,6.1,2.69,6.38,1.36,8.21.29,8.85-.13M706.06,306.96c1.1-.6,1.3-1.53,1.43-2.13l.04-.2c.04-.2.07-.33.05-.55-1.53.02-3.44-.18-5.77-.67-2.2-.47-4.08-1.07-5.41-1.71-1.38.26-2.49.58-3.25.91-.47.25-.86.44-.94.84-.11.53.25,1.1.85,1.57,1.02.77,2.54,1.44,4.74,1.91,4.46.95,6.92.78,8.27.02M683.49,284.64c-.4.89-1.12,1.01-1.76.74-.77-.3-.96-1.04-.61-1.73.11-.19.23-.44.27-.64l-5.56-.35c-.51,2.39-.81,6.43-.76,10.12-.02,3.05.21,5.88.78,7.46l6.61-.29c-1.01-.94-1.3-1.15-1.16-1.82.13-.6.69-.96,1.29-.84.47.1.85.6,1.11,1,.66.83,2.33,2.44,3.59,3.06.81.45,1.71.78,2.48,1.08.33-.9,1.03-1.59,2.35-2.21.54-.23,1.12-.39,1.86-.58-.29-.62-.36-1.26-.22-1.92.21-1,.8-1.78,1.86-2.52.16-.1.39-.19.57-.37-.83-.66-1.3-1.39-1.44-2.04-.24.16-.57.37-.81.52-.56.37-1.35.13-1.71-.43-.37-.56-.18-1.43.38-1.79,1.18-.65,1.95-1.67,2.54-2.8.53-.86.81-1.84,1.09-2.83-.29.08-.59.15-.92.08-.6-.13-1.27-.9-.63-1.94.55-.93,1.02-1.87,1.5-2.81l.62-1.61c.1-.46.26-.92.38-1.45.52-2.46.49-4.9,0-6.88-.38-1.47-.87-2.76-1.94-2.98-.47-.1-.63.35-.76.95-.5,2.33-1.01,4.44-2.07,6.16-.87,1.48-2,2.22-3.28,2.99-.94.49-1.96,1.04-2.91,2.23-.58.78-1.09,1.51-1.59,2.23-.44.74-.79,1.43-1.16,2.19"/>
  </g>
  <g>
    <path class="cls-5" d="M509.35,146.53c0-6-.41-11.22-1.63-15.31h16.16c10.21,0,14.12,4.94,14.12,15.31s-3.92,15.31-14.12,15.31h-16.16c1.22-4.08,1.63-9.31,1.63-15.31ZM522.08,157.19c4.16,0,5.47-2.2,5.47-10.65s-1.47-10.65-5.96-10.65h-2.74v18.16c0,2.24.86,3.14,3.22,3.14Z"/>
    <path class="cls-5" d="M542.4,150.37c0-4.73-.41-8.2-1.63-11.47l11.1-.41c-.33,3.06-.49,5.92-.49,10.08,0,5.67.2,9.63,1.63,13.27h-12.25c1.22-3.18,1.63-6.57,1.63-11.47ZM541.75,132.82c0-2.25,1.55-3.55,5.14-3.55s5.14,1.31,5.14,3.55-1.55,3.55-5.14,3.55-5.14-1.31-5.14-3.55Z"/>
    <path class="cls-5" d="M555.67,145.84c0-4.69,4.04-7.35,11.55-7.35,2.73,0,5.1.2,6.98.41l.82,5.06c-1.92-.94-3.71-1.43-6.29-1.43-2.78,0-4.45.53-4.45,1.84s2.33,1.75,4.98,2.49c4.37,1.18,7.63,3.27,7.63,8.04,0,5.06-3.88,7.35-11.67,7.35-3.67,0-6.45-.41-9.18-.82l-.82-5.31c3.06,1.27,5.96,2.08,8.29,2.08,3.22,0,4.78-.61,4.78-1.84,0-1.39-2.08-1.88-4.57-2.57-4.41-1.14-8.04-2.82-8.04-7.96Z"/>
    <path class="cls-5" d="M576.97,138.9h10.61l3.27,14.65,2.57-11.76c-.37-1.22-.73-2.2-1.02-2.9h9.8l3.26,14.65,3.22-14.65h6.33c-2.82,6.61-5.1,13.84-7.31,22.94h-8.82c-.61-2.57-1.8-7.1-2.98-11.51-1.31,4.41-2.53,8.94-3.14,11.51h-8.49c-2.2-9.1-4.49-16.33-7.31-22.94Z"/>
    <path class="cls-5" d="M614.64,156.33c0-9.22,14.61-5.8,14.61-10.65,0-1.51-1.31-2.33-4.12-2.33s-5.59.73-8.12,2.12l1.06-5.39c2.33-.82,6.29-1.59,9.88-1.59,7.51,0,10.25,2.2,10.29,7.88v3.92c0,6.2.41,9.02,1.8,11.55h-8.98l-.78-2.33c-2.33,2.12-4.78,2.73-7.75,2.73-5.27,0-7.88-2.29-7.88-5.92ZM626.4,158.04c1.55,0,2.86-.94,2.86-3.71v-3.31c-1.55,1.39-5.22,1.55-5.22,4.69,0,1.47.9,2.33,2.37,2.33Z"/>
    <path class="cls-5" d="M654.96,170h-10.04l3.71-8.16c-2.73-9.27-5.39-16.08-9.18-22.94h12.08l3.8,13.47,3.8-13.47h7.43c-3.8,6.86-6.41,13.67-9.18,22.94l-2.41,8.16Z"/>
  </g>
  <g>
    <path class="cls-5" d="M193.5,131.23h14.98c7.59,0,10.98,3.31,10.98,10.04,0,9.27-4.65,20.57-18.53,20.57h-15.02c4.29-8.16,7.43-22.45,7.59-30.61ZM200.52,157.43c6.29,0,9.43-9.92,9.43-16.33,0-4.2-1.51-5.47-4.86-5.47h-2.37l-4.57,19.43c-.45,1.71.12,2.37,2.37,2.37Z"/>
    <path class="cls-5" d="M228.56,161.84h-10.57c3.02-5.22,5.63-13.67,6.08-19.8l.2-3.1,9.35-.41c-2.69,9.67-4.69,17.51-5.06,23.31ZM225.74,133.76c0-1.92,1.43-4.16,6.12-4.16,2.98,0,4.29,1.06,4.29,2.78,0,2-1.43,4.16-6.16,4.16-2.94,0-4.25-1.06-4.25-2.78Z"/>
    <path class="cls-5" d="M240.51,158c2,0,3.02-.78,3.02-2.04,0-3.31-7.96-3.76-7.96-10.08,0-3.51,2.37-7.35,10.9-7.35,3.22,0,5.59.53,7.18,1.14l-.49,5.06c-1.88-1.35-3.71-1.96-6.12-1.96-1.8,0-2.9.78-2.9,2,0,3.31,7.96,3.92,7.96,10.25,0,4.04-3.14,7.22-10,7.22-3.14,0-6.04-.33-8.57-1.14l-1.18-6.2c2.73,2.04,5.35,3.1,8.16,3.1Z"/>
    <path class="cls-5" d="M257.08,161.84c.24-9.1.24-16.25-1.27-22.9h9.84l-.65,15.18,6.57-11.22c-.2-1.35-.45-2.65-.78-3.96h9.35l.33,14.86,7.18-14.86h6.2c-4.49,6.49-9.14,13.84-13.43,22.9h-7.55c-.33-4.61-.45-8.69-.69-12.49l-7.51,12.49h-7.59Z"/>
    <path class="cls-5" d="M290.18,154.9c0-8.45,5.84-16.37,22.41-16.37,2.25,0,4,.08,5.55.41-3.55,8.16-4.82,14.78-5.18,19.88l-.16,3.02h-8.29l.33-3.8c-2.61,2.9-5.1,4.2-8.16,4.2-3.96,0-6.49-2.53-6.49-7.35ZM306.59,150.17l1.71-6.37c-.37-.2-1.22-.41-2.12-.41-4.08,0-6.73,4.2-6.73,9.55,0,2.53,1.02,3.71,2.53,3.71,1.71,0,3.27-1.06,4.61-6.49Z"/>
    <path class="cls-5" d="M317.12,169.6l-.82-5.63c1.84,1.31,3.88,2.04,6.98,2.04,3.88,0,6.49-1.47,7.55-4.73l1.18-3.96c-2.98,3.51-6.2,4.94-9.51,4.94-3.67,0-5.47-1.84-5.14-5.43.24-3.63,2.98-9.47,3.35-14.86l.16-3.02,10.29-.41c-3.31,7.06-4.65,12.25-4.86,15.39-.12,1.88.29,2.82,1.71,2.82,3.35,0,6.73-7.35,7.27-16.29l.12-1.51,10.12-.41c-4.2,9.71-5.55,17.39-6.86,23.27-1.39,6-6.04,8.61-14.53,8.61-2.73,0-5.06-.29-7.02-.82Z"/>
  </g>
  <g class="cls-6">
    <path class="cls-4" d="M390.61,87.16c4.47,0,10.66,2.57,13.81,5.74l50.13,50.37c3.15,3.17,3.15,8.31,0,11.48l-50.13,50.37c-3.15,3.17-9.34,5.74-13.81,5.74h-224.38c-4.47,0-8.1-3.63-8.1-8.1v-107.51c0-4.47,3.63-8.1,8.1-8.1h224.38Z"/>
    <path class="cls-4" d="M709.84,87.16c4.47,0,10.66,2.57,13.81,5.74l50.13,50.37c3.15,3.17,3.15,8.31,0,11.48l-50.13,50.37c-3.15,3.17-9.34,5.74-13.81,5.74h-224.38c-4.47,0-8.1-3.63-8.1-8.1v-107.51c0-4.47,3.63-8.1,8.1-8.1h224.38Z"/>
    <path class="cls-5" d="M376.87,166.56c-.71-.57-1.21-1.16-1.5-1.78-1.18-.32-2.59-.9-3.83-1.58-.76-.37-1.5-.8-2.16-1.29l-8.86.48c-.49.03-.93-.2-1.13-.59-.93-1.52-1.46-5.24-1.47-9.42,0-3.89.27-8.14.85-10.87l.2-.93c.13-.6.71-1.03,1.38-.96l7.89.49c.47-.6.88-1.2,1.37-1.86,1.15-1.49,2.43-2.26,3.67-2.9.89-.58,1.74-1.02,2.39-2.07.78-1.36,1.33-3.33,1.74-4.91.74-2.83,1.53-3.92,3.79-3.43,1.73.37,3.23,2.15,3.89,4.93.56,2.27.58,5.13-.03,7.99-.03.13-.06.27-.09.4,2.23-.36,5.84-.98,9.63-1.5,6.44-.86,13.47-1.58,15.87-1.08l.4.08c.2.04.39.15.5.25.57.26,1.02.77,1.32,1.32.22.6.36,1.26.2,1.99-.31,1.46-1.78,3.45-4.74,5.32-1.52.93-3.38,1.85-5.63,2.63.78.58,1.26,1.24,1.59,2.01.45,1.14.44,2.52.2,3.65-.4,1.86-1.59,3.21-3.42,4,0,.35-.04.83-.14,1.29l-.04.2c-.26,1.2-.78,3.03-2.77,4.21-.63.35-1.38.61-2.33.83-.02.41-.04.83-.14,1.29l-.04.2c-.23,1.06-.73,2.76-2.69,3.81-1.65.9-4.62,1.45-10.07.29-2.73-.58-4.62-1.47-5.8-2.48M388.66,146.41c2.87-.43,6.09-.51,8.83-.35,4.01-.89,7.07-2.18,9.31-3.58,2.08-1.29,3.34-2.63,3.57-3.69.03-.13.06-.27,0-.35-.05-.08-.24-.19-.24-.19q-.05-.08-.12-.1s-.07-.01,0,0h.07c-.01.08.05.1.05.1l-.18-.11c-2.26-.48-8.9.33-14.99,1.19-4.71.6-9.04,1.34-10.91,1.64l-.12.25c.95.41.69,2.3.44,3.5-.23,1.06-.55,2.25-1.07,3.39,1.41-.74,3.27-1.32,5.37-1.71M400.05,149.04c-1-.21-3.18-.4-4.21-.48-2.2-.12-4.59,0-6.75.37-3.03.54-6.04,1.29-6.42,3.08-.18.86,4.15,2.06,5.54,2.36,5.59,1.19,12.95.88,13.56-1.98.14-.67.18-1.49-.09-2.17-.22-.6-.76-1-1.62-1.18M396.6,160.4c1.26-.71,1.42-1.78,1.58-2.52l.04-.2v-.07c-.13.04-.35.06-.49.1-2.92.35-6.58-.08-10.04-.81-1.06-.23-2.25-.55-3.27-.97-.76.32-1.46.66-1.95.98-.4.26-.74.54-.82.94-.2.93,4.04,2.25,6.1,2.69,6.38,1.36,8.21.29,8.86-.13M391.47,166.53c1.1-.6,1.3-1.53,1.43-2.13l.04-.2c.04-.2.07-.33.05-.55-1.53.02-3.44-.18-5.76-.67-2.2-.47-4.08-1.08-5.41-1.7-1.38.26-2.49.58-3.25.91-.47.25-.86.44-.94.84-.11.53.25,1.1.85,1.57,1.02.77,2.54,1.44,4.74,1.91,4.46.95,6.92.78,8.27.02M368.9,144.22c-.4.89-1.12,1.01-1.76.74-.77-.3-.96-1.04-.6-1.73.11-.19.23-.44.27-.64l-5.56-.35c-.51,2.39-.81,6.43-.76,10.12-.02,3.05.21,5.88.78,7.46l6.61-.29c-1.01-.94-1.3-1.15-1.15-1.82.13-.6.69-.96,1.29-.84.47.1.85.6,1.11,1,.66.83,2.33,2.44,3.59,3.06.81.45,1.71.78,2.48,1.08.33-.9,1.03-1.59,2.35-2.21.54-.23,1.12-.39,1.86-.58-.29-.62-.36-1.26-.22-1.92.21-1,.79-1.78,1.86-2.52.16-.11.39-.2.57-.37-.83-.66-1.3-1.39-1.44-2.04-.24.16-.57.37-.81.52-.56.37-1.35.13-1.71-.43-.37-.56-.18-1.43.38-1.8,1.18-.65,1.95-1.67,2.54-2.8.53-.86.81-1.84,1.09-2.83-.29.08-.59.15-.92.08-.6-.13-1.27-.89-.63-1.94.54-.93,1.02-1.87,1.5-2.81l.62-1.61c.1-.46.26-.92.38-1.45.52-2.46.49-4.9,0-6.88-.38-1.47-.87-2.76-1.94-2.98-.47-.1-.63.35-.76.95-.49,2.33-1.01,4.44-2.08,6.16-.87,1.48-2,2.22-3.28,2.99-.94.49-1.96,1.04-2.91,2.23-.58.78-1.09,1.51-1.59,2.23-.44.74-.79,1.43-1.16,2.19"/>
    <path class="cls-5" d="M696.1,166.56c-.71-.57-1.21-1.16-1.5-1.78-1.18-.32-2.59-.9-3.83-1.58-.76-.37-1.5-.8-2.16-1.29l-8.86.48c-.49.03-.93-.2-1.13-.59-.93-1.52-1.46-5.24-1.47-9.42,0-3.89.27-8.14.85-10.87l.2-.93c.13-.6.71-1.03,1.39-.96l7.89.49c.47-.6.88-1.2,1.37-1.86,1.15-1.49,2.43-2.26,3.68-2.9.89-.58,1.74-1.02,2.38-2.07.78-1.36,1.33-3.33,1.74-4.91.74-2.83,1.53-3.92,3.79-3.43,1.73.37,3.23,2.15,3.89,4.93.56,2.27.58,5.13-.03,7.99-.03.13-.06.27-.08.4,2.23-.36,5.84-.98,9.63-1.5,6.44-.86,13.47-1.58,15.87-1.08l.4.08c.2.04.39.15.5.25.57.26,1.02.77,1.32,1.32.22.6.36,1.26.2,1.99-.31,1.46-1.77,3.45-4.74,5.32-1.52.93-3.38,1.85-5.63,2.63.78.58,1.27,1.24,1.59,2.01.45,1.14.44,2.52.2,3.65-.4,1.86-1.58,3.21-3.42,4,0,.35-.04.83-.14,1.29l-.04.2c-.26,1.2-.78,3.03-2.77,4.21-.63.35-1.38.61-2.33.83-.02.41-.04.83-.14,1.29l-.04.2c-.23,1.06-.73,2.76-2.69,3.81-1.65.9-4.62,1.45-10.07.29-2.73-.58-4.62-1.47-5.8-2.48M707.89,146.41c2.87-.43,6.09-.51,8.83-.35,4.01-.89,7.07-2.18,9.31-3.58,2.08-1.29,3.34-2.63,3.57-3.69.03-.13.06-.27,0-.35-.05-.08-.24-.19-.24-.19q-.05-.08-.12-.1s-.07-.01,0,0h.07c-.01.08.05.1.05.1l-.18-.11c-2.26-.48-8.9.33-14.99,1.19-4.71.6-9.04,1.34-10.91,1.64l-.12.25c.96.41.69,2.3.44,3.5-.23,1.06-.55,2.25-1.07,3.39,1.41-.74,3.27-1.32,5.37-1.71M719.29,149.04c-1-.21-3.18-.4-4.21-.48-2.2-.12-4.59,0-6.75.37-3.03.54-6.04,1.29-6.42,3.08-.18.86,4.15,2.06,5.54,2.36,5.59,1.19,12.95.88,13.56-1.98.14-.67.18-1.49-.09-2.17-.22-.6-.76-1-1.62-1.18M715.83,160.4c1.26-.71,1.42-1.78,1.58-2.52l.04-.2v-.07c-.13.04-.35.06-.49.1-2.92.35-6.58-.08-10.04-.81-1.06-.23-2.25-.55-3.27-.97-.76.32-1.46.66-1.95.98-.4.26-.74.54-.82.94-.2.93,4.04,2.25,6.1,2.69,6.38,1.36,8.21.29,8.85-.13M710.7,166.53c1.1-.6,1.3-1.53,1.43-2.13l.04-.2c.04-.2.07-.33.05-.55-1.53.02-3.44-.18-5.77-.67-2.2-.47-4.08-1.08-5.41-1.7-1.38.26-2.49.58-3.25.91-.47.25-.86.44-.94.84-.11.53.25,1.1.85,1.57,1.02.77,2.54,1.44,4.74,1.91,4.46.95,6.92.78,8.27.02M688.13,144.22c-.4.89-1.12,1.01-1.76.74-.77-.3-.96-1.04-.61-1.73.11-.19.23-.44.27-.64l-5.56-.35c-.51,2.39-.81,6.43-.76,10.12-.02,3.05.21,5.88.78,7.46l6.61-.29c-1.01-.94-1.3-1.15-1.16-1.82.13-.6.69-.96,1.29-.84.47.1.85.6,1.11,1,.66.83,2.33,2.44,3.59,3.06.81.45,1.71.78,2.48,1.08.33-.9,1.03-1.59,2.35-2.21.54-.23,1.12-.39,1.86-.58-.29-.62-.36-1.26-.22-1.92.21-1,.8-1.78,1.86-2.52.16-.11.39-.2.57-.37-.83-.66-1.3-1.39-1.44-2.04-.24.16-.57.37-.81.52-.56.37-1.35.13-1.71-.43-.37-.56-.18-1.43.38-1.8,1.18-.65,1.95-1.67,2.54-2.8.53-.86.81-1.84,1.09-2.83-.29.08-.59.15-.92.08-.6-.13-1.27-.89-.63-1.94.55-.93,1.02-1.87,1.5-2.81l.62-1.61c.1-.46.26-.92.38-1.45.52-2.46.49-4.9,0-6.88-.38-1.47-.87-2.76-1.94-2.98-.47-.1-.63.35-.76.95-.5,2.33-1.01,4.44-2.07,6.16-.87,1.48-2,2.22-3.28,2.99-.94.49-1.96,1.04-2.91,2.23-.58.78-1.09,1.51-1.59,2.23-.44.74-.79,1.43-1.16,2.19"/>
  </g>
  <g>
    <path class="cls-5" d="M473.11,439.66c0-6-.41-11.22-1.63-15.31h10.78c9.59,0,13.31,4.94,13.31,15.31s-3.71,15.31-13.31,15.31h-10.78c1.22-4.08,1.63-9.31,1.63-15.31ZM482.91,451.29c4.08,0,5.31-2.41,5.31-11.63s-1.47-11.63-5.96-11.63h-2.82v19.8c0,2.53.98,3.47,3.47,3.47Z"/>
    <path class="cls-5" d="M499.97,443.74c0-4.65-.45-8.04-1.63-11.22l7.75-.41c-.33,3.06-.41,5.88-.41,10,0,5.51.25,9.31,1.63,12.86h-8.98c1.22-3.14,1.63-6.41,1.63-11.22ZM499.15,426.19c0-2.08,1.22-3.47,3.67-3.47s3.67,1.39,3.67,3.47-1.22,3.47-3.67,3.47-3.67-1.35-3.67-3.47Z"/>
    <path class="cls-5" d="M510.33,438.48c0-4.08,2.86-6.37,8.2-6.37,1.92,0,3.63.2,4.86.41l.41,4.9c-1.55-1.26-3.14-1.84-4.9-1.84-1.63,0-2.65.61-2.65,2.08,0,1.35,1.43,2.33,3.22,3.39,2.9,1.71,5.84,3.88,5.84,7.96,0,4.37-2.86,6.37-8.61,6.37-2.53,0-4.49-.49-6.37-.82l-.41-5.31c2.65,1.71,4.86,2.65,6.82,2.65,1.71,0,2.65-.73,2.65-2.08,0-1.63-1.51-2.61-3.35-3.67-2.86-1.67-5.71-3.59-5.71-7.67Z"/>
    <path class="cls-5" d="M526.09,432.52h7.35l3.22,15.71,2.57-12.69c-.41-1.02-.82-2.04-1.22-3.02h7.35l3.22,15.71,3.18-15.71h5.92c-2.74,6.45-4.82,13.55-6.98,22.45h-5.71c-1.1-4.49-2.16-8.53-3.31-12.25-1.14,3.71-2.2,7.75-3.31,12.25h-5.31c-2.16-8.9-4.25-16-6.98-22.45Z"/>
    <path class="cls-5" d="M558.21,449.7c0-8.37,11.35-5.59,11.35-10.65,0-1.71-1.18-2.65-3.51-2.65s-4.45.82-6.29,2.2l.41-4.9c1.51-.74,4.82-1.59,7.71-1.59,5.55,0,7.35,2.12,7.39,6.98v4.65c0,4.82.41,8.08,1.63,11.22h-5.71l-.65-2c-2.04,1.84-3.88,2.41-6.25,2.41-3.76,0-6.08-2.04-6.08-5.67ZM566.7,451.91c1.55,0,2.86-1.06,2.86-4.29v-3.59c-1.51,1.71-5.22,1.84-5.22,5.47,0,1.55.9,2.41,2.37,2.41Z"/>
    <path class="cls-5" d="M588.57,463.13h-7.06l2.9-8.16c-2.16-8.94-4.41-15.96-7.39-22.45h8.16l3.31,14.53,3.31-14.53h6.12c-2.98,6.49-5.22,13.47-7.39,22.45l-1.96,8.16Z"/>
  </g>
  <g>
    <path class="cls-5" d="M181.35,424.36h10c7.43,0,10.74,3.35,10.74,10.25,0,9.55-3.35,20.37-16.37,20.37h-10.04c3.67-8.16,5.67-22.45,5.67-30.61ZM186.82,451.5c6.04,0,8.82-9.71,8.82-16.9,0-5.22-1.59-6.78-5.22-6.78h-2.25l-3.92,21.43c-.29,1.67.33,2.25,2.57,2.25Z"/>
    <path class="cls-5" d="M209.51,454.97h-7.71c2.61-5.1,4.57-13.39,4.57-19.35v-3.1l6.45-.41c-1.92,9.47-3.31,17.14-3.31,22.86ZM207.59,426.19c0-2.08,1.39-3.47,3.63-3.47s3.63,1.39,3.63,3.47-1.39,3.47-3.63,3.47-3.63-1.35-3.63-3.47Z"/>
    <path class="cls-5" d="M219.59,451.7c1.8,0,3.02-.82,3.02-2.25,0-3.39-6.49-4.61-6.49-10.45,0-3.51,2.24-6.9,8.41-6.9,2.37,0,4.08.41,5.39,1.14l-.9,4.49c-1.47-1.35-2.94-1.96-4.73-1.96-1.67,0-2.82.82-2.82,2.25,0,3.39,6.49,4.61,6.49,10.45,0,4.16-2.78,6.9-7.8,6.9-2.37,0-4.53-.29-6.49-1.14l-.86-5.63c2.2,1.96,4.2,3.1,6.78,3.1Z"/>
    <path class="cls-5" d="M234.24,454.97c-.41-8.94-.9-15.96-2.73-22.45h6.86l.45,16.04,6.16-12.04c-.29-1.35-.61-2.69-1.02-4h6.41l1.47,15.84,6.53-15.84h5.39c-3.96,6.33-7.96,13.59-11.51,22.45h-4.69c-.69-4.82-1.1-9.06-1.67-12.98l-6.9,12.98h-4.73Z"/>
    <path class="cls-5" d="M261.46,447.91c0-8.69,4.82-15.8,16.82-15.8,1.59,0,2.86.12,3.96.41-2.9,7.96-3.63,14.45-3.63,19.43v3.02h-5.27v-3.06c-1.84,2.41-3.63,3.47-6.08,3.47-3.55,0-5.8-2.61-5.8-7.47ZM274.64,443.29l1.31-6.49c-.41-.2-1.27-.41-2.16-.41-4.04,0-6.49,4.49-6.49,10.45,0,2.9,1.14,4.25,2.69,4.25,1.88,0,3.43-1.55,4.65-7.8Z"/>
    <path class="cls-5" d="M282.85,462.72v-4.9c1.43,1.14,3.02,2.04,5.27,2.04,3.59,0,5.31-1.59,6.16-4.74l1.14-4.29c-2.24,3.18-4.65,4.53-7.35,4.53-2.98,0-4.53-1.63-4.53-4.69,0-3.71,2.33-9.67,2.33-15.14v-3.02l7.27-.41c-2.86,7.18-3.92,12.82-3.92,16.08,0,1.8.45,2.69,1.88,2.69,3.43,0,6.41-7.63,6.41-16.86v-1.51l7.06-.41c-3.47,9.51-4.2,17.02-5.1,22.82-.9,5.76-4.16,8.61-11.22,8.61-2.08,0-3.84-.33-5.39-.82Z"/>
  </g>
  <g class="cls-7">
    <path class="cls-2" d="M417.2,375.19c-5.94,0-13.36,3.37-17.27,7.84l-43.43,49.66c-4.64,5.3-4.64,13.6,0,18.91l43.43,49.66c3.91,4.47,11.33,7.84,17.27,7.84h195.23c7.28,0,13.2-5.92,13.2-13.2v-107.51c0-7.28-5.92-13.2-13.2-13.2h-195.23Z"/>
    <path class="cls-2" d="M417.2,385.39c-3.03,0-7.6,2.07-9.59,4.35l-43.43,49.66c-1.25,1.43-1.25,4.04,0,5.48l43.43,49.66c1.99,2.28,6.56,4.35,9.59,4.35h195.23c1.65,0,3-1.34,3-3v-107.51c0-1.65-1.35-3-3-3h-195.23Z"/>
    <path class="cls-2" d="M126.1,375.19c-5.94,0-13.36,3.37-17.27,7.84l-43.43,49.66c-4.64,5.3-4.64,13.6,0,18.91l43.43,49.66c3.91,4.47,11.33,7.84,17.27,7.84h195.23c7.28,0,13.2-5.92,13.2-13.2v-107.51c0-7.28-5.92-13.2-13.2-13.2H126.1Z"/>
    <path class="cls-2" d="M126.1,385.39c-3.03,0-7.6,2.07-9.59,4.35l-43.43,49.66c-1.25,1.43-1.25,4.04,0,5.48l43.43,49.66c1.99,2.28,6.56,4.35,9.59,4.35h195.23c1.65,0,3-1.34,3-3v-107.51c0-1.65-1.35-3-3-3H126.1Z"/>
    <path class="cls-5" d="M435.25,459.59c.71-.57,1.21-1.16,1.5-1.78,1.18-.32,2.59-.9,3.83-1.58.76-.37,1.5-.81,2.16-1.29l8.86.48c.49.03.93-.2,1.13-.59.93-1.52,1.46-5.24,1.47-9.42,0-3.89-.27-8.14-.85-10.87l-.2-.93c-.13-.6-.71-1.03-1.38-.96l-7.89.5c-.47-.6-.88-1.2-1.37-1.86-1.15-1.49-2.43-2.26-3.67-2.9-.89-.58-1.74-1.02-2.39-2.07-.78-1.36-1.33-3.33-1.74-4.91-.74-2.83-1.53-3.92-3.79-3.43-1.73.37-3.23,2.15-3.89,4.93-.56,2.27-.58,5.13.03,7.99.03.13.06.27.09.4-2.23-.36-5.84-.98-9.63-1.5-6.44-.86-13.47-1.58-15.87-1.08l-.4.08c-.2.04-.39.15-.5.25-.57.26-1.02.77-1.32,1.32-.22.6-.36,1.26-.2,1.99.31,1.46,1.78,3.44,4.74,5.32,1.52.93,3.38,1.85,5.63,2.63-.78.58-1.26,1.24-1.59,2.01-.45,1.14-.44,2.53-.2,3.65.4,1.86,1.58,3.21,3.42,4,0,.35.04.83.14,1.29l.04.2c.26,1.2.78,3.03,2.77,4.21.63.35,1.38.61,2.33.83.02.41.04.83.14,1.29l.04.2c.23,1.06.73,2.76,2.69,3.81,1.65.9,4.62,1.45,10.07.29,2.73-.58,4.62-1.47,5.8-2.48M423.46,439.44c-2.87-.43-6.09-.51-8.83-.35-4.01-.88-7.07-2.18-9.31-3.58-2.08-1.29-3.34-2.63-3.57-3.69-.03-.13-.06-.27,0-.35.05-.08.24-.19.24-.19q.05-.08.12-.1s.07-.01,0,0h-.07c.01.08-.05.1-.05.1l.18-.11c2.26-.48,8.9.33,14.99,1.19,4.71.6,9.04,1.34,10.91,1.64l.12.25c-.95.41-.69,2.3-.44,3.5.23,1.06.55,2.25,1.07,3.39-1.41-.74-3.27-1.32-5.37-1.71M412.07,442.07c1-.21,3.18-.4,4.21-.48,2.2-.12,4.59,0,6.75.37,3.03.54,6.04,1.29,6.42,3.08.18.86-4.15,2.06-5.54,2.36-5.59,1.19-12.95.88-13.56-1.98-.14-.67-.18-1.49.09-2.17.22-.6.76-1,1.62-1.18M415.52,453.43c-1.26-.7-1.42-1.78-1.58-2.51l-.04-.2v-.07c.13.04.35.06.49.1,2.92.35,6.58-.08,10.04-.81,1.06-.23,2.25-.55,3.27-.97.76.32,1.46.66,1.95.98.4.26.74.54.82.94.2.93-4.04,2.25-6.1,2.69-6.38,1.36-8.21.29-8.86-.13M420.65,459.56c-1.1-.6-1.3-1.53-1.43-2.13l-.04-.2c-.04-.2-.07-.33-.05-.55,1.53.02,3.44-.17,5.77-.67,2.19-.47,4.08-1.07,5.41-1.7,1.38.26,2.49.58,3.25.91.47.25.86.44.94.84.11.53-.25,1.1-.85,1.57-1.02.77-2.54,1.44-4.74,1.91-4.46.95-6.92.78-8.27.02M443.22,437.25c.4.89,1.12,1.01,1.76.74.77-.3.96-1.04.6-1.73-.11-.19-.23-.44-.27-.64l5.56-.35c.51,2.39.81,6.43.76,10.12.02,3.05-.21,5.88-.78,7.46l-6.61-.29c1.01-.94,1.3-1.15,1.15-1.82-.13-.6-.69-.97-1.29-.84-.47.1-.85.6-1.11,1-.66.83-2.33,2.44-3.59,3.06-.81.45-1.71.78-2.48,1.08-.33-.9-1.03-1.59-2.35-2.21-.54-.23-1.12-.39-1.86-.58.29-.62.36-1.26.22-1.92-.21-1-.79-1.78-1.86-2.52-.16-.1-.39-.19-.57-.37.83-.66,1.3-1.39,1.44-2.04.24.16.57.37.81.52.56.37,1.35.13,1.71-.43.37-.56.18-1.43-.38-1.79-1.18-.65-1.95-1.67-2.54-2.8-.53-.86-.81-1.84-1.09-2.83.29.08.59.15.92.08.6-.13,1.27-.89.63-1.94-.54-.93-1.02-1.87-1.5-2.81l-.62-1.61c-.1-.46-.26-.92-.38-1.45-.52-2.46-.49-4.9,0-6.88.38-1.47.87-2.76,1.94-2.98.47-.1.63.35.76.95.49,2.33,1.01,4.44,2.08,6.16.87,1.48,2,2.22,3.28,2.99.94.5,1.96,1.04,2.91,2.23.58.78,1.09,1.51,1.59,2.23.44.74.79,1.43,1.16,2.19"/>
    <path class="cls-5" d="M144.15,457.68c.71-.57,1.21-1.16,1.5-1.78,1.18-.32,2.59-.9,3.83-1.58.75-.37,1.5-.81,2.16-1.29l8.86.48c.49.03.93-.2,1.13-.59.93-1.52,1.46-5.24,1.47-9.42,0-3.89-.27-8.14-.85-10.87l-.2-.93c-.13-.6-.71-1.03-1.39-.96l-7.89.5c-.47-.6-.88-1.2-1.37-1.86-1.15-1.49-2.43-2.26-3.68-2.9-.89-.58-1.75-1.02-2.39-2.07-.78-1.36-1.33-3.33-1.74-4.91-.74-2.83-1.53-3.92-3.79-3.43-1.73.37-3.23,2.15-3.89,4.93-.56,2.27-.58,5.13.03,7.99.03.13.06.27.08.4-2.23-.36-5.84-.98-9.63-1.5-6.44-.86-13.47-1.58-15.87-1.08l-.4.08c-.2.04-.38.15-.5.25-.57.26-1.02.77-1.32,1.32-.22.6-.36,1.26-.2,1.99.31,1.46,1.78,3.44,4.74,5.32,1.52.93,3.38,1.85,5.63,2.63-.78.58-1.26,1.24-1.59,2.01-.45,1.14-.44,2.53-.2,3.65.4,1.86,1.58,3.21,3.42,4,0,.35.04.83.14,1.29l.04.2c.26,1.2.78,3.03,2.77,4.21.63.35,1.38.61,2.33.83.02.41.04.83.14,1.29l.04.2c.23,1.06.73,2.76,2.69,3.81,1.65.9,4.62,1.45,10.07.29,2.73-.58,4.62-1.47,5.8-2.48M132.36,437.53c-2.87-.43-6.09-.51-8.83-.35-4.01-.88-7.07-2.18-9.31-3.58-2.08-1.29-3.34-2.63-3.56-3.69-.03-.13-.06-.27,0-.35.05-.08.24-.19.24-.19q.05-.08.12-.1s.07-.01,0,0h-.07c.01.08-.05.1-.05.1l.18-.11c2.26-.48,8.9.33,14.99,1.19,4.71.6,9.04,1.34,10.91,1.64l.12.25c-.95.41-.69,2.3-.44,3.5.23,1.06.55,2.25,1.07,3.39-1.41-.74-3.27-1.32-5.37-1.71M120.97,440.16c1-.21,3.18-.4,4.21-.48,2.2-.12,4.59,0,6.75.37,3.03.54,6.04,1.29,6.42,3.08.18.86-4.15,2.06-5.54,2.36-5.59,1.19-12.95.88-13.56-1.98-.14-.67-.18-1.49.09-2.17.22-.6.76-1,1.62-1.18M124.43,451.52c-1.26-.7-1.42-1.78-1.58-2.51l-.04-.2v-.07c.13.04.35.06.49.1,2.92.35,6.58-.08,10.04-.81,1.06-.23,2.25-.55,3.27-.97.76.32,1.46.66,1.94.98.4.26.74.54.82.94.2.93-4.04,2.25-6.1,2.69-6.38,1.36-8.21.29-8.85-.13M129.55,457.66c-1.1-.6-1.3-1.53-1.43-2.13l-.04-.2c-.04-.2-.07-.33-.05-.55,1.53.02,3.44-.17,5.76-.67,2.19-.47,4.08-1.07,5.41-1.7,1.38.26,2.49.58,3.25.91.47.25.86.44.94.84.11.53-.25,1.1-.85,1.57-1.02.77-2.54,1.44-4.74,1.91-4.46.95-6.92.78-8.27.02M152.12,435.35c.4.89,1.12,1.01,1.76.74.77-.3.96-1.04.61-1.73-.11-.19-.23-.44-.27-.64l5.56-.35c.51,2.39.81,6.43.76,10.12.02,3.05-.21,5.88-.78,7.46l-6.61-.29c1.01-.94,1.3-1.15,1.15-1.82-.13-.6-.69-.97-1.29-.84-.47.1-.85.6-1.11,1-.66.83-2.33,2.44-3.59,3.06-.81.45-1.71.78-2.48,1.08-.33-.9-1.03-1.59-2.35-2.21-.54-.23-1.12-.39-1.86-.58.29-.62.36-1.26.22-1.92-.21-1-.79-1.78-1.86-2.52-.16-.1-.39-.19-.57-.37.83-.66,1.3-1.39,1.44-2.04.24.16.57.37.81.52.56.37,1.35.13,1.71-.43.37-.56.18-1.43-.38-1.79-1.18-.65-1.95-1.67-2.54-2.8-.53-.86-.81-1.84-1.09-2.83.29.08.59.15.92.08.6-.13,1.27-.89.63-1.94-.55-.93-1.02-1.87-1.5-2.81l-.62-1.61c-.1-.46-.26-.92-.38-1.45-.52-2.46-.49-4.9,0-6.88.38-1.47.87-2.76,1.94-2.98.47-.1.63.35.76.95.49,2.33,1.01,4.44,2.07,6.16.87,1.48,2,2.22,3.28,2.99.94.5,1.96,1.04,2.91,2.23.58.78,1.08,1.51,1.59,2.23.44.74.79,1.43,1.16,2.19"/>
  </g>
</svg>