<?xml version="1.0" encoding="UTF-8"?>
<svg id="Layer_1" xmlns="http://www.w3.org/2000/svg" version="1.1" viewBox="0 0 1342.49 212.65">
  <!-- Generator: Adobe Illustrator 29.1.0, SVG Export Plug-In . SVG Version: 2.1.0 Build 142)  -->
  <defs>
    <style>
      .st0 {
        fill: #fff;
      }
    </style>
  </defs>
  <path class="st0" d="M24.43,166.33l17.91-93.78-14.49-20.81c-3.42-5-5.01-10.54-5.01-15.81,0-11.59,7.38-22.13,21.86-22.13h67.44c39.51,0,62.96,23.18,62.96,51.63,0,15.81-7.38,30.29-18.97,39.51,16.6,9.22,26.87,25.03,26.87,42.41,0,30.29-27.66,50.84-65.59,50.84h-63.75c-15.81,0-33.19-11.06-29.24-31.88ZM104.25,89.67c10.8-1.58,16.33-8.69,17.39-17.65.26-2.63.26-5.27,0-7.9-1.05-10.27-8.17-17.65-21.34-17.65h-16.07v43.2h20.02ZM105.83,165.81c13.17,0,20.81-7.9,21.34-17.91.26-4.48.26-6.06,0-10.54-.53-10.27-8.17-17.65-21.34-17.65h-21.6v46.1h21.6Z"/>
  <path class="st0" d="M209.03,171.34l5.8-59.27-8.96-12.91c-3.16-4.74-4.74-9.75-4.74-14.75,0-9.75,7.11-17.91,20.28-17.91h18.7c20.55,0,25.55,12.12,22.92,26.87l-9.48,51.1,12.91,18.44c3.16,4.48,4.74,9.75,4.74,14.75,0,10.8-6.85,20.55-20.28,20.55h-18.7c-15.54,0-24.76-11.59-23.18-26.87ZM209.55,26.98c0-15.02,12.12-27.13,27.13-27.13s27.13,12.12,27.13,27.13-12.12,27.13-27.13,27.13-27.13-12.12-27.13-27.13Z"/>
  <path class="st0" d="M302.68,58.33l-13.96-19.76c-3.16-4.74-4.74-10.01-4.74-15.02,0-10.54,7.11-20.28,20.28-20.28h16.07c15.54,0,23.18,12.64,23.44,26.87l.79,45.05c8.69-8.17,20.28-12.91,35.3-12.91,38.2,0,62.7,31.61,62.7,70.07s-24.5,70.07-62.7,70.07c-16.86,0-29.24-6.06-38.2-16.07-4.21,10.54-14.49,16.07-25.29,16.07-13.96,0-29.5-12.38-26.34-35.04l.79-5.79,11.85-103.26ZM346.15,156.59c3.95,6.58,10.54,10.54,19.49,10.54,12.12,0,20.81-8.69,22.39-22.13,1.05-8.43,1.05-16.86,0-25.29-1.58-13.44-10.27-22.13-22.39-22.13-9.75,0-16.6,4.48-20.55,12.12l1.05,46.89Z"/>
  <path class="st0" d="M466.06,143.68l4.74-30.82-10.27-14.49c-3.42-4.74-5.53-9.22-5.53-14.49,0-9.22,7.38-19.76,19.49-19.76h14.23c20.55,0,28.98,11.59,28.19,26.87l-2.63,44.78c-.79,15.54,6.59,25.55,18.18,25.55,5.79,0,11.85-2.63,16.6-8.69l-1.84-59.53c-.79-20.02,12.91-29.5,26.87-29.5s27.13,11.06,24.76,29.77l-7.64,55.32,12.64,15.28c3.69,4.48,5.53,9.22,5.53,14.49,0,9.22-7.38,19.76-19.49,19.76h-14.23c-10.27,0-17.12-7.11-20.81-15.02-12.12,13.44-25.55,19.23-43.47,19.23-24.24,0-51.37-18.18-45.31-58.74Z"/>
  <path class="st0" d="M638.86,58.33l-13.96-19.76c-3.16-4.74-4.74-10.01-4.74-15.02,0-10.54,7.11-20.28,20.28-20.28h16.07c15.54,0,23.18,12.64,23.45,26.87l.79,45.05c8.69-8.17,20.28-12.91,35.3-12.91,38.2,0,62.7,31.61,62.7,70.07s-24.5,70.07-62.7,70.07c-16.86,0-29.24-6.06-38.2-16.07-4.21,10.54-14.49,16.07-25.29,16.07-13.96,0-29.5-12.38-26.34-35.04l.79-5.79,11.85-103.26ZM682.33,156.59c3.95,6.58,10.54,10.54,19.49,10.54,12.12,0,20.81-8.69,22.39-22.13,1.05-8.43,1.05-16.86,0-25.29-1.58-13.44-10.27-22.13-22.39-22.13-9.75,0-16.6,4.48-20.55,12.12l1.05,46.89Z"/>
  <path class="st0" d="M902.55,197.68l-20.55-11.59-10.8,6.85c-9.48,6.06-21.07,9.48-35.56,9.48-23.44,0-42.67-18.97-42.67-42.67s19.23-42.94,47.42-42.94h35.04v-8.17c0-8.96-6.32-16.6-14.75-18.18l-28.45,15.28c-5.01,2.63-9.48,4.21-13.7,4.21-12.91,0-19.23-11.59-19.23-18.7s2.9-13.44,9.22-17.91c10.8-7.64,32.93-11.06,54.79-11.06,34.25,0,60.85,13.96,61.38,47.42,0,5-.53,10.8-1.84,16.86l-4.74,22.66,15.02,17.39c4.48,5.27,6.06,10.27,6.06,15.54,0,11.33-9.22,20.28-20.81,20.28-5,0-9.75-1.32-15.81-4.74ZM858.29,167.91c5.53,0,11.59-1.84,17.12-5v-22.13h-17.12c-7.38,0-13.17,6.32-13.17,13.7s5.79,13.43,13.17,13.43Z"/>
  <path class="st0" d="M960.5,143.68l5.79-40.57h-3.42c-15.81,0-21.86-8.96-21.86-18.97,0-8.17,5-12.91,15.54-23.97l21.07-22.39c4.74-5,9.22-7.11,13.96-7.11,7.38,0,13.43,5,13.7,14.49l1.05,22.39,17.12-2.37c18.18-2.37,27.13,7.64,27.13,18.7s-9.22,21.86-27.13,18.44l-15.81-2.9,2.63,61.64h22.66c7.9,0,14.75,6.06,14.75,14.75,0,14.49-22.39,26.61-38.72,26.61-36.62,0-53.21-26.61-48.47-58.74Z"/>
  <path class="st0" d="M1060.76,132.09c.79-38.46,31.88-69.81,72.97-69.81s71.65,31.35,70.6,69.81c-.79,38.72-32.14,70.33-72.97,70.33s-71.65-31.61-70.6-70.33ZM1155.07,146.05c.53-10.01.53-17.12-.26-27.4-.79-11.85-9.75-21.6-21.86-21.6s-21.07,10.01-22.13,22.13c-.79,9.75-.79,16.86.26,26.61,1.32,12.12,9.48,21.86,21.6,22.13,12.12.26,21.87-10.01,22.39-21.86Z"/>
  <path class="st0" d="M1228.3,171.34l7.38-55.85-11.06-15.02c-3.42-4.48-5-9.75-5-14.75,0-10.27,7.38-19.23,20.55-19.23h14.49c14.75,0,20.28,8.17,20.81,20.55l11.59-13.17c7.9-8.96,16.86-11.59,24.24-11.33,13.43,0,23.45,11.33,23.45,23.45,0,11.06-7.9,20.28-27.66,27.13l-30.03,10.27.26,26.61,11.33,12.91c3.69,4.21,5.53,9.22,5.53,14.22,0,10.8-7.64,21.07-21.07,21.07h-21.34c-15.54,0-25.55-11.33-23.45-26.87Z"/>
</svg>