<?xml version="1.0" encoding="UTF-8"?><svg id="a" xmlns="http://www.w3.org/2000/svg" viewBox="0 0 212.08 84.31"><defs><style>.b{fill:#fff;stroke-width:0px;}</style></defs><path class="b" d="m11.65,49.37c-.52-1.14-.78-2.7-.78-4.68V11.94l9.2,40.79h2.18l9.84-40.46v35.46c0,1.04-.19,1.85-.58,2.42-.39.57-1.13.99-2.22,1.25l-2.26.47v2.18h19.34v-2.18l-1.25-.31c-.78-.21-1.33-.62-1.64-1.25s-.47-1.48-.47-2.57V8.27c0-1.04.14-1.83.43-2.38s.82-.9,1.6-1.05l1.33-.23v-2.18h-14.9l-6.52,26.7L19.38,2.42H3.39v2.18l1.72.39c.68.16,1.22.46,1.64.9.42.44.62,1.13.62,2.07v36.89c0,2.08-.26,3.62-.78,4.6-.52.99-1.2,1.61-2.03,1.87l-1.72.55v2.18h13.96v-2.18l-2.65-.47c-1.14-.21-1.98-.88-2.5-2.03Z"/><path class="b" d="m76.9,51.79c.65-1.09,1-2.6,1.05-4.52h-2.03c0,.47-.04.88-.12,1.25-.08.36-.17.65-.27.86s-.26.31-.47.31c-.26,0-.44-.16-.55-.47-.1-.31-.16-.81-.16-1.48v-20.9c0-3.54-.53-6.25-1.6-8.15s-2.52-3.21-4.37-3.94c-1.85-.73-3.97-1.09-6.36-1.09s-4.46.35-6.51,1.05c-2.05.7-3.72,1.77-4.99,3.2-1.27,1.43-1.91,3.21-1.91,5.34,0,1.82.48,3.21,1.44,4.17s2.17,1.44,3.63,1.44c1.3,0,2.33-.31,3.08-.94.75-.62,1.39-1.38,1.91-2.26l-1.76-8.53c.42-.19.8-.33,1.13-.4.57-.13,1.12-.19,1.64-.19,1.4,0,2.46.48,3.16,1.44.7.96,1.05,2.82,1.05,5.58v6.38c-1.27.29-2.51.59-3.67.91-1.56.44-3.17,1.05-4.84,1.83-2.44,1.2-4.34,2.74-5.69,4.64-1.35,1.9-2,4.2-1.95,6.9-.05,3.02.71,5.51,2.3,7.49,1.59,1.98,3.68,2.96,6.28,2.96,1.66,0,3.09-.35,4.29-1.05s2.22-1.96,3.08-3.78c.08-.17.16-.36.24-.55.35,1.89.98,3.22,1.91,3.98,1.14.94,2.81,1.4,4.99,1.4,1.3,0,2.47-.21,3.51-.62,1.04-.42,1.88-1.17,2.54-2.26h.02Zm-13.42-5.73c-.29,1.12-.66,1.91-1.13,2.38s-.94.7-1.4.7c-.42,0-.85-.16-1.29-.47-.44-.31-.81-.98-1.09-1.99-.29-1.01-.43-2.59-.43-4.72s.16-3.83.47-4.95.71-1.94,1.21-2.46c.49-.52,1-.94,1.52-1.25.52-.36,1.06-.64,1.64-.82.27-.09.58-.17.94-.25v9.26c0,1.92-.14,3.45-.43,4.56h0Z"/><path class="b" d="m79.4,60.8c-.55.75-.82,1.62-.82,2.61,0,1.61.88,2.89,2.65,3.82,1.77.94,4.78,1.4,9.05,1.4,2.7,0,5.33-.42,7.88-1.25,2.55-.83,4.64-2.16,6.28-3.98,1.64-1.82,2.46-4.16,2.46-7.02,0-3.07-.68-5.28-2.03-6.63-1.35-1.35-3.59-2.11-6.71-2.26l-8.19-.39c-1.3-.1-2.21-.32-2.73-.66-.52-.34-.78-.77-.78-1.29s.26-.98.78-1.36c.2-.15.48-.33.8-.51,1.08.21,2.22.32,3.41.32,2.5,0,4.74-.45,6.75-1.36,2-.91,3.59-2.44,4.76-4.6,1.17-2.16,1.75-5.08,1.75-8.77s-.58-6.72-1.75-8.93c-1.17-2.21-2.76-3.81-4.76-4.8-.35-.17-.71-.31-1.08-.45-.03-1.06.02-1.96.14-2.67.23-1.35.61-2.27,1.13-2.77.52-.49,1.04-.74,1.56-.74.26,0,.52.05.78.16.26.1.47.23.62.39l-1.25,3.98c.36.52.82.94,1.37,1.25s1.18.47,1.91.47c.88,0,1.78-.38,2.69-1.13s1.36-2.01,1.36-3.78c0-1.87-.57-3.3-1.72-4.29-1.14-.99-2.55-1.48-4.21-1.48-2.18,0-3.97,1.01-5.34,3.04-1.05,1.54-1.59,3.83-1.63,6.85-.99-.18-2.01-.3-3.09-.3-2.5,0-4.75.49-6.75,1.48-2,.99-3.59,2.59-4.76,4.8-1.17,2.21-1.76,5.19-1.76,8.93s.58,6.62,1.76,8.77c1.17,2.16,2.76,3.69,4.76,4.6.34.15.69.27,1.04.4-1.81.75-3.28,1.67-4.4,2.76-1.38,1.35-2.07,3.2-2.07,5.54,0,1.2.27,2.34.82,3.43s1.39,1.99,2.54,2.69c.82.5,1.8.84,2.94,1.04-1.27.22-2.35.48-3.22.79-1.43.52-2.42,1.16-2.96,1.91h.02Zm9.44-39.39c.23-1.69.57-2.85,1.01-3.47.44-.62.95-.94,1.52-.94.68,0,1.23.31,1.68.94.44.62.78,1.78,1.01,3.47.23,1.69.35,4.17.35,7.45,0,4.26-.26,7.2-.78,8.81s-1.3,2.42-2.34,2.42c-.83,0-1.51-.81-2.03-2.42-.52-1.61-.78-4.55-.78-8.81,0-3.28.12-5.76.35-7.45h0Zm.08,36.94l5.49.23c1.66.05,2.87.31,3.63.78.75.47,1.13,1.2,1.13,2.18,0,1.3-.72,2.37-2.15,3.2s-3.34,1.25-5.73,1.25c-1.92,0-3.38-.33-4.37-.98-.99-.65-1.48-1.52-1.48-2.61,0-1.73,1.17-3.08,3.48-4.05h0Z"/><path class="b" d="m118.01,54.05c1.17.42,2.35.62,3.55.62,2.96,0,5.5-.9,7.61-2.69s3.16-4.72,3.16-8.78c0-3.02-.6-5.56-1.79-7.64-1.2-2.08-2.78-3.87-4.76-5.38l-5.23-3.98c-1.3-1.04-2.26-2.11-2.89-3.2-.62-1.09-.94-2.13-.94-3.12,0-1.2.32-2.07.97-2.61.65-.55,1.44-.82,2.38-.82,1.51,0,2.9.78,4.17,2.34s2.54,4.26,3.78,8.11h2.42v-13.34h-2.18l-1.76,3.7c-.68-.87-1.39-1.56-2.14-2.06-1.56-1.04-3.38-1.56-5.46-1.56-1.82,0-3.54.36-5.15,1.09-1.61.73-2.9,1.89-3.86,3.47-.96,1.59-1.44,3.63-1.44,6.12,0,2.86.65,5.23,1.95,7.1,1.3,1.87,3.04,3.69,5.23,5.46l4.37,3.51c1.35,1.09,2.26,2.21,2.73,3.35s.7,2.31.7,3.51c0,1.3-.29,2.3-.86,3s-1.3,1.05-2.18,1.05c-.83,0-1.7-.34-2.61-1.01s-1.86-1.9-2.85-3.67c-.99-1.77-2.03-4.29-3.12-7.57h-2.42v14.98h1.87l1.99-4.04c.45.67.9,1.26,1.36,1.74,1.09,1.12,2.22,1.89,3.39,2.3v.02Z"/><path class="b" d="m142.07,10.84c1.56,0,2.86-.51,3.9-1.52s1.56-2.3,1.56-3.86-.52-2.86-1.56-3.9c-1.04-1.04-2.34-1.56-3.9-1.56s-2.85.52-3.86,1.56-1.52,2.34-1.52,3.9.51,2.85,1.52,3.86c1.01,1.01,2.3,1.52,3.86,1.52Z"/><path class="b" d="m149.4,51.95l-1.09-.16c-.47-.1-.78-.39-.94-.86s-.23-1.12-.23-1.95V14.59l-.78-.78c-1.4.21-3.12.4-5.15.58s-4.19.33-6.47.43v2.26l.86.23c.42.1.7.4.86.9.16.49.23,1.47.23,2.92v27.92c0,.83-.07,1.47-.2,1.91-.13.44-.48.72-1.05.82l-.94.16v2.11h14.9v-2.11h0Z"/><path class="b" d="m170.38,49.69c0,.73-.13,1.21-.39,1.44s-.6.4-1.01.51l-.86.23v2.18h15.44v-2.18l-1.09-.16c-.94-.16-1.4-.81-1.4-1.95v-24.34c0-3.02-.34-5.37-1.01-7.06-.68-1.69-1.65-2.9-2.92-3.63-1.28-.73-2.8-1.09-4.56-1.09-1.87,0-3.5.43-4.88,1.29s-2.48,2.35-3.31,4.49c-.33.84-.61,1.8-.86,2.89h0l.55-8.03-.7-.7c-1.3.21-3.03.4-5.19.58s-4.54.27-7.14.27v2.18l1.25.23c.52.1.84.48.98,1.13.13.65.19,1.47.19,2.46v29.25c0,.73-.1,1.22-.31,1.48-.21.26-.6.44-1.17.55l-1.09.16v2.18h15.44v-2.18l-.78-.16c-.47-.1-.82-.29-1.05-.55s-.35-.78-.35-1.56v-20.59c0-3.07.31-5.41.94-7.02.62-1.61,1.46-2.42,2.5-2.42s1.77.5,2.18,1.48c.42.99.62,2.91.62,5.77v22.85l-.02.02Z"/><path class="b" d="m191.71,52.85c2.05,1.22,4.38,1.83,6.98,1.83,3.9,0,6.81-1.21,8.74-3.63,1.92-2.42,3.17-5.86,3.74-10.33l-2.03-.39c-.62,3.02-1.48,5.34-2.57,6.98-1.09,1.64-2.55,2.46-4.37,2.46-1.04,0-2.04-.47-3-1.4-.96-.94-1.73-2.57-2.3-4.91s-.86-5.59-.86-9.75v-.55h14.97c.05,0,.08-.53.08-1.6v-3.78c0-4.58-1.04-8.07-3.12-10.49s-5.1-3.63-9.05-3.63c-2.13,0-4.26.62-6.4,1.87-2.13,1.25-3.9,3.34-5.3,6.28-1.4,2.94-2.11,6.96-2.11,12.05,0,5.36.59,9.56,1.76,12.6,1.17,3.04,2.78,5.18,4.84,6.4h0Zm5.07-33.54c.23-1.12.53-1.85.9-2.18.36-.34.75-.51,1.17-.51.73,0,1.27.44,1.64,1.33.36.88.55,2.39.55,4.52v7.96h-4.97c.03-2.39.09-4.4.18-6.01.13-2.29.31-3.99.55-5.11h-.02Z"/><path class="b" d="m7.16,80.49c-.1-.16-.21-.4-.33-.71l-2.32-6.23h-1.02l-2.42,6.34c-.09.27-.19.48-.29.63-.1.15-.27.25-.49.29l-.29.06v.46h2.91v-.46l-.64-.06c-.25-.02-.41-.1-.48-.22s-.07-.3-.02-.52l.48-1.29h3.02l.44,1.18c.08.28.08.47-.02.59s-.28.2-.55.24l-.56.07v.46h3.42v-.46l-.37-.07c-.2-.04-.35-.14-.45-.3Zm-4.68-2.33l1.29-3.45,1.27,3.45h-2.56Z"/><path class="b" d="m14.22,80.69c-.1-.08-.14-.2-.14-.33v-2.63c0-.48-.07-.87-.22-1.2-.15-.32-.35-.56-.62-.72-.26-.16-.56-.24-.9-.24-.49,0-.94.14-1.34.41-.27.19-.5.47-.69.82h0s.06-1.07.06-1.07l-.17-.11c-.29.04-.57.07-.82.1s-.53.05-.82.06v.46l.36.06c.14.02.25.09.33.2.08.11.12.3.12.56v3.31c0,.27-.17.42-.51.46l-.4.05v.46h2.88v-.46l-.36-.02c-.19-.02-.34-.06-.43-.15-.1-.08-.14-.2-.14-.33v-2.56c0-.28.07-.53.21-.74.14-.21.33-.37.55-.48.23-.11.46-.17.7-.17.38,0,.68.1.89.29.21.19.31.5.31.92v2.75c0,.27-.17.42-.51.46l-.4.05v.46h2.88v-.46l-.36-.02c-.19-.02-.34-.06-.43-.15Z"/><path class="b" d="m22.03,80.5c-.27.11-.6.17-.99.17-.59,0-1.04-.2-1.36-.6s-.48-.94-.48-1.62c0-.02,0-.03,0-.05h3.85s.01-.03.01-.09v-.39c0-.44-.08-.85-.23-1.2s-.4-.64-.73-.85-.78-.32-1.34-.32c-.35,0-.68.06-1,.17-.32.11-.61.29-.87.53-.26.24-.47.55-.62.93s-.22.82-.22,1.35c0,.59.11,1.11.33,1.55.22.44.54.79.96,1.04s.91.37,1.49.37c.26,0,.52-.04.79-.12.26-.08.53-.21.78-.39s.5-.41.73-.71l-.35-.34c-.23.26-.48.45-.75.56Zm-1.37-4.32c.4,0,.71.14.94.43s.34.64.33,1.06v.14h-2.69c.05-.45.16-.81.34-1.06.25-.37.61-.56,1.08-.56Z"/><path class="b" d="m29.77,80.59c-.08-.14-.11-.33-.11-.57v-7.06l-.17-.12c-.21.02-.43.03-.66.05-.23.02-.46.03-.68.04-.23,0-.45.02-.66.02v.48l.63.06c.18.02.3.09.39.2s.12.29.12.55v2.39c-.09-.16-.19-.3-.29-.41-.22-.25-.46-.42-.71-.52s-.52-.15-.79-.15c-.54,0-.99.13-1.37.4-.38.26-.67.62-.87,1.08-.2.45-.3.96-.3,1.53s.09,1.05.28,1.49c.18.44.45.8.8,1.06s.78.39,1.28.39c.25,0,.51-.05.78-.15s.54-.28.79-.53c.16-.16.3-.38.42-.62l.08,1.17,1.84-.08v-.45l-.32-.02c-.22-.02-.37-.09-.45-.23Zm-2.02-.08c-.25.13-.5.2-.74.2-.48,0-.85-.17-1.14-.51-.28-.34-.43-.89-.43-1.64,0-.8.14-1.37.43-1.73s.66-.53,1.14-.53c.25,0,.49.07.74.21.25.14.46.35.62.64.16.29.25.66.25,1.12v.51h0c0,.46-.08.83-.25,1.12-.17.28-.37.49-.62.62Z"/><path class="b" d="m32.56,74.48c.22,0,.4-.07.53-.21.13-.14.2-.31.2-.53s-.07-.4-.2-.53c-.13-.13-.31-.2-.53-.2s-.39.07-.53.2c-.14.13-.21.31-.21.53s.07.39.21.53.31.21.53.21Z"/><path class="b" d="m33.38,80.69c-.1-.08-.14-.2-.14-.33v-4.63l-.17-.11c-.19.02-.38.05-.55.07-.18.02-.35.04-.53.05-.18.01-.37.02-.58.04v.46l.36.06c.14.02.25.09.33.2.08.11.12.3.12.56v3.31c0,.27-.17.42-.51.46l-.4.05v.46h2.88v-.46l-.36-.02c-.19-.02-.34-.06-.43-.15Z"/><path class="b" d="m37.9,80.49c-.16.09-.33.13-.49.13s-.35-.07-.51-.22-.25-.38-.25-.7v-3.28h1.92v-.68h-1.84v-1.69h-.72l-.17,1.09c-.03.18-.08.32-.14.42-.06.1-.18.16-.37.18l-.59.05v.63l.87.02v3.37c0,.49.12.88.35,1.17s.57.44,1.02.44c.33,0,.63-.08.91-.24.28-.16.56-.42.84-.78l-.31-.34c-.18.19-.36.33-.52.42Z"/><path class="b" d="m43.81,75.93c-.42-.25-.92-.37-1.5-.37s-1.07.12-1.5.37c-.43.25-.77.6-1.01,1.05-.24.45-.36.97-.36,1.56s.12,1.12.36,1.56c.24.44.57.79,1.01,1.04.43.25.93.37,1.5.37s1.08-.12,1.5-.37c.42-.25.74-.59.97-1.04.23-.44.34-.97.34-1.56s-.11-1.11-.34-1.56c-.23-.45-.55-.8-.97-1.05Zm-.02,3.81c-.11.36-.29.64-.53.85s-.56.31-.95.31-.7-.1-.94-.31c-.24-.2-.42-.48-.54-.84-.11-.36-.17-.76-.17-1.21s.06-.88.17-1.23c.12-.35.29-.63.54-.83.24-.2.55-.3.94-.3s.71.11.94.33c.24.22.41.51.53.86.11.36.17.75.17,1.18,0,.44-.05.85-.16,1.2Z"/><path class="b" d="m49.58,75.56c-.25,0-.49.06-.72.17-.23.11-.43.31-.6.58-.12.19-.23.45-.32.73l.05-1.32-.17-.11c-.28.04-.57.07-.85.1s-.57.05-.85.06v.45l.45.06c.14.02.25.08.33.2s.12.32.12.59v3.29c0,.28-.17.43-.51.47l-.31.03v.46h2.94v-.46l-.55-.05c-.19-.02-.33-.06-.41-.14s-.13-.18-.13-.32v-1.56c0-.52.07-.98.21-1.36s.31-.69.52-.91c.21-.22.41-.33.62-.33.05,0,.11.02.17.03l-.26.77c.11.1.22.19.34.26.12.07.24.11.37.11.2,0,.36-.07.48-.21.12-.14.18-.33.18-.57,0-.29-.08-.54-.25-.73-.17-.2-.45-.29-.84-.29Z"/><path class="b" d="m52.47,74.48c.22,0,.4-.07.53-.21.13-.14.2-.31.2-.53s-.07-.4-.2-.53c-.13-.13-.31-.2-.53-.2s-.39.07-.53.2c-.14.13-.21.31-.21.53s.07.39.21.53.31.21.53.21Z"/><path class="b" d="m53.3,80.69c-.1-.08-.14-.2-.14-.33v-4.63l-.17-.11c-.19.02-.38.05-.55.07-.18.02-.35.04-.53.05-.18.01-.37.02-.58.04v.46l.36.06c.14.02.25.09.33.2.08.11.12.3.12.56v3.31c0,.27-.17.42-.51.46l-.4.05v.46h2.88v-.46l-.36-.02c-.19-.02-.34-.06-.43-.15Z"/><path class="b" d="m60.32,80.43c-.07.17-.18.25-.32.25-.12,0-.22-.05-.28-.14-.07-.09-.1-.21-.1-.36v-3.01c0-.54-.19-.94-.58-1.21-.38-.27-.88-.41-1.5-.41-.42,0-.81.06-1.17.18-.36.12-.65.29-.86.52-.21.23-.32.51-.32.85,0,.19.05.34.15.44s.25.15.45.15c.11,0,.25-.04.4-.11.15-.07.26-.19.33-.36l-.32-.8c.13-.07.3-.13.51-.18s.41-.07.61-.07c.41,0,.73.12.94.35.21.23.32.59.32,1.06v.24c-.18.03-.36.06-.55.1-.25.05-.44.09-.57.12-.67.15-1.19.33-1.55.53s-.6.42-.73.66c-.13.23-.2.47-.2.71,0,.26.06.51.2.75s.32.43.57.59c.25.15.55.23.9.23.48,0,.91-.17,1.3-.51.21-.18.42-.44.62-.76h0s.07,0,.07,0c0,.4.1.7.29.9.2.2.43.3.7.3.43,0,.75-.14.95-.41.21-.27.31-.68.31-1.24h-.48c0,.26-.04.48-.11.64Zm-2.04-.49c-.17.26-.36.45-.59.56-.23.11-.46.17-.7.17-.3,0-.52-.09-.65-.28s-.2-.4-.2-.64c0-.18.04-.34.13-.48.08-.14.24-.27.46-.39.22-.12.54-.22.94-.32.15-.04.32-.07.52-.11.13-.02.26-.05.39-.08v.54c-.05.43-.15.77-.3,1.03Z"/><path class="b" d="m63.38,80.69c-.1-.08-.14-.2-.14-.33v-7.39l-.17-.12c-.19.02-.39.04-.59.06-.2.02-.41.03-.62.04-.21.01-.42.02-.64.03v.45l.54.08c.14.02.25.08.33.18s.12.27.12.53v6.14c0,.27-.17.42-.51.46l-.4.05v.46h2.88v-.46l-.36-.02c-.19-.02-.34-.06-.43-.15Z"/><path class="b" d="m70.11,80.49c-.16.09-.33.13-.49.13s-.35-.07-.51-.22-.25-.38-.25-.7v-3.28h1.92v-.68h-1.84v-1.69h-.72l-.17,1.09c-.03.18-.08.32-.14.42-.06.1-.18.16-.37.18l-.59.05v.63l.87.02v3.37c0,.49.12.88.35,1.17s.57.44,1.02.44c.33,0,.63-.08.91-.24.28-.16.56-.42.84-.78l-.31-.34c-.18.19-.36.33-.52.42Z"/><path class="b" d="m74.81,76.19l.4.03c.22.02.37.1.43.26.07.16.03.41-.1.75l-.55,1.43c-.08.2-.17.41-.26.63s-.19.44-.28.65c-.03.07-.04.12-.06.18-.05-.16-.1-.34-.16-.49-.1-.25-.2-.49-.31-.73l-.75-1.76c-.09-.21-.12-.41-.1-.59s.12-.28.29-.3l.47-.07v-.44h-2.83v.45l.33.07c.15.03.26.1.34.21.08.11.16.25.24.43l1.94,4.32c-.17.41-.32.76-.45,1.02-.14.29-.27.52-.37.68s-.21.3-.3.39c-.1.09-.2.17-.3.24l-.54-.64c-.24-.02-.42.04-.55.18-.13.14-.19.31-.18.5,0,.2.09.37.26.51.17.14.35.21.57.21.27,0,.53-.08.79-.24.26-.16.52-.42.78-.78.26-.36.52-.85.77-1.46l2.04-4.84c.11-.25.21-.42.3-.52.09-.1.21-.17.36-.2l.29-.07v-.46h-2.5v.45Z"/><path class="b" d="m82.9,75.93c-.35-.25-.78-.37-1.28-.37-.24,0-.5.05-.8.15-.3.1-.57.27-.83.52-.16.15-.29.35-.41.57h-.03s.06-1.08.06-1.08l-.17-.11c-.29.04-.58.07-.88.1s-.59.05-.88.06v.46l.47.06c.14.02.25.08.33.2.08.11.12.3.12.56v6.03c0,.31-.17.48-.51.52l-.33.03v.46h2.83v-.46l-.38-.02c-.2-.02-.35-.07-.44-.17s-.14-.22-.14-.36v-2.66c.09.16.18.3.29.42.22.25.47.43.74.53s.55.15.85.15c.54,0,.99-.12,1.36-.37.37-.25.65-.6.83-1.05.19-.46.28-.99.28-1.6s-.09-1.09-.28-1.53-.45-.78-.81-1.02Zm-.52,4.27c-.28.34-.66.52-1.14.52-.25,0-.49-.06-.74-.2-.25-.13-.46-.34-.62-.62-.17-.28-.25-.65-.25-1.1v-.52c0-.45.08-.82.25-1.1.16-.28.37-.49.62-.62.25-.13.5-.2.74-.2.48,0,.85.16,1.14.49.28.33.43.87.43,1.63,0,.8-.14,1.37-.43,1.71Z"/><path class="b" d="m89.18,80.5c-.27.11-.6.17-.99.17-.59,0-1.04-.2-1.36-.6s-.48-.94-.48-1.62c0-.02,0-.03,0-.05h3.85s.01-.03.01-.09v-.39c0-.44-.08-.85-.23-1.2s-.4-.64-.73-.85-.78-.32-1.34-.32c-.35,0-.68.06-1,.17-.32.11-.61.29-.87.53-.26.24-.47.55-.62.93s-.22.82-.22,1.35c0,.59.11,1.11.33,1.55.22.44.54.79.96,1.04s.91.37,1.49.37c.26,0,.52-.04.79-.12.26-.08.53-.21.78-.39s.5-.41.73-.71l-.35-.34c-.23.26-.48.45-.75.56Zm-1.37-4.32c.4,0,.71.14.94.43s.34.64.33,1.06v.14h-2.69c.05-.45.16-.81.34-1.06.25-.37.61-.56,1.08-.56Z"/><path class="b" d="m94.84,72.94c-.22-.07-.44-.1-.67-.1-.47,0-.85.13-1.15.38s-.52.6-.67,1.04c-.14.42-.21.91-.21,1.44l-1.09.09v.61l1.08.03v3.93c0,.29-.17.45-.51.47l-.43.03v.46h3.16v-.46l-.66-.05c-.36-.02-.54-.18-.54-.46v-3.96h1.7v-.66h-1.7v-.33c0-.41.02-.75.05-1.02.03-.27.08-.48.15-.63.07-.15.16-.26.26-.32.1-.06.22-.09.36-.09.12,0,.23,0,.33.03.1.02.17.05.24.09l-.25.72c.06.14.15.25.27.32.12.08.26.11.42.11.17,0,.31-.06.44-.18.12-.12.18-.3.18-.53,0-.26-.07-.47-.22-.63-.15-.16-.33-.27-.55-.34Z"/><path class="b" d="m101.12,80.43c-.07.17-.18.25-.32.25-.12,0-.22-.05-.28-.14-.07-.09-.1-.21-.1-.36v-3.01c0-.54-.19-.94-.58-1.21-.38-.27-.88-.41-1.5-.41-.42,0-.81.06-1.17.18-.36.12-.65.29-.86.52-.21.23-.32.51-.32.85,0,.19.05.34.15.44s.25.15.45.15c.11,0,.25-.04.4-.11.15-.07.26-.19.33-.36l-.32-.8c.13-.07.3-.13.51-.18s.41-.07.61-.07c.41,0,.73.12.94.35.21.23.32.59.32,1.06v.24c-.18.03-.36.06-.55.1-.25.05-.44.09-.57.12-.67.15-1.19.33-1.55.53s-.6.42-.73.66c-.13.23-.2.47-.2.71,0,.26.06.51.2.75s.32.43.57.59c.25.15.55.23.9.23.48,0,.91-.17,1.3-.51.21-.18.42-.44.62-.76h0s.07,0,.07,0c0,.4.1.7.29.9.2.2.43.3.7.3.43,0,.75-.14.95-.41.21-.27.31-.68.31-1.24h-.48c0,.26-.04.48-.11.64Zm-2.04-.49c-.17.26-.36.45-.59.56-.23.11-.46.17-.7.17-.3,0-.52-.09-.65-.28s-.2-.4-.2-.64c0-.18.04-.34.13-.48.08-.14.24-.27.46-.39.22-.12.54-.22.94-.32.15-.04.32-.07.52-.11.13-.02.26-.05.39-.08v.54c-.05.43-.15.77-.3,1.03Z"/><path class="b" d="m106,80.47c-.3.11-.59.17-.88.17-.36,0-.67-.1-.91-.3-.25-.2-.44-.47-.56-.81-.13-.34-.19-.72-.19-1.14,0-.71.13-1.26.4-1.63s.67-.56,1.21-.56c.18,0,.33.03.47.09.1.04.2.11.31.18l-.31.71c.07.11.16.21.28.3.11.08.26.13.43.13.25,0,.42-.07.53-.21.11-.14.16-.31.16-.5,0-.26-.09-.49-.26-.68-.17-.2-.4-.35-.68-.47-.28-.12-.58-.17-.91-.17-.47,0-.91.11-1.34.34-.43.23-.77.56-1.04,1-.26.44-.4.99-.4,1.64,0,.54.11,1.04.32,1.49.21.45.52.81.9,1.08.39.27.84.4,1.36.4.46,0,.87-.11,1.24-.32.37-.21.68-.49.94-.83l-.28-.36c-.24.21-.5.37-.8.48Z"/><path class="b" d="m111.98,80.5c-.27.11-.6.17-.99.17-.59,0-1.04-.2-1.36-.6s-.48-.94-.48-1.62c0-.02,0-.03,0-.05h3.85s.01-.03.01-.09v-.39c0-.44-.08-.85-.23-1.2-.15-.36-.4-.64-.73-.85-.33-.21-.78-.32-1.34-.32-.35,0-.68.06-1,.17-.32.11-.61.29-.87.53-.26.24-.47.55-.62.93s-.22.82-.22,1.35c0,.59.11,1.11.33,1.55.22.44.54.79.96,1.04.42.25.91.37,1.49.37.26,0,.52-.04.79-.12.27-.08.53-.21.78-.39.26-.18.5-.41.73-.71l-.35-.34c-.23.26-.48.45-.75.56Zm-1.37-4.32c.4,0,.71.14.94.43.22.28.33.64.33,1.06v.14h-2.68c.05-.45.16-.81.34-1.06.25-.37.61-.56,1.08-.56Z"/><path class="b" d="m119.87,72.94c-.22-.07-.44-.1-.67-.1-.47,0-.85.13-1.15.38-.3.25-.52.6-.67,1.04-.14.42-.21.91-.21,1.44l-1.09.09v.61l1.08.03v3.93c0,.29-.17.45-.51.47l-.43.03v.46h3.16v-.46l-.66-.05c-.36-.02-.54-.18-.54-.46v-3.96h1.7v-.66h-1.7v-.33c0-.41.01-.75.05-1.02.03-.27.08-.48.15-.63.07-.15.16-.26.26-.32.1-.06.22-.09.36-.09.12,0,.23,0,.33.03s.17.05.24.09l-.25.72c.06.14.15.25.27.32.12.08.26.11.42.11s.31-.06.44-.18c.12-.12.18-.3.18-.53,0-.26-.07-.47-.22-.63-.15-.16-.33-.27-.55-.34Z"/><path class="b" d="m125.18,75.93c-.42-.25-.92-.37-1.5-.37s-1.07.12-1.5.37c-.43.25-.77.6-1.01,1.05-.24.45-.36.97-.36,1.56s.12,1.12.36,1.56c.24.44.57.79,1.01,1.04.43.25.93.37,1.5.37s1.08-.12,1.5-.37.74-.59.97-1.04c.23-.44.34-.97.34-1.56s-.12-1.11-.34-1.56c-.23-.45-.55-.8-.97-1.05Zm-.02,3.81c-.12.36-.29.64-.53.85-.24.21-.56.31-.95.31s-.7-.1-.94-.31c-.24-.2-.42-.48-.53-.84-.12-.36-.17-.76-.17-1.21s.06-.88.17-1.23c.11-.35.29-.63.53-.83.24-.2.55-.3.94-.3s.71.11.94.33c.24.22.41.51.53.86.12.36.17.75.17,1.18,0,.44-.05.85-.16,1.2Z"/><path class="b" d="m130.95,75.56c-.25,0-.49.06-.72.17-.23.11-.43.31-.6.58-.12.19-.23.45-.32.73l.05-1.32-.17-.11c-.28.04-.57.07-.85.1-.28.03-.57.05-.85.06v.45l.45.06c.14.02.25.08.33.2s.12.32.12.59v3.29c0,.28-.17.43-.51.47l-.31.03v.46h2.94v-.46l-.55-.05c-.19-.02-.33-.06-.41-.14s-.13-.18-.13-.32v-1.56c0-.52.07-.98.21-1.36.14-.39.31-.69.52-.91.21-.22.41-.33.62-.33.05,0,.11.02.17.03l-.26.77c.11.1.22.19.34.26.12.07.24.11.37.11.2,0,.36-.07.48-.21.12-.14.18-.33.18-.57,0-.29-.08-.54-.25-.73s-.45-.29-.84-.29Z"/><path class="b" d="m138.33,76.18l.53.08c.18.03.27.17.29.41.01.24-.05.53-.21.88l-.97,2.28-.1.25c-.05-.17-.1-.34-.17-.49-.1-.25-.21-.49-.32-.72l-.76-1.71c-.09-.21-.12-.41-.1-.59.03-.18.12-.28.29-.3l.47-.07v-.44h-2.83v.45l.33.07c.15.03.26.1.34.21.08.11.16.25.24.43l2.04,4.42h.54l1.82-4.13c.13-.3.25-.52.35-.67s.23-.23.38-.26l.3-.07v-.45h-2.47v.44Z"/><path class="b" d="m146.78,80.43c-.07.17-.18.25-.32.25-.12,0-.22-.05-.28-.14-.06-.09-.1-.21-.1-.36v-3.01c0-.54-.19-.94-.57-1.21-.38-.27-.88-.41-1.5-.41-.42,0-.81.06-1.17.18-.36.12-.65.29-.86.52s-.32.51-.32.85c0,.19.05.34.15.44s.25.15.45.15c.12,0,.25-.04.4-.11.15-.07.26-.19.33-.36l-.32-.8c.13-.07.3-.13.51-.18s.41-.07.61-.07c.41,0,.73.12.94.35.21.23.32.59.32,1.06v.24c-.18.03-.36.06-.55.1-.25.05-.44.09-.57.12-.67.15-1.19.33-1.55.53s-.6.42-.73.66c-.13.23-.2.47-.2.71,0,.26.07.51.2.75.13.24.32.43.57.59s.55.23.9.23c.48,0,.91-.17,1.3-.51.21-.18.42-.44.62-.76h0s.07,0,.07,0c0,.4.1.7.29.9.2.2.43.3.7.3.43,0,.75-.14.95-.41.21-.27.31-.68.31-1.24h-.48c0,.26-.04.48-.11.64Zm-2.04-.49c-.17.26-.36.45-.59.56-.23.11-.46.17-.7.17-.3,0-.52-.09-.65-.28s-.2-.4-.2-.64c0-.18.04-.34.13-.48.08-.14.24-.27.46-.39.22-.12.54-.22.94-.32.15-.04.32-.07.52-.11.13-.02.26-.05.39-.08v.54c-.05.43-.15.77-.3,1.02Z"/><path class="b" d="m151.26,75.56c-.25,0-.49.06-.72.17-.23.11-.43.31-.6.58-.12.19-.23.45-.32.73l.05-1.32-.17-.11c-.28.04-.57.07-.85.1-.28.03-.57.05-.85.06v.45l.45.06c.14.02.25.08.33.2s.12.32.12.59v3.29c0,.28-.17.43-.51.47l-.31.03v.46h2.94v-.46l-.55-.05c-.19-.02-.33-.06-.41-.14s-.13-.18-.13-.32v-1.56c0-.52.07-.98.21-1.36.14-.39.31-.69.52-.91.21-.22.41-.33.62-.33.05,0,.11.02.17.03l-.26.77c.11.1.22.19.34.26.12.07.24.11.37.11.2,0,.36-.07.48-.21.12-.14.18-.33.18-.57,0-.29-.08-.54-.25-.73s-.45-.29-.84-.29Z"/><path class="b" d="m154.98,80.69c-.1-.08-.14-.2-.14-.33v-4.63l-.17-.11c-.19.02-.38.05-.55.07-.18.02-.35.04-.53.05-.18.01-.37.02-.58.04v.46l.36.06c.14.02.25.09.33.2.08.11.12.3.12.56v3.31c0,.27-.17.42-.51.46l-.4.05v.46h2.88v-.46l-.36-.02c-.19-.02-.33-.06-.43-.15Z"/><path class="b" d="m154.15,74.48c.22,0,.4-.07.53-.21.13-.14.2-.31.2-.53s-.07-.4-.2-.53c-.13-.13-.31-.2-.53-.2s-.39.07-.53.2c-.14.13-.21.31-.21.53s.07.39.21.53c.14.14.31.21.53.21Z"/><path class="b" d="m161.02,75.93c-.42-.25-.92-.37-1.5-.37s-1.07.12-1.5.37c-.43.25-.77.6-1.01,1.05-.24.45-.36.97-.36,1.56s.12,1.12.36,1.56c.24.44.57.79,1.01,1.04.43.25.93.37,1.5.37s1.08-.12,1.5-.37.74-.59.97-1.04c.23-.44.34-.97.34-1.56s-.12-1.11-.34-1.56c-.23-.45-.55-.8-.97-1.05Zm-.02,3.81c-.12.36-.29.64-.53.85-.24.21-.56.31-.95.31s-.7-.1-.94-.31c-.24-.2-.42-.48-.53-.84-.12-.36-.17-.76-.17-1.21s.06-.88.17-1.23c.11-.35.29-.63.53-.83.24-.2.55-.3.94-.3s.71.11.94.33c.24.22.41.51.53.86.12.36.17.75.17,1.18,0,.44-.05.85-.16,1.2Z"/><path class="b" d="m168.72,80.59c-.07-.14-.11-.32-.11-.55v-4.28l-.17-.16c-.32.04-.63.07-.91.1-.29.03-.59.05-.91.07v.44l.45.09c.18.03.31.12.39.26.08.15.13.31.13.51v2.17c0,.28-.06.53-.19.74s-.29.37-.51.49c-.21.11-.45.17-.72.17-.38,0-.66-.1-.86-.3-.2-.2-.3-.53-.3-.98v-3.6l-.18-.16c-.29.04-.57.07-.83.1s-.54.05-.83.07v.44l.38.08c.19.04.31.13.36.29s.08.33.08.53v2.2c0,.49.07.9.21,1.23.14.33.34.57.6.73.26.16.59.24.97.24.51,0,.93-.15,1.28-.45.21-.18.4-.44.56-.74l.07,1.07,1.84-.08v-.45l-.34-.02c-.21-.02-.36-.09-.43-.23Z"/><path class="b" d="m173.73,78.25l-1.38-.48c-.36-.13-.59-.27-.69-.43-.1-.16-.15-.31-.15-.45,0-.26.07-.45.24-.56.17-.11.38-.17.62-.18.45,0,.82.1,1.12.32.29.22.48.5.55.86h.55l-.05-1.85h-.47l-.18.54h-.01c-.12-.11-.31-.21-.55-.3s-.56-.14-.94-.14c-.34,0-.65.06-.94.18-.29.12-.52.3-.68.53-.17.23-.25.53-.25.88,0,.21.04.41.12.6.08.19.22.37.41.53.19.16.45.3.78.41l1.39.48c.28.1.48.21.58.35s.15.28.15.45c0,.33-.1.57-.3.71s-.43.22-.67.22c-.44,0-.82-.13-1.14-.39-.31-.26-.53-.57-.66-.92h-.61l.03,1.82h.53l.12-.57h.01c.19.2.42.36.7.48s.59.18.94.18c.67,0,1.19-.16,1.55-.49s.54-.75.54-1.28c0-.39-.11-.7-.34-.93-.23-.23-.53-.41-.91-.55Z"/><path class="b" d="m187.53,80.69c-.1-.08-.14-.2-.14-.33v-2.63c0-.71-.15-1.25-.45-1.62-.3-.36-.7-.55-1.18-.55s-.96.15-1.37.44c-.28.2-.51.48-.7.83-.08-.29-.2-.53-.37-.72-.32-.36-.71-.55-1.19-.55s-.93.15-1.33.44c-.26.19-.48.46-.67.8h0s.06-1.07.06-1.07l-.17-.11c-.29.04-.58.07-.88.1s-.59.05-.88.06v.46l.47.06c.14.02.25.08.33.2.08.11.12.3.12.56v3.31c0,.27-.17.42-.51.46l-.4.05v.46h2.88v-.46l-.36-.02c-.38-.02-.58-.18-.58-.48v-2.56c0-.28.07-.53.21-.74s.32-.37.54-.48c.22-.11.45-.17.69-.17.35,0,.63.1.82.29.2.19.29.5.29.92v2.75c0,.14-.04.25-.13.32s-.21.12-.37.14l-.4.05v.46h2.88v-.46l-.36-.02c-.19-.02-.34-.06-.43-.15s-.14-.2-.14-.33v-2.56c0-.28.07-.53.21-.74s.32-.37.54-.48c.22-.11.45-.17.69-.17.38,0,.67.1.85.29.18.19.28.5.28.92v2.75c0,.14-.04.25-.13.32-.09.08-.21.12-.37.14l-.4.05v.46h2.88v-.46l-.36-.02c-.19-.02-.34-.06-.43-.15Z"/><path class="b" d="m193.11,80.5c-.27.11-.6.17-.99.17-.59,0-1.04-.2-1.36-.6s-.48-.94-.48-1.62c0-.02,0-.03,0-.05h3.85s.01-.03.01-.09v-.39c0-.44-.08-.85-.23-1.2-.15-.36-.4-.64-.73-.85-.33-.21-.78-.32-1.34-.32-.34,0-.68.06-1,.17-.32.11-.61.29-.87.53-.26.24-.46.55-.62.93-.15.38-.22.82-.22,1.35,0,.59.11,1.11.33,1.55.22.44.54.79.96,1.04.42.25.91.37,1.49.37.26,0,.52-.04.79-.12.26-.08.53-.21.78-.39s.5-.41.73-.71l-.34-.34c-.23.26-.48.45-.75.56Zm-1.37-4.32c.4,0,.71.14.94.43.23.28.33.64.33,1.06v.14h-2.69c.05-.45.16-.81.34-1.06.25-.37.61-.56,1.08-.56Z"/><path class="b" d="m200.85,80.59c-.08-.14-.12-.33-.12-.57v-7.06l-.17-.12c-.21.02-.43.03-.66.05-.23.02-.46.03-.68.04-.23,0-.45.02-.66.02v.48l.63.06c.18.02.3.09.38.2.08.11.12.29.12.55v2.39c-.09-.16-.19-.3-.29-.41-.22-.25-.46-.42-.71-.52-.25-.1-.52-.15-.79-.15-.54,0-1,.13-1.37.4-.38.26-.67.62-.87,1.08-.2.45-.3.96-.3,1.53s.09,1.05.28,1.49c.18.44.45.8.81,1.06.35.26.78.39,1.28.39.25,0,.51-.05.78-.15.28-.1.54-.28.79-.53.16-.16.3-.38.42-.62l.08,1.17,1.84-.08v-.45l-.32-.02c-.22-.02-.37-.09-.45-.23Zm-2.02-.08c-.25.13-.5.2-.74.2-.47,0-.85-.17-1.14-.51-.28-.34-.43-.89-.43-1.64,0-.8.14-1.37.43-1.73.28-.35.66-.53,1.14-.53.25,0,.49.07.74.21.25.14.46.35.62.64.17.29.25.66.25,1.12v.51h0c0,.46-.08.83-.25,1.12s-.37.49-.62.62Z"/><path class="b" d="m204.46,80.69c-.1-.08-.14-.2-.14-.33v-4.63l-.17-.11c-.19.02-.38.05-.55.07-.18.02-.35.04-.53.05-.18.01-.37.02-.58.04v.46l.36.06c.14.02.25.09.33.2.08.11.12.3.12.56v3.31c0,.27-.17.42-.51.46l-.4.05v.46h2.88v-.46l-.36-.02c-.19-.02-.33-.06-.43-.15Z"/><path class="b" d="m203.64,74.48c.22,0,.4-.07.53-.21.13-.14.2-.31.2-.53s-.07-.4-.2-.53c-.13-.13-.31-.2-.53-.2s-.39.07-.53.2c-.14.13-.21.31-.21.53s.07.39.21.53c.14.14.31.21.53.21Z"/><path class="b" d="m211.6,79.79c0,.26-.04.48-.11.64-.07.17-.18.25-.32.25-.12,0-.22-.05-.28-.14-.06-.09-.1-.21-.1-.36v-3.01c0-.54-.19-.94-.57-1.21-.38-.27-.88-.41-1.5-.41-.42,0-.81.06-1.17.18-.36.12-.65.29-.86.52s-.32.51-.32.85c0,.19.05.34.15.44s.25.15.45.15c.12,0,.25-.04.4-.11.15-.07.26-.19.33-.36l-.32-.8c.13-.07.3-.13.51-.18s.41-.07.61-.07c.41,0,.73.12.94.35.21.23.32.59.32,1.06v.24c-.18.03-.36.06-.55.1-.25.05-.44.09-.57.12-.67.15-1.19.33-1.55.53s-.6.42-.73.66c-.13.23-.2.47-.2.71,0,.26.07.51.2.75.13.24.32.43.57.59s.55.23.9.23c.48,0,.91-.17,1.3-.51.21-.18.42-.44.62-.76h0s.07,0,.07,0c0,.4.1.7.29.9.2.2.43.3.7.3.43,0,.75-.14.95-.41.21-.27.31-.68.31-1.24h-.48Zm-2.15.16c-.17.26-.36.45-.59.56-.23.11-.46.17-.7.17-.3,0-.52-.09-.65-.28s-.2-.4-.2-.64c0-.18.04-.34.13-.48.08-.14.24-.27.46-.39.22-.12.54-.22.94-.32.15-.04.32-.07.52-.11.13-.02.26-.05.39-.08v.54c-.05.43-.15.77-.3,1.02Z"/></svg>