<?xml version="1.0" encoding="utf-8"?>
<!-- Generator: Adobe Illustrator 27.8.1, SVG Export Plug-In . SVG Version: 6.00 Build 0)  -->
<svg version="1.1" id="Layer_1" xmlns="http://www.w3.org/2000/svg" xmlns:xlink="http://www.w3.org/1999/xlink" x="0px" y="0px"
	 viewBox="0 0 172.9 90" style="enable-background:new 0 0 172.9 90;" xml:space="preserve">
<style type="text/css">
	.st0{fill:#4A1601;}
</style>
<g>
	<g id="Layer_1_00000000903693391806987250000014820519522367358383_">
		<g>
			<path class="st0" d="M19.4,49.5c3.5-0.4,4-1.1,3.6-3.9l-2.7-22.1c-0.4-3-1.2-3.6-4.5-3.8l-0.1-1.2h11.8l0.1,1.2
				c-3.5,0.4-4,1.1-3.6,3.9l2.7,22.1c0.4,3,1.2,3.6,4.5,3.8l0.1,1.2H19.6L19.4,49.5L19.4,49.5z M26.3,32.9l7.8-8.7
				c1.2-1.4,1.8-2.4,1.8-3.1c0-0.9-0.9-1.3-2.7-1.4l-0.1-1.2H43l0.1,1.2c-2.1,0.6-4,2-6.5,4.7l-7,7.8c20.9,27.5,49.5,43.9,79,43.9
				c18,0,23.3-6,23.3-12.5c0-3.6-2.5-6.1-6.1-6.1c-1.8,0-3.7,0.7-5.5,3h-1.1c1.8-3.9,4.7-5.8,7.8-5.8c4.5,0,7.7,3.2,7.7,7.6
				c0,7.7-8.9,16.7-27,16.7c-31.2,0-58.5-16-81.1-45L26.3,32.9L26.3,32.9z"/>
			<path class="st0" d="M61.9,36.7c1,8.2-3.7,14.4-7.7,14.4s-7.1-3.4-8-10.5c-1-8.2,3.7-14.3,7.7-14.3C57.8,26.2,61,29.6,61.9,36.7
				L61.9,36.7z M58.9,38.8c-0.9-7-3.8-9.8-6.4-9.8c-2.3,0-4.3,2-3.4,9.4c0.9,7,3.8,9.8,6.4,9.8C57.9,48.2,59.9,46.2,58.9,38.8
				L58.9,38.8z"/>
			<path class="st0" d="M66.7,30.5c-0.5,0-1,0.8-2,3h-1.1c1.5-4.5,3.4-7.2,5.1-7.2c1.1,0,1.4,0.9,1.8,3.3c0.3,2.2,0.8,6.6,1.1,9.7
				c1.2-5.2,4.2-13,7.3-13c1.6,0,2.3,1.4,2.8,6.2l0.7,6.8c1.2-5.1,4.3-12.9,7.4-12.9c1.6,0,2.3,1.4,2.8,6.2l1.2,9.7
				c0.5,3.9,0.6,4.4,1.1,4.4s1-1.2,2-3.7h1c-1.5,5-2.9,8.1-4.6,8.1c-0.9,0-1.6-0.6-2-3.9l-1.5-12c-0.5-3.6-0.8-4.8-1.6-4.8
				c-1.5,0-4.3,7-5.2,12.3l1.1,7.9c-0.5,0.4-1.2,0.6-1.8,0.6c-1.1,0-1.7-0.4-1.9-2c-0.2-1.2-0.2-4-0.2-5.2L79,35.2
				c-0.5-3.6-1-4.8-1.7-4.8c-1.5,0-4.2,7-5.1,12.3l1.1,7.9c-0.5,0.4-1.2,0.6-1.8,0.6c-1.1,0-1.7-0.4-1.9-2c-0.2-1.2-0.2-4-0.2-5.2
				l-1.5-10.5C67.2,31.2,67.1,30.5,66.7,30.5L66.7,30.5z"/>
			<path class="st0" d="M106.2,50.9l0.3,2.3c0.5,4.4,1,4.7,1.6,4.7c0.4,0,1.2-0.3,2.9-1.5l0.4,0.8c-2,1.9-4.2,3.8-5.7,3.8
				c-0.9,0-1.5-0.3-1.9-3.4c-0.8-5.7-2.1-18.2-2.9-24.2c-0.3-2.3-0.5-3-0.9-3c-0.5,0-1,0.8-2,3h-1.1c1.5-4.5,3.4-7.2,5.1-7.2
				c1.1,0,1.4,0.9,1.8,3.3c0.3,1.9,0.5,5.8,0.9,8.7c1.2-7.4,4-12.1,6.6-12.1c2.4,0,5.1,4.6,5.4,11.1c0.4,8.9-4.6,13.8-9,13.8
				C107.2,51,106.6,51,106.2,50.9L106.2,50.9z M105.1,41.7l0.7,5.7c1.3,0.5,2.7,0.6,3.9,0.6c2.2,0,4.3-1.1,4.2-6.5
				c-0.1-7.2-2.3-11.9-3.9-11.9S106.2,34.6,105.1,41.7L105.1,41.7z"/>
			<path class="st0" d="M120.2,41.7c-1-8.2,3.7-14.8,8.7-14.8c0.5,0,0.9,0,1.3,0.1c-0.1-1.1-0.2-2.1-0.3-3.1c0.7-0.1,1.1-0.1,1.6,0
				c0.8,0.1,2.1,0.7,2.4,2.6c0.4,2.4,0.5,4.9,0.4,8.5c1.2,11.1,1.7,11.6,2.3,11.6c0.4,0,0.8-0.9,2-3.7h1c-1.7,5.7-3.1,8.1-4.6,8.1
				c-1.2,0-1.8-1.4-2.4-5.6c-0.2-1.6-0.4-3.1-0.7-4.9c-1.4,6.3-4.3,10.5-6.5,10.5S121,47.4,120.2,41.7L120.2,41.7z M126.8,47.5
				c1.4,0,3.5-4.2,4.8-10c-0.3-2.3-0.6-4.6-0.9-7c-1.2-0.4-2.4-0.7-3.7-0.7c-2.6,0-4.7,2.5-4,8.9C123.7,44.3,125.5,47.5,126.8,47.5
				L126.8,47.5z"/>
			<path class="st0" d="M140.3,33.2c0-3.5,3.3-6.9,6.6-6.9c2.4,0,3.5,1.3,3.5,2.6c0,0.8-0.3,1.3-1.2,2c-1.5-1.1-3-1.6-4.3-1.6
				c-1.6,0-2.6,0.9-2.6,2.2c0,1.4,0.9,2.4,4.6,4.6c4.6,2.8,5.9,4.4,5.9,7.1c0,4-3.5,8-7.1,8c-2.6,0-4.3-1.6-4.3-3.3
				c0-1.1,0.6-1.8,1.3-2.2c1.6,1.5,3.2,2.4,4.8,2.4c2.1,0,3.2-1.2,3.2-2.9c0-1.9-1.7-3.7-5.4-6C141.8,37.1,140.3,35.4,140.3,33.2
				L140.3,33.2z"/>
		</g>
	</g>
</g>
</svg>
