<svg width="2320" height="581" viewBox="0 0 2320 581" fill="none" xmlns="http://www.w3.org/2000/svg">
<path d="M1264.64 211.302C1213.31 211.302 1195.68 237.935 1195.68 282.028C1195.68 313.56 1200.4 348.656 1233.08 348.656C1250.13 348.656 1259.34 332.979 1263.44 320.82V332.4C1263.44 347.097 1253.65 355.114 1242.87 355.114C1234.24 355.114 1220.75 354.312 1205.65 349.057L1202.72 381.57C1222.48 387.627 1237 388.028 1257.96 388.428C1296.56 388.028 1318.29 365.892 1318.29 326.699V212.46L1296.16 213.44C1286.77 211.881 1276.39 211.302 1264.64 211.302ZM1263.44 301.446C1263.44 308.305 1261.48 318.682 1257.74 318.682C1253.02 318.682 1250.48 301.045 1250.48 283.008C1250.48 258.111 1254 247.333 1262.64 247.333H1263.44V301.402V301.446Z" fill="black"/>
<path d="M1563.36 241.498V376.715C1563.36 380.234 1562.38 382.772 1559.44 385.133V388.473H1581.79C1604.32 388.473 1622.13 380.456 1622.13 348.478V299.086H1639.58V247.333H1622.13V235.174C1622.13 230.275 1624.26 227.914 1628.98 227.914H1639.58V192.462H1610.77C1583.35 192.462 1563.36 205.601 1563.36 241.454V241.498Z" fill="black"/>
<path d="M1506.33 210.322C1485.94 210.322 1456.78 212.104 1436.8 216.201V259.136C1452.87 255.038 1479.49 251.698 1492.04 251.698C1496.14 251.698 1499.3 252.5 1500.06 258.735C1464.8 264.213 1433.46 292.45 1433.46 327.724C1433.46 354.001 1444.63 369.856 1466.36 369.856C1483.01 369.856 1493.78 355.337 1499.48 337.522H1500.28V368.877H1555.13V261.897C1555.7 223.105 1541.41 210.367 1506.33 210.367V210.322ZM1500.28 329.862C1498.32 332.979 1496.36 334.182 1494 334.182C1490.48 334.182 1487.72 326.922 1487.72 321.845C1487.72 305.989 1493.02 299.888 1500.28 290.891V329.906V329.862Z" fill="black"/>
<path d="M1388.8 282.829V212.104H1330.04V368.876H1388.8V291.47C1399 281.493 1407.01 280.113 1418.77 280.113C1422.51 280.113 1425.22 281.493 1428.38 282.072L1431.9 214.464C1427.4 212.104 1423.26 212.104 1419.17 212.104C1398.2 212.104 1394.1 245.418 1388.8 282.829Z" fill="black"/>
<path d="M1019.39 282.829V212.104H960.625V368.876H1019.39V291.47C1029.58 281.493 1037.6 280.113 1049.35 280.113C1053.09 280.113 1055.81 281.493 1058.97 282.072L1062.48 214.464C1057.99 212.104 1053.85 212.104 1049.75 212.104C1028.78 212.104 1024.69 245.418 1019.39 282.829Z" fill="black"/>
<path d="M1129.88 210.322C1081.89 210.322 1064.09 243.815 1064.09 288.887C1064.09 340.64 1082.29 370.614 1129.71 370.614C1172.8 370.614 1191.81 341.219 1191.81 289.288C1191.81 243.636 1175.96 210.322 1129.93 210.322H1129.88ZM1128.9 327.145C1123.03 327.145 1120.89 316.545 1120.89 286.972C1120.89 262.298 1124.01 256.196 1129.13 256.196C1134.25 256.196 1136.96 262.253 1136.96 286.972C1136.96 316.545 1134.83 327.145 1128.95 327.145H1128.9Z" fill="black"/>
<path d="M951.988 258.155C951.988 231.7 941.793 211.124 901.86 211.124C852.088 211.124 834.459 240.518 834.459 287.372C834.459 346.162 862.862 370.079 906.535 370.079C924.164 370.079 935.516 368.921 949.45 363.621V309.151C941.036 314.852 921.626 321.31 908.137 321.31C904.042 321.31 900.703 319.929 897.942 317.391C929.284 316.233 951.988 298.774 951.988 258.2V258.155ZM895.583 314.006C891.487 307.726 889.707 297.17 889.707 282.25C889.707 264.213 890.686 255.216 896.384 255.216C900.703 255.216 903.062 264.213 903.062 279.534C903.062 297.571 900.703 307.37 895.628 314.006H895.583Z" fill="black"/>
<path d="M706.201 192.507L684.253 388.473H743.419L746.179 353.021H769.284L772.4 388.473H832.545L809.618 192.507H706.201ZM749.295 314.407L755.572 235.619H759.312L765.99 314.407H749.34H749.295Z" fill="black"/>
</svg>
