<?xml version="1.0" encoding="UTF-8"?>
<svg id="Layer_1" data-name="Layer 1" xmlns="http://www.w3.org/2000/svg" viewBox="0 0 360 90">
  <path d="M53.92,55.17v-2.41h3.44v-20.55h-3.07v-2.41h6.52l13.63,20.52-.74-.04v-18.07h-4.3v-2.41h10.22v2.41h-2.96v22.96h-3.22l-13.81-21.11h.78v18.7h4.52v2.41h-11Z"/>
  <path d="M81.43,46.21c0-1.73.36-3.3,1.07-4.72.72-1.42,1.73-2.55,3.06-3.39,1.32-.84,2.88-1.26,4.69-1.26s3.33.42,4.67,1.26c1.33.84,2.37,1.97,3.11,3.39.74,1.42,1.11,2.99,1.11,4.72,0,1.63-.37,3.15-1.11,4.57-.74,1.42-1.78,2.57-3.11,3.44-1.33.88-2.89,1.31-4.67,1.31s-3.36-.44-4.69-1.31c-1.32-.88-2.34-2.02-3.06-3.44-.72-1.42-1.07-2.94-1.07-4.57ZM90.25,39.62c-1.06,0-1.92.09-2.57.26-.65.17-1.15.5-1.48.98-.33.48-.56,1.15-.69,2-.12.85-.19,1.97-.19,3.35s.06,2.43.19,3.28.36,1.52.7,2,.85.81,1.5,1c.65.18,1.5.28,2.54.28s1.92-.1,2.57-.3c.65-.2,1.16-.54,1.52-1.02.36-.48.6-1.15.72-2,.12-.85.19-1.93.19-3.24,0-1.38-.06-2.5-.19-3.35-.12-.85-.36-1.52-.7-2-.35-.48-.85-.81-1.5-.98-.65-.17-1.52-.26-2.61-.26Z"/>
  <path d="M101.88,55.17v-2.22h9.11v2.22h-9.11ZM102.17,39.43v-2.22h4.26l.96,2.22h-.44c.57-.84,1.31-1.48,2.22-1.93.91-.45,1.89-.67,2.93-.67.74,0,1.44.08,2.11.24.67.16,1.35.44,2.04.83v5.89h-3.11l.78-5.44,1,1.44c-.69-.07-1.32-.12-1.89-.15-.57-.02-1.14-.04-1.7-.04s-1.12.03-1.67.07c-.54.05-1.1.16-1.67.33v15.15h-3.7v-15.74h-2.11Z"/>
  <path d="M118.62,55.17v-2.22h8.56v2.22h-8.56ZM118.95,39.43v-2.22h4.74l.78,2.33h-.3c.52-.86,1.3-1.53,2.33-2,1.04-.47,2.09-.7,3.15-.7,1.23,0,2.3.24,3.19.7.89.47,1.62,1.14,2.19,2h-.37c.76-.89,1.66-1.56,2.68-2.02,1.02-.46,2.2-.69,3.54-.69,1.53,0,2.81.29,3.83.87,1.02.58,1.8,1.41,2.31,2.5.52,1.09.78,2.42.78,4v10.96h-3.7v-12.67c0-.79-.1-1.39-.31-1.8-.21-.41-.59-.69-1.13-.85s-1.32-.24-2.33-.24c-.94,0-1.72.07-2.33.22-.62.15-1.19.32-1.7.52v14.81h-3.7v-12.63c0-.79-.07-1.39-.22-1.81s-.47-.71-.96-.87c-.49-.16-1.28-.24-2.37-.24-.84,0-1.63.06-2.37.19-.74.12-1.37.31-1.89.56v14.81h-3.7v-15.74h-2.11ZM130.13,55.17v-2.22h8.67v2.22h-8.67ZM141.8,55.17v-2.22h8.44v2.22h-8.44Z"/>
  <path d="M152.54,49.95c0-1.83.65-3.19,1.96-4.09,1.31-.9,3.26-1.35,5.85-1.35h4v2.44h-5.63c-.64,0-1.15.07-1.52.22-.37.15-.62.44-.76.87s-.2,1.06-.2,1.87.07,1.4.22,1.81c.15.42.47.7.96.83.49.14,1.25.2,2.26.2,1.51,0,2.54-.14,3.11-.41.57-.27.85-.86.85-1.78v-8.44c0-.72-.09-1.27-.28-1.67-.19-.39-.55-.67-1.09-.81-.54-.15-1.37-.22-2.48-.22-.96,0-1.77.03-2.41.09-.64.06-1.36.16-2.15.28l1.19-1.26.63,4.41h-3.11v-4.18c.84-.72,1.74-1.22,2.7-1.5.96-.28,2.01-.43,3.15-.43,1.68,0,3.06.3,4.15.91,1.09.61,1.89,1.48,2.41,2.61s.78,2.51.78,4.11v8.48h2.44v2.22h-4.7l-.67-3.07.56.85c-.69.89-1.51,1.54-2.46,1.96-.95.42-2.1.63-3.46.63-1.19,0-2.25-.23-3.2-.68-.95-.46-1.7-1.11-2.26-1.94-.56-.84-.83-1.83-.83-2.96Z"/>
  <path d="M169.54,37.21h8.78v2.22h-3.26l.3-.44,4.85,12.29h-.37l4.63-12.15.22.3h-2.81v-2.22h7.33v2.22h-2.48l.48-.22-6.44,15.96h-2.52l-6.52-16.11.48.37h-2.67v-2.22Z"/>
  <path d="M190.35,49.95c0-1.83.65-3.19,1.96-4.09,1.31-.9,3.26-1.35,5.85-1.35h4v2.44h-5.63c-.64,0-1.15.07-1.52.22-.37.15-.62.44-.76.87s-.2,1.06-.2,1.87.07,1.4.22,1.81c.15.42.47.7.96.83.49.14,1.25.2,2.26.2,1.51,0,2.54-.14,3.11-.41s.85-.86.85-1.78v-8.44c0-.72-.09-1.27-.28-1.67-.19-.39-.55-.67-1.09-.81-.54-.15-1.37-.22-2.48-.22-.96,0-1.77.03-2.41.09-.64.06-1.36.16-2.15.28l1.18-1.26.63,4.41h-3.11v-4.18c.84-.72,1.74-1.22,2.7-1.5.96-.28,2.01-.43,3.15-.43,1.68,0,3.06.3,4.15.91,1.09.61,1.89,1.48,2.41,2.61.52,1.14.78,2.51.78,4.11v8.48h2.44v2.22h-4.7l-.67-3.07.56.85c-.69.89-1.51,1.54-2.46,1.96-.95.42-2.11.63-3.46.63-1.19,0-2.25-.23-3.2-.68-.95-.46-1.7-1.11-2.26-1.94-.55-.84-.83-1.83-.83-2.96Z"/>
  <path d="M209.02,59.54c0-1.11.43-1.98,1.3-2.59.86-.62,1.94-.93,3.22-.93l.26.37c-.74-.15-1.38-.38-1.93-.68-.54-.31-.97-.7-1.28-1.17-.31-.47-.46-.99-.46-1.55,0-.62.13-1.16.39-1.63s.61-.86,1.06-1.17c.44-.31.96-.5,1.56-.57l-.19.52c-.91-.57-1.67-1.34-2.28-2.33-.61-.99-.91-2.13-.91-3.44,0-1.46.32-2.75.95-3.89.63-1.13,1.51-2.03,2.63-2.68s2.41-.98,3.87-.98,2.8.33,3.96.98c1.16.65,2.08,1.55,2.76,2.68.68,1.14,1.02,2.43,1.02,3.89,0,1.19-.2,2.24-.59,3.17s-.94,1.71-1.65,2.35c-.7.64-1.52,1.13-2.44,1.46s-1.92.5-2.98.5-1.92-.11-2.57-.33c-.65-.22-1.25-.54-1.8-.96l.59-.19v2.07c0,.62.1,1.07.32,1.35.21.28.62.43,1.24.43h4.59c2.35,0,4.17.43,5.46,1.28,1.3.85,1.94,2.03,1.94,3.54,0,1.14-.44,2.07-1.32,2.81-.88.74-2.02,1.3-3.43,1.67-1.41.37-2.91.56-4.52.56s-3.07-.16-4.41-.46c-1.33-.31-2.4-.8-3.18-1.46-.79-.67-1.19-1.53-1.19-2.59ZM212.57,59.36c0,.57.09,1,.26,1.3.17.3.54.49,1.11.59s1.42.15,2.56.15h2.63c1.23,0,2.15-.06,2.74-.17.59-.11.99-.31,1.18-.61.2-.3.3-.72.3-1.26,0-.69-.07-1.19-.2-1.5-.14-.31-.43-.51-.89-.61-.46-.1-1.18-.15-2.17-.15h-4.37c-.94,0-1.63.05-2.07.15-.44.1-.73.31-.87.63-.14.32-.2.82-.2,1.48ZM213.53,44.36c0,.99.04,1.8.11,2.44.07.64.23,1.15.48,1.52.25.37.62.63,1.13.78.51.15,1.18.22,2.02.22s1.48-.07,2-.22c.52-.15.91-.41,1.17-.78.26-.37.44-.88.54-1.52.1-.64.15-1.46.15-2.44,0-1.06-.05-1.93-.15-2.59-.1-.67-.29-1.17-.56-1.52s-.67-.59-1.18-.72c-.52-.13-1.2-.2-2.04-.2s-1.47.07-1.96.2c-.49.14-.87.38-1.11.74-.25.36-.41.86-.48,1.52-.07.65-.11,1.51-.11,2.57ZM221.42,38.1c.87-.57,1.72-.98,2.56-1.24.84-.26,1.97-.39,3.41-.39v3.04l-5.96-.55v-.85Z"/>
  <path d="M228.87,49.95c0-1.83.65-3.19,1.96-4.09,1.31-.9,3.26-1.35,5.85-1.35h4v2.44h-5.63c-.64,0-1.15.07-1.52.22-.37.15-.62.44-.76.87-.14.43-.2,1.06-.2,1.87s.07,1.4.22,1.81c.15.42.47.7.96.83.49.14,1.25.2,2.26.2,1.51,0,2.54-.14,3.11-.41.57-.27.85-.86.85-1.78v-8.44c0-.72-.09-1.27-.28-1.67-.19-.39-.55-.67-1.09-.81s-1.37-.22-2.48-.22c-.96,0-1.77.03-2.41.09-.64.06-1.36.16-2.15.28l1.18-1.26.63,4.41h-3.11v-4.18c.84-.72,1.74-1.22,2.7-1.5.96-.28,2.01-.43,3.15-.43,1.68,0,3.06.3,4.15.91,1.09.61,1.89,1.48,2.41,2.61s.78,2.51.78,4.11v8.48h2.45v2.22h-4.7l-.67-3.07.56.85c-.69.89-1.51,1.54-2.46,1.96-.95.42-2.11.63-3.46.63-1.19,0-2.25-.23-3.2-.68-.95-.46-1.7-1.11-2.26-1.94-.56-.84-.83-1.83-.83-2.96Z"/>
  <path d="M248.09,55.17v-2.22h8.63v2.22h-8.63ZM248.31,39.43v-2.22h4.78l.78,2.33h-.33c.62-.94,1.41-1.62,2.37-2.05s2.06-.65,3.3-.65c2.2,0,3.95.71,5.26,2.13s1.96,3.41,1.96,5.98v10.22h-3.7v-12.26c0-.79-.12-1.43-.37-1.91-.25-.48-.66-.83-1.24-1.05-.58-.22-1.38-.33-2.39-.33s-1.84.06-2.55.17c-.72.11-1.36.27-1.93.46v14.92h-3.7v-15.74h-2.22ZM260.09,55.17v-2.22h8.74v2.22h-8.74Z"/>
  <path d="M281.64,39.02l.15.41h-8.67l1.52-.7.59,4.52h-3.19v-6.04h13.59v2.19l-10.37,14.15-.59-.59h10.59l-1.59.59-.74-5.37h3.37v7h-15.04v-2.15l10.37-14Z"/>
  <path d="M289.05,49.95c0-1.83.65-3.19,1.96-4.09,1.31-.9,3.26-1.35,5.85-1.35h4v2.44h-5.63c-.64,0-1.15.07-1.52.22-.37.15-.62.44-.76.87s-.2,1.06-.2,1.87.07,1.4.22,1.81c.15.42.47.7.96.83.49.14,1.25.2,2.26.2,1.51,0,2.54-.14,3.11-.41s.85-.86.85-1.78v-8.44c0-.72-.09-1.27-.28-1.67-.19-.39-.55-.67-1.09-.81-.54-.15-1.37-.22-2.48-.22-.96,0-1.77.03-2.41.09-.64.06-1.36.16-2.15.28l1.18-1.26.63,4.41h-3.11v-4.18c.84-.72,1.74-1.22,2.7-1.5.96-.28,2.01-.43,3.15-.43,1.68,0,3.06.3,4.15.91,1.09.61,1.89,1.48,2.41,2.61.52,1.14.78,2.51.78,4.11v8.48h2.45v2.22h-4.7l-.67-3.07.56.85c-.69.89-1.51,1.54-2.46,1.96-.95.42-2.11.63-3.46.63-1.19,0-2.25-.23-3.2-.68-.95-.46-1.7-1.11-2.26-1.94-.55-.84-.83-1.83-.83-2.96Z"/>
</svg>