<?xml version="1.0" encoding="UTF-8"?>
<svg id="Layer_1" data-name="Layer 1" xmlns="http://www.w3.org/2000/svg" viewBox="0 0 360 167">
  <defs>
    <style>
      .cls-1 {
        fill: none;
      }

      .cls-2 {
        fill: #fff;
      }
    </style>
  </defs>
  <path class="cls-1" d="M141.61,135.35c-.22.52-.33,1.31-.33,2.38,0,.91.14,1.61.42,2.09.28.48.87.79,1.79.95.91.16,2.28.24,4.11.24h4.23c1.99,0,3.46-.09,4.41-.27.95-.18,1.59-.51,1.91-.98.32-.48.48-1.15.48-2.03,0-1.11-.11-1.92-.33-2.41-.22-.5-.7-.83-1.43-.98-.74-.16-1.9-.24-3.49-.24h-7.03c-1.51,0-2.62.08-3.34.24-.72.16-1.18.5-1.4,1.01Z"/>
  <path class="cls-1" d="M115.71,117.76c-1.03,0-1.85.12-2.44.36-.6.24-1,.71-1.22,1.4-.22.7-.33,1.7-.33,3.01s.12,2.25.36,2.92c.24.68.75,1.12,1.55,1.34.79.22,2.01.33,3.64.33,2.42,0,4.09-.22,5.01-.66s1.37-1.39,1.37-2.86v-5.84h-7.93Z"/>
  <path class="cls-1" d="M176.44,117.76c-1.03,0-1.85.12-2.44.36-.6.24-1,.71-1.22,1.4-.22.7-.33,1.7-.33,3.01s.12,2.25.36,2.92c.24.68.75,1.12,1.55,1.34.79.22,2.01.33,3.64.33,2.42,0,4.09-.22,5.01-.66s1.37-1.39,1.37-2.86v-5.84h-7.93Z"/>
  <path class="cls-1" d="M133.37,67.33c.71.94,1.73,1.6,3.07,1.97,1.34.38,3.09.56,5.25.56s3.91-.2,5.25-.6c1.34-.4,2.37-1.07,3.1-2.01.73-.94,1.22-2.24,1.48-3.91.26-1.67.39-3.77.39-6.31s-.13-4.78-.39-6.45c-.26-1.67-.74-2.98-1.45-3.95-.71-.96-1.73-1.63-3.07-2.01-1.34-.38-3.11-.56-5.32-.56s-3.98.19-5.32.56c-1.34.38-2.35,1.05-3.03,2.01-.68.96-1.15,2.28-1.41,3.95-.26,1.67-.39,3.82-.39,6.45s.13,4.71.39,6.38c.26,1.67.74,2.97,1.45,3.91Z"/>
  <path class="cls-1" d="M153.91,106.98c-.44-.56-1.07-.94-1.91-1.16-.83-.22-1.93-.33-3.28-.33s-2.37.11-3.16.33c-.79.22-1.39.62-1.79,1.19-.4.58-.66,1.39-.77,2.44s-.18,2.43-.18,4.14c0,1.59.06,2.9.18,3.93.12,1.03.38,1.85.77,2.44.4.6,1,1.01,1.82,1.25.81.24,1.9.36,3.25.36s2.38-.12,3.22-.36c.83-.24,1.46-.66,1.88-1.25.42-.6.71-1.41.86-2.44.16-1.03.24-2.34.24-3.93,0-1.71-.08-3.1-.24-4.17-.16-1.07-.46-1.89-.89-2.44Z"/>
  <path class="cls-1" d="M272.1,117.76c-1.03,0-1.85.12-2.44.36-.6.24-1,.71-1.22,1.4-.22.7-.33,1.7-.33,3.01s.12,2.25.36,2.92c.24.68.75,1.12,1.55,1.34.79.22,2.01.33,3.64.33,2.42,0,4.09-.22,5.01-.66s1.37-1.39,1.37-2.86v-5.84h-7.93Z"/>
  <path class="cls-1" d="M266.04,58.1c-1.36,0-2.41.15-3.14.46-.73.31-1.23.91-1.52,1.8-.28.89-.42,2.16-.42,3.81s.15,2.89.46,3.74c.3.85.96,1.41,1.97,1.69,1.01.28,2.55.42,4.62.42,3.1,0,5.24-.31,6.42-.92,1.17-.61,1.76-1.93,1.76-3.95v-7.05h-10.15Z"/>
  <polygon points="96.14 69.94 86.62 69.94 86.62 34.54 112.64 74.03 117.57 74.03 117.57 29.83 123.5 29.83 123.5 25.74 104.04 25.74 104.04 29.83 112.71 29.83 112.71 63.64 87.4 25.74 75.49 25.74 75.49 29.83 81.62 29.83 81.62 69.94 74.78 69.94 74.78 74.03 96.14 74.03 96.14 69.94"/>
  <path d="M132.84,72.23c2.51,1.67,5.46,2.5,8.85,2.5s6.26-.83,8.78-2.5c2.51-1.67,4.46-3.85,5.85-6.56,1.39-2.7,2.08-5.58,2.08-8.64,0-3.29-.69-6.27-2.08-8.95-1.39-2.68-3.34-4.82-5.85-6.42-2.51-1.6-5.44-2.4-8.78-2.4s-6.33.8-8.85,2.4c-2.51,1.6-4.45,3.74-5.82,6.42-1.36,2.68-2.04,5.66-2.04,8.95,0,3.06.68,5.93,2.04,8.64,1.36,2.7,3.3,4.89,5.82,6.56ZM131.92,50.59c.26-1.67.73-2.98,1.41-3.95.68-.96,1.69-1.63,3.03-2.01,1.34-.38,3.11-.56,5.32-.56s3.98.19,5.32.56c1.34.38,2.36,1.05,3.07,2.01.71.96,1.19,2.28,1.45,3.95.26,1.67.39,3.82.39,6.45s-.13,4.64-.39,6.31c-.26,1.67-.75,2.97-1.48,3.91-.73.94-1.76,1.61-3.1,2.01-1.34.4-3.09.6-5.25.6s-3.91-.19-5.25-.56c-1.34-.38-2.36-1.03-3.07-1.97-.71-.94-1.19-2.24-1.45-3.91-.26-1.67-.39-3.79-.39-6.38s.13-4.78.39-6.45Z"/>
  <path d="M173.34,74.03h5.71v-3.81h-5.71v-25.38c1.17-.38,2.33-.61,3.45-.71,1.13-.09,2.23-.14,3.31-.14s2.14.02,3.17.07c.46.02.96.06,1.49.11l-1.06,8h5.22v-10.86c-1.27-.75-2.54-1.28-3.81-1.59-1.27-.31-2.56-.46-3.88-.46-1.83,0-3.62.39-5.36,1.16-1.5.67-2.74,1.61-3.75,2.79l-1.32-3.25h-7.47v3.81h3.88v26.44h-4.51v3.81h10.65Z"/>
  <path d="M203.44,74.03h4.79v-3.81h-4.79v-24.82c.99-.47,2.23-.83,3.74-1.09,1.5-.26,3.05-.39,4.65-.39,2.16,0,3.75.17,4.76.49,1.01.33,1.68.94,2.01,1.83.33.89.49,2.19.49,3.88v20.09h-4.86v3.81h16.14v-3.81h-5.15v-24.82c.99-.42,2.08-.78,3.28-1.06,1.2-.28,2.74-.42,4.62-.42,2.16,0,3.79.17,4.9.49,1.1.33,1.86.94,2.26,1.83.4.89.6,2.16.6,3.81v20.16h-4.44v3.81h15.37v-3.81h-4.79v-16.85c0-3.15-.51-5.77-1.52-7.86-1.01-2.09-2.49-3.67-4.44-4.72-1.95-1.06-4.34-1.59-7.16-1.59-2.49,0-4.67.41-6.52,1.23-1.71.76-3.27,1.95-4.68,3.53-1.04-1.5-2.32-2.66-3.88-3.46-1.69-.87-3.74-1.3-6.13-1.3-1.97,0-3.95.42-5.92,1.27-1.73.74-3.04,1.77-3.97,3.05l-1.1-3.55h-8.32v3.81h4.02v26.44h-4.65v3.81h10.72Z"/>
  <path d="M269.43,53.94c-4.84,0-8.5.85-10.96,2.54-2.47,1.69-3.7,4.28-3.7,7.76,0,2.07.49,3.9,1.48,5.5.99,1.6,2.38,2.83,4.19,3.7,1.81.87,3.89,1.3,6.24,1.3,2.68,0,4.94-.42,6.77-1.27,1.55-.72,2.86-1.79,3.94-3.18l.79,3.75h8.04v-3.88h-4.3v-16.43c0-3.2-.49-5.86-1.48-8-.99-2.14-2.49-3.75-4.51-4.83-2.02-1.08-4.56-1.62-7.61-1.62-2.12,0-4.08.26-5.89.78-1.81.52-3.49,1.43-5.04,2.75v7.9h5.36l-.96-6.65c.68-.08,1.34-.15,1.98-.19,1.29-.09,2.81-.14,4.55-.14,2.21,0,3.87.18,4.97.53,1.1.35,1.87.96,2.29,1.83.42.87.63,2.03.63,3.49v4.37h-6.77ZM274.43,69.1c-1.17.61-3.31.92-6.42.92-2.07,0-3.61-.14-4.62-.42-1.01-.28-1.67-.85-1.97-1.69-.31-.85-.46-2.09-.46-3.74s.14-2.91.42-3.81c.28-.89.79-1.49,1.52-1.8.73-.31,1.77-.46,3.14-.46h10.15v7.05c0,2.02-.59,3.34-1.76,3.95Z"/>
  <polygon points="93.42 105.67 97.41 105.67 90.44 123.97 83.21 105.67 87.7 105.67 87.7 102.09 73.57 102.09 73.57 105.67 77.33 105.67 87.58 131 91.63 131 101.86 105.67 105.22 105.67 105.22 102.09 93.42 102.09 93.42 105.67"/>
  <path d="M129.24,113.77c0-2.58-.42-4.79-1.25-6.62-.83-1.83-2.13-3.23-3.87-4.2-1.75-.97-3.97-1.46-6.67-1.46-1.83,0-3.52.23-5.07.69-1.55.46-3,1.26-4.35,2.41v6.73h5.01l-.77-5.36c.45-.06.89-.11,1.3-.15,1.03-.1,2.32-.15,3.87-.15,1.79,0,3.12.12,3.99.36.87.24,1.46.68,1.76,1.31.3.64.45,1.53.45,2.68v3.81h-5.3c-4.17,0-7.31.73-9.42,2.18-2.11,1.45-3.16,3.65-3.16,6.59,0,1.83.45,3.42,1.34,4.77.89,1.35,2.11,2.39,3.64,3.13,1.53.74,3.25,1.1,5.16,1.1,2.18,0,4.04-.34,5.57-1.01,1.32-.58,2.48-1.47,3.49-2.61l.66,3.03h7.57v-3.58h-3.93v-13.65ZM122.27,126.47c-.91.44-2.58.66-5.01.66-1.63,0-2.84-.11-3.64-.33-.79-.22-1.31-.67-1.55-1.34-.24-.67-.36-1.65-.36-2.92s.11-2.31.33-3.01c.22-.7.62-1.16,1.22-1.4.6-.24,1.41-.36,2.44-.36h7.93v5.84c0,1.47-.46,2.42-1.37,2.86Z"/>
  <path d="M155.71,103.4c-.2-.13-.39-.27-.6-.39-1.87-1.05-3.99-1.58-6.38-1.58s-4.42.53-6.23,1.58c-1.81,1.05-3.22,2.49-4.23,4.32-1.01,1.83-1.52,3.91-1.52,6.26,0,2.11.49,3.95,1.46,5.54.78,1.28,1.74,2.33,2.84,3.17-.5.16-.97.38-1.39.67-.71.5-1.28,1.12-1.7,1.88-.42.75-.63,1.63-.63,2.62,0,.92.25,1.75.75,2.5.5.76,1.18,1.38,2.06,1.88.4.23.83.42,1.3.59-1.46.18-2.73.64-3.8,1.4-1.39.99-2.09,2.38-2.09,4.17s.63,3.1,1.91,4.17c1.27,1.07,2.98,1.86,5.12,2.35,2.15.5,4.51.75,7.09.75s5.01-.3,7.27-.89,4.1-1.49,5.51-2.68c1.41-1.19,2.12-2.7,2.12-4.53,0-2.42-1.04-4.32-3.13-5.69-2.09-1.37-5.02-2.06-8.79-2.06h-7.39c-.99,0-1.66-.23-2-.69-.34-.46-.51-1.18-.51-2.17v-2.4c.61.37,1.25.67,1.94.91,1.05.36,2.43.54,4.14.54s3.31-.27,4.8-.8c1.49-.54,2.8-1.32,3.93-2.35,1.13-1.03,2.02-2.29,2.65-3.79s.95-3.19.95-5.1c0-2.34-.55-4.43-1.64-6.26-.49-.83-1.08-1.56-1.73-2.23l7.3.68v-4.89c-2.3,0-4.13.21-5.48.62-1.29.4-2.6,1.03-3.93,1.88ZM146.34,134.09h7.03c1.59,0,2.75.08,3.49.24.74.16,1.21.49,1.43.98.22.5.33,1.3.33,2.41,0,.87-.16,1.55-.48,2.03-.32.48-.95.8-1.91.98-.95.18-2.42.27-4.41.27h-4.23c-1.83,0-3.2-.08-4.11-.24-.92-.16-1.51-.48-1.79-.95-.28-.48-.42-1.17-.42-2.09,0-1.07.11-1.87.33-2.38s.69-.85,1.4-1.01c.71-.16,1.83-.24,3.34-.24ZM154.81,117.53c-.16,1.03-.45,1.85-.86,2.44-.42.6-1.04,1.01-1.88,1.25-.83.24-1.91.36-3.22.36s-2.43-.12-3.25-.36c-.82-.24-1.42-.66-1.82-1.25-.4-.6-.66-1.41-.77-2.44-.12-1.03-.18-2.34-.18-3.93,0-1.71.06-3.09.18-4.14s.38-1.87.77-2.44c.4-.58.99-.97,1.79-1.19.79-.22,1.85-.33,3.16-.33s2.44.11,3.28.33c.83.22,1.47.61,1.91,1.16.44.56.74,1.37.89,2.44.16,1.07.24,2.46.24,4.17,0,1.59-.08,2.9-.24,3.93Z"/>
  <path d="M189.97,113.77c0-2.58-.42-4.79-1.25-6.62-.83-1.83-2.13-3.23-3.87-4.2-1.75-.97-3.97-1.46-6.67-1.46-1.83,0-3.52.23-5.07.69-1.55.46-3,1.26-4.35,2.41v6.73h5.01l-.77-5.36c.45-.06.89-.11,1.3-.15,1.03-.1,2.32-.15,3.87-.15,1.79,0,3.12.12,3.99.36.87.24,1.46.68,1.76,1.31.3.64.45,1.53.45,2.68v3.81h-5.3c-4.17,0-7.31.73-9.42,2.18-2.11,1.45-3.16,3.65-3.16,6.59,0,1.83.45,3.42,1.34,4.77.89,1.35,2.11,2.39,3.64,3.13,1.53.74,3.25,1.1,5.16,1.1,2.18,0,4.04-.34,5.57-1.01,1.32-.58,2.48-1.47,3.49-2.61l.66,3.03h7.57v-3.58h-3.93v-13.65ZM183,126.47c-.91.44-2.58.66-5.01.66-1.63,0-2.84-.11-3.64-.33-.79-.22-1.31-.67-1.55-1.34-.24-.67-.36-1.65-.36-2.92s.11-2.31.33-3.01c.22-.7.62-1.16,1.22-1.4.6-.24,1.41-.36,2.44-.36h7.93v5.84c0,1.47-.46,2.42-1.37,2.86Z"/>
  <path d="M226.5,114.55c0-4.13-1.05-7.34-3.16-9.63-2.11-2.28-4.93-3.43-8.46-3.43-1.99,0-3.75.35-5.3,1.04-1.37.61-2.51,1.57-3.44,2.81l-1.09-3.26h-7.69v3.58h3.58v21.75h-3.93v3.58h13.89v-3.58h-3.99v-20.44c.91-.32,1.95-.57,3.1-.75,1.15-.18,2.52-.27,4.11-.27s2.91.18,3.84.54c.93.36,1.6.92,2,1.7.4.77.6,1.8.6,3.07v16.15h-4.23v3.58h14.07v-3.58h-3.87v-12.87Z"/>
  <polygon points="253.67 127.42 240.97 127.42 256.96 105.61 256.96 102.09 235.09 102.09 235.09 111.8 240.21 111.8 239.41 105.67 250.04 105.67 233.83 127.54 233.83 131 258.03 131 258.03 119.73 252.61 119.73 253.67 127.42"/>
  <path d="M285.63,113.77c0-2.58-.42-4.79-1.25-6.62-.83-1.83-2.13-3.23-3.87-4.2-1.75-.97-3.97-1.46-6.67-1.46-1.83,0-3.52.23-5.07.69-1.55.46-3,1.26-4.35,2.41v6.73h5.01l-.77-5.36c.45-.06.89-.11,1.3-.15,1.03-.1,2.32-.15,3.87-.15,1.79,0,3.12.12,3.99.36.87.24,1.46.68,1.76,1.31.3.64.45,1.53.45,2.68v3.81h-5.3c-4.17,0-7.31.73-9.42,2.18-2.11,1.45-3.16,3.65-3.16,6.59,0,1.83.45,3.42,1.34,4.77.89,1.35,2.11,2.39,3.64,3.13,1.53.74,3.25,1.1,5.16,1.1,2.18,0,4.04-.34,5.57-1.01,1.32-.58,2.48-1.47,3.49-2.61l.66,3.03h7.57v-3.58h-3.93v-13.65ZM278.65,126.47c-.91.44-2.58.66-5.01.66-1.63,0-2.84-.11-3.64-.33-.79-.22-1.31-.67-1.55-1.34-.24-.67-.36-1.65-.36-2.92s.11-2.31.33-3.01c.22-.7.62-1.16,1.22-1.4.6-.24,1.41-.36,2.44-.36h7.93v5.84c0,1.47-.46,2.42-1.37,2.86Z"/>
  <polygon points="278.47 86.62 278.47 87.33 280.57 87.17 282.74 87.33 282.74 86.62 280.57 86.83 278.47 86.62"/>
  <polygon points="122.09 88.61 124.7 88.61 123.4 85.1 122.09 88.61"/>
  <path d="M159.42,85.71c-.14-.18-.33-.29-.56-.35-.23-.05-.51-.08-.84-.08h-.95v5.42h.95c.32,0,.59-.03.82-.08.23-.05.41-.17.56-.34.15-.17.25-.45.32-.81.07-.36.1-.86.1-1.5s-.03-1.11-.1-1.46-.17-.63-.31-.8Z"/>
  <path d="M69.79,79.7v16.7h222.86v-16.7H69.79ZM80.9,86.91h-.51l.21-2.36h-2.39v6.89h1.58v.38h-3.6v-.38h1.52v-6.89h-2.39l.18,2.36h-.53v-2.74h5.93v2.74ZM89.72,91.83h-3.02v-.38h1.44v-3.34h-4.91v3.34h1.42v.38h-3.02v-.38h1.09v-6.89h-.98v-.38h2.9v.38h-1.42v3.17h4.91v-3.17h-1.44v-.38h2.91v.38h-.96v6.89h1.07v.38ZM93.85,84.55h-1.37v6.89h1.36v.38h-3.23v-.38h1.36v-6.89h-1.35v-.38h3.23v.38ZM99.43,90.99c-.18.3-.44.53-.8.7-.36.16-.8.25-1.34.25-.36,0-.68-.02-.98-.07-.29-.05-.56-.11-.8-.19-.24-.08-.44-.16-.61-.23v-2.13h.55l-.18,1.97c.21.04.42.08.6.1.24.03.47.06.7.07.22.01.46.02.7.02.53,0,.93-.04,1.2-.12s.45-.23.54-.45.14-.54.14-.96c0-.38-.03-.66-.08-.84-.06-.18-.16-.31-.3-.39-.15-.07-.35-.13-.62-.18l-.76-.13c-.61-.11-1.09-.27-1.45-.47-.36-.21-.61-.46-.77-.75s-.23-.64-.23-1.02c0-.4.09-.76.28-1.08s.46-.57.8-.75.76-.27,1.23-.27c.27,0,.51.02.73.05.22.03.42.08.6.13.19.06.36.12.54.2v1.9h-.5l.16-1.71c-.14-.01-.28-.03-.41-.04-.14-.01-.3-.02-.47-.03-.18,0-.39-.01-.64-.01-.48,0-.85.04-1.11.12-.26.08-.43.24-.53.47s-.14.58-.14,1.02c0,.4.03.7.09.91s.16.34.3.42.34.14.58.19l.76.13c.57.1,1.04.23,1.41.39.36.16.63.38.81.66.17.28.26.64.26,1.08,0,.39-.09.74-.26,1.04ZM109.92,87.05h-1.03l.27-2.16h-1.93v6.2h1.42v.73h-3.97v-.73h1.32v-6.2h-1.89l.26,2.16h-1.04v-2.88h6.59v2.88ZM118.65,91.83h-3.32v-.73h1.21v-2.77h-4.01v2.77h1.21v.73h-3.32v-.73h.98v-6.2h-.87v-.73h3.21v.73h-1.21v2.65h4.01v-2.65h-1.21v-.73h3.21v.73h-.87v6.2h.98v.73ZM127.71,91.83h-3.43v-.73h1.35l-.65-1.75h-3.16l-.66,1.75h1.36v.73h-3.23v-.73h.93l2.36-6.2h-1.29v-.73h2.84l2.7,6.93h.88v.73ZM133.9,87.05h-1.03l.27-2.16h-1.93v6.2h1.42v.73h-3.97v-.73h1.32v-6.2h-1.89l.26,2.16h-1.04v-2.88h6.59v2.88ZM145.1,91.83h-3.92v-1.12h1.15l-.39-1.15h-2.62l-.37,1.15h.91v1.12h-3.18v-1.12h.79l1.91-5.42h-.92v-1.12h3.65l2.4,6.54h.61v1.12ZM153.48,85.29h-.86v6.54h-1.77l-3.13-4.82v3.71h1.35v1.12h-3.52v-1.12h.88v-5.42h-.77v-1.12h2.46l3.21,4.9v-3.78h-1.17v-1.12h3.32v1.12ZM161.97,89.18c-.12.38-.29.74-.51,1.06-.22.32-.5.6-.84.84-.33.24-.72.42-1.16.55-.44.13-.93.2-1.47.2h-4.02v-1.12h1.07v-5.42h-.8v-1.12h3.75c.63,0,1.2.09,1.71.26.51.17.95.42,1.31.75.36.33.64.73.84,1.2.19.47.29,1.01.29,1.6,0,.42-.06.82-.17,1.2ZM179.77,88.29h-4.67l.4-1.83h-.76v2.41h3.17v2.96h-10.02v-2.96h3.16v-2.41h-.76l.42,1.83h-4.68v-4.25h13.75v4.25ZM196.57,87h-1.77v1.87h1.77v2.96h-7.92v-2.6l2.16.31v-.59h-4.88v.59l2.16-.31v2.6h-7.92v-2.96h1.77v-1.87h-1.77v-2.96h7.92v2.6l-2.16-.33v.61h4.88v-.61l-2.16.33v-2.6h7.92v2.96ZM210.15,91.83h-13.16v-2.96h1.77v-1.87h-1.77v-2.96h12.85v2.86h-6.99v.65l5.13-.46v1.66l-5.13-.43v.64h7.3v2.86ZM227.7,89.47c-.23.49-.6.92-1.1,1.29-.5.37-1.15.65-1.95.86-.8.21-1.78.31-2.92.31h-1.08c-1.14,0-2.12-.1-2.92-.31-.81-.21-1.46-.49-1.96-.86s-.87-.8-1.1-1.29c-.23-.49-.35-1.02-.35-1.59s.12-1.07.35-1.55c.23-.48.6-.9,1.1-1.26s1.16-.64,1.96-.84c.81-.2,1.78-.3,2.92-.3h1.08c1.14,0,2.12.1,2.92.3.8.2,1.45.48,1.95.84.5.36.86.78,1.1,1.26.23.48.35.99.35,1.55s-.12,1.1-.35,1.59ZM241.95,88.29h-4.67l.4-1.83h-.76v2.41h3.17v2.96h-10.02v-2.96h3.16v-2.41h-.76l.42,1.83h-4.68v-4.25h13.75v4.25ZM258.77,87h-1.77v1.87h1.77v2.96h-7.92v-2.6l2.16.31v-.59h-4.88v.59l2.16-.31v2.6h-7.92v-2.96h1.77v-1.87h-1.77v-2.96h7.92v2.6l-2.16-.33v.61h4.88v-.61l-2.16.33v-2.6h7.92v2.96ZM272.34,91.83h-13.16v-2.96h1.77v-1.87h-1.77v-2.96h12.85v2.86h-6.99v.65l5.13-.46v1.66l-5.13-.43v.64h7.3v2.86ZM287.81,91.83h-5.24l-1.81-2.2v2.2h-8.01v-2.92h1.77v-1.91h-1.77v-2.96h11.05c.59,0,1.12.07,1.59.21.47.14.84.36,1.12.65.28.29.42.68.42,1.17,0,.32-.04.61-.13.87s-.25.48-.48.66c-.23.18-.55.32-.97.42-.23.05-.5.09-.8.11l1.19,1.03,2.07-.26v2.94Z"/>
  <polygon points="278.47 88.66 278.47 89.27 280.32 89.1 279.96 88.66 278.47 88.66"/>
  <polygon points="139.63 88.61 141.62 88.61 140.6 85.63 139.63 88.61"/>
  <polygon points="217.85 87.45 217.85 88.29 221.17 88.11 224.52 88.29 224.52 87.45 221.17 87.69 217.85 87.45"/>
  <polygon class="cls-2" points="74.97 86.91 75.49 86.91 75.31 84.55 77.71 84.55 77.71 91.45 76.19 91.45 76.19 91.83 79.78 91.83 79.78 91.45 78.21 91.45 78.21 84.55 80.6 84.55 80.39 86.91 80.9 86.91 80.9 84.17 74.97 84.17 74.97 86.91"/>
  <polygon class="cls-2" points="88.64 84.55 89.61 84.55 89.61 84.17 86.7 84.17 86.7 84.55 88.14 84.55 88.14 87.73 83.24 87.73 83.24 84.55 84.66 84.55 84.66 84.17 81.75 84.17 81.75 84.55 82.73 84.55 82.73 91.45 81.64 91.45 81.64 91.83 84.66 91.83 84.66 91.45 83.24 91.45 83.24 88.11 88.14 88.11 88.14 91.45 86.7 91.45 86.7 91.83 89.72 91.83 89.72 91.45 88.64 91.45 88.64 84.55"/>
  <polygon class="cls-2" points="90.62 84.55 91.97 84.55 91.97 91.45 90.61 91.45 90.61 91.83 93.84 91.83 93.84 91.45 92.48 91.45 92.48 84.55 93.85 84.55 93.85 84.17 90.62 84.17 90.62 84.55"/>
  <path class="cls-2" d="M98.62,88.21c-.37-.16-.83-.29-1.41-.39l-.76-.13c-.25-.04-.44-.11-.58-.19s-.24-.22-.3-.42-.09-.5-.09-.91c0-.45.05-.79.14-1.02s.27-.39.53-.47c.26-.08.63-.12,1.11-.12.25,0,.47,0,.64.01.17,0,.33.02.47.03.13,0,.27.02.41.04l-.16,1.71h.5v-1.9c-.17-.07-.35-.14-.54-.2-.19-.06-.39-.1-.6-.13-.22-.03-.46-.05-.73-.05-.48,0-.89.09-1.23.27s-.61.43-.8.75-.28.68-.28,1.08c0,.38.08.72.23,1.02s.41.55.77.75c.36.2.84.36,1.45.47l.76.13c.27.04.47.1.62.18.15.08.25.2.3.39.06.18.08.46.08.84,0,.42-.05.74-.14.96s-.27.37-.54.45-.67.12-1.2.12c-.25,0-.48,0-.7-.02-.22-.01-.46-.03-.7-.07-.17-.02-.39-.06-.6-.1l.18-1.97h-.55v2.13c.17.07.38.15.61.23.24.08.5.14.8.19.29.05.62.07.98.07.54,0,.98-.08,1.34-.25.36-.16.62-.4.8-.7.17-.3.26-.65.26-1.04,0-.45-.09-.81-.26-1.08-.18-.28-.45-.5-.81-.66Z"/>
  <polygon class="cls-2" points="103.33 87.05 104.37 87.05 104.11 84.9 106 84.9 106 91.1 104.68 91.1 104.68 91.83 108.65 91.83 108.65 91.1 107.23 91.1 107.23 84.9 109.16 84.9 108.89 87.05 109.92 87.05 109.92 84.17 103.33 84.17 103.33 87.05"/>
  <polygon class="cls-2" points="117.66 84.9 118.53 84.9 118.53 84.17 115.33 84.17 115.33 84.9 116.53 84.9 116.53 87.55 112.52 87.55 112.52 84.9 113.73 84.9 113.73 84.17 110.52 84.17 110.52 84.9 111.39 84.9 111.39 91.1 110.41 91.1 110.41 91.83 113.73 91.83 113.73 91.1 112.52 91.1 112.52 88.33 116.53 88.33 116.53 91.1 115.33 91.1 115.33 91.83 118.65 91.83 118.65 91.1 117.66 91.1 117.66 84.9"/>
  <path class="cls-2" d="M124.13,84.17h-2.84v.73h1.29l-2.36,6.2h-.93v.73h3.23v-.73h-1.36l.66-1.75h3.16l.65,1.75h-1.35v.73h3.43v-.73h-.88l-2.7-6.93ZM122.09,88.61l1.31-3.51,1.3,3.51h-2.61Z"/>
  <polygon class="cls-2" points="127.3 87.05 128.34 87.05 128.09 84.9 129.98 84.9 129.98 91.1 128.66 91.1 128.66 91.83 132.62 91.83 132.62 91.1 131.2 91.1 131.2 84.9 133.14 84.9 132.87 87.05 133.9 87.05 133.9 84.17 127.3 84.17 127.3 87.05"/>
  <path class="cls-2" d="M142.1,84.17h-3.65v1.12h.92l-1.91,5.42h-.79v1.12h3.18v-1.12h-.91l.37-1.15h2.62l.39,1.15h-1.15v1.12h3.92v-1.12h-.61l-2.4-6.54ZM139.63,88.61l.97-2.98,1.02,2.98h-1.99Z"/>
  <polygon class="cls-2" points="150.17 85.29 151.34 85.29 151.34 89.07 148.13 84.17 145.67 84.17 145.67 85.29 146.44 85.29 146.44 90.71 145.56 90.71 145.56 91.83 149.08 91.83 149.08 90.71 147.73 90.71 147.73 87 150.86 91.83 152.62 91.83 152.62 85.29 153.48 85.29 153.48 84.17 150.17 84.17 150.17 85.29"/>
  <path class="cls-2" d="M161.02,85.18c-.37-.33-.8-.58-1.31-.75-.51-.17-1.08-.26-1.71-.26h-3.75v1.12h.8v5.42h-1.07v1.12h4.02c.54,0,1.04-.07,1.47-.2.44-.13.83-.31,1.16-.55.34-.24.61-.52.84-.84.22-.32.39-.67.51-1.06.12-.38.17-.78.17-1.2,0-.6-.1-1.13-.29-1.6-.19-.47-.47-.87-.84-1.2ZM159.72,89.48c-.07.37-.17.64-.32.81-.15.17-.33.29-.56.34-.23.05-.5.08-.82.08h-.95v-5.42h.95c.33,0,.61.03.84.08.23.05.42.17.56.35.14.18.24.45.31.8s.1.85.1,1.46-.03,1.13-.1,1.5Z"/>
  <polygon class="cls-2" points="166.02 88.29 170.71 88.29 170.29 86.46 171.05 86.46 171.05 88.87 167.89 88.87 167.89 91.83 177.91 91.83 177.91 88.87 174.75 88.87 174.75 86.46 175.5 86.46 175.1 88.29 179.77 88.29 179.77 84.04 166.02 84.04 166.02 88.29"/>
  <polygon class="cls-2" points="188.65 86.63 190.81 86.3 190.81 86.91 185.93 86.91 185.93 86.3 188.09 86.63 188.09 84.04 180.17 84.04 180.17 87 181.93 87 181.93 88.87 180.17 88.87 180.17 91.83 188.09 91.83 188.09 89.23 185.93 89.54 185.93 88.95 190.81 88.95 190.81 89.54 188.65 89.23 188.65 91.83 196.57 91.83 196.57 88.87 194.81 88.87 194.81 87 196.57 87 196.57 84.04 188.65 84.04 188.65 86.63"/>
  <polygon class="cls-2" points="202.85 88.33 207.98 88.75 207.98 87.09 202.85 87.55 202.85 86.89 209.83 86.89 209.83 84.04 196.99 84.04 196.99 87 198.75 87 198.75 88.87 196.99 88.87 196.99 91.83 210.15 91.83 210.15 88.97 202.85 88.97 202.85 88.33"/>
  <path class="cls-2" d="M226.61,85.08c-.5-.36-1.15-.64-1.95-.84-.8-.2-1.78-.3-2.92-.3h-1.08c-1.14,0-2.12.1-2.92.3-.81.2-1.46.48-1.96.84s-.87.78-1.1,1.26c-.23.48-.35.99-.35,1.55s.12,1.1.35,1.59c.23.49.6.92,1.1,1.29s1.16.65,1.96.86c.81.21,1.78.31,2.92.31h1.08c1.14,0,2.12-.1,2.92-.31.8-.21,1.45-.49,1.95-.86.5-.37.86-.8,1.1-1.29.23-.49.35-1.02.35-1.59s-.12-1.07-.35-1.55c-.23-.48-.6-.9-1.1-1.26ZM224.52,88.29l-3.35-.18-3.31.18v-.83l3.31.24,3.35-.24v.83Z"/>
  <polygon class="cls-2" points="228.2 88.29 232.88 88.29 232.46 86.46 233.22 86.46 233.22 88.87 230.07 88.87 230.07 91.83 240.09 91.83 240.09 88.87 236.92 88.87 236.92 86.46 237.68 86.46 237.27 88.29 241.95 88.29 241.95 84.04 228.2 84.04 228.2 88.29"/>
  <polygon class="cls-2" points="250.84 86.63 253 86.3 253 86.91 248.12 86.91 248.12 86.3 250.28 86.63 250.28 84.04 242.36 84.04 242.36 87 244.13 87 244.13 88.87 242.36 88.87 242.36 91.83 250.28 91.83 250.28 89.23 248.12 89.54 248.12 88.95 253 88.95 253 89.54 250.84 89.23 250.84 91.83 258.77 91.83 258.77 88.87 257 88.87 257 87 258.77 87 258.77 84.04 250.84 84.04 250.84 86.63"/>
  <polygon class="cls-2" points="265.04 88.33 270.17 88.75 270.17 87.09 265.04 87.55 265.04 86.89 272.03 86.89 272.03 84.04 259.18 84.04 259.18 87 260.95 87 260.95 88.87 259.18 88.87 259.18 91.83 272.34 91.83 272.34 88.97 265.04 88.97 265.04 88.33"/>
  <path class="cls-2" d="M284.56,88.12c.3-.02.57-.06.8-.11.42-.1.74-.24.97-.42.23-.18.39-.4.48-.66s.13-.55.13-.87c0-.48-.14-.87-.42-1.17-.28-.29-.65-.51-1.12-.65-.47-.14-1-.21-1.59-.21h-11.05v2.96h1.77v1.91h-1.77v2.92h8.01v-2.2l1.81,2.2h5.24v-2.94l-2.07.26-1.19-1.03ZM278.47,89.27v-.61h1.5l.36.44-1.85.18ZM282.74,87.33l-2.17-.16-2.1.16v-.71l2.1.21,2.17-.21v.71Z"/>
</svg>