<?xml version="1.0" encoding="UTF-8"?>
<svg id="Layer_1" data-name="Layer 1" xmlns="http://www.w3.org/2000/svg" viewBox="0 0 360 90">
  <defs>
    <style>
      .cls-1 {
        fill: none;
      }

      .cls-2 {
        fill: #231f20;
      }
    </style>
  </defs>
  <path class="cls-1" d="M207.18,38.49c0-1.49-1.3-2.4-2.8-2.4-3.25,0-6.44,4.22-7.67,8.97l1.1-.2c5.26-1.04,9.36-3.7,9.36-6.37Z"/>
  <path class="cls-1" d="M181.51,38.49c0-1.49-1.3-2.4-2.8-2.4-3.25,0-6.43,4.22-7.67,8.97l1.1-.2c5.27-1.04,9.36-3.7,9.36-6.37Z"/>
  <path class="cls-1" d="M231.23,36.02c-5.07,0-9.42,9.23-9.42,15.15,0,2.08.71,3.7,2.34,3.7,3.77,0,10.33-9.36,10.33-14.62,0-1.69-.65-4.22-3.25-4.22Z"/>
  <path class="cls-2" d="M240.33,54.87c-.52,0-.84-.52-.84-1.69,0-6.24,9.23-29.25,14.82-40.88l.78-1.62-.71.07c-5.98.52-8.71,1.04-10.59,6.11l-7.09,19.3h-.19l-.13-.59c-.71-3.45-2.67-6.04-6.18-6.04-7.93,0-16.83,13.59-16.83,23.98,0,5.14,2.21,8.52,6.24,8.52,3.19,0,7.41-2.15,11.57-8.19l1.17-1.69.26.13c-.45,1.62-.78,3.45-.78,4.88,0,3.18,1.69,4.88,4.36,4.88,3.25,0,7.08-2.53,10.07-10.66l-2.08-.98c-2.02,3.58-3.12,4.48-3.83,4.48ZM224.15,54.87c-1.62,0-2.34-1.62-2.34-3.7,0-5.92,4.35-15.15,9.42-15.15,2.6,0,3.25,2.53,3.25,4.22,0,5.27-6.56,14.62-10.33,14.62Z"/>
  <path class="cls-2" d="M119.44,42.07c-1.62-1.43-2.8-2.66-2.8-3.96,0-1.37,1.3-2.41,3.58-2.41,2.86,0,5.46,1.56,6.24,3.51l.13.33h.13l.58-1.17c1.56-3.44,2.08-8.84-4.68-8.84s-13.13,5.27-13.13,10.66c0,3.38,2.34,5.98,4.81,8.26,2.28,2.08,3.44,3.51,3.44,5.01s-1.17,2.47-3.9,2.47c-3.51,0-6.24-1.62-7.22-4.16l-.13-.26h-.13l-.32.72c-2.41,4.94-1.17,9.82,5.53,9.82,7.09,0,13.19-5.59,13.19-11.11,0-2.15-.19-4.29-5.33-8.84Z"/>
  <path class="cls-2" d="M171.43,48.24c11.11-1.62,17.22-7.28,17.22-12.74,0-3.9-3.19-5.98-7.08-5.98-9.23,0-19.24,12.09-19.24,22.42,0,5.92,3.31,10.08,9.03,10.08,6.11,0,9.69-5.14,11.96-11.31l-2.08-.97c-1.82,3.25-4.16,5.13-6.76,5.13s-4.03-2.01-4.03-5.65v-.85l.97-.13ZM178.71,36.09c1.5,0,2.8.91,2.8,2.4,0,2.67-4.1,5.33-9.36,6.37l-1.1.2c1.23-4.74,4.42-8.97,7.67-8.97Z"/>
  <path class="cls-2" d="M197.11,48.24c11.11-1.62,17.23-7.28,17.23-12.74,0-3.9-3.19-5.98-7.09-5.98-9.23,0-19.24,12.09-19.24,22.42,0,5.92,3.32,10.08,9.04,10.08,6.11,0,9.69-5.14,11.96-11.31l-2.08-.97c-1.82,3.25-4.16,5.13-6.76,5.13s-4.03-2.01-4.03-5.65v-.85l.97-.13ZM204.39,36.09c1.49,0,2.8.91,2.8,2.4,0,2.67-4.1,5.33-9.36,6.37l-1.1.2c1.23-4.74,4.42-8.97,7.67-8.97Z"/>
  <path class="cls-2" d="M160,36.09c0-3.77-1.95-6.57-5.85-6.57s-7.15,2.66-11.44,8.19l-1.3,1.69-.26-.13.13-.39c1.76-5.33,7.8-19.89,10.85-26.52l.78-1.69-.71.07c-5.98.52-8.9.97-10.79,6.69l-.59,1.76c-4.68,14.04-13.19,37.9-14.69,41.34l-.65,1.49h.32c7.54,0,9.04-.85,10.79-5.4l2.15-5.78c3.31-8.91,7.86-14.17,11.11-14.17,1.49,0,2.34,1.1,2.34,2.99,0,3.38-2.73,7.02-6.83,7.02-.97,0-1.89-.19-2.47-.58l-.19-.13-.19.13.32,3.32c.84,8.64,2.6,12.61,6.24,12.61,2.86,0,7.34-2.47,10.33-10.66l-2.08-.98c-2.02,3.58-3.18,4.48-3.96,4.48-1.36,0-2.28-2.73-2.99-6.3l-.07-.33.65-.26c6.56-2.6,9.03-7.61,9.03-11.9Z"/>
</svg>