<?xml version="1.0" encoding="UTF-8"?>
<svg id="Layer_1" data-name="Layer 1" xmlns="http://www.w3.org/2000/svg" viewBox="0 0 360 90">
  <defs>
    <style>
      .cls-1 {
        fill: none;
      }

      .cls-2 {
        fill: #231f20;
      }
    </style>
  </defs>
  <path class="cls-1" d="M179.63,56.17c0,.22.1.41.29.58.19.16.43.25.7.25.66,0,1.5-.54,2.52-1.61,1.02-1.07,2.27-2.63,3.75-4.66-1.93.77-3.62,1.69-5.07,2.76-1.46,1.07-2.19,1.97-2.19,2.68Z"/>
  <path class="cls-1" d="M89.79,56.17c0,.22.1.41.29.58.19.16.43.25.7.25.66,0,1.43-.51,2.31-1.53.88-1.02,1.98-2.54,3.3-4.58-1.71.77-3.23,1.66-4.58,2.68-1.35,1.02-2.02,1.88-2.02,2.6Z"/>
  <path class="cls-1" d="M235.81,56.17c0,.22.1.41.29.58.19.16.43.25.7.25.66,0,1.43-.51,2.31-1.53.88-1.02,1.98-2.54,3.3-4.58-1.71.77-3.23,1.66-4.58,2.68-1.35,1.02-2.02,1.88-2.02,2.6Z"/>
  <path class="cls-2" d="M167.34,29.27c3.41-1.21,5.86-2.42,7.34-3.63-.88-3.68-1.51-6.52-1.9-8.5-3.19,2.04-5.89,3.63-8.09,4.79.5.99.99,2.2,1.49,3.63.5,1.43.88,2.67,1.16,3.71Z"/>
  <polygon class="cls-2" points="87.4 29.44 87.31 30.68 87.88 29.38 87.4 29.44"/>
  <polygon class="cls-2" points="140.36 32 134.25 37.61 136.65 37.85 141.93 32.24 140.36 32"/>
  <path class="cls-2" d="M217,39.13c2.2-2.01,4.81-3.78,7.84-5.32-.83-.49-2.16-1.03-4-1.61-1.84-.58-3.59-.98-5.24-1.2l-.99.99c-2.42,2.42-4.95,4.63-7.59,6.64-2.64,2.01-5.69,4.06-9.16,6.15,3.68-5.39,7.7-10.23,12.05-14.52,4.34-4.29,9.6-7.95,15.76-10.97-2.97-1.49-6.41-2.58-10.31-3.3-3.63,2.26-7.22,5.61-10.77,10.07-3.55,4.46-7.74,10.23-12.58,17.33l-4.04,5.86c-4.07,1.54-6.82,2.9-8.25,4.08-1.43,1.18-2.15,2.41-2.15,3.67s.8,2.17,2.39,2.89c1.6.71,3.74,1.32,6.44,1.82,1.49-1.7,3.66-4.81,6.52-9.32l3.3-5.12,12.05-6.6c-2.7,4.07-5.32,7.48-7.88,10.23-2.56,2.75-5.9,5.25-10.02,7.51,2.09,1.6,5.2,2.83,9.32,3.71,1.16-1.21,2.19-2.48,3.09-3.8s2.13-3.19,3.67-5.61c1.87-3.02,3.55-5.54,5.03-7.55,1.49-2.01,3.33-4.01,5.53-6.02ZM183.13,55.39c-1.02,1.07-1.86,1.61-2.52,1.61-.27,0-.51-.08-.7-.25-.19-.16-.29-.36-.29-.58,0-.71.73-1.61,2.19-2.68,1.46-1.07,3.15-1.99,5.07-2.76-1.49,2.04-2.74,3.59-3.75,4.66Z"/>
  <path class="cls-2" d="M188.12,32l-3.22.16c-1.93,0-3.56-.14-4.91-.41-1.35-.27-3.07-.77-5.16-1.49l-1.57,1.49c-2.37,2.15-4.26,4.1-5.69,5.86,3.19-.88,5.88-1.32,8.09-1.32,1.59,0,3.14.44,4.62,1.32-1.05,3.47-2.92,6.93-5.61,10.4-3.58,4.68-6.52,7.04-8.83,7.1-.55,0-.96-.16-1.24-.5-.28-.33-.41-.71-.41-1.15.11-2.64,3.88-7.92,11.3-15.84-2.53.55-5.53,1.38-8.99,2.48-1.65,1.65-3.26,3.4-4.83,5.24-1.57,1.84-3.01,3.62-4.33,5.32-2.48,3.14-4.67,5.76-6.6,7.88-1.92,2.12-4.32,4.29-7.18,6.52-2.86,2.23-6.32,4.41-10.4,6.56,1.87,1.76,5.36,3.14,10.48,4.13.99-.88,2.17-2.16,3.55-3.84,1.38-1.68,3.14-3.95,5.28-6.81,3.41-4.4,5.97-7.64,7.67-9.74-.22.72-.33,1.46-.33,2.23,0,1.21.37,2.26,1.11,3.14.74.88,1.72,1.32,2.93,1.32,3.3,0,6.81-1.7,10.52-5.12,3.71-3.41,6.87-7.51,9.49-12.29,2.61-4.79,4.03-8.99,4.25-12.62Z"/>
  <path class="cls-2" d="M145.43,58.48c.91-1.37,1.99-3.16,3.26-5.36,1.82-3.14,3.47-5.78,4.95-7.92,1.49-2.15,3.38-4.23,5.69-6.27,2.31-2.03,5.03-3.74,8.17-5.12-1.65-.71-3.19-1.26-4.62-1.65-1.43-.38-3.27-.77-5.53-1.15-.88.82-1.86,1.97-2.93,3.42-1.07,1.46-2.13,2.96-3.18,4.5-2.92,4.4-5.78,8.17-8.58,11.3-2.81,3.14-6.32,5.86-10.56,8.17,2.15,1.54,5.61,2.78,10.4,3.71,1.04-1.05,2.02-2.25,2.93-3.63Z"/>
  <path class="cls-2" d="M128.56,57.82c0-1.82,1.32-4.48,3.96-8,2.64-3.52,5.94-7.31,9.9-11.39l-1.24-.08-4.54-.5-1.07,1.16-4.04,4.29c-4.4,4.73-7.52,8.25-9.36,10.56-1.84,2.31-2.76,4.24-2.76,5.78s.39,2.61,1.16,3.22c3.3-.72,6.21-1.49,8.75-2.31-.22-.38-.4-.8-.54-1.24-.14-.44-.21-.93-.21-1.49Z"/>
  <path class="cls-2" d="M262.29,53.61c1.92-3.14,3.66-5.79,5.2-7.96,1.54-2.17,3.49-4.33,5.86-6.48,2.36-2.15,5.12-3.93,8.25-5.36-1.1-.49-2.59-1.03-4.46-1.61-1.87-.58-3.63-.98-5.28-1.2l-.99.99c-2.7,2.7-5.53,5.13-8.5,7.3-2.97,2.17-6.52,4.47-10.64,6.89,1.59-2.69,3.53-5.12,5.82-7.26,2.28-2.15,5.35-4.13,9.2-5.94-3.47-1.1-6.93-1.76-10.4-1.98-1.65,1.32-3.31,3.19-4.99,5.61-1.68,2.42-3.75,5.69-6.23,9.82l-1.73,2.89c-3.74,1.49-6.28,2.83-7.63,4.04-1.35,1.21-2.02,2.42-2.02,3.63s.74,2.24,2.23,2.93c1.49.69,3.55,1.28,6.19,1.77,1.43-1.49,2.64-3.02,3.63-4.62.99-1.59,2.03-3.52,3.14-5.78l1.65-3.14c3.52-1.76,8.14-4.23,13.86-7.43-2.64,3.96-5.28,7.33-7.92,10.11-2.64,2.78-6.11,5.29-10.4,7.55,2.53,1.6,5.91,2.83,10.15,3.71.93-.94,1.84-2.03,2.72-3.3.88-1.26,1.98-3,3.3-5.2ZM239.11,55.47c-.88,1.02-1.65,1.53-2.31,1.53-.27,0-.51-.08-.7-.25-.19-.16-.29-.36-.29-.58,0-.71.67-1.58,2.02-2.6,1.35-1.02,2.87-1.91,4.58-2.68-1.32,2.04-2.42,3.56-3.3,4.58Z"/>
  <path class="cls-2" d="M292.9,50.72l-4.54.17c-.77.61-2.23,1.4-4.37,2.39-2.15.99-4.46,2.01-6.93,3.05,3.57-.77,6.86-1.72,9.86-2.85,3-1.13,4.99-2.05,5.98-2.76Z"/>
  <path class="cls-2" d="M219.23,58.4c2.81,0,5.69-.27,8.66-.83,4.07-2.97,7.77-6.42,11.1-10.35,3.33-3.93,4.99-7.44,4.99-10.52,0-1.59-.52-2.93-1.57-4-1.05-1.07-2.5-1.61-4.37-1.61-3.58,0-7.49,1.51-11.76,4.54-4.26,3.03-7.88,6.61-10.85,10.77-2.97,4.15-4.46,7.66-4.46,10.52,0,1.76.61,3.09,1.82,4,1.21.91,2.83,1.36,4.87,1.36,1.21,0,2.57-.21,4.08-.62,1.51-.41,2.82-.95,3.92-1.61-2.92.06-4.94-.29-6.06-1.03-1.13-.74-1.69-1.66-1.69-2.76,0-1.48,1.14-3.75,3.42-6.81,2.28-3.05,4.83-5.84,7.63-8.37,2.81-2.53,4.81-3.8,6.02-3.8.38,0,.71.12.99.37.27.25.41.62.41,1.11,0,1.65-1.86,4.55-5.57,8.7-3.71,4.15-7.58,7.8-11.59,10.93Z"/>
  <path class="cls-2" d="M302.14,34.39c-1.05-1.54-1.98-2.61-2.81-3.22-3.03,6.33-6.35,11.47-9.98,15.43-3.63,3.96-7.81,6.35-12.54,7.18l1.57-2.39c1.15-1.87,2.23-3.45,3.22-4.74.99-1.29,2.36-2.64,4.13-4.04,1.76-1.4,3.96-2.68,6.6-3.84-1.27-3.74-2.56-6.57-3.88-8.5-2.42,1.27-4.65,3.18-6.68,5.73-2.04,2.56-4.48,6.06-7.34,10.52-1.76,2.75-3.29,5.03-4.58,6.85-1.29,1.82-2.6,3.33-3.92,4.54,3.69-.17,7.4-.69,11.14-1.57,2.48-1.04,4.79-2.06,6.93-3.05,2.15-.99,3.6-1.79,4.37-2.39l4.54-.17c-.99.72-2.98,1.64-5.98,2.76-3,1.13-6.28,2.08-9.86,2.85-6.16,2.75-11.08,5.33-14.77,7.76-3.68,2.42-5.5,4.87-5.45,7.34.83,1.32,2.2,2.46,4.13,3.42,1.93.96,3.82,1.44,5.69,1.44,2.04,0,4.59-.51,7.67-1.53,3.08-1.02,5.61-2.1,7.59-3.26,0-1.71-.1-3.19-.29-4.46-.19-1.27-.51-2.67-.95-4.21-.99,1.21-2.53,2.58-4.62,4.13-2.09,1.54-4.19,2.86-6.31,3.96-2.12,1.1-3.73,1.65-4.83,1.65h-.08c.61-2.04,1.65-3.85,3.14-5.45,1.49-1.6,3.16-2.98,5.03-4.17,1.87-1.18,4.4-2.65,7.59-4.41,3.63-1.98,6.68-3.77,9.16-5.36,2.48-1.59,5.02-3.56,7.63-5.9,2.61-2.34,4.99-5.07,7.14-8.21-.55-1.59-1.35-3.16-2.39-4.7Z"/>
  <path class="cls-2" d="M142.42,38.43l1.65-1.73,3.05-2.81,1.4-1.16c-2.15,0-4.35-.16-6.6-.49l-5.28,5.61,4.54.5,1.24.08Z"/>
  <path class="cls-2" d="M87.4,31.42l-.17.41-.41-.25c-1.54,3.03-3.59,6.3-6.15,9.82-2.56,3.52-5.2,6.66-7.92,9.41-2.72,2.75-5.13,4.57-7.22,5.45-.77-2.03-1.16-4.13-1.16-6.27,0-4.4,1.31-8.9,3.92-13.49,2.61-4.59,5.93-8.24,9.94-10.93,4.18-2.86,8.39-4.29,12.62-4.29,2.97,0,5.8.77,8.5,2.31-.28-1.21-.8-2.67-1.57-4.37-.77-1.7-1.71-3.35-2.81-4.95-.72-.16-1.65-.25-2.81-.25-4.13,0-8.55,1.38-13.28,4.13-4.4,2.59-8.39,5.95-11.96,10.11-3.58,4.15-6.38,8.59-8.42,13.32-2.04,4.73-3.05,9.24-3.05,13.53,0,3.08.5,5.72,1.49,7.92,4.4-1.16,8.65-3.4,12.75-6.72,4.1-3.33,7.77-7.12,11.01-11.39,3.24-4.26,5.91-8.48,8-12.66l-.25-.08c-.66-.22-1.02-.47-1.07-.74Z"/>
  <path class="cls-2" d="M87.4,31.42c-.11-.33-.14-.58-.08-.74l-.5.91.41.25.17-.41Z"/>
  <path class="cls-2" d="M88.06,29.36l-.66,2.06c.05.28.41.52,1.07.74l.25.08,1.49-3.14-2.15.25Z"/>
  <polygon class="cls-2" points="88.72 27.21 87.89 29.36 87.88 29.38 88.06 29.36 88.72 27.21"/>
  <path class="cls-2" d="M87.4,31.42l.66-2.06-.17.02-.57,1.3c-.06.16-.03.41.08.74Z"/>
  <path class="cls-2" d="M155.54,27.79c-3.03,0-6.44.22-10.23.66l-3.38,3.8c2.25.33,4.46.49,6.6.49,2.58-1.98,4.92-3.63,7.01-4.95Z"/>
  <path class="cls-2" d="M144.07,36.7l-1.65,1.73,3.88.16,7.92-6.11c-2.15.17-4.04.25-5.69.25l-1.4,1.16-3.05,2.81Z"/>
  <path class="cls-2" d="M96.14,38.14c3.24-3.49,6.77-6.31,10.56-8.46-.22-2.97-.82-5.86-1.82-8.66-4.79,4.29-8.25,6.44-10.4,6.44-1.32,0-1.98-.8-1.98-2.39,0-.88.16-1.68.49-2.39-2.64,1.54-4.37,2.57-5.2,3.09-.83.52-1.73,1.28-2.72,2.27,0,1.54.58,2.72,1.73,3.55l.5-.91.08-1.24.49-.06v-.02s.83-2.15.83-2.15l-.66,2.15,2.15-.25-1.49,3.14c.55.11.99.16,1.32.16,1.59,0,3.38-.52,5.36-1.57-1.76,1.76-3.58,3.85-5.45,6.27-1.87,2.42-4.18,5.58-6.93,9.49-2.7,3.69-5.02,6.81-6.97,9.36-1.95,2.56-3.81,4.72-5.57,6.48,1.1.27,2.67.41,4.7.41,1.54,0,3.09-.08,4.66-.25s2.82-.36,3.75-.58c.71-4.07,2.17-8.19,4.37-12.38,2.2-4.18,4.92-8.02,8.17-11.51Z"/>
  <path class="cls-2" d="M127.32,39.17c2.36-2.15,5.12-3.93,8.25-5.36-1.1-.49-2.59-1.03-4.46-1.61-1.87-.58-3.63-.98-5.28-1.2l-.99.99c-2.7,2.7-5.53,5.13-8.5,7.3-2.97,2.17-6.52,4.47-10.64,6.89,1.59-2.69,3.53-5.12,5.82-7.26,2.28-2.15,5.35-4.13,9.2-5.94-3.47-1.1-6.93-1.76-10.4-1.98-1.65,1.32-3.31,3.19-4.99,5.61-1.68,2.42-3.75,5.69-6.23,9.82l-1.73,2.89c-3.74,1.49-6.28,2.83-7.63,4.04-1.35,1.21-2.02,2.42-2.02,3.63s.74,2.24,2.23,2.93c1.49.69,3.55,1.28,6.19,1.77,1.43-1.49,2.64-3.02,3.63-4.62.99-1.59,2.03-3.52,3.14-5.78l1.65-3.14c3.52-1.76,8.14-4.23,13.86-7.43-2.64,3.96-5.28,7.33-7.92,10.11-2.64,2.78-6.11,5.29-10.4,7.55,2.53,1.6,5.91,2.83,10.15,3.71.93-.94,1.84-2.03,2.72-3.3.88-1.26,1.98-3,3.3-5.2,1.92-3.14,3.66-5.79,5.2-7.96,1.54-2.17,3.49-4.33,5.86-6.48ZM93.09,55.47c-.88,1.02-1.65,1.53-2.31,1.53-.27,0-.51-.08-.7-.25-.19-.16-.29-.36-.29-.58,0-.71.67-1.58,2.02-2.6,1.35-1.02,2.87-1.91,4.58-2.68-1.32,2.04-2.42,3.56-3.3,4.58Z"/>
</svg>