<?xml version="1.0" encoding="UTF-8"?>
<svg id="Layer_1" data-name="Layer 1" xmlns="http://www.w3.org/2000/svg" viewBox="0 0 360 90">
  <defs>
    <style>
      .cls-1 {
        fill: none;
      }

      .cls-2 {
        fill: #231f20;
      }
    </style>
  </defs>
  <polygon class="cls-1" points="110.86 46.11 118.02 46.11 114.57 34.69 110.86 46.11"/>
  <path class="cls-1" d="M247.8,53.55c0,1.24.92,2.75,3.5,2.75.7,0,1.45-.22,2.1-.54v-5.17c-1.62.22-4.47.92-5.28,1.67-.16.27-.32.75-.32,1.29Z"/>
  <path class="cls-2" d="M125.56,17.99l-3.66-9.64h-.32c-2.64,3.23-8.35,8.51-11.42,10.99l.59,1.51,14.82-2.86Z"/>
  <path class="cls-2" d="M166.34,41.1c0-5.6-3.18-8.08-7.6-8.08-3.93,0-8.19,2.1-9.86,6.2v-5.23l-.38-.43h-11.91v.43l1.51,4.63v17.94l-.86,4.74v.43h12.55v-.43l-.92-4.74v-14.49c.81-.43,1.99-.7,3.12-.7,1.83,0,3.56.75,3.56,3.07v12.12l-.92,4.74v.43h12.61v-.43l-.92-4.74v-15.46Z"/>
  <path class="cls-2" d="M121.74,22.95h-12.44l-12.55,33.78-2.21,4.58v.43h13.04v-.43l-.16-4.58.97-3.02h11.96l.92,3.02-.38,4.58v.43h14.76v-.43l-2.21-4.58-11.69-33.78ZM110.86,46.11l3.72-11.42,3.45,11.42h-7.17Z"/>
  <polygon class="cls-2" points="182.83 33.99 182.4 33.56 170.49 33.56 170.49 33.99 172.05 38.84 172.05 56.56 171.14 61.3 171.14 61.74 183.69 61.74 183.69 61.3 182.83 56.56 182.83 33.99"/>
  <path class="cls-2" d="M176.96,32.05c3.39,0,6.14-2.59,6.14-6.03s-2.75-5.98-6.14-5.98-6.09,2.64-6.09,5.98,2.69,6.03,6.09,6.03Z"/>
  <path class="cls-2" d="M234.28,41.1c0-5.6-3.18-8.08-7.6-8.08-3.99,0-8.35,2.32-9.97,6.57-.54-4.53-3.5-6.57-7.49-6.57s-8.19,2.21-9.86,6.3v-5.33l-.38-.43h-11.91v.43l1.51,4.58v17.99l-.86,4.74v.43h12.55v-.43l-.92-4.74v-14.55c.81-.43,1.99-.7,3.12-.7,1.83,0,3.56.75,3.56,3.12v12.12l-.92,4.74v.43h12.61v-.43l-.92-4.74v-14.55c.81-.43,1.99-.7,3.12-.7,1.83,0,3.56.75,3.56,3.12v12.12l-.92,4.74v.43h12.61v-.43l-.92-4.74v-15.46Z"/>
  <path class="cls-2" d="M264.01,41.8c0-6.2-3.12-8.78-12.01-8.78-8.13,0-13.14,2.91-13.14,9.59,0,3.88,2.15,5.06,4.69,5.06s4.74-1.13,4.74-3.39c0-1.67-.75-3.18-3.18-3.39.75-.43,2.59-.81,4.42-.81,1.62,0,2.96.32,3.39.7.43.43.48,2.59.48,2.86v2.64c-2.05.54-4.53,1.13-5.98,1.62-7.27,2.32-9.43,4.31-9.43,7.92,0,3.39,1.83,6.46,6.52,6.46s7.7-1.94,8.89-3.99v3.45h12.07v-.43l-1.45-4.74v-14.76ZM253.4,55.76c-.65.32-1.4.54-2.1.54-2.59,0-3.5-1.51-3.5-2.75,0-.54.16-1.02.32-1.29.81-.75,3.66-1.45,5.28-1.67v5.17Z"/>
</svg>