<?xml version="1.0" encoding="UTF-8"?>
<svg id="Layer_1" data-name="Layer 1" xmlns="http://www.w3.org/2000/svg" viewBox="0 0 360 90">
  <defs>
    <style>
      .cls-1 {
        fill: none;
      }

      .cls-2 {
        fill: #231f20;
      }
    </style>
  </defs>
  <polygon class="cls-1" points="242.31 42.21 238.94 46.76 244.22 47.61 242.65 42.21 242.31 42.21"/>
  <polygon class="cls-1" points="220.01 42.06 218.29 47.54 224.07 46.85 220.39 42.06 220.01 42.06"/>
  <polygon class="cls-1" points="79.68 43.97 80.02 43.97 80.02 38.39 73.81 38.73 79.68 43.97"/>
  <polygon class="cls-1" points="56.52 42.74 56.52 48.21 62.21 47.56 56.89 42.74 56.52 42.74"/>
  <polygon class="cls-1" points="166.26 45.62 166.26 47.84 172.96 47.2 171.66 45.62 166.26 45.62"/>
  <polygon class="cls-1" points="108.32 41.28 108.32 44.27 120.27 43.64 132.38 44.27 132.38 41.28 120.27 42.14 108.32 41.28"/>
  <polygon class="cls-1" points="166.26 38.28 166.26 40.83 173.83 40.26 181.67 40.83 181.67 38.28 173.83 39.03 166.26 38.28"/>
  <path class="cls-2" d="M70.39,35.67l-7.53-6.73h-21.66v10.68h5.96v6.75h-5.96v10.68h24.81v-6.05l6.67,6.05h16.72v-17.43h5.17v-10.68h-24.18v6.73ZM56.52,48.21v-5.47h.37l5.31,4.82-5.69.65ZM80.02,43.97h-.34l-5.87-5.25,6.21-.34v5.58Z"/>
  <path class="cls-2" d="M188.25,43.68c1.09-.09,2.04-.22,2.87-.42,1.5-.35,2.66-.85,3.49-1.5.82-.65,1.4-1.44,1.72-2.38.32-.94.49-1.98.49-3.13,0-1.75-.5-3.15-1.5-4.22-1-1.06-2.35-1.84-4.05-2.34-1.7-.5-3.61-.75-5.73-.75h-39.88v10.68h6.37v6.9h-6.37v10.53h28.9v-7.92l6.52,7.92h18.93v-10.61l-7.46.94-4.29-3.71ZM166.26,47.84v-2.21h5.4l1.3,1.58-6.69.64ZM181.67,40.83l-7.83-.56-7.57.56v-2.55l7.57.75,7.83-.75v2.55Z"/>
  <path class="cls-2" d="M139.91,32.69c-1.8-1.3-4.15-2.31-7.05-3.04-2.9-.72-6.41-1.09-10.53-1.09h-3.9c-4.12,0-7.64.36-10.55,1.09-2.91.73-5.27,1.74-7.08,3.04-1.81,1.3-3.14,2.81-3.97,4.54-.84,1.72-1.26,3.59-1.26,5.58s.42,3.96,1.26,5.73c.84,1.77,2.16,3.32,3.97,4.65,1.81,1.32,4.17,2.36,7.08,3.11,2.91.75,6.43,1.12,10.55,1.12h3.9c4.12,0,7.63-.37,10.53-1.12,2.9-.75,5.25-1.79,7.05-3.11,1.8-1.32,3.12-2.87,3.95-4.65.84-1.77,1.26-3.69,1.26-5.73s-.42-3.86-1.26-5.58c-.84-1.72-2.16-3.24-3.95-4.54ZM132.38,44.27l-12.11-.64-11.96.64v-3l11.96.86,12.11-.86v3Z"/>
  <polygon class="cls-2" points="297.64 28.94 272.97 28.94 272.97 39.25 279.53 39.33 272.11 46.37 266.83 46.37 266.83 57.06 291.41 57.06 291.41 46.52 283.5 47.27 283.5 44.91 300.97 44.91 300.97 47.27 293.44 46.52 293.44 57.06 318.81 57.06 318.81 46.37 312.33 46.37 297.64 28.94"/>
  <path class="cls-2" d="M256.78,39.63h4.84v-10.68h-18.52l-6.37,8.77h-.37l-6.41-8.77h-24.74v10.68h5.06l-3.19,6.75h-5.58v10.68h23.76v-8.66l6.15,7.99h.41l6.11-8.25v8.92h27.4v-10.68h-5.58l-2.96-6.75ZM218.29,47.54l1.72-5.47h.37l3.69,4.79-5.78.68ZM238.94,46.76l3.37-4.55h.34l1.57,5.4-5.28-.85Z"/>
</svg>