<?xml version="1.0" encoding="UTF-8"?>
<svg id="Layer_1" data-name="Layer 1" xmlns="http://www.w3.org/2000/svg" viewBox="0 0 360 90">
  <defs>
    <style>
      .cls-1 {
        fill: none;
      }

      .cls-2 {
        fill: #231f20;
      }
    </style>
  </defs>
  <path class="cls-1" d="M120.36,37.08c-1.28,0-1.5,2.02-1.5,6.07,0,3.34.4,5.72,1.32,7.13,1.14-1.5,1.67-3.7,1.67-7.74,0-3.43-.53-5.46-1.5-5.46Z"/>
  <polygon class="cls-1" points="88.72 32.68 87.32 50.37 91.06 50.37 89.56 32.68 88.72 32.68"/>
  <path class="cls-1" d="M254.6,54.81c.53,0,.97-.26,1.41-.97v-8.76c-1.63,2.02-2.82,3.39-2.82,6.95,0,1.14.62,2.77,1.41,2.77Z"/>
  <path class="cls-1" d="M199.91,43.33c0,4.05.57,8.01,1.63,8.01.84,0,1.28-2.33,1.28-3.87v-12.14h-.18c-1.94,0-2.73,2.42-2.73,8.01Z"/>
  <path class="cls-1" d="M172.63,37.3c-1.14,0-1.85,1.36-1.85,6.91,0,6.64.48,9.02,1.8,9.02s1.8-2.38,1.8-9.02c0-5.54-.62-6.91-1.76-6.91Z"/>
  <path class="cls-2" d="M203.08,27.22c-11.53,0-15.49,5.98-15.49,15.88,0,7.08,1.06,14.96,8.4,14.96,3.83,0,5.9-3.52,6.82-6.25v2.6c0,3.3-2.2,5.1-4.62,5.1-1.94,0-4.97-.18-8.36-1.36l-.66,7.3c4.44,1.36,7.7,1.45,12.41,1.54,8.67-.09,13.55-5.06,13.55-13.86v-25.65l-4.97.22c-2.11-.35-4.44-.48-7.08-.48ZM202.81,47.46c0,1.54-.44,3.87-1.28,3.87-1.06,0-1.63-3.96-1.63-8.01,0-5.59.79-8.01,2.73-8.01h.18v12.14Z"/>
  <path class="cls-2" d="M270.18,34v30.36c0,.79-.22,1.36-.88,1.89v.75h5.02c5.06,0,9.06-1.8,9.06-8.98v-11.09h3.92v-11.62h-3.92v-2.73c0-1.1.48-1.63,1.54-1.63h2.38v-7.96h-6.47c-6.16,0-10.65,2.95-10.65,11Z"/>
  <path class="cls-2" d="M257.37,27c-4.58,0-11.13.4-15.62,1.32v9.64c3.61-.92,9.59-1.67,12.41-1.67.92,0,1.63.18,1.8,1.58-7.92,1.23-14.96,7.57-14.96,15.49,0,5.9,2.51,9.46,7.39,9.46,3.74,0,6.16-3.26,7.44-7.26h.18v7.04h12.32v-24.02c.13-8.71-3.08-11.57-10.96-11.57ZM256.01,53.84c-.44.7-.88.97-1.41.97-.79,0-1.41-1.63-1.41-2.77,0-3.56,1.19-4.93,2.82-6.95v8.76Z"/>
  <path class="cls-2" d="M230.97,43.28v-15.88h-13.2v35.2h13.2v-17.38c2.29-2.24,4.09-2.55,6.73-2.55.84,0,1.45.31,2.16.44l.79-15.18c-1.01-.53-1.94-.53-2.86-.53-4.71,0-5.63,7.48-6.82,15.88Z"/>
  <path class="cls-2" d="M147.99,43.28v-15.88h-13.2v35.2h13.2v-17.38c2.29-2.24,4.09-2.55,6.73-2.55.84,0,1.45.31,2.16.44l.79-15.18c-1.01-.53-1.94-.53-2.86-.53-4.71,0-5.63,7.48-6.82,15.88Z"/>
  <path class="cls-2" d="M172.81,27c-10.78,0-14.78,7.52-14.78,17.64,0,11.62,4.09,18.35,14.74,18.35,9.68,0,13.95-6.6,13.95-18.26,0-10.25-3.56-17.73-13.9-17.73ZM172.59,53.23c-1.32,0-1.8-2.38-1.8-9.02,0-5.54.7-6.91,1.85-6.91s1.76,1.36,1.76,6.91c0,6.64-.48,9.02-1.8,9.02Z"/>
  <path class="cls-2" d="M132.85,37.74c0-5.94-2.29-10.56-11.26-10.56-11.18,0-15.14,6.6-15.14,17.12,0,13.2,6.38,18.57,16.19,18.57,3.96,0,6.51-.26,9.64-1.45v-12.23c-1.89,1.28-6.25,2.73-9.28,2.73-.92,0-1.67-.31-2.29-.88,7.04-.26,12.14-4.18,12.14-13.29ZM120.18,50.28c-.92-1.41-1.32-3.78-1.32-7.13,0-4.05.22-6.07,1.5-6.07.97,0,1.5,2.02,1.5,5.46,0,4.05-.53,6.25-1.67,7.74Z"/>
  <path class="cls-2" d="M77.64,23l-4.93,44h13.29l.62-7.96h5.19l.7,7.96h13.51l-5.15-44h-23.23ZM87.32,50.37l1.41-17.69h.84l1.5,17.69h-3.74Z"/>
</svg>