<?xml version="1.0" encoding="UTF-8"?>
<svg id="Layer_1" data-name="Layer 1" xmlns="http://www.w3.org/2000/svg" viewBox="0 0 360 90">
  <defs>
    <style>
      .cls-1 {
        fill: none;
      }

      .cls-2 {
        fill: #231f20;
      }
    </style>
  </defs>
  <path class="cls-1" d="M200.82,49.16c2.92,0,4.11-1.24,4.02-5.93-.14-6.26-2.06-12.34-3.87-12.34s-4.35,4.93-4.83,12.82l.62,4.59c1.39.72,2.49.86,4.06.86Z"/>
  <path class="cls-1" d="M149.79,49.01c3.01,0,4.35-2.01,3.25-8.99-1.05-6.74-3.68-9.56-6.41-9.56-3.01,0-4.59,2.06-3.59,8.94,1.05,6.84,4.02,9.61,6.74,9.61Z"/>
  <path class="cls-1" d="M217.65,31.32c-2.92,0-4.16,1.05-4.02,5.83.14,5.26,1.96,11.33,3.87,11.33,1.67,0,3.87-4.3,4.64-11.09-.24-1.72-.48-3.54-.72-5.36-1.24-.57-2.34-.72-3.78-.72Z"/>
  <path class="cls-2" d="M251.41,49.25c-.33-1.67-1.29-2.53-2.58-2.53s-2.63,1.39-2.3,3.68c.33,1.67,1.29,2.44,2.58,2.44s2.68-1.2,2.3-3.59Z"/>
  <path class="cls-2" d="M227.45,47.29c-.86,0-2.15-6.12-2.58-11.81.1-2.77.1-5.16-.38-7.99-.33-1.86-1.48-2.44-2.3-2.58-.53-.1-.91-.05-1.58.05.14,1.1.29,2.25.38,3.4-.38-.1-.86-.14-1.34-.14-4.3,0-9.13,5.12-8.89,12.34.14,4.45,2.15,11.62,5.55,11.62,2.44,0,5.5-5.79,6.5-11.81.19,2.34.38,4.3.67,6.22.77,5.02,1.53,5.59,2.63,5.59,1.58,0,3.16-3.44,3.97-7.65l-.91-.29c-.48,1.39-1,3.06-1.72,3.06ZM217.51,48.49c-1.91,0-3.73-6.07-3.87-11.33-.14-4.78,1.1-5.83,4.02-5.83,1.43,0,2.53.14,3.78.72.24,1.82.48,3.63.72,5.36-.77,6.79-2.96,11.09-4.64,11.09Z"/>
  <path class="cls-2" d="M237.21,37.34c-3.16-2.01-5.64-3.44-5.64-4.93,0-1.58,1-2.25,2.39-2.25,1.82,0,3.4.81,5.4,2.73.72-.81,1-1.24,1-2.25,0-1.58-1.43-3.44-4.5-3.44-2.82,0-6.12,3.44-6.12,6.93,0,2.96,2.34,4.73,5.79,6.84,4.16,2.53,5.12,3.68,5.12,5.4,0,1.53-1.15,2.53-2.73,2.53-2.01,0-3.49-1.15-5.69-2.68-.57.72-.91,1.29-.91,2.2,0,1.58,1.43,3.73,5.02,3.73,2.73,0,6.26-4.02,6.26-7.46s-1.72-5.07-5.4-7.36Z"/>
  <path class="cls-2" d="M220.47,55.71c-3.49,0-6.5,2.06-6.6,5.83,1.05-1.77,2.82-2.87,5.16-2.87,3.54,0,7.17,2.68,6.79,7.56-.53,6.46-9.09,10.81-23,10.86-28.98.1-58.53-15.64-78.95-43.66l5.64-7.46c2.77-3.68,3.44-4.64,5.16-5.31l.19-1.1h-9.85l-.29,1.1c3.73.62,4.45,2.34,2.01,5.64l-4.73,6.41c-.86,1.15-1.29,1.53-3.78,2.1l-1.15-9.37c-.29-2.44.67-3.92,3.01-4.78l.19-1.1h-11.48l-.29,1.1c3.06.57,4.64,1.63,4.97,4.26l2.53,20.9c.29,2.44-.62,3.92-2.96,4.78l-.19,1.1h11.48l.29-1.1c-3.06-.57-4.69-1.63-5.02-4.26l-1.2-9.99c2.92-.19,3.59.24,4.3,1.2,17.41,23.48,46.05,42.46,78.9,42.46,17.17,0,26.44-8.61,26.97-16.07.33-4.59-3.2-8.23-8.13-8.23Z"/>
  <path class="cls-2" d="M148.03,52.26c4.4,0,9.37-6.07,7.94-14.87-1.05-6.41-4.21-10.19-7.84-10.19-4.4,0-9.23,6.36-7.94,14.82,1,6.69,4.21,10.23,7.84,10.23ZM146.64,30.46c2.73,0,5.36,2.82,6.41,9.56,1.1,6.98-.24,8.99-3.25,8.99-2.73,0-5.69-2.77-6.74-9.61-1-6.89.57-8.94,3.59-8.94Z"/>
  <path class="cls-2" d="M190.78,31.85c.38,0,.72.24,1,2.63.77,5.93,2.2,19.37,2.96,25.01.24,1.82,1,2.49,1.96,2.49,1.43,0,3.49-1.67,5.55-3.59l-.38-.96c-1.1.53-1.91.96-2.53.96-1.05,0-1.48-1.05-1.87-4.21l-.29-2.1c.53.1,1.2.19,1.91.19,3.87,0,8.8-5.16,8.61-12.58-.14-5.31-2.15-12.48-5.55-12.48-2.44,0-5.45,5.55-6.6,11.91-.29-2.96-.62-6.69-1.05-9.28-.29-1.77-.77-2.53-1.63-2.53-1.34,0-3.16,2.34-4.73,5.98l.77.53c.81-1.24,1.43-1.96,1.87-1.96ZM200.96,30.89c1.82,0,3.73,6.07,3.87,12.34.1,4.69-1.1,5.93-4.02,5.93-1.58,0-2.68-.14-4.06-.86l-.62-4.59c.48-7.89,3.06-12.82,4.83-12.82Z"/>
  <path class="cls-2" d="M159.41,31.85c.38,0,.67.24,1,2.63l1.24,9.42c0,1.77-.1,4.16.05,5.93.14,1.87.72,2.34,1.87,2.34s1.86-.38,2.44-.86c-.38-2.82-.81-5.74-1.34-8.56,1.29-6.12,3.63-11.24,5.26-11.24.77,0,1.05,1,1.48,4.64l.91,7.7c0,1.82-.1,4.21.05,5.98.14,1.87.72,2.34,1.87,2.34s1.87-.38,2.44-.86c-.38-2.82-.81-5.74-1.34-8.56,1.29-6.17,3.44-11.24,4.97-11.24.77,0,1,1,1.43,4.64l1.29,10.42c.62,5.02,1.53,5.59,2.53,5.59,1.67,0,3.16-3.44,4.02-7.65l-.86-.29c-.62,1.43-1,3.06-1.72,3.06-.38,0-.67-1.34-1-3.97l-1.2-9.85c-.57-4.73-1.2-6.17-2.82-6.17-3.11,0-5.88,7.13-6.98,12.24l-.72-6.07c-.53-4.73-1.1-6.17-2.68-6.17-3.35,0-6.17,7.32-7.32,12.43-.33-3.06-.72-7.17-1.15-9.9-.29-1.77-.77-2.53-1.63-2.53-1.34,0-3.16,2.34-4.73,5.98l.77.53c.81-1.24,1.43-1.96,1.86-1.96Z"/>
</svg>