<?xml version="1.0" encoding="UTF-8"?>
<svg id="Layer_1" data-name="Layer 1" xmlns="http://www.w3.org/2000/svg" viewBox="0 0 360 90">
  <defs>
    <style>
      .cls-1 {
        fill: none;
      }

      .cls-2 {
        fill: #231f20;
      }
    </style>
  </defs>
  <path class="cls-1" d="M110.12,28.72h-2.89v13.33l3.36.59c2.12-.94,3.63-2.05,4.51-3.33s1.33-2.9,1.33-4.87c0-3.81-2.1-5.72-6.31-5.72Z"/>
  <path class="cls-1" d="M251.71,35.98c-1.89,0-3.28.95-4.16,2.86-.89,1.91-1.33,4.83-1.33,8.76,0,3.7.44,6.57,1.33,8.61.89,2.05,2.23,3.07,4.04,3.07s3.25-1.02,4.1-3.07c.85-2.05,1.27-4.8,1.27-8.26,0-4.09-.42-7.11-1.27-9.06-.85-1.95-2.17-2.92-3.98-2.92Z"/>
  <path class="cls-2" d="M252.01,30.37c-3.7,0-6.97.69-9.82,2.07-2.85,1.38-5.08,3.38-6.7,6.02-1.61,2.64-2.42,5.78-2.42,9.44,0,5.27,1.61,9.42,4.84,12.45,3.23,3.03,7.73,4.54,13.51,4.54s10.59-1.51,13.84-4.54c3.24-3.03,4.87-7.22,4.87-12.57s-1.51-9.88-4.51-12.89c-3.01-3.01-7.54-4.51-13.6-4.51ZM255.7,56.22c-.85,2.05-2.21,3.07-4.1,3.07s-3.16-1.02-4.04-3.07c-.89-2.05-1.33-4.92-1.33-8.61,0-3.93.44-6.85,1.33-8.76.89-1.91,2.27-2.86,4.16-2.86s3.14.97,3.98,2.92c.85,1.95,1.27,4.97,1.27,9.06,0,3.46-.42,6.21-1.27,8.26Z"/>
  <path class="cls-2" d="M148.7,28.01c2.16,0,3.83-.58,5.02-1.74,1.18-1.16,1.77-2.82,1.77-4.99s-.58-3.88-1.74-5.04c-1.16-1.16-2.84-1.74-5.04-1.74s-3.84.59-5.02,1.77c-1.18,1.18-1.77,2.85-1.77,5.02s.59,3.83,1.77,4.99c1.18,1.16,2.85,1.74,5.02,1.74Z"/>
  <path class="cls-2" d="M224.99,57.51l-8.67-12.98,8.55-7.49c2.32-.47,3.82-.84,4.48-1.12v-4.9h-19.71v4.9c1.14.43,3.03.85,5.66,1.24l-8.61,10.03.06,1.65,8.91,15.22h15.46v-5.02c-.59-.24-1.5-.5-2.74-.8-1.24-.29-2.37-.54-3.39-.74Z"/>
  <path class="cls-2" d="M121.09,44.12c5.94-1.93,8.91-5.66,8.91-11.21,0-3.62-1.36-6.21-4.07-7.79-2.71-1.57-6.73-2.36-12.04-2.36h-24.01v4.37c1.14.55,2.64,1.06,4.48,1.53v29.5c-1.85.47-3.34.98-4.48,1.53v4.37h21.71v-4.37c-1.02-.51-2.48-1-4.37-1.47v-9.97h3.48l7.49,15.81h15.75v-4.37c-1.22-.51-2.79-.98-4.72-1.42l-8.14-14.16ZM115.1,39.31c-.89,1.28-2.39,2.39-4.51,3.33l-3.36-.59v-13.33h2.89c4.21,0,6.31,1.91,6.31,5.72,0,1.97-.44,3.59-1.33,4.87Z"/>
  <path class="cls-2" d="M204.4,18.69l-.83-.53c-2.24,0-4.82.11-7.73.33-2.91.22-5.53.46-7.85.74v5.25l4.01.41v32.98c-1.97.43-3.44.85-4.42,1.24v4.96h19.82v-4.96c-.83-.31-1.83-.65-3.01-1V18.69Z"/>
  <path class="cls-2" d="M181.15,57.04c-2.87,0-4.31-1.67-4.31-5.02v-14.63h7.85v-7.96l-7.85,1.89v-9.09h-7.43l-3.3,8.79h-5.49v6.37h3.84v14.87c0,4.13.84,7.21,2.54,9.23,1.69,2.03,4.37,3.04,8.02,3.04,2.16,0,4.23-.45,6.2-1.36,1.97-.9,3.7-2.18,5.19-3.84l-1.53-3.01c-1.18.47-2.42.71-3.72.71Z"/>
  <path class="cls-2" d="M154.72,31.02l-.65-.41c-7.2.16-12.8.45-16.81.89v4.9l5.01,1.3v20.83c-2.56.51-4.15.91-4.78,1.18v4.37h22.01v-4.37c-.63-.27-2.22-.67-4.78-1.18v-27.49Z"/>
</svg>