<?xml version="1.0" encoding="UTF-8"?>
<svg id="Layer_1" data-name="Layer 1" xmlns="http://www.w3.org/2000/svg" viewBox="0 0 360 90">
  <defs>
    <style>
      .cls-1 {
        fill: none;
      }

      .cls-2 {
        fill: #231f20;
      }
    </style>
  </defs>
  <path class="cls-1" d="M138.85,24.77c-.93-1.47-2.13-2.64-3.6-3.51-1.47-.87-3.28-1.3-5.41-1.3-1.25,0-2.41.04-3.48.12-.24.02-.5.04-.76.07l-7.46,37.35c.55.26,1.18.55,1.9.86.93.4,1.85.78,2.78,1.12.93.34,1.69.57,2.3.7,2.98-.52,5.51-1.65,7.59-3.39,2.08-1.73,3.76-3.83,5.05-6.29,1.29-2.46,2.24-5.05,2.84-7.77.6-2.72.91-5.29.91-7.71,0-1.81-.21-3.61-.64-5.38-.42-1.77-1.1-3.4-2.03-4.87Z"/>
  <path class="cls-1" d="M216.13,34.51c-.42-.93-.97-1.63-1.64-2.11-1.63.95-3.07,2.19-4.32,3.75-1.31,1.63-2.4,3.46-3.27,5.47-.87,2.02-1.51,4.09-1.94,6.23-.42,2.14-.63,4.21-.63,6.23,0,1.86.4,3.33,1.21,4.41.81,1.09,2.08,1.86,3.81,2.3,1.81-1.05,3.33-2.59,4.54-4.63,1.21-2.04,2.12-4.34,2.72-6.92.6-2.58.91-5.16.91-7.74,0-1.09-.11-2.26-.33-3.51-.22-1.25-.57-2.41-1.06-3.48Z"/>
  <path class="cls-1" d="M242.26,39.53c.48-.75.73-1.74.73-2.99,0-1.61-.35-2.88-1.06-3.81-.48-.63-1.05-1.09-1.68-1.4-1.19.32-2.3,1.05-3.31,2.19-1.25,1.41-2.3,3.29-3.14,5.62-.75,2.08-1.3,4.4-1.67,6.96l8.08-4.66c.89-.52,1.57-1.16,2.06-1.9Z"/>
  <path class="cls-1" d="M187.95,38.17c0-1.89-.39-3.36-1.18-4.38-.79-1.03-2.07-1.78-3.84-2.27-1.81,1.05-3.33,2.59-4.54,4.63-1.21,2.04-2.12,4.32-2.72,6.86-.6,2.54-.91,5.12-.91,7.74,0,1.09.11,2.27.33,3.54.22,1.27.58,2.43,1.09,3.48.44.91.98,1.6,1.62,2.08,1.74-.99,3.24-2.28,4.49-3.89,1.31-1.69,2.38-3.58,3.21-5.65.83-2.08,1.44-4.16,1.84-6.26.4-2.1.6-4.05.6-5.87Z"/>
  <path class="cls-2" d="M190.89,32c-.5-.47-1.26-.93-2.33-1.37-1.33-.54-2.68-.82-4.05-.82-2.22,0-4.26.69-6.14,2.06-1.87,1.37-3.52,3.17-4.93,5.38-1.41,2.22-2.51,4.6-3.3,7.14-.79,2.54-1.18,4.98-1.18,7.32,0,1.73.29,3.43.88,5.08.58,1.65,1.46,3.01,2.63,4.08,1.17,1.07,2.58,1.6,4.23,1.6,1.37,0,2.64-.47,3.81-1.42,1.17-.95,2.25-2.17,3.24-3.66.92-1.39,1.73-2.88,2.42-4.45-.1.96-.15,1.92-.15,2.88,0,1.01.12,2.06.36,3.14.24,1.09.68,2.26,1.33,3.51l5.93-1.21-4.11-10.22,6.11-20.26-4.75,1.22ZM185.5,50.29c-.83,2.08-1.9,3.96-3.21,5.65-1.25,1.61-2.75,2.9-4.49,3.89-.64-.48-1.18-1.17-1.62-2.08-.51-1.05-.87-2.21-1.09-3.48-.22-1.27-.33-2.45-.33-3.54,0-2.62.3-5.2.91-7.74.6-2.54,1.51-4.83,2.72-6.86,1.21-2.04,2.72-3.58,4.54-4.63,1.77.48,3.05,1.24,3.84,2.27.79,1.03,1.18,2.49,1.18,4.38s-.2,3.77-.6,5.87c-.4,2.1-1.02,4.18-1.84,6.26Z"/>
  <path class="cls-2" d="M219.85,31.42c-1.15-1.07-2.57-1.6-4.26-1.6-1.37,0-2.64.47-3.81,1.42-1.17.95-2.25,2.17-3.24,3.66-.86,1.3-1.62,2.68-2.28,4.12.02-.28.04-.55.05-.83.02-.54.03-1.06.03-1.54,0-.97-.1-2.05-.3-3.24-.2-1.19-.6-2.23-1.21-3.11l-5.93,2.78,3.69,8.83-3.02,10.28c-.32,1.17-.74,2.59-1.24,4.26-.5,1.67-.94,3.42-1.3,5.23-.36,1.81-.54,3.57-.54,5.26,0,1.49.14,2.87.42,4.14s.75,2.43,1.39,3.48l6.41-1.15-3.93-7.74c0-1.25,0-2.51.03-3.78.01-.79.04-1.6.06-2.4.36.34.8.7,1.33,1.07.79.54,1.67,1,2.66,1.36.99.36,1.97.54,2.93.54,2.22,0,4.26-.69,6.14-2.06,1.87-1.37,3.52-3.16,4.93-5.38,1.41-2.22,2.51-4.61,3.3-7.17.79-2.56,1.18-5.01,1.18-7.35,0-1.73-.29-3.42-.88-5.05-.58-1.63-1.45-2.98-2.6-4.05ZM216.62,49.23c-.6,2.58-1.51,4.89-2.72,6.92-1.21,2.04-2.72,3.58-4.54,4.63-1.73-.44-3-1.21-3.81-2.3-.81-1.09-1.21-2.56-1.21-4.41,0-2.02.21-4.09.63-6.23.42-2.14,1.07-4.21,1.94-6.23.87-2.02,1.96-3.84,3.27-5.47,1.25-1.55,2.69-2.79,4.32-3.75.67.49,1.22,1.18,1.64,2.11.48,1.07.84,2.23,1.06,3.48.22,1.25.33,2.42.33,3.51,0,2.58-.3,5.16-.91,7.74Z"/>
  <path class="cls-2" d="M170.51,30.21c-.54-.26-1.16-.39-1.84-.39-1.25,0-2.48.51-3.69,1.54s-2.32,2.31-3.33,3.84c-.7,1.07-1.34,2.15-1.91,3.25.03-1.46-.04-2.9-.2-4.34-.2-1.73-.52-3-.97-3.81l-5.93,2.78,3.77,9.01c-.83,1.17-1.61,2.48-2.32,3.93-.81,1.65-1.45,3.3-1.94,4.93-.48,1.63-.73,3.09-.73,4.38,0,1.45.1,2.77.3,3.96.2,1.19.5,2.25.91,3.17l6.05-1.21c-.48-1.53-.86-3.01-1.12-4.44-.26-1.43-.39-2.97-.39-4.63s.21-3.46.63-5.17c.42-1.71.98-3.34,1.66-4.87.68-1.53,1.41-2.87,2.18-4.02.76-1.15,1.49-2.01,2.18-2.57l4.41,2h.12l3.57-6.47c-.4-.32-.88-.61-1.42-.88Z"/>
  <path class="cls-2" d="M231.96,47.81l15.74-6.92c.32-.64.58-1.31.79-2,.2-.68.3-1.41.3-2.18,0-1.37-.35-2.57-1.06-3.6-.71-1.03-1.63-1.83-2.78-2.42-1.15-.58-2.43-.88-3.84-.88-1.9,0-3.73.6-5.5,1.81-1.77,1.21-3.36,2.8-4.75,4.78-1.39,1.98-2.49,4.14-3.3,6.5-.81,2.36-1.21,4.69-1.21,6.98,0,3.67.86,6.68,2.57,9.04,1.71,2.36,4.22,3.54,7.53,3.54,1.05,0,2.18-.34,3.39-1.03,1.21-.68,2.42-1.57,3.63-2.66,1.21-1.09,2.3-2.24,3.27-3.45l-3.39-2.9-6.06,8.65c-1.2-.31-2.18-.92-2.92-1.87-.91-1.17-1.54-2.67-1.91-4.51-.36-1.83-.54-3.8-.54-5.9,0-.24,0-.51.03-.82,0-.07.01-.12.02-.19ZM233.79,39.13c.85-2.34,1.89-4.21,3.14-5.62,1.01-1.14,2.11-1.86,3.31-2.19.64.31,1.2.77,1.68,1.4.71.93,1.06,2.2,1.06,3.81,0,1.25-.24,2.25-.73,2.99-.48.75-1.17,1.38-2.06,1.9l-8.08,4.66c.37-2.55.92-4.88,1.67-6.96Z"/>
  <path class="cls-2" d="M144.53,22.87c-1.25-1.57-2.94-2.82-5.08-3.75-2.14-.93-4.82-1.39-8.04-1.39-1.21,0-2.63.07-4.26.21-1.63.14-3.25.3-4.84.48-1.59.18-2.99.35-4.2.51l1.33,7.86-8.22,35.44h3.09c1.25,0,2.58-.01,3.99-.03,1.41-.02,2.74-.04,3.99-.06,1.25-.02,2.26-.05,3.02-.09,3.75-.24,7.05-1.18,9.89-2.81,2.84-1.63,5.21-3.76,7.11-6.38,1.9-2.62,3.32-5.53,4.26-8.74.95-3.21,1.42-6.5,1.42-9.89,0-2.06-.26-4.07-.79-6.05-.52-1.98-1.41-3.75-2.66-5.32ZM140.6,42.73c-.61,2.72-1.55,5.31-2.84,7.77-1.29,2.46-2.97,4.56-5.05,6.29-2.08,1.73-4.61,2.86-7.59,3.39-.6-.12-1.37-.35-2.3-.7-.93-.34-1.85-.72-2.78-1.12-.72-.31-1.35-.6-1.9-.86l7.46-37.35c.26-.03.52-.05.76-.07,1.07-.08,2.23-.12,3.48-.12,2.14,0,3.94.43,5.41,1.3,1.47.87,2.67,2.04,3.6,3.51.93,1.47,1.6,3.09,2.03,4.87.42,1.77.64,3.57.64,5.38,0,2.42-.3,4.99-.91,7.71Z"/>
</svg>