<?xml version="1.0" encoding="UTF-8"?>
<svg id="Layer_1" data-name="Layer 1" xmlns="http://www.w3.org/2000/svg" viewBox="0 0 360 90">
  <defs>
    <style>
      .cls-1 {
        fill: none;
      }

      .cls-2 {
        fill: #231f20;
      }
    </style>
  </defs>
  <path class="cls-1" d="M260.49,40.7c-1.31,0-2.22.95-2.44,2.08-.32,2.04-.32,3.8,0,5.84.23,1.13,1.13,2.08,2.44,2.08s2.22-.95,2.4-2.08c.32-2.04.32-3.8,0-5.84-.18-1.13-1.09-2.08-2.4-2.08Z"/>
  <path class="cls-1" d="M184.63,41.43c-1.27,0-2.17,1.13-2.49,2.44v3.71c.36,1.22,1.27,2.35,2.49,2.35s2.04-.59,2.31-1.99c.23-1.54.23-2.99,0-4.57-.27-1.4-1.09-1.95-2.31-1.95Z"/>
  <path class="cls-1" d="M81.11,35.86c.05-.27.05-.91,0-1.27-.18-1.54-1.04-2.31-2.04-2.31h-2.26l.14,5.7h2.13c1.22,0,1.86-.95,2.04-2.13Z"/>
  <path class="cls-1" d="M125.83,41.43c-1.27,0-2.17,1.13-2.49,2.44v3.71c.36,1.22,1.27,2.35,2.49,2.35s2.04-.59,2.31-1.99c.23-1.54.23-2.99,0-4.57-.27-1.4-1.09-1.95-2.31-1.95Z"/>
  <path class="cls-1" d="M79.89,44.14h-2.76l.14,6.07h2.72c.81,0,1.81-.68,1.95-1.99.09-.81.09-1.13,0-1.95-.18-1.49-1.04-2.13-2.04-2.13Z"/>
  <path class="cls-1" d="M209.84,49.08c0,1.22.63,1.9,1.67,1.9.59,0,1.09-.18,1.54-.45l.32-.18v-3.12h-1.63c-1.27,0-1.9,1.09-1.9,1.86Z"/>
  <path class="cls-2" d="M165.12,46.99l1.58-5.3c1.49-4.93-1.72-8.01-5.11-8.01-3.94,0-6.25,2.72-6.07,7.24l.27,6.88c-.45.63-1.09.86-1.67.86-1.36,0-2.17-1.27-1.9-3.21l.86-6.02c.41-2.85-1-5.07-4.16-5.07h-5.34c-2.26,0-3.44,1.31-3.44,3.39,0,1.31.36,2.04,1.04,3.17l1.4,2.4-.72,3.62c-1.36,6.79,2.76,10.82,8.15,10.82,3.03,0,5.75-1.72,7.24-4.21.32,2.58,1.54,3.49,4.21,3.49h3.53c2.58,0,3.76-1.4,3.76-3.49,0-1-.54-2.26-1.18-3.17l-2.44-3.39Z"/>
  <path class="cls-2" d="M106.73,47.17l1.77-7.74c.63-2.81-.63-5.07-3.49-5.07h-6.02c-2.26,0-3.44,1.31-3.44,3.39,0,1.31.36,2.04,1.04,3.17l1.13,1.95-1,9.1c-.32,2.85,1.04,5.07,4.21,5.07h5.34c2.26,0,3.44-1.31,3.44-3.39,0-1.31-.36-2.04-1.04-3.17l-1.95-3.3Z"/>
  <path class="cls-2" d="M129.27,33.69c-2.63,0-4.57.81-5.97,2.17v-7.11c-.09-3.39-1.54-5.21-4.39-5.21h-5.61c-2.13,0-3.53,1.27-3.53,3.21,0,1.27.41,2.17,1.18,3.17l4.07,5.21-3.21,13.4h.05l-.27,1.36c-.86,5.25,2.81,8.15,5.93,8.15,2.22-.05,4.3-1.04,5.39-2.94,1.4,1.67,3.49,2.67,6.38,2.67,5.97,0,10-5.75,10-12.09s-4.03-11.99-10-11.99ZM128.14,47.94c-.27,1.4-1.09,1.99-2.31,1.99s-2.13-1.13-2.49-2.35v-3.71c.32-1.31,1.22-2.44,2.49-2.44s2.04.54,2.31,1.95c.23,1.58.23,3.03,0,4.57Z"/>
  <path class="cls-2" d="M90.21,40.84c1.67-1.72,2.63-3.76,2.63-6.29,0-4.66-3.76-9.19-10.77-9.19h-13.31c-2.85,0-4.39,2.08-4.39,4.35,0,1.13.41,2.17,1,3.26l2.4,4.66-3.21,12.36c-1.18,4.57,2.9,7.06,6.38,7.06h12.22c6.11,0,11.36-3.35,11.36-9.41,0-3.44-1.99-5.75-4.3-6.79ZM76.81,32.28h2.26c1,0,1.86.77,2.04,2.31.05.36.05,1,0,1.27-.18,1.18-.81,2.13-2.04,2.13h-2.13l-.14-5.7ZM81.93,48.22c-.14,1.31-1.13,1.99-1.95,1.99h-2.72l-.14-6.07h2.76c1,0,1.86.63,2.04,2.13.09.81.09,1.13,0,1.95Z"/>
  <path class="cls-2" d="M102.93,32.87c3.03,0,5.48-2.44,5.48-5.48s-2.44-5.43-5.48-5.43-5.48,2.4-5.48,5.43,2.44,5.48,5.48,5.48Z"/>
  <path class="cls-2" d="M290.91,33.55c-1.54-.05-3.71.5-4.57,2.9l-1.18,3.21c.14-3.03-.63-5.3-3.49-5.3h-3.3c-2.26,0-3.44,1.31-3.44,3.39,0,1.31.36,2.04,1.04,3.17l1.13,1.95-1,9.1c-.32,2.85,1.04,5.07,4.21,5.07h5.34c2.26,0,3.44-1.31,3.44-3.39,0-1.31-.36-2.04-1.04-3.17l-1.95-3.26,5.39-3.67c2.17-1.49,4.16-2.63,4.16-5.02.05-2.49-1.99-4.98-4.75-4.98Z"/>
  <path class="cls-2" d="M188.07,33.69c-2.63,0-4.57.81-5.97,2.17v-7.11c-.09-3.39-1.54-5.21-4.39-5.21h-5.61c-2.13,0-3.53,1.27-3.53,3.21,0,1.27.41,2.17,1.18,3.17l4.07,5.21-3.21,13.4h.05l-.27,1.36c-.86,5.25,2.81,8.15,5.93,8.15,2.22-.05,4.3-1.04,5.39-2.94,1.4,1.67,3.49,2.67,6.38,2.67,5.97,0,10-5.75,10-12.09s-4.03-11.99-10-11.99ZM186.94,47.94c-.27,1.4-1.09,1.99-2.31,1.99s-2.13-1.13-2.49-2.35v-3.71c.32-1.31,1.22-2.44,2.49-2.44s2.04.54,2.31,1.95c.23,1.58.23,3.03,0,4.57Z"/>
  <path class="cls-2" d="M222.79,48.58l.27-.91c.63-2.13,1.04-4.48,1.04-6.07-.05-5.75-6.02-7.92-11.81-7.92-4.62,0-8.06.91-9.32,1.86-1.27.95-1.72,1.86-1.72,3.17,0,1.54,1.13,3.76,3.76,3.76,1.36,0,2.17-.36,3.12-.86l3.8-1.86c1.04.27,1.45,1.36,1.45,2.4v1.22h-6.11c-5.11.05-8.15,2.9-8.15,6.93s3.44,7.47,7.47,7.47c1.99,0,4.03-.32,6.02-1.49l2.35-1.36,2.58,1.67c1.31.86,2.26,1.18,3.94,1.18,2.22,0,4.03-1.49,4.03-3.85,0-1-.41-1.86-1.13-2.99l-1.58-2.35ZM213.37,50.34l-.32.18c-.45.27-.95.45-1.54.45-1.04,0-1.67-.68-1.67-1.9,0-.77.63-1.86,1.9-1.86h1.63v3.12Z"/>
  <path class="cls-2" d="M246.28,38.12c0-2.35-1.77-4.53-5.52-3.71l-1.54.32-.27-4.39c-.09-2.08-1.36-3.12-2.9-3.12-1.09,0-2.08.45-3.08,1.49l-3.53,3.71c-2.31,2.4-3.71,3.53-3.71,5.84,0,1.77,1.36,3.76,4.66,3.98l-1.18,4.39c-1.13,4.98,1,11.13,8.69,11.13,5.34,0,7.56-2.94,7.56-5.3s-2.22-3.21-4.21-3.21h-1.04l-.54-8.01,1.09.41c3.44,1.27,5.52-1.31,5.52-3.53Z"/>
  <path class="cls-2" d="M260.45,33.69c-7.42,0-13.31,5.39-13.31,11.95s5.07,12.13,13.31,12.13c7.24,0,13.26-5.48,13.26-12.13,0-6.25-5.3-11.95-13.26-11.95ZM262.89,48.62c-.18,1.13-1.09,2.08-2.4,2.08s-2.22-.95-2.44-2.08c-.32-2.04-.32-3.8,0-5.84.23-1.13,1.13-2.08,2.44-2.08s2.22.95,2.4,2.08c.32,2.04.32,3.8,0,5.84Z"/>
</svg>