<?xml version="1.0" encoding="UTF-8"?>
<svg id="Layer_1" xmlns="http://www.w3.org/2000/svg" version="1.1" viewBox="0 0 823.9 561">
  <!-- Generator: Adobe Illustrator 29.8.0, SVG Export Plug-In . SVG Version: 2.1.1 Build 160)  -->
  <defs>
    <style>
      .st0 {
        fill: #231f20;
      }
    </style>
  </defs>
  <g>
    <path class="st0" d="M159.6,310.9v-90.8c-5.7-1.5-10.3-3-13.8-4.7v-13.4h73.9c16.3,0,28.7,2.4,37,7.3,8.3,4.8,12.5,12.8,12.5,24,0,17.1-9.1,28.6-27.4,34.5l25,43.6c5.9,1.3,10.8,2.8,14.5,4.4v13.4h-48.5l-23.1-48.6h-10.7v30.7c5.8,1.5,10.3,3,13.4,4.5v13.4h-66.8v-13.4c3.5-1.7,8.1-3.3,13.8-4.7ZM209.5,263.1c6.5-2.9,11.2-6.3,13.9-10.3,2.7-3.9,4.1-8.9,4.1-15,0-11.7-6.5-17.6-19.4-17.6h-8.9v41l10.3,1.8Z"/>
    <path class="st0" d="M301.8,311.9v-64.1l-15.4-4v-15.1c12.3-1.3,29.6-2.2,51.7-2.7l2,1.3v84.6c7.9,1.6,12.8,2.8,14.7,3.6v13.4h-67.7v-13.4c1.9-.8,6.8-2.1,14.7-3.6ZM306.2,212.7c-3.6-3.6-5.4-8.7-5.4-15.3s1.8-11.8,5.4-15.4c3.6-3.6,8.8-5.4,15.4-5.4s11.9,1.8,15.5,5.4c3.6,3.6,5.4,8.7,5.4,15.5s-1.8,11.8-5.4,15.3c-3.6,3.6-8.8,5.4-15.4,5.4s-11.8-1.8-15.4-5.4Z"/>
    <path class="st0" d="M374.2,321.1c-5.2-6.2-7.8-15.7-7.8-28.4v-45.7h-11.8v-19.6h16.9l10.2-27h22.9v28l24.1-5.8v24.5h-24.1v45c0,10.3,4.4,15.4,13.3,15.4s7.8-.7,11.4-2.2l4.7,9.3c-4.6,5.1-9.9,9-16,11.8-6.1,2.8-12.4,4.2-19.1,4.2-11.3,0-19.5-3.1-24.7-9.3Z"/>
    <path class="st0" d="M450.7,309.9v-101.5l-12.3-1.3v-16.2c7.1-.8,15.2-1.6,24.1-2.3,9-.7,16.9-1,23.8-1l2.5,1.6v121.2c3.6,1.1,6.7,2.1,9.3,3.1v15.2h-61v-15.2c3-1.2,7.6-2.5,13.6-3.8ZM496.1,282.2l-.2-5.1,26.5-30.9c-8.1-1.2-13.9-2.5-17.4-3.8v-15.1h60.6v15.1c-2.1.8-6.7,2-13.8,3.4l-26.3,23.1,26.7,39.9c3.1.6,6.6,1.4,10.4,2.3,3.8.9,6.6,1.7,8.4,2.5v15.4h-47.6l-27.4-46.8Z"/>
    <path class="st0" d="M583.2,317.6c-9.9-9.3-14.9-22.1-14.9-38.3s2.5-20.9,7.4-29c5-8.1,11.8-14.3,20.6-18.5,8.8-4.2,18.8-6.4,30.2-6.4,18.6,0,32.6,4.6,41.8,13.9s13.9,22.5,13.9,39.7-5,29.3-15,38.7c-10,9.3-24.2,14-42.6,14s-31.6-4.7-41.6-14ZM637.9,304.9c2.6-6.3,3.9-14.8,3.9-25.4s-1.3-21.9-3.9-27.9c-2.6-6-6.7-9-12.3-9s-10.1,2.9-12.8,8.8c-2.7,5.9-4.1,14.9-4.1,27s1.4,20.2,4.1,26.5c2.7,6.3,6.9,9.4,12.4,9.4s10-3.1,12.6-9.4Z"/>
  </g>
  <g>
    <path class="st0" d="M268.6,374.5h0c-1.3,1.9-3.4,3-5.7,3s-4.4-1.4-4.4-3.9,2.1-4.4,6.7-4.7l2.8-.2v-3.2c0-2.2-.9-3.3-3.6-3.3s-1.8.2-2.5.4l.4,3.4-3.1.3c-.3-3.8,2.4-5.9,6.2-5.9s5.4,1.4,5.4,4.8v10.2h2.5c0,0,0,.9,0,.9-1.1.5-2.5.9-4.2,1.1-.3-.6-.5-1.5-.6-2.9ZM264.1,375.7c1.3,0,2.7-.6,3.9-1.6v-4l-2.7.2c-2.7.2-3.7,1.3-3.7,2.9s.9,2.5,2.5,2.5Z"/>
    <path class="st0" d="M293.9,375.3v-8.8c0-2.6-1.2-3.9-3.6-3.9s-2.6.4-3.7,1.1v11.7c.6.2,1.2.4,2.2.9v1h-7.6v-1c.8-.4,1.8-.7,2.5-.9v-12.7l-2.4-.4v-1.4c1.5-.2,3.4-.5,4.4-.5h.2c0,.1.2,3,.2,3,1.5-2.1,3.4-3.1,5.6-3.1,3.2,0,5.1,1.9,5.1,5.4v9.6c.7.2,1.6.5,2.4.8v1h-7.5v-1c.8-.4,1.6-.7,2.2-.9Z"/>
    <path class="st0" d="M300.7,369.2c0-5.6,3.6-8.9,7.9-8.9s5.8,2.7,5.9,6.8c0,.4,0,1.2,0,1.6h-10.7c0,4.4,2.1,6.6,5.4,6.6s3.3-.5,4.7-1.3l.6,1c-1.4,1.6-3.5,2.5-6.2,2.5-4.6,0-7.7-3-7.7-8.3ZM311.7,366.9c-.1-3.4-1.2-5.1-3.6-5.1s-4.3,2.2-4.4,5.5l7.9-.4Z"/>
    <path class="st0" d="M317.2,362.2c-.5-.2-1-.4-1.3-.6v-1h6v1c-.5.2-1,.4-1.4.5l1.6,6.1c.8,3.2,1.2,4.9,1.7,6.6h.1l1.5-6.8,1.6-7h2.9l1.6,6.8c.7,3.1,1,5.3,1.4,6.9h0l1.6-6.6,1.4-6.1c-.5-.2-1-.4-1.5-.6v-1h5.1v1c-.4.2-.8.4-1.3.5l-4.5,15.1h-2.8l-1.7-6.7c-.6-2.1-1.1-4.9-1.4-6.7h0c-.4,1.8-1,4.7-1.5,6.8l-1.6,6.7h-2.8l-4.8-15Z"/>
    <path class="st0" d="M343.9,364.1c0,1.3.8,1.9,2.2,2.5l2.4,1c3,1.2,3.8,2.8,3.8,4.8,0,3.4-1.9,5.2-6.2,5.2s-3.4-.3-5-1.1v-5.1h1.5c.6,1.4,1,3,1.3,4.3.8.2,1.5.3,2.2.3,2.3,0,3.6-1,3.6-2.8s-.8-2.1-2.5-2.9l-2.8-1.1c-2-.8-3.2-1.9-3.2-4.3s2.4-4.6,6.1-4.6,3.1.3,4.4,1l-.2,4.4h-1.4c-.6-1.3-1-2.6-1.2-3.6-.5,0-1-.2-1.5-.2-1.9,0-3.6.6-3.6,2.3Z"/>
    <path class="st0" d="M359.9,376.7v5.4c.7.1,2.4.5,3.2.9v1h-8.8v-1c.8-.4,2-.7,2.7-.9v-19.6l-2.6-.6v-1c1.7-.3,3-.5,4.7-.6l.2.2.2,3.2h0c1.4-2.3,3.4-3.3,5.5-3.3,3.5,0,5.7,2.7,5.7,7.5s-2.9,9.6-7.5,9.6-2.4-.3-3.4-.8ZM362.9,376c3.1,0,4.8-2.7,4.8-7.5s-1.6-6-4-6-2.5.4-3.8,1.4v11.1c.8.6,1.9.9,3,.9Z"/>
    <path class="st0" d="M383.5,374.5h0c-1.3,1.9-3.4,3-5.7,3s-4.4-1.4-4.4-3.9,2.1-4.4,6.7-4.7l2.8-.2v-3.2c0-2.2-.9-3.3-3.6-3.3s-1.8.2-2.5.4l.4,3.4-3.1.3c-.3-3.8,2.4-5.9,6.2-5.9s5.4,1.4,5.4,4.8v10.2h2.5c0,0,0,.9,0,.9-1.1.5-2.5.9-4.2,1.1-.3-.6-.5-1.5-.6-2.9ZM379,375.7c1.3,0,2.7-.6,3.9-1.6v-4l-2.7.2c-2.7.2-3.7,1.3-3.7,2.9s.9,2.5,2.5,2.5Z"/>
    <path class="st0" d="M394.3,376.7v5.4c.7.1,2.4.5,3.2.9v1h-8.8v-1c.8-.4,2-.7,2.7-.9v-19.6l-2.6-.6v-1c1.7-.3,3-.5,4.7-.6l.2.2.2,3.2h0c1.4-2.3,3.4-3.3,5.5-3.3,3.5,0,5.7,2.7,5.7,7.5s-2.9,9.6-7.5,9.6-2.4-.3-3.4-.8ZM397.4,376c3.1,0,4.8-2.7,4.8-7.5s-1.6-6-4-6-2.5.4-3.8,1.4v11.1c.8.6,1.9.9,3,.9Z"/>
    <path class="st0" d="M408.1,369.2c0-5.6,3.6-8.9,7.9-8.9s5.8,2.7,5.9,6.8c0,.4,0,1.2,0,1.6h-10.7c0,4.4,2.1,6.6,5.4,6.6s3.3-.5,4.7-1.3l.6,1c-1.4,1.6-3.5,2.5-6.2,2.5-4.6,0-7.7-3-7.7-8.3ZM419.1,366.9c-.1-3.4-1.2-5.1-3.6-5.1s-4.3,2.2-4.4,5.5l7.9-.4Z"/>
    <path class="st0" d="M426.7,375.4v-12.6l-2.5-.5v-1.1c1.7-.3,3.2-.5,4.9-.6l.2.2v4.1h.1c.6-2.5,2.2-4.3,4.5-4.3s.9,0,1.2.2l-.2,2.7c-.5,0-.9,0-1.2,0-1.9,0-3.4.8-4.1,2.1v10c.7.1,2.4.5,3.2.9v1h-8.6v-1c.7-.3,1.8-.6,2.5-.8Z"/>
    <path class="st0" d="M444.8,372.9v-10.8h-2.6v-1.5h2.9l1.1-4.1h1.5v4.3l4.6-.6v1.9h-4.6v10.1c0,2.1.8,3.2,2.4,3.2s1.5-.2,2.2-.6l.4.5c-.9,1.3-2.4,2.1-4,2.1-2.5,0-4-1.7-4-4.5Z"/>
    <path class="st0" d="M457.1,384.3v-.2l4.8-6.7-6.6-15.3c-.4-.1-.8-.3-1.2-.5v-1h6.3v1c-.6.3-1.2.5-1.7.6l2.8,7.1c.6,1.7,1.1,3.3,1.7,4.9l1.8-5.6,2-6.5c-.6-.2-1.2-.4-1.7-.6v-1h5.6v1c-.5.2-1,.4-1.5.6l-8.5,22.1h-3.8Z"/>
    <path class="st0" d="M478,376.7v5.4c.7.1,2.4.5,3.2.9v1h-8.8v-1c.8-.4,2-.7,2.7-.9v-19.6l-2.6-.6v-1c1.7-.3,3-.5,4.7-.6l.2.2.2,3.2h0c1.4-2.3,3.4-3.3,5.5-3.3,3.5,0,5.7,2.7,5.7,7.5s-2.9,9.6-7.5,9.6-2.4-.3-3.4-.8ZM481,376c3.1,0,4.8-2.7,4.8-7.5s-1.6-6-4-6-2.5.4-3.8,1.4v11.1c.8.6,1.9.9,3,.9Z"/>
    <path class="st0" d="M491.8,369.2c0-5.6,3.6-8.9,7.9-8.9s5.8,2.7,5.9,6.8c0,.4,0,1.2,0,1.6h-10.7c0,4.4,2.1,6.6,5.4,6.6s3.3-.5,4.7-1.3l.6,1c-1.4,1.6-3.5,2.5-6.2,2.5-4.6,0-7.7-3-7.7-8.3ZM502.8,366.9c-.1-3.4-1.2-5.1-3.6-5.1s-4.3,2.2-4.4,5.5l7.9-.4Z"/>
    <path class="st0" d="M510.3,375.4v-13.2h-2.3v-1.5h2.5c0-4.1,2.4-7.5,6.3-7.5s1.3.1,1.7.3l-.5,2.7-3.3-.9c-1.3.8-1.5,2.5-1.5,4.6v1l4.6-.6v2h-4.4v13.2c.8.1,2.3.5,3.1.9v1h-8.6v-1c.8-.3,1.9-.7,2.6-.9Z"/>
    <path class="st0" d="M529.5,374.5h0c-1.3,1.9-3.4,3-5.7,3s-4.4-1.4-4.4-3.9,2.1-4.4,6.7-4.7l2.8-.2v-3.2c0-2.2-.9-3.3-3.6-3.3s-1.8.2-2.5.4l.4,3.4-3.1.3c-.3-3.8,2.4-5.9,6.2-5.9s5.4,1.4,5.4,4.8v10.2h2.5c0,0,0,.9,0,.9-1.1.5-2.5.9-4.2,1.1-.3-.6-.5-1.5-.6-2.9ZM525,375.7c1.3,0,2.7-.6,3.9-1.6v-4l-2.7.2c-2.7.2-3.7,1.3-3.7,2.9s.9,2.5,2.5,2.5Z"/>
    <path class="st0" d="M539,368.9c0,4,1.7,6.3,5.3,6.3s3.2-.5,4.4-1.2l.6,1c-1.3,1.5-3.5,2.4-5.8,2.4-5.1,0-7.6-3.1-7.6-8s3.2-9.1,7.9-9.1,5.7,3.1,5.1,6.1l-3.5-.2.8-4.1c-.5-.2-1.1-.3-1.8-.3-3.8,0-5.3,3-5.3,7Z"/>
    <path class="st0" d="M551.5,369.2c0-5.6,3.7-8.9,7.9-8.9s5.8,2.7,5.9,6.8c0,.4,0,1.2,0,1.6h-10.7c0,4.4,2.1,6.6,5.4,6.6s3.3-.5,4.7-1.3l.6,1c-1.4,1.6-3.5,2.5-6.2,2.5-4.6,0-7.7-3-7.7-8.3ZM562.5,366.9c-.1-3.4-1.2-5.1-3.6-5.1s-4.3,2.2-4.4,5.5l7.9-.4Z"/>
  </g>
</svg>