<?xml version="1.0" encoding="UTF-8"?>
<svg id="Layer_1" xmlns="http://www.w3.org/2000/svg" version="1.1" viewBox="0 0 360 162.933">
  <!-- Generator: Adobe Illustrator 29.7.1, SVG Export Plug-In . SVG Version: 2.1.1 Build 8)  -->
  <defs>
    <style>
      .st0 {
        fill: #fff9ff;
      }
    </style>
  </defs>
  <path class="st0" d="M86.358,108.841c3.84-4.132,8.006-7.469,12.497-10.007-.261-3.515-.976-6.932-2.148-10.251-5.663,5.077-9.763,7.615-12.302,7.615-1.562,0-2.343-.943-2.343-2.831,0-1.04.195-1.984.586-2.831-3.124,1.823-5.174,3.043-6.151,3.661-.976.619-2.05,1.513-3.222,2.685,0,1.823.684,3.222,2.05,4.198-1.823,3.58-4.247,7.453-7.274,11.618-3.027,4.166-6.151,7.876-9.373,11.13-3.222,3.256-6.07,5.403-8.543,6.444-.912-2.407-1.367-4.882-1.367-7.42,0-5.207,1.545-10.528,4.637-15.963,3.091-5.434,7.013-9.746,11.765-12.936,4.945-3.384,9.925-5.077,14.938-5.077,3.515,0,6.866.912,10.056,2.733-.327-1.431-.944-3.156-1.855-5.174-.912-2.017-2.018-3.969-3.319-5.858-.847-.195-1.953-.293-3.32-.293-4.882,0-10.122,1.628-15.719,4.881-5.208,3.06-9.926,7.047-14.157,11.96-4.232,4.915-7.551,10.17-9.958,15.767-2.409,5.599-3.612,10.935-3.612,16.012,0,3.646.586,6.769,1.757,9.373,5.206-1.367,10.235-4.018,15.084-7.957,4.848-3.937,9.193-8.429,13.034-13.473,3.84-5.043,6.996-10.039,9.47-14.987.65.131,1.172.195,1.562.195,1.887,0,4.003-.618,6.346-1.855-2.084,2.084-4.232,4.556-6.444,7.42-2.213,2.864-4.947,6.607-8.201,11.228-3.19,4.361-5.94,8.054-8.25,11.081-2.311,3.027-4.508,5.58-6.59,7.664,1.301.325,3.156.488,5.565.488,1.822,0,3.661-.098,5.516-.293,1.855-.195,3.335-.424,4.442-.684.845-4.816,2.571-9.698,5.174-14.645,2.603-4.946,5.824-9.486,9.666-13.62Z"/>
  <path class="st0" d="M123.261,110.061c2.798-2.538,6.053-4.653,9.763-6.346-1.303-.586-3.06-1.22-5.272-1.904-2.213-.683-4.296-1.155-6.248-1.416l-1.172,1.172c-3.19,3.19-6.541,6.07-10.056,8.64-3.515,2.572-7.713,5.289-12.595,8.152,1.887-3.188,4.182-6.053,6.883-8.591,2.7-2.538,6.329-4.882,10.886-7.03-4.101-1.301-8.201-2.082-12.302-2.343-1.953,1.562-3.922,3.776-5.907,6.639-1.986,2.865-4.442,6.737-7.371,11.618l-2.05,3.417c-4.425,1.757-7.435,3.353-9.031,4.784-1.594,1.433-2.392,2.865-2.392,4.296,0,1.498.879,2.653,2.636,3.466,1.757.813,4.198,1.513,7.322,2.099,1.692-1.757,3.124-3.579,4.296-5.468,1.172-1.887,2.407-4.165,3.71-6.834l1.953-3.71c4.165-2.082,9.632-5.011,16.402-8.787-3.124,4.686-6.248,8.674-9.373,11.96-3.124,3.287-7.225,6.265-12.302,8.933,2.993,1.888,6.996,3.351,12.009,4.393,1.106-1.107,2.18-2.407,3.222-3.905,1.04-1.496,2.343-3.547,3.905-6.151,2.278-3.71,4.328-6.849,6.151-9.422,1.821-2.57,4.132-5.126,6.932-7.664ZM82.744,129.344c-1.04,1.205-1.953,1.806-2.734,1.806-.325,0-.601-.098-.83-.293-.227-.195-.342-.422-.342-.683,0-.845.798-1.87,2.392-3.075,1.596-1.204,3.4-2.261,5.419-3.173-1.562,2.409-2.864,4.215-3.905,5.419Z"/>
  <path class="st0" d="M123.945,132.126c0-2.148,1.562-5.304,4.686-9.47,3.124-4.164,7.03-8.656,11.716-13.473l4.589.195,9.373-7.225c-2.538.195-4.784.293-6.737.293,3.059-2.343,5.824-4.296,8.299-5.858-3.58,0-7.615.261-12.106.781l-4.003,4.491-1.855-.293-7.225,6.639,2.831.293-1.269,1.367-4.784,5.077c-5.208,5.599-8.9,9.763-11.081,12.497-2.18,2.733-3.271,5.012-3.271,6.834s.456,3.091,1.367,3.808c3.905-.847,7.355-1.757,10.349-2.734-.261-.455-.473-.943-.635-1.464-.163-.52-.244-1.106-.244-1.757Z"/>
  <path class="st0" d="M166.609,93.953c.586,1.693,1.04,3.158,1.367,4.393,4.035-1.431,6.932-2.863,8.689-4.296-1.042-4.36-1.791-7.713-2.246-10.056-3.776,2.409-6.965,4.296-9.568,5.663.586,1.172,1.172,2.604,1.757,4.296Z"/>
  <path class="st0" d="M142.836,132.908c1.074-1.626,2.358-3.742,3.856-6.346,2.148-3.71,4.101-6.834,5.858-9.373s4.003-5.011,6.737-7.42c2.734-2.407,5.956-4.425,9.666-6.053-1.953-.845-3.776-1.497-5.468-1.953-1.693-.455-3.873-.911-6.541-1.367-1.042.977-2.197,2.328-3.466,4.052-1.269,1.725-2.523,3.499-3.759,5.321-3.451,5.208-6.834,9.665-10.154,13.376-3.32,3.71-7.484,6.932-12.497,9.665,2.538,1.823,6.639,3.286,12.302,4.393,1.236-1.237,2.392-2.668,3.466-4.296Z"/>
  <path class="st0" d="M193.358,101.568l-3.807.195c-2.279,0-4.215-.161-5.809-.488-1.596-.325-3.629-.911-6.102-1.757l-1.855,1.757c-2.799,2.538-5.045,4.849-6.737,6.932,3.774-1.04,6.964-1.562,9.568-1.562,1.887,0,3.71.522,5.468,1.562-1.237,4.101-3.451,8.201-6.639,12.302-4.232,5.533-7.713,8.333-10.447,8.396-.651,0-1.139-.195-1.464-.586-.327-.391-.488-.845-.488-1.367.13-3.124,4.589-9.373,13.375-18.745-2.995.652-6.541,1.628-10.642,2.929-1.953,1.953-3.856,4.02-5.711,6.2-1.855,2.182-3.564,4.281-5.126,6.297-2.929,3.71-5.531,6.819-7.811,9.324-2.278,2.505-5.109,5.077-8.494,7.713-3.383,2.636-7.484,5.223-12.302,7.762,2.213,2.082,6.346,3.71,12.399,4.882,1.172-1.042,2.572-2.555,4.198-4.54,1.628-1.986,3.71-4.671,6.248-8.054,4.036-5.208,7.062-9.046,9.08-11.521-.261.846-.391,1.725-.391,2.636,0,1.432.44,2.669,1.318,3.71.879,1.04,2.034,1.562,3.466,1.562,3.905,0,8.055-2.017,12.448-6.053,4.394-4.035,8.135-8.884,11.228-14.547,3.091-5.663,4.767-10.642,5.028-14.938Z"/>
  <path class="st0" d="M227.529,110.013c2.602-2.375,5.695-4.474,9.275-6.297-.976-.586-2.555-1.22-4.735-1.904-2.182-.683-4.247-1.155-6.2-1.416l-1.172,1.172c-2.865,2.865-5.858,5.484-8.982,7.859-3.124,2.377-6.737,4.801-10.837,7.274,4.36-6.378,9.112-12.106,14.254-17.183,5.141-5.077,11.357-9.405,18.648-12.985-3.515-1.757-7.583-3.059-12.204-3.905-4.296,2.669-8.543,6.639-12.741,11.911s-9.162,12.106-14.889,20.503l-4.784,6.932c-4.816,1.823-8.07,3.434-9.763,4.833-1.692,1.4-2.538,2.848-2.538,4.345,0,1.433.944,2.572,2.831,3.417,1.888.845,4.427,1.562,7.615,2.148,1.757-2.017,4.328-5.695,7.713-11.033l3.905-6.053,14.254-7.81c-3.19,4.817-6.297,8.852-9.324,12.106-3.027,3.255-6.981,6.216-11.862,8.885,2.473,1.888,6.151,3.351,11.032,4.393,1.367-1.432,2.587-2.929,3.661-4.491s2.522-3.774,4.345-6.639c2.212-3.579,4.198-6.556,5.955-8.933,1.757-2.375,3.937-4.75,6.541-7.127ZM187.451,129.246c-1.204,1.269-2.197,1.904-2.978,1.904-.325,0-.601-.098-.83-.293-.227-.195-.342-.422-.342-.683,0-.845.863-1.904,2.587-3.173,1.725-1.269,3.725-2.358,6.004-3.271-1.757,2.409-3.237,4.247-4.442,5.516Z"/>
  <path class="st0" d="M230.165,132.81c3.319,0,6.737-.325,10.251-.976,4.816-3.515,9.193-7.599,13.132-12.253,3.937-4.653,5.907-8.802,5.907-12.448,0-1.887-.619-3.466-1.855-4.735-1.237-1.269-2.962-1.904-5.174-1.904-4.232,0-8.869,1.791-13.912,5.37-5.045,3.58-9.324,7.827-12.839,12.741-3.515,4.915-5.272,9.065-5.272,12.448,0,2.084.717,3.661,2.148,4.735,1.433,1.074,3.351,1.611,5.76,1.611,1.431,0,3.042-.244,4.833-.732,1.789-.488,3.335-1.123,4.637-1.904-3.451.066-5.843-.342-7.176-1.22-1.335-.879-2.001-1.968-2.001-3.271,0-1.757,1.35-4.442,4.052-8.054,2.7-3.613,5.711-6.915,9.031-9.91,3.32-2.993,5.695-4.491,7.127-4.491.455,0,.845.146,1.172.439.325.293.488.732.488,1.318,0,1.953-2.197,5.387-6.59,10.3-4.393,4.915-8.967,9.226-13.717,12.936Z"/>
  <path class="st0" d="M281.615,127.147c2.278-3.71,4.328-6.849,6.151-9.422,1.821-2.57,4.132-5.126,6.932-7.664,2.798-2.538,6.053-4.653,9.763-6.346-1.303-.586-3.06-1.22-5.272-1.904-2.213-.683-4.296-1.155-6.248-1.416l-1.172,1.172c-3.19,3.19-6.541,6.07-10.056,8.64-3.515,2.572-7.713,5.289-12.595,8.152,1.887-3.188,4.182-6.053,6.883-8.591,2.7-2.538,6.329-4.882,10.886-7.03-4.101-1.301-8.201-2.082-12.302-2.343-1.953,1.562-3.922,3.776-5.907,6.639-1.986,2.865-4.442,6.737-7.371,11.618l-2.05,3.417c-4.425,1.757-7.435,3.353-9.031,4.784-1.594,1.433-2.392,2.865-2.392,4.296,0,1.498.879,2.653,2.636,3.466,1.757.813,4.198,1.513,7.322,2.099,1.692-1.757,3.124-3.579,4.296-5.468,1.172-1.887,2.407-4.165,3.71-6.834l1.953-3.71c4.165-2.082,9.632-5.011,16.402-8.787-3.124,4.686-6.248,8.674-9.373,11.96-3.124,3.287-7.225,6.265-12.302,8.933,2.993,1.888,6.996,3.351,12.009,4.393,1.106-1.107,2.18-2.407,3.222-3.905,1.04-1.496,2.343-3.547,3.905-6.151ZM254.181,129.344c-1.04,1.205-1.953,1.806-2.734,1.806-.325,0-.601-.098-.83-.293-.227-.195-.342-.422-.342-.683,0-.845.798-1.87,2.392-3.075,1.596-1.204,3.4-2.261,5.419-3.173-1.562,2.409-2.864,4.215-3.905,5.419Z"/>
  <path class="st0" d="M328.772,104.399c-1.237-1.822-2.343-3.091-3.319-3.808-3.58,7.486-7.518,13.571-11.814,18.257-4.296,4.686-9.243,7.518-14.84,8.494l1.855-2.831c1.367-2.212,2.636-4.084,3.808-5.614,1.172-1.528,2.798-3.124,4.881-4.784,2.082-1.66,4.686-3.173,7.811-4.54-1.498-4.426-3.027-7.777-4.589-10.056-2.865,1.498-5.501,3.759-7.908,6.785-2.409,3.027-5.305,7.176-8.689,12.448-2.084,3.255-3.89,5.955-5.418,8.103-1.529,2.148-3.076,3.939-4.638,5.37,4.361-.195,8.754-.813,13.18-1.855-7.289,3.255-13.115,6.312-17.476,9.177-4.36,2.863-6.508,5.76-6.444,8.689.976,1.562,2.604,2.912,4.882,4.052,2.279,1.138,4.525,1.708,6.737,1.708,2.409,0,5.434-.602,9.08-1.806,3.645-1.205,6.639-2.49,8.982-3.857,0-2.018-.114-3.776-.342-5.272-.229-1.498-.603-3.158-1.123-4.979-1.172,1.431-2.995,3.058-5.468,4.882-2.474,1.821-4.964,3.383-7.469,4.686-2.505,1.302-4.409,1.953-5.711,1.953h-.098c.717-2.409,1.953-4.557,3.71-6.444,1.757-1.888,3.742-3.531,5.955-4.931,2.212-1.4,5.207-3.139,8.982-5.223,4.296-2.343,7.908-4.457,10.837-6.346,2.929-1.887,5.939-4.213,9.031-6.981,3.091-2.766,5.907-6.004,8.445-9.714-.651-1.887-1.596-3.742-2.831-5.565Z"/>
  <path class="st0" d="M60.068,65.952c5.141,4.589,10.154,6.883,15.035,6.883,2.148,0,4.003-.83,5.565-2.49s2.343-4.181,2.343-7.566c0-3.84-1.254-8.184-3.759-13.034-2.506-4.848-5.174-9.193-8.006-13.034-2.831-3.84-6.331-8.331-10.495-13.473.911-.259,1.692-.83,2.343-1.709.65-.879,1.008-1.741,1.074-2.587,5.532,10.414,10.642,19.072,15.328,25.97,5.597,8.201,9.681,13.751,12.253,16.646,2.571,2.897,4.799,4.898,6.688,6.004,2.538,1.497,4.686,2.246,6.444,2.246.715,0,1.172-.098,1.367-.293-1.042-.651-2.279-1.464-3.71-2.441-1.433-.976-3.06-2.31-4.882-4.003-3.841-3.71-10.187-11.846-19.038-24.408-5.013-7.159-9.602-14.352-13.766-21.576-.456-.716-.847-1.074-1.172-1.074-.261,0-.424.439-.488,1.318-.066.879-.098,1.254-.098,1.123-.131.977-.488,1.791-1.074,2.441-.586.652-1.269,1.108-2.05,1.367-.651-.845-1.335-1.545-2.05-2.099-.717-.552-1.303-.83-1.757-.83-.652,0-.977.327-.977.976s.406,1.335,1.22,2.051c.813.717,1.709,1.139,2.685,1.269,6.898,8.462,12.253,15.767,16.06,21.918,3.808,6.151,5.711,11.603,5.711,16.353,0,1.888-.488,3.597-1.464,5.126s-2.538,2.294-4.686,2.294c-4.232,0-8.738-2.182-13.522-6.541-4.784-4.36-8.772-9.746-11.96-16.158-3.19-6.41-4.784-12.48-4.784-18.208,0-3.515,1.008-6.59,3.027-9.226,2.017-2.636,4.946-3.954,8.787-3.954,1.106,0,2.148.097,3.124.293-.066-.455-.57-.845-1.513-1.172-.944-.325-1.904-.488-2.88-.488-3.646,0-6.688,1.433-9.129,4.296-2.441,2.864-3.661,6.802-3.661,11.813,0,5.858,1.693,12.172,5.077,18.941,3.383,6.77,7.647,12.448,12.79,17.037Z"/>
  <path class="st0" d="M88.039,41.153c2.05,2.636,4.213,4.947,6.493,6.932,2.278,1.986,5.565,4.671,9.861,8.054,2.148,7.615,4.653,11.423,7.517,11.423.845,0,1.465-.326,1.855-.976s.586-1.367.586-2.148c0-1.496-.732-3.058-2.197-4.686-1.464-1.626-3.695-3.676-6.688-6.151-.131-.586-.651-2.636-1.562-6.151-1.367-5.011-2.279-8.885-2.734-11.618,1.367,2.279,3.027,4.296,4.979,6.053,1.953,1.757,4.491,3.776,7.615,6.053,3.188,2.409,5.695,4.459,7.517,6.151,1.822,1.693,3.335,3.759,4.54,6.2,1.204,2.441,1.741,5.321,1.611,8.641.455,0,.845-.342,1.171-1.025.325-.684.488-1.545.488-2.587,0-2.929-.668-5.58-2.001-7.957-1.335-2.375-2.978-4.442-4.93-6.2s-4.589-3.84-7.908-6.248c-3.776-2.798-6.754-5.239-8.933-7.322-2.182-2.082-3.824-4.457-4.93-7.127-.456.195-.684.976-.684,2.343,0,1.042.195,2.604.586,4.686,1.04,4.947,2.245,9.927,3.612,14.938-3.646-2.993-6.558-5.468-8.738-7.42-2.182-1.953-4.214-4.182-6.102-6.688-1.887-2.505-3.188-5.126-3.905-7.859-.325.066-.569.342-.732.83-.162.488-.178,1.156-.049,2.001.39,2.604,1.611,5.223,3.661,7.859ZM111.177,61.9c1.138,1.237,1.709,2.311,1.709,3.222,0,.327-.098.586-.293.781s-.456.293-.781.293c-.912,0-1.889-.715-2.929-2.148-1.042-1.431-1.953-3.645-2.734-6.639,2.212,1.757,3.889,3.255,5.028,4.491Z"/>
  <path class="st0" d="M115.18,35.197c.815.229,2.001.342,3.564.342h.488c1.953,3.515,4.296,7.014,7.029,10.495,2.734,3.483,5.988,7.405,9.763,11.765,3.188,3.71,5.89,6.428,8.103,8.152,2.212,1.724,4.067,2.587,5.565,2.587.845,0,1.562-.244,2.148-.732.586-.488.781-1.252.586-2.294-.522.261-1.139.391-1.855.391-1.172,0-2.685-.715-4.54-2.148-1.855-1.431-4.769-4.328-8.738-8.689-.717-.845-1.937-2.212-3.661-4.101-1.725-1.887-3.646-4.198-5.76-6.932-2.116-2.734-4.116-5.597-6.004-8.592h1.464c1.887-.064,3.303-.259,4.247-.586.943-.325,1.318-1.041,1.123-2.148-1.823.456-3.287.766-4.394.927-1.106.163-2.246.244-3.417.244-2.602-4.491-4.425-8.753-5.468-12.79-.259.066-.455.293-.586.683-.13.391-.195.879-.195,1.465,0,.976.131,1.855.39,2.636.651,2.213,1.757,4.882,3.32,8.006l-4.686-.195c.195.781.7,1.286,1.513,1.513Z"/>
  <path class="st0" d="M130.849,26.46c.781,0,1.171-.455,1.171-1.367,0-.976-.406-2.001-1.22-3.075-.813-1.074-1.577-1.611-2.294-1.611-.781,0-1.172.522-1.172,1.562,0,1.237.391,2.294,1.172,3.173.781.879,1.562,1.318,2.343,1.318Z"/>
  <path class="st0" d="M138.464,42.081c1.757,1.953,4.165,4.296,7.225,7.029,3.969,3.451,7.11,6.607,9.422,9.47,2.31,2.865,3.986,6.346,5.028,10.447.586-.195.879-1.074.879-2.636,0-.781-.098-1.497-.293-2.148-.781-3.124-2.165-5.841-4.149-8.152-1.986-2.309-4.93-5.223-8.836-8.738-3.515-3.124-6.314-5.824-8.396-8.104-2.082-2.278-3.807-4.882-5.174-7.811-.325.261-.488.717-.488,1.367,0,.847.195,1.725.586,2.636,1.042,2.474,2.441,4.686,4.198,6.639Z"/>
  <path class="st0" d="M153.792,36.955c.717-.488,1.628-.733,2.734-.733,3.645,0,7.989,1.774,13.034,5.321,5.043,3.548,9.437,7.615,13.18,12.204,3.742,4.589,5.614,8.12,5.614,10.593,0,1.562-.944,2.343-2.831,2.343-3.646,0-8.12-2.326-13.425-6.981-5.305-4.653-10.822-11.048-16.549-19.185-.325.456-.488.912-.488,1.367,0,1.823,1.367,4.378,4.101,7.664,2.734,3.287,7.191,8.186,13.376,14.694l1.464,1.562c3.383,3.515,6.231,7.013,8.543,10.495,2.31,3.481,3.759,6.427,4.345,8.836.715-.522,1.074-1.237,1.074-2.148,0-2.084-1.757-5.565-5.272-10.447-1.628-2.148-4.264-5.174-7.908-9.08,4.36,3.256,8.006,4.882,10.935,4.882,1.172,0,2.212-.375,3.124-1.123.911-.747,1.367-1.838,1.367-3.27,0-3.515-2.002-7.745-6.005-12.692-4.003-4.946-8.657-9.242-13.961-12.888-5.306-3.644-9.682-5.467-13.132-5.467-1.822,0-3.237.39-4.247,1.172-1.008.781-1.513,1.823-1.513,3.124,0,.586.163,1.303.488,2.148.586-1.106,1.237-1.904,1.953-2.392Z"/>
  <path class="st0" d="M179.566,39.054c3.71,3.646,8.396,7.908,14.059,12.79,1.367,1.042,2.636,2.116,3.808,3.222,1.301,4.622,2.522,7.86,3.661,9.715,1.138,1.855,2.424,2.782,3.857,2.782.715,0,1.284-.278,1.708-.83.423-.552.635-1.22.635-2.001,0-1.562-.749-3.32-2.246-5.272-1.498-1.953-3.71-4.262-6.639-6.932-1.953-6.248-3.483-12.107-4.589-17.574,1.106,1.823,2.505,3.58,4.198,5.272,1.692,1.693,4.035,3.841,7.029,6.444,3.579,3.06,6.508,5.761,8.787,8.104,2.278,2.343,4.198,5.062,5.76,8.152,1.562,3.092,2.343,6.459,2.343,10.105,0,1.822-.195,3.644-.586,5.468.65,0,1.22-.717,1.709-2.148.488-1.433.732-3.124.732-5.077,0-4.037-.912-7.728-2.733-11.082-1.823-3.351-4.003-6.28-6.541-8.787-2.538-2.505-5.826-5.385-9.861-8.641-3.515-2.863-6.167-5.158-7.957-6.883-1.791-1.724-3.075-3.53-3.856-5.419-.456.195-.684.749-.684,1.66,0,1.042.195,2.441.586,4.198.911,4.491,2.212,9.341,3.905,14.547l-3.71-3.222c-5.013-4.425-9.193-8.314-12.546-11.667-3.351-3.351-6.395-7.093-9.129-11.228-2.734-4.132-4.523-8.348-5.37-12.643-.586.131-.879.847-.879,2.148v.39c.195,4.036,1.742,8.201,4.637,12.497,2.897,4.296,6.2,8.267,9.91,11.911ZM204.218,61.705c1.138,1.303,1.709,2.377,1.709,3.222,0,.39-.098.7-.293.927-.195.229-.456.342-.781.342-.976,0-1.921-.684-2.831-2.05-.912-1.367-1.921-3.905-3.027-7.615,2.343,2.148,4.084,3.873,5.223,5.174Z"/>
  <path class="st0" d="M213.591,37.053c.749-.618,1.774-.927,3.075-.927,2.473,0,6.068,1.725,10.788,5.174,4.718,3.451,8.933,7.371,12.643,11.765,3.71,4.394,5.565,7.925,5.565,10.593,0,1.889-.976,2.831-2.929,2.831-2.214,0-4.979-1.235-8.299-3.71-3.32-2.473-6.639-5.614-9.958-9.422-3.32-3.808-6.087-7.533-8.299-11.179-.13.39-.195.749-.195,1.074,0,2.343,1.626,5.55,4.882,9.617,3.254,4.069,7.013,7.698,11.276,10.886,4.262,3.19,7.728,4.784,10.398,4.784,1.692,0,2.961-.488,3.808-1.464.845-.976,1.269-2.246,1.269-3.808,0-3.188-1.855-7.225-5.565-12.106s-8.071-9.144-13.083-12.79c-5.013-3.644-9.211-5.467-12.595-5.467-1.757,0-3.042.407-3.856,1.22-.813.815-1.22,1.774-1.22,2.88,0,.977.261,1.791.781,2.441.261-.976.766-1.772,1.514-2.392Z"/>
  <path class="st0" d="M239.365,41.153c2.05,2.636,4.213,4.947,6.493,6.932,2.278,1.986,5.565,4.671,9.861,8.054,2.148,7.615,4.653,11.423,7.517,11.423.845,0,1.465-.326,1.855-.976s.586-1.367.586-2.148c0-1.496-.732-3.058-2.197-4.686-1.464-1.626-3.695-3.676-6.688-6.151-.131-.586-.651-2.636-1.562-6.151-1.367-5.011-2.279-8.885-2.734-11.618,1.367,2.279,3.027,4.296,4.979,6.053,1.953,1.757,4.491,3.776,7.615,6.053,3.188,2.409,5.695,4.459,7.517,6.151,1.822,1.693,3.335,3.759,4.54,6.2,1.204,2.441,1.741,5.321,1.611,8.641.455,0,.845-.342,1.171-1.025.325-.684.488-1.545.488-2.587,0-2.929-.668-5.58-2.001-7.957-1.335-2.375-2.978-4.442-4.93-6.2s-4.589-3.84-7.908-6.248c-3.776-2.798-6.754-5.239-8.933-7.322-2.182-2.082-3.824-4.457-4.93-7.127-.456.195-.684.976-.684,2.343,0,1.042.195,2.604.586,4.686,1.04,4.947,2.245,9.927,3.612,14.938-3.646-2.993-6.558-5.468-8.738-7.42-2.182-1.953-4.214-4.182-6.102-6.688-1.887-2.505-3.188-5.126-3.905-7.859-.325.066-.569.342-.732.83-.162.488-.178,1.156-.049,2.001.39,2.604,1.611,5.223,3.661,7.859ZM262.504,61.9c1.138,1.237,1.709,2.311,1.709,3.222,0,.327-.098.586-.293.781s-.456.293-.781.293c-.912,0-1.889-.715-2.929-2.148-1.042-1.431-1.953-3.645-2.734-6.639,2.212,1.757,3.889,3.255,5.028,4.491Z"/>
  <path class="st0" d="M271.242,41.69c1.757,1.823,4.264,3.971,7.517,6.444,2.863,2.148,5.239,4.068,7.127,5.76,1.887,1.693,3.676,3.792,5.37,6.297,1.692,2.507,3.027,5.452,4.003,8.836.91-.522,1.626-2.163,2.148-4.931.52-2.766.781-5.776.781-9.031,0-2.929-.163-5.174-.488-6.736,2.212,4.556,4.101,10.642,5.663,18.257,1.236,5.988,2.896,10.218,4.979,12.692,1.953,2.148,4.296,3.222,7.03,3.222,1.236,0,2.522-.359,3.857-1.074,1.333-.717,2.441-1.742,3.319-3.075.879-1.335,1.318-2.848,1.318-4.54,0-2.343-.864-4.232-2.587-5.662-1.725-1.431-3.629-2.18-5.711-2.246-1.042,0-1.953.18-2.734.537-.781.359-1.367.894-1.757,1.611,1.172-.131,2.473-.114,3.905.049,1.431.161,2.7.537,3.807,1.123.845.455,1.514,1.089,2.002,1.904.488.813.732,1.741.732,2.782,0,1.367-.554,2.602-1.66,3.71-1.107,1.106-2.506,1.66-4.198,1.66-2.148,0-4.232-1.074-6.248-3.222-2.018-2.148-3.646-6.053-4.881-11.716-2.995-13.928-7.225-23.529-12.692-28.801-.847-.845-1.904-1.675-3.173-2.49-1.269-.813-2.49-1.22-3.661-1.22-.976,0-1.855.39-2.636,1.172,1.562.39,3.368,1.367,5.419,2.929s3.986,3.612,5.809,6.151c2.212,3.19,3.319,7.583,3.319,13.18,0,3.06-.358,6.151-1.074,9.275-1.171-3.124-2.604-5.858-4.296-8.201-1.693-2.343-3.402-4.279-5.126-5.809-1.725-1.528-3.922-3.303-6.59-5.321-3.255-2.407-5.776-4.54-7.566-6.395-1.789-1.855-3.139-4.149-4.052-6.883-.586.195-.879.815-.879,1.855,0,.586.066,1.074.195,1.464.717,2.474,1.953,4.622,3.71,6.444Z"/>
</svg>