<?xml version="1.0" encoding="utf-8"?>
<!-- Generator: Adobe Illustrator 27.8.1, SVG Export Plug-In . SVG Version: 6.00 Build 0)  -->
<svg version="1.1" id="Layer_1" xmlns="http://www.w3.org/2000/svg" xmlns:xlink="http://www.w3.org/1999/xlink" x="0px" y="0px"
	 viewBox="0 0 204 90" style="enable-background:new 0 0 204 90;" xml:space="preserve">
<style type="text/css">
	.st0{fill:none;}
</style>
<path class="st0" d="M60.9,24.8c-0.9-1.5-2.1-2.6-3.6-3.5S54.1,20,51.9,20c-1.2,0-2.4,0-3.5,0.1c-0.2,0-0.5,0-0.8,0.1l-7.5,37.3
	c0.6,0.3,1.2,0.5,1.9,0.9c0.9,0.4,1.8,0.8,2.8,1.1s1.7,0.6,2.3,0.7c3-0.5,5.5-1.7,7.6-3.4s3.8-3.8,5.1-6.3s2.2-5,2.8-7.8
	c0.6-2.7,0.9-5.3,0.9-7.7c0-1.8-0.2-3.6-0.6-5.4C62.5,27.9,61.9,26.3,60.9,24.8L60.9,24.8z"/>
<path class="st0" d="M138.2,34.5c-0.4-0.9-1-1.6-1.6-2.1c-1.6,1-3.1,2.2-4.3,3.8c-1.3,1.6-2.4,3.5-3.3,5.5c-0.9,2-1.5,4.1-1.9,6.2
	c-0.4,2.1-0.6,4.2-0.6,6.2c0,1.9,0.4,3.3,1.2,4.4c0.8,1.1,2.1,1.9,3.8,2.3c1.8-1,3.3-2.6,4.5-4.6s2.1-4.3,2.7-6.9
	c0.6-2.6,0.9-5.2,0.9-7.7c0-1.1-0.1-2.3-0.3-3.5S138.7,35.6,138.2,34.5L138.2,34.5z"/>
<path class="st0" d="M164.3,39.6c0.5-0.8,0.7-1.7,0.7-3c0-1.6-0.4-2.9-1.1-3.8c-0.5-0.6-1.1-1.1-1.7-1.4c-1.2,0.3-2.3,1.1-3.3,2.2
	c-1.2,1.4-2.3,3.3-3.1,5.6c-0.8,2.1-1.3,4.4-1.7,7l8.1-4.7C163.2,41,163.9,40.3,164.3,39.6L164.3,39.6z"/>
<path class="st0" d="M110,38.2c0-1.9-0.4-3.4-1.2-4.4c-0.8-1-2.1-1.8-3.8-2.3c-1.8,1-3.3,2.6-4.5,4.6s-2.1,4.3-2.7,6.9
	s-0.9,5.1-0.9,7.7c0,1.1,0.1,2.3,0.3,3.5s0.6,2.4,1.1,3.5c0.4,0.9,1,1.6,1.6,2.1c1.7-1,3.2-2.3,4.5-3.9c1.3-1.7,2.4-3.6,3.2-5.7
	c0.8-2.1,1.4-4.2,1.8-6.3C109.8,42,110,40,110,38.2L110,38.2z"/>
<path d="M113,32c-0.5-0.5-1.3-0.9-2.3-1.4c-1.3-0.5-2.7-0.8-4.1-0.8c-2.2,0-4.3,0.7-6.1,2.1c-1.9,1.4-3.5,3.2-4.9,5.4
	s-2.5,4.6-3.3,7.1s-1.2,5-1.2,7.3c0,1.7,0.3,3.4,0.9,5.1c0.6,1.7,1.5,3,2.6,4.1c1.2,1.1,2.6,1.6,4.2,1.6c1.4,0,2.6-0.5,3.8-1.4
	c1.2-1,2.2-2.2,3.2-3.7c0.9-1.4,1.7-2.9,2.4-4.5c-0.1,1-0.1,1.9-0.1,2.9s0.1,2.1,0.4,3.1c0.2,1.1,0.7,2.3,1.3,3.5l5.9-1.2L111.6,51
	l6.1-20.3L113,32L113,32z M107.6,50.3c-0.8,2.1-1.9,4-3.2,5.7c-1.2,1.6-2.8,2.9-4.5,3.9c-0.6-0.5-1.2-1.2-1.6-2.1
	c-0.5-1-0.9-2.2-1.1-3.5s-0.3-2.5-0.3-3.5c0-2.6,0.3-5.2,0.9-7.7s1.5-4.8,2.7-6.9c1.2-2,2.7-3.6,4.5-4.6c1.8,0.5,3.1,1.2,3.8,2.3
	s1.2,2.5,1.2,4.4s-0.2,3.8-0.6,5.9C109,46.2,108.4,48.2,107.6,50.3L107.6,50.3z"/>
<path d="M141.9,31.5c-1.1-1.1-2.6-1.6-4.3-1.6c-1.4,0-2.6,0.5-3.8,1.4c-1.2,0.9-2.2,2.2-3.2,3.7c-0.9,1.3-1.6,2.7-2.3,4.1
	c0-0.3,0-0.5,0.1-0.8c0-0.5,0-1.1,0-1.5c0-1-0.1-2-0.3-3.2s-0.6-2.2-1.2-3.1l-5.9,2.8l3.7,8.8l-3,10.3c-0.3,1.2-0.7,2.6-1.2,4.3
	s-0.9,3.4-1.3,5.2s-0.5,3.6-0.5,5.3c0,1.5,0.1,2.9,0.4,4.1s0.8,2.4,1.4,3.5l6.4-1.2l-3.9-7.7c0-1.2,0-2.5,0-3.8c0-0.8,0-1.6,0.1-2.4
	c0.4,0.3,0.8,0.7,1.3,1.1c0.8,0.5,1.7,1,2.7,1.4s2,0.5,2.9,0.5c2.2,0,4.3-0.7,6.1-2.1c1.9-1.4,3.5-3.2,4.9-5.4s2.5-4.6,3.3-7.2
	c0.8-2.6,1.2-5,1.2-7.3c0-1.7-0.3-3.4-0.9-5C144,33.9,143.1,32.5,141.9,31.5L141.9,31.5z M138.7,49.3c-0.6,2.6-1.5,4.9-2.7,6.9
	s-2.7,3.6-4.5,4.6c-1.7-0.4-3-1.2-3.8-2.3s-1.2-2.6-1.2-4.4c0-2,0.2-4.1,0.6-6.2s1.1-4.2,1.9-6.2s2-3.8,3.3-5.5
	c1.2-1.5,2.7-2.8,4.3-3.8c0.7,0.5,1.2,1.2,1.6,2.1c0.5,1.1,0.8,2.2,1.1,3.5s0.3,2.4,0.3,3.5C139.6,44.1,139.3,46.7,138.7,49.3
	L138.7,49.3z"/>
<path d="M92.6,30.3c-0.5-0.3-1.2-0.4-1.9-0.4c-1.2,0-2.5,0.5-3.7,1.5c-1.2,1-2.3,2.3-3.3,3.8c-0.7,1.1-1.3,2.2-1.9,3.2
	c0-1.5,0-2.9-0.2-4.3c-0.2-1.7-0.5-3-1-3.8l-5.9,2.8l3.8,9c-0.8,1.2-1.6,2.5-2.3,3.9c-0.8,1.7-1.4,3.3-1.9,4.9
	c-0.5,1.6-0.7,3.1-0.7,4.4c0,1.5,0.1,2.8,0.3,4s0.5,2.2,0.9,3.2l6.1-1.2c-0.5-1.5-0.9-3-1.1-4.4s-0.4-3-0.4-4.6s0.2-3.5,0.6-5.2
	s1-3.3,1.7-4.9c0.7-1.5,1.4-2.9,2.2-4c0.8-1.2,1.5-2,2.2-2.6l4.4,2h0.1l3.6-6.5C93.6,30.8,93.1,30.5,92.6,30.3L92.6,30.3z"/>
<path d="M154,47.8l15.7-6.9c0.3-0.6,0.6-1.3,0.8-2s0.3-1.4,0.3-2.2c0-1.4-0.4-2.6-1.1-3.6c-0.7-1-1.6-1.8-2.8-2.4
	c-1.1-0.6-2.4-0.9-3.8-0.9c-1.9,0-3.7,0.6-5.5,1.8c-1.8,1.2-3.4,2.8-4.8,4.8s-2.5,4.1-3.3,6.5s-1.2,4.7-1.2,7c0,3.7,0.9,6.7,2.6,9
	s4.2,3.5,7.5,3.5c1.1,0,2.2-0.3,3.4-1s2.4-1.6,3.6-2.7s2.3-2.2,3.3-3.5l-3.4-2.9l-6.1,8.6c-1.2-0.3-2.2-0.9-2.9-1.9
	c-0.9-1.2-1.5-2.7-1.9-4.5s-0.5-3.8-0.5-5.9C153.9,48.4,153.9,48.1,154,47.8C154,47.9,154,47.9,154,47.8L154,47.8z M155.9,39.2
	c0.9-2.3,1.9-4.2,3.1-5.6c1-1.1,2.1-1.9,3.3-2.2c0.6,0.3,1.2,0.8,1.7,1.4c0.7,0.9,1.1,2.2,1.1,3.8c0,1.2-0.2,2.2-0.7,3
	s-1.2,1.4-2.1,1.9l-8.1,4.7C154.6,43.6,155.1,41.2,155.9,39.2L155.9,39.2z"/>
<path d="M66.6,22.9c-1.2-1.6-2.9-2.8-5.1-3.8s-4.8-1.4-8-1.4c-1.2,0-2.6,0.1-4.3,0.2s-3.2,0.3-4.8,0.5s-3,0.4-4.2,0.5l1.3,7.9
	l-8.2,35.4h3.1c1.2,0,2.6,0,4,0s2.7,0,4-0.1s2.3,0,3-0.1c3.8-0.2,7-1.2,9.9-2.8c2.8-1.6,5.2-3.8,7.1-6.4c1.9-2.6,3.3-5.5,4.3-8.7
	c0.9-3.2,1.4-6.5,1.4-9.9c0-2.1-0.3-4.1-0.8-6C68.8,26.2,67.9,24.5,66.6,22.9L66.6,22.9z M62.7,42.8c-0.6,2.7-1.6,5.3-2.8,7.8
	s-3,4.6-5.1,6.3s-4.6,2.9-7.6,3.4c-0.6-0.1-1.4-0.3-2.3-0.7c-0.9-0.3-1.8-0.7-2.8-1.1c-0.7-0.3-1.3-0.6-1.9-0.9l7.5-37.3
	c0.3,0,0.5,0,0.8-0.1c1.1-0.1,2.2-0.1,3.5-0.1c2.1,0,3.9,0.4,5.4,1.3s2.7,2,3.6,3.5c0.9,1.5,1.6,3.1,2,4.9s0.6,3.6,0.6,5.4
	C63.6,37.5,63.3,40,62.7,42.8L62.7,42.8z"/>
</svg>
