<svg width="277" height="90" viewBox="0 0 277 90" fill="none" xmlns="http://www.w3.org/2000/svg">
<path d="M203.478 49.6155C205.674 47.18 207.717 43.5722 207.717 38.8605C207.717 33.3635 204.343 31.167 200.769 31.167C197.195 31.167 194.333 33.17 192.683 36.3453C192.916 33.9098 193.468 32.4189 194.879 31.7531H184.676C187.032 32.8514 187.032 36.3453 187.032 42.6617C187.032 48.9782 187.032 52.4323 184.676 53.5305H194.879C192.762 52.5518 192.563 49.5643 192.523 44.3461C193.149 39.7539 196.017 35.9072 198.373 35.9072C200.257 35.9072 201.867 37.5574 201.867 41.2448C201.867 46.0305 198.965 52.3924 196.649 53.5305H208.542V44.1128C208.149 45.9565 206.033 48.5855 203.478 49.6098V49.6155Z" fill="#231F20"/>
<path d="M77.3368 31.5597C74.042 31.5597 70.8212 31.7532 66.542 31.7532C68.8978 32.8515 68.8978 36.3454 68.8978 42.622C68.8978 48.8986 68.8978 52.4324 66.542 53.5306C70.8212 53.5306 74.0363 53.7241 77.3368 53.7241C82.7143 53.7241 88.7974 50.1106 88.7974 42.3432C88.7974 35.0423 82.7143 31.5483 77.3368 31.5483V31.5597ZM77.223 49.809C76.3182 49.809 75.5728 49.7692 74.6338 49.6497C74.4005 47.0606 74.4005 44.8982 74.4005 42.622C74.4005 39.8735 74.4005 38.2289 74.6338 35.6341C75.5785 35.5146 76.3239 35.4748 77.223 35.4748C80.165 35.4748 82.72 37.3185 82.72 43.0488C82.72 48.2669 80.1707 49.7977 77.223 49.7977V49.809Z" fill="#231F20"/>
<path d="M159.166 42.5881H148.963C151.319 43.6863 151.672 45.3764 151.672 46.3552C151.672 48.711 149.908 50.0426 147.745 50.0426C145.156 50.0426 142.248 47.9257 142.248 42.7816C142.248 37.6374 145.503 35.088 148.843 35.088C151.706 35.088 154.614 36.8919 155.439 40.6988H155.518V33.2785C153.908 31.9071 151.478 31.1616 148.883 31.1616C142.959 31.1616 136.165 34.8889 136.165 43.1344C136.165 51.3799 142.914 54.1227 147 54.1227C149.788 54.1227 152.024 53.178 153.788 51.2205C155.086 52.5521 156.81 53.5365 158.733 53.5365C156.969 50.2019 156.77 48.5119 156.77 47.1405C156.77 45.6894 156.81 43.6863 159.166 42.5881Z" fill="#231F20"/>
<path d="M104.691 34.4276C104.691 33.3294 104.924 32.3847 105.437 31.7588H93.4297C93.902 32.3108 94.0955 33.2099 94.0955 34.3081C94.0955 38.2744 91.586 44.9834 90.4081 48.0847C89.8561 49.5358 88.9172 51.7323 87.4263 53.5419H95.6262C94.4085 52.9899 94.0557 51.8917 94.0557 50.7934C94.0557 49.9683 94.2491 49.1432 94.4483 48.557L95.0003 46.9466C95.979 46.9068 97.3561 46.867 98.7275 46.867C100.179 46.867 101.67 46.9068 102.654 46.9865L103.24 48.5172C103.593 49.5358 103.826 50.4406 103.826 51.2259C103.826 52.2046 103.473 52.9899 102.455 53.5419H111.912C110.501 51.738 109.517 49.5756 108.891 48.0847C106.774 43.2194 104.691 37.8817 104.691 34.4276ZM98.7275 42.9406L96.4514 42.9007C97.3163 40.505 98.2154 38.0752 98.6877 36.425C99.0803 37.7565 100.059 40.2717 101.083 42.9007L98.7275 42.9406Z" fill="#231F20"/>
<path d="M172.197 31.167C166.347 31.167 160.344 35.1674 160.344 43.0601C160.344 50.3211 165.841 54.128 170.82 54.128C176.67 54.128 182.713 50.1276 182.713 42.2748C182.713 34.9739 177.216 31.167 172.197 31.167ZM171.531 50.1618C168.51 50.1618 166.427 47.1003 166.427 42.5878C166.427 38.0752 168.51 35.1332 171.531 35.1332C174.28 35.1332 176.636 38.1947 176.636 42.5878C176.636 46.9808 174.28 50.1618 171.531 50.1618Z" fill="#231F20"/>
<path d="M131.931 47.8456C130.674 47.8456 129.695 46.901 128.91 45.6889C131.385 44.5508 133.229 42.3543 133.229 38.7807C133.229 32.9309 128.05 31.7529 124.243 31.7529H113.295C115.651 32.8512 115.651 36.3451 115.651 42.6217C115.651 48.8983 115.651 52.4321 113.295 53.5303H123.498C121.654 52.6654 121.262 50.429 121.182 46.5026C121.927 46.6221 122.752 46.6961 123.578 46.6961C124.835 49.951 126.992 54.1165 130.213 54.1165C133.433 54.1165 134.412 50.742 134.412 46.1896C133.786 46.9749 133.041 47.8399 131.937 47.8399L131.931 47.8456ZM123.652 42.7867C122.707 42.7867 121.535 42.5933 121.142 42.4339C121.142 40.7097 121.142 37.6824 121.415 35.685H123.219C125.968 35.685 127.146 37.1361 127.146 39.179C127.146 40.8292 126.127 42.7924 123.652 42.7924V42.7867Z" fill="#231F20"/>
</svg>
