<svg width="277" height="90" viewBox="0 0 277 90" fill="none" xmlns="http://www.w3.org/2000/svg">
<path d="M198.872 54.8702C198.352 54.8702 198.032 54.3502 198.032 53.1802C198.032 46.9402 207.262 23.9302 212.852 12.3002L213.632 10.6802L212.922 10.7502C206.942 11.2702 204.212 11.7902 202.332 16.8602L195.242 36.1602H195.052L194.922 35.5702C194.212 32.1202 192.252 29.5302 188.742 29.5302C180.812 29.5302 171.912 43.1202 171.912 53.5102C171.912 58.6502 174.122 62.0302 178.152 62.0302C181.342 62.0302 185.562 59.8802 189.722 53.8402L190.892 52.1502L191.152 52.2802C190.702 53.9002 190.372 55.7302 190.372 57.1602C190.372 60.3402 192.062 62.0402 194.732 62.0402C197.982 62.0402 201.812 59.5102 204.802 51.3802L202.722 50.4002C200.702 53.9802 199.602 54.8802 198.892 54.8802L198.872 54.8702ZM182.692 54.8702C181.072 54.8702 180.352 53.2502 180.352 51.1702C180.352 45.2502 184.702 36.0202 189.772 36.0202C192.372 36.0202 193.022 38.5502 193.022 40.2402C193.022 45.5102 186.462 54.8602 182.692 54.8602V54.8702Z" fill="#231F20"/>
<path d="M77.982 42.0698C76.362 40.6398 75.182 39.4098 75.182 38.1098C75.182 36.7398 76.482 35.6998 78.762 35.6998C81.622 35.6998 84.222 37.2598 85.002 39.2098L85.132 39.5398H85.262L85.842 38.3698C87.402 34.9298 87.922 29.5298 81.162 29.5298C74.402 29.5298 68.032 34.7998 68.032 40.1898C68.032 43.5698 70.372 46.1698 72.842 48.4498C75.122 50.5298 76.282 51.9598 76.282 53.4598C76.282 54.9598 75.112 55.9298 72.382 55.9298C68.872 55.9298 66.142 54.3098 65.162 51.7698L65.032 51.5098H64.902L64.582 52.2298C62.172 57.1698 63.412 62.0498 70.112 62.0498C77.202 62.0498 83.302 56.4598 83.302 50.9398C83.302 48.7898 83.112 46.6498 77.972 42.0998L77.982 42.0698Z" fill="#231F20"/>
<path d="M129.972 48.24C141.082 46.62 147.192 40.96 147.192 35.5C147.192 31.6 144.002 29.52 140.112 29.52C130.882 29.52 120.872 41.61 120.872 51.94C120.872 57.86 124.182 62.02 129.902 62.02C136.012 62.02 139.592 56.88 141.862 50.71L139.782 49.74C137.962 52.99 135.622 54.87 133.022 54.87C130.422 54.87 128.992 52.86 128.992 49.22V48.37L129.962 48.24H129.972ZM137.252 36.09C138.752 36.09 140.052 37 140.052 38.49C140.052 41.16 135.952 43.82 130.692 44.86L129.592 45.06C130.822 40.32 134.012 36.09 137.262 36.09H137.252Z" fill="#231F20"/>
<path d="M155.652 48.24C166.762 46.62 172.882 40.96 172.882 35.5C172.882 31.6 169.692 29.52 165.792 29.52C156.562 29.52 146.552 41.61 146.552 51.94C146.552 57.86 149.872 62.02 155.592 62.02C161.702 62.02 165.282 56.88 167.552 50.71L165.472 49.74C163.652 52.99 161.312 54.87 158.712 54.87C156.112 54.87 154.682 52.86 154.682 49.22V48.37L155.652 48.24ZM162.932 36.09C164.422 36.09 165.732 37 165.732 38.49C165.732 41.16 161.632 43.82 156.372 44.86L155.272 45.06C156.502 40.32 159.692 36.09 162.942 36.09H162.932Z" fill="#231F20"/>
<path d="M118.542 36.0899C118.542 32.3199 116.592 29.5199 112.692 29.5199C108.792 29.5199 105.542 32.1799 101.252 37.7099L99.9522 39.3999L99.6922 39.2699L99.8222 38.8799C101.582 33.5499 107.622 18.9899 110.672 12.3599L111.452 10.6699L110.742 10.7399C104.762 11.2599 101.842 11.7099 99.9522 17.4299L99.3622 19.1899C94.6822 33.2299 86.1722 57.0899 84.6722 60.5299L84.0222 62.0199H84.3422C91.8822 62.0199 93.3822 61.1699 95.1322 56.6199L97.2822 50.8399C100.592 41.9299 105.142 36.6699 108.392 36.6699C109.882 36.6699 110.732 37.7699 110.732 39.6599C110.732 43.0399 108.002 46.6799 103.902 46.6799C102.932 46.6799 102.012 46.4899 101.432 46.0999L101.242 45.9699L101.052 46.0999L101.372 49.4199C102.212 58.0599 103.972 62.0299 107.612 62.0299C110.472 62.0299 114.952 59.5599 117.942 51.3699L115.862 50.3899C113.842 53.9699 112.682 54.8699 111.902 54.8699C110.542 54.8699 109.622 52.1399 108.912 48.5699L108.842 48.2399L109.492 47.9799C116.052 45.3799 118.522 40.3699 118.522 36.0799L118.542 36.0899Z" fill="#231F20"/>
</svg>
