<svg width="277" height="90" viewBox="0 0 277 90" fill="none" xmlns="http://www.w3.org/2000/svg">
<path d="M130.956 35.6407C132.999 34.9159 134.466 34.191 135.353 33.4661C134.826 31.2615 134.449 29.5602 134.215 28.374C132.304 29.5961 130.686 30.5486 129.368 31.2436C129.668 31.8366 129.961 32.5615 130.261 33.4182C130.561 34.2748 130.788 35.0177 130.956 35.6407Z" fill="#231F20"/>
<path d="M83.0664 35.7425L83.0125 36.4853L83.3539 35.7065L83.0664 35.7425Z" fill="#231F20"/>
<path d="M114.793 37.2764L111.133 40.6371L112.571 40.7809L115.734 37.4201L114.793 37.2764Z" fill="#231F20"/>
<path d="M160.706 41.5475C162.024 40.3434 163.587 39.283 165.402 38.3605C164.905 38.0669 164.108 37.7434 163.006 37.396C161.904 37.0485 160.856 36.8089 159.867 36.6771L159.274 37.2702C157.824 38.7199 156.309 40.0438 154.727 41.248C153.145 42.4521 151.318 43.6802 149.24 44.9322C151.444 41.7033 153.852 38.8038 156.458 36.2338C159.058 33.6638 162.209 31.4712 165.9 29.662C164.12 28.7694 162.06 28.1164 159.723 27.6851C157.549 29.039 155.398 31.0458 153.271 33.7177C151.145 36.3895 148.635 39.8461 145.735 44.0995L143.315 47.6101C140.877 48.5326 139.229 49.3474 138.372 50.0543C137.516 50.7612 137.084 51.498 137.084 52.2528C137.084 53.0077 137.564 53.5528 138.516 53.9842C139.475 54.4095 140.757 54.7749 142.374 55.0745C143.267 54.056 144.567 52.1929 146.28 49.4911L148.257 46.4239L155.476 42.4701C153.858 44.9083 152.289 46.9511 150.755 48.5985C149.222 50.246 147.221 51.7436 144.753 53.0975C146.005 54.056 147.868 54.7929 150.336 55.3201C151.031 54.5952 151.648 53.8344 152.187 53.0436C152.726 52.2528 153.463 51.1326 154.386 49.6828C155.506 47.8737 156.512 46.364 157.399 45.1599C158.291 43.9558 159.394 42.7576 160.712 41.5535L160.706 41.5475ZM140.415 51.2883C139.804 51.9294 139.301 52.2528 138.906 52.2528C138.744 52.2528 138.6 52.2049 138.486 52.1031C138.372 52.0072 138.313 51.8874 138.313 51.7556C138.313 51.3303 138.75 50.7911 139.625 50.1501C140.499 49.5091 141.512 48.958 142.662 48.4967C141.769 49.7188 141.02 50.6473 140.415 51.2883Z" fill="#231F20"/>
<path d="M143.405 37.2763L141.476 37.3721C140.319 37.3721 139.343 37.2882 138.534 37.1265C137.725 36.9647 136.695 36.6652 135.443 36.2339L134.502 37.1265C133.083 38.4145 131.95 39.5827 131.094 40.637C133.005 40.1099 134.616 39.8463 135.94 39.8463C136.893 39.8463 137.821 40.1099 138.708 40.637C138.079 42.7158 136.959 44.7886 135.347 46.8673C133.202 49.671 131.441 51.0848 130.057 51.1207C129.728 51.1207 129.482 51.0249 129.314 50.8212C129.147 50.6235 129.069 50.3959 129.069 50.1323C129.135 48.5507 131.393 45.3876 135.838 40.643C134.323 40.9725 132.525 41.4697 130.453 42.1287C129.464 43.1172 128.5 44.1656 127.559 45.2678C126.619 46.3701 125.756 47.4365 124.965 48.4549C123.48 50.336 122.168 51.9055 121.011 53.1755C119.861 54.4456 118.423 55.7455 116.71 57.0815C114.997 58.4174 112.924 59.7234 110.48 61.0114C111.6 62.0657 113.691 62.8924 116.758 63.4855C117.351 62.9583 118.058 62.1915 118.885 61.1851C119.711 60.1786 120.766 58.8188 122.048 57.1054C124.091 54.4695 125.624 52.5285 126.643 51.2705C126.511 51.7018 126.445 52.1451 126.445 52.6064C126.445 53.3313 126.667 53.9603 127.11 54.4875C127.553 55.0147 128.14 55.2783 128.865 55.2783C130.842 55.2783 132.945 54.2599 135.167 52.211C137.39 50.1682 139.283 47.712 140.852 44.8485C142.416 41.979 143.267 39.4629 143.399 37.2882L143.405 37.2763Z" fill="#231F20"/>
<path d="M117.83 53.1395C118.375 52.3188 119.022 51.2465 119.783 49.9285C120.874 48.0474 121.862 46.4659 122.749 45.1839C123.641 43.8959 124.774 42.6498 126.157 41.4277C127.541 40.2116 129.171 39.1872 131.052 38.3605C130.063 37.9352 129.141 37.6057 128.284 37.372C127.427 37.1444 126.325 36.9108 124.971 36.6831C124.444 37.1743 123.857 37.8633 123.216 38.7319C122.575 39.6066 121.94 40.5052 121.311 41.4277C119.562 44.0636 117.848 46.3221 116.171 48.1972C114.488 50.0783 112.385 51.7077 109.845 53.0916C111.133 54.0142 113.205 54.757 116.075 55.3141C116.698 54.6851 117.285 53.9662 117.83 53.1395Z" fill="#231F20"/>
<path d="M107.724 52.7442C107.724 51.6539 108.515 50.0603 110.096 47.9516C111.678 45.8429 113.655 43.5724 116.027 41.1282L115.284 41.0803L112.565 40.7808L111.924 41.4757L109.503 44.0457C106.867 46.8793 104.998 48.988 103.896 50.3718C102.794 51.7557 102.243 52.9119 102.243 53.8345C102.243 54.757 102.476 55.398 102.938 55.7635C104.915 55.3321 106.658 54.8708 108.179 54.3796C108.048 54.152 107.94 53.9004 107.856 53.6368C107.772 53.3732 107.73 53.0796 107.73 52.7442H107.724Z" fill="#231F20"/>
<path d="M187.837 50.2222C188.988 48.3411 190.03 46.7536 190.953 45.4536C191.875 44.1536 193.043 42.8596 194.463 41.5716C195.877 40.2836 197.53 39.2173 199.405 38.3606C198.746 38.0671 197.854 37.7436 196.734 37.3961C195.613 37.0487 194.559 36.809 193.57 36.6772L192.977 37.2703C191.36 38.8878 189.665 40.3435 187.885 41.6435C186.106 42.9435 183.979 44.3214 181.511 45.7711C182.464 44.1596 183.626 42.7039 184.998 41.4219C186.364 40.1339 188.203 38.9477 190.509 37.8634C188.43 37.2044 186.358 36.809 184.279 36.6772C183.29 37.468 182.296 38.5883 181.29 40.038C180.283 41.4878 179.043 43.4467 177.557 45.9209L176.521 47.6522C174.28 48.5448 172.759 49.3475 171.95 50.0724C171.141 50.7973 170.74 51.5222 170.74 52.247C170.74 52.9719 171.183 53.5889 172.076 54.0023C172.969 54.4157 174.203 54.7691 175.784 55.0627C176.641 54.17 177.366 53.2535 177.959 52.295C178.552 51.3424 179.175 50.1862 179.84 48.8323L180.828 46.9513C182.937 45.8969 185.705 44.4172 189.131 42.5002C187.55 44.8725 185.968 46.8914 184.387 48.5568C182.805 50.2222 180.726 51.7258 178.156 53.0797C179.672 54.0382 181.697 54.7751 184.237 55.3023C184.794 54.7392 185.339 54.0862 185.866 53.3254C186.394 52.5705 187.053 51.5282 187.843 50.2102L187.837 50.2222ZM173.951 51.3364C173.424 51.9475 172.963 52.253 172.567 52.253C172.405 52.253 172.262 52.2051 172.148 52.1033C172.034 52.0074 171.974 51.8876 171.974 51.7558C171.974 51.3305 172.375 50.8093 173.184 50.1982C173.993 49.5872 174.904 49.054 175.928 48.5927C175.137 49.8148 174.478 50.7254 173.951 51.3364Z" fill="#231F20"/>
<path d="M206.175 48.4907L203.455 48.5926C202.994 48.958 202.119 49.4313 200.837 50.0243C199.549 50.6174 198.165 51.2285 196.686 51.8515C198.824 51.3902 200.795 50.8211 202.593 50.1442C204.39 49.4672 205.582 48.9161 206.175 48.4907Z" fill="#231F20"/>
<path d="M162.042 53.0915C163.725 53.0915 165.45 52.9298 167.229 52.5943C169.668 50.8151 171.884 48.7483 173.879 46.3939C175.874 44.0396 176.869 41.9369 176.869 40.0917C176.869 39.1392 176.557 38.3365 175.928 37.6955C175.299 37.0545 174.43 36.731 173.31 36.731C171.165 36.731 168.823 37.6356 166.265 39.4507C163.713 41.2659 161.544 43.4106 159.765 45.9027C157.986 48.3888 157.093 50.4916 157.093 52.2049C157.093 53.2593 157.459 54.056 158.184 54.6012C158.908 55.1463 159.879 55.4159 161.101 55.4159C161.826 55.4159 162.641 55.2901 163.545 55.0445C164.45 54.7989 165.235 54.4754 165.894 54.08C164.144 54.1159 162.934 53.9062 162.263 53.4629C161.586 53.0196 161.251 52.4685 161.251 51.8095C161.251 50.9229 161.934 49.563 163.3 47.7299C164.665 45.9027 166.193 44.2313 167.871 42.7157C169.554 41.2 170.752 40.4392 171.477 40.4392C171.705 40.4392 171.902 40.5111 172.07 40.6608C172.232 40.8106 172.316 41.0323 172.316 41.3258C172.316 42.3143 171.201 44.0516 168.979 46.5377C166.756 49.0238 164.438 51.2104 162.036 53.0855L162.042 53.0915Z" fill="#231F20"/>
<path d="M211.71 38.7079C211.081 37.7853 210.524 37.1443 210.027 36.7789C208.212 40.571 206.223 43.6502 204.048 46.0225C201.874 48.3948 199.369 49.8266 196.536 50.3238L197.476 48.8921C198.165 47.7718 198.812 46.8253 199.405 46.0525C199.998 45.2797 200.819 44.4709 201.88 43.6322C202.934 42.7936 204.252 42.0267 205.833 41.3318C205.073 39.0913 204.3 37.3959 203.509 36.2397C202.059 37.0006 200.723 38.1448 199.507 39.6724C198.285 41.206 196.823 43.3028 195.11 45.9746C194.056 47.622 193.139 48.9879 192.366 50.0782C191.594 51.1685 190.809 52.0731 190.018 52.798C192.229 52.6962 194.451 52.3846 196.692 51.8575C198.177 51.2344 199.561 50.6234 200.843 50.0303C202.131 49.4372 203 48.958 203.461 48.5985L206.181 48.4967C205.588 48.928 204.396 49.4792 202.598 50.1501C200.801 50.8271 198.836 51.3962 196.692 51.8575C193.001 53.5049 190.054 55.0505 187.843 56.5062C185.639 57.956 184.549 59.4237 184.578 60.9034C185.076 61.6942 185.896 62.3771 187.053 62.9522C188.209 63.5273 189.341 63.8149 190.461 63.8149C191.683 63.8149 193.211 63.5093 195.056 62.8983C196.901 62.2872 198.417 61.6402 199.603 60.9453C199.603 59.9209 199.543 59.0343 199.429 58.2735C199.316 57.5127 199.124 56.674 198.86 55.7514C198.267 56.4763 197.345 57.297 196.093 58.2256C194.841 59.1481 193.582 59.9389 192.312 60.5979C191.042 61.2568 190.078 61.5863 189.419 61.5863H189.371C189.736 60.3642 190.359 59.2799 191.252 58.3214C192.145 57.3629 193.145 56.5362 194.265 55.8233C195.386 55.1164 196.901 54.2358 198.812 53.1814C200.987 51.9952 202.814 50.9229 204.3 49.9704C205.785 49.0179 207.307 47.8377 208.871 46.4359C210.434 45.0341 211.86 43.3986 213.148 41.5175C212.819 40.565 212.339 39.6245 211.716 38.7019L211.71 38.7079Z" fill="#231F20"/>
<path d="M116.027 41.1282L117.016 40.0918L118.843 38.4084L119.681 37.7135C118.393 37.7135 117.075 37.6176 115.728 37.4199L112.564 40.7807L115.284 41.0802L116.027 41.1282Z" fill="#231F20"/>
<path d="M83.0663 36.9287L82.9644 37.1743L82.7188 37.0245C81.7962 38.8397 80.5681 40.7987 79.0345 42.9074C77.5009 45.0161 75.9194 46.8972 74.2899 48.5446C72.6604 50.192 71.2167 51.2823 69.9646 51.8095C69.5033 50.5934 69.2697 49.3354 69.2697 48.0534C69.2697 45.4175 70.0545 42.7217 71.6181 39.9719C73.1816 37.2222 75.1705 35.0356 77.5728 33.4241C80.0769 31.7108 82.599 30.8541 85.133 30.8541C86.9123 30.8541 88.6076 31.3154 90.2251 32.238C90.0574 31.5131 89.7459 30.6385 89.2846 29.62C88.8233 28.6016 88.2602 27.6132 87.6012 26.6546C87.1699 26.5588 86.6127 26.5049 85.9178 26.5049C83.4437 26.5049 80.7958 27.3316 77.9622 28.979C75.3263 30.5306 72.936 32.5435 70.7973 35.0356C68.6527 37.5217 66.9753 40.1816 65.7532 43.0152C64.5311 45.8488 63.926 48.5506 63.926 51.1206C63.926 52.9657 64.2256 54.5473 64.8186 55.8652C67.4545 55.1703 70.0006 53.8284 72.4568 51.8395C74.9129 49.8446 77.1115 47.5741 79.0525 45.0161C80.9935 42.4641 82.593 39.936 83.845 37.4319L83.6953 37.384C83.2999 37.2522 83.0842 37.1024 83.0543 36.9407L83.0663 36.9287Z" fill="#231F20"/>
<path d="M83.0665 36.9287C83.0006 36.731 82.9826 36.5812 83.0185 36.4854L82.719 37.0305L82.9646 37.1803L83.0665 36.9347V36.9287Z" fill="#231F20"/>
<path d="M83.4618 35.6948L83.0664 36.9289C83.0964 37.0966 83.312 37.2404 83.7074 37.3722L83.8572 37.4201L84.7498 35.5391L83.4618 35.6888V35.6948Z" fill="#231F20"/>
<path d="M83.8572 34.4067L83.36 35.6947L83.354 35.7067L83.4618 35.6947L83.8572 34.4067Z" fill="#231F20"/>
<path d="M83.0664 36.9289L83.4618 35.6948L83.3599 35.7068L83.0184 36.4856C82.9825 36.5814 83.0005 36.7312 83.0664 36.9289Z" fill="#231F20"/>
<path d="M123.887 34.7544C122.072 34.7544 120.029 34.8862 117.758 35.1498L115.734 37.4262C117.082 37.6239 118.405 37.7198 119.687 37.7198C121.233 36.5336 122.635 35.5452 123.887 34.7544Z" fill="#231F20"/>
<path d="M117.016 40.092L116.027 41.1284L118.351 41.2243L123.096 37.564C121.808 37.6658 120.676 37.7137 119.687 37.7137L118.849 38.4087L117.022 40.092H117.016Z" fill="#231F20"/>
<path d="M88.3023 40.9543C90.2433 38.8635 92.358 37.1742 94.6284 35.8862C94.4967 34.1069 94.1372 32.3756 93.5381 30.6982C90.6686 33.2682 88.5958 34.5562 87.3078 34.5562C86.5171 34.5562 86.1217 34.077 86.1217 33.1245C86.1217 32.5973 86.2175 32.118 86.4152 31.6927C84.8337 32.6153 83.7973 33.2323 83.3001 33.5438C82.8028 33.8553 82.2637 34.3106 81.6706 34.9037C81.6706 35.8263 82.0181 36.5332 82.707 37.0304L83.0065 36.4852L83.0544 35.7424L83.348 35.7065V35.6945L83.8452 34.4065L83.4498 35.6945L84.7378 35.5447L83.8452 37.4258C84.1747 37.4917 84.4383 37.5216 84.636 37.5216C85.5885 37.5216 86.6608 37.2101 87.847 36.5811C86.7926 37.6355 85.7023 38.8875 84.5821 40.3373C83.4618 41.787 82.078 43.6801 80.4305 46.0224C78.813 48.233 77.4232 50.1021 76.255 51.6297C75.0868 53.1633 73.9726 54.4573 72.9182 55.5117C73.5772 55.6734 74.5177 55.7573 75.7338 55.7573C76.6564 55.7573 77.585 55.7093 78.5255 55.6075C79.466 55.5057 80.2149 55.3918 80.772 55.26C81.1973 52.8218 82.072 50.3537 83.3899 47.8436C84.7079 45.3395 86.3373 43.0391 88.2843 40.9483L88.3023 40.9543Z" fill="#231F20"/>
<path d="M106.981 41.5716C108.395 40.2836 110.048 39.2173 111.923 38.3606C111.265 38.0671 110.372 37.7436 109.252 37.3961C108.131 37.0487 107.077 36.809 106.089 36.6772L105.495 37.2703C103.878 38.8878 102.183 40.3435 100.403 41.6435C98.6242 42.9435 96.4975 44.3214 94.0293 45.7711C94.9818 44.1596 96.144 42.7039 97.5159 41.4219C98.8818 40.1339 100.721 38.9477 103.027 37.8634C100.949 37.2044 98.8758 36.809 96.797 36.6772C95.8085 37.468 94.8141 38.5883 93.8076 40.038C92.8012 41.4878 91.5611 43.4467 90.0755 45.9209L89.0391 47.6522C86.7986 48.5448 85.2769 49.3475 84.4682 50.0724C83.6594 50.7973 83.2581 51.5222 83.2581 52.247C83.2581 52.9719 83.7014 53.5889 84.594 54.0023C85.4866 54.4157 86.7207 54.7691 88.3022 55.0627C89.1589 54.17 89.8837 53.2535 90.4768 52.295C91.0699 51.3424 91.6929 50.1862 92.3579 48.8323L93.3464 46.9513C95.4551 45.8969 98.2228 44.4172 101.649 42.5002C100.068 44.8725 98.4864 46.8914 96.9048 48.5568C95.3233 50.2222 93.2445 51.7258 90.6745 53.0797C92.1902 54.0382 94.215 54.7751 96.7551 55.3023C97.3122 54.7392 97.8574 54.0862 98.3845 53.3254C98.9117 52.5705 99.5707 51.5282 100.361 50.2102C101.512 48.3291 102.554 46.7416 103.477 45.4416C104.399 44.1416 105.567 42.8477 106.987 41.5597L106.981 41.5716ZM86.4751 51.3364C85.9479 51.9475 85.4866 52.253 85.0912 52.253C84.9295 52.253 84.7857 52.2051 84.6719 52.1033C84.558 52.0074 84.4981 51.8876 84.4981 51.7558C84.4981 51.3305 84.8995 50.8093 85.7082 50.1982C86.517 49.5872 87.4276 49.054 88.452 48.5927C87.6612 49.8148 87.0022 50.7254 86.4751 51.3364Z" fill="#231F20"/>
</svg>
