<svg width="276" height="90" viewBox="0 0 276 90" fill="none" xmlns="http://www.w3.org/2000/svg">
<path d="M90.7283 20.2441L87.5445 11.8584H87.2661C84.9696 14.6681 80.0026 19.2611 77.332 21.4185L77.8453 22.732L90.737 20.2441H90.7283Z" fill="#231F20"/>
<path d="M126.202 40.347C126.202 35.4757 123.436 33.3184 119.591 33.3184C116.173 33.3184 112.467 35.1451 111.014 38.7117V34.1622L110.684 33.7881H100.323V34.1622L101.637 38.1897V53.7955L100.889 57.9188V58.2928H111.806V57.9188L111.005 53.7955V41.1908C111.71 40.8168 112.737 40.5819 113.72 40.5819C115.311 40.5819 116.816 41.2343 116.816 43.2525V53.7955L116.016 57.9188V58.2928H126.985V57.9188L126.185 53.7955V40.347H126.202Z" fill="#231F20"/>
<path d="M87.4055 24.5591H76.5842L65.6671 53.9439L63.7446 57.9279V58.302H75.088V57.9279L74.9488 53.9439L75.7926 51.3168H86.1964L86.9967 53.9439L86.6661 57.9279V58.302H99.5057V57.9279L97.5832 53.9439L87.4142 24.5591H87.4055ZM77.9412 44.7057L81.1772 34.7716L84.1783 44.7057H77.9412Z" fill="#231F20"/>
<path d="M140.547 34.1621L140.173 33.7881H129.812V34.1621L131.17 38.3811V53.7955L130.378 57.9187V58.3015H141.295V57.9187L140.547 53.7955V34.1621Z" fill="#231F20"/>
<path d="M135.44 32.4747C138.389 32.4747 140.782 30.2217 140.782 27.2293C140.782 24.2369 138.389 22.0273 135.44 22.0273C132.492 22.0273 130.143 24.3238 130.143 27.2293C130.143 30.1347 132.483 32.4747 135.44 32.4747Z" fill="#231F20"/>
<path d="M185.302 40.347C185.302 35.4757 182.536 33.3184 178.691 33.3184C175.22 33.3184 171.428 35.3365 170.019 39.0335C169.549 35.0929 166.974 33.3184 163.503 33.3184C160.032 33.3184 156.379 35.2408 154.926 38.7986V34.1622L154.595 33.7881H144.235V34.1622L145.549 38.1462V53.7955L144.801 57.9188V58.2928H155.718V57.9188L154.917 53.7955V41.1386C155.622 40.7646 156.648 40.5297 157.631 40.5297C159.223 40.5297 160.728 41.1821 160.728 43.2438V53.7868L159.928 57.9101V58.2841H170.897V57.9101L170.097 53.7868V41.1299C170.801 40.7559 171.828 40.521 172.811 40.521C174.403 40.521 175.908 41.1734 175.908 43.2351V53.7781L175.107 57.9014V58.2754H186.077V57.9014L185.276 53.7781V40.3296L185.302 40.347Z" fill="#231F20"/>
<path d="M211.164 40.956C211.164 35.5627 208.45 33.3184 200.717 33.3184C193.645 33.3184 189.287 35.8497 189.287 41.6606C189.287 45.0357 191.157 46.0622 193.366 46.0622C195.576 46.0622 197.49 45.0792 197.49 43.1133C197.49 41.6606 196.837 40.347 194.723 40.1644C195.376 39.7903 196.976 39.4598 198.568 39.4598C199.977 39.4598 201.143 39.7381 201.517 40.0687C201.891 40.4427 201.935 42.3217 201.935 42.5566V44.8531C200.151 45.3228 197.994 45.836 196.733 46.2623C190.409 48.2804 188.53 50.0115 188.53 53.1518C188.53 56.1007 190.122 58.7712 194.201 58.7712C198.281 58.7712 200.9 57.0837 201.935 55.3004V58.3015H212.434V57.9275L211.173 53.8042V40.9647L211.164 40.956ZM201.935 53.0996C201.369 53.3779 200.717 53.5693 200.108 53.5693C197.855 53.5693 197.063 52.2558 197.063 51.1771C197.063 50.7074 197.203 50.2898 197.342 50.055C198.046 49.4026 200.526 48.7936 201.935 48.6023V53.0996Z" fill="#231F20"/>
</svg>
