<svg width="277" height="90" viewBox="0 0 277 90" fill="none" xmlns="http://www.w3.org/2000/svg">
<path d="M82.5192 40.2313L78.6705 36.7915H67.5999V42.2502H70.6461V45.7002H67.5999V51.1588H80.2805V48.0666L83.6896 51.1588H92.2354V42.2502H94.8779V36.7915H82.5192V40.2313ZM75.4301 46.6406V43.8448H75.6192L78.3332 46.3084L75.425 46.6406H75.4301ZM87.4412 44.4735H87.2674L84.2672 41.7902L87.4412 41.6164V44.4684V44.4735Z" fill="#231F20"/>
<path d="M142.759 44.3253C143.316 44.2793 143.802 44.2128 144.226 44.1106C144.992 43.9317 145.585 43.6762 146.01 43.3439C146.429 43.0117 146.725 42.6079 146.889 42.1275C147.052 41.6471 147.139 41.1155 147.139 40.5277C147.139 39.6333 146.884 38.9177 146.373 38.3708C145.861 37.8291 145.171 37.4304 144.303 37.1748C143.434 36.9193 142.457 36.7915 141.374 36.7915H120.991V42.2502H124.246V45.7768H120.991V51.1588H135.762V47.1108L139.094 51.1588H148.77V45.7359L144.957 46.2164L142.764 44.3202L142.759 44.3253ZM131.52 46.4515V45.3219H134.28L134.944 46.1295L131.525 46.4566L131.52 46.4515ZM139.396 42.8686L135.394 42.5824L131.525 42.8686V41.5653L135.394 41.9486L139.396 41.5653V42.8686Z" fill="#231F20"/>
<path d="M118.052 38.7081C117.132 38.0436 115.931 37.5274 114.448 37.1543C112.966 36.7863 111.172 36.5972 109.066 36.5972H107.073C104.967 36.5972 103.168 36.7812 101.681 37.1543C100.194 37.5274 98.9874 38.0436 98.0623 38.7081C97.1372 39.3725 96.4574 40.1443 96.0332 41.0285C95.6038 41.9076 95.3892 42.8634 95.3892 43.8805C95.3892 44.8976 95.6038 45.9045 96.0332 46.8092C96.4625 47.7138 97.1372 48.5061 98.0623 49.1858C98.9874 49.8605 100.194 50.3921 101.681 50.7754C103.168 51.1587 104.967 51.3478 107.073 51.3478H109.066C111.172 51.3478 112.966 51.1587 114.448 50.7754C115.931 50.3921 117.132 49.8605 118.052 49.1858C118.972 48.5112 119.646 47.7189 120.071 46.8092C120.5 45.9045 120.715 44.9232 120.715 43.8805C120.715 42.8378 120.5 41.9076 120.071 41.0285C119.641 40.1494 118.967 39.3725 118.052 38.7081ZM114.203 44.6267L108.014 44.2996L101.901 44.6267V43.0934L108.014 43.5329L114.203 43.0934V44.6267Z" fill="#231F20"/>
<path d="M198.669 36.7915H186.06V42.0611L189.413 42.1019L185.621 45.7002H182.922V51.1639H195.485V45.7768L191.442 46.1602V44.9539H200.371V46.1602L196.523 45.7768V51.1639H209.489V45.7002H206.177L198.669 36.7915Z" fill="#231F20"/>
<path d="M177.785 42.2555H180.259V36.7969H170.793L167.537 41.2793H167.348L164.072 36.7969H151.427V42.2555H154.013L152.383 45.7055H149.531V51.1642H161.675V46.738L164.818 50.8218H165.028L168.151 46.6051V51.1642H182.155V45.7055H179.303L177.79 42.2555H177.785ZM158.113 46.2984L158.992 43.5027H159.181L161.067 45.9509L158.113 46.2984ZM168.667 45.8998L170.389 43.5742H170.563L171.366 46.3342L168.667 45.8998Z" fill="#231F20"/>
</svg>
