<svg width="360" height="90" viewBox="0 0 360 90" fill="none" xmlns="http://www.w3.org/2000/svg">
<path d="M195.925 32.7318C187.97 32.7318 185.238 36.8575 185.238 43.6876C185.238 48.5722 185.969 54.0087 191.033 54.0087C193.676 54.0087 195.104 51.5802 195.739 49.6968V51.4905C195.739 53.7673 194.221 55.0091 192.551 55.0091C191.213 55.0091 189.122 54.8849 186.783 54.0708L186.328 59.1072C189.391 60.0455 191.64 60.1076 194.89 60.1697C200.871 60.1076 204.238 56.6787 204.238 50.6075V32.9112L200.809 33.063C199.354 32.8215 197.746 32.7318 195.925 32.7318ZM195.739 46.6956C195.739 47.7581 195.435 49.3656 194.855 49.3656C194.124 49.3656 193.731 46.6336 193.731 43.8394C193.731 39.9828 194.276 38.3132 195.614 38.3132H195.739V46.6887V46.6956Z" fill="#231F20"/>
<path d="M242.218 37.4094V58.3552C242.218 58.9002 242.066 59.2935 241.611 59.6591V60.1766H245.074C248.565 60.1766 251.325 58.9347 251.325 53.9811V46.33H254.029V38.3132H251.325V36.4297C251.325 35.6708 251.656 35.3052 252.387 35.3052H254.029V29.8135H249.566C245.316 29.8135 242.218 31.8487 242.218 37.4025V37.4094Z" fill="#231F20"/>
<path d="M233.38 32.58C230.22 32.58 225.701 32.856 222.604 33.4907V40.1415C225.094 39.5067 229.22 38.9893 231.166 38.9893C231.8 38.9893 232.29 39.1135 232.407 40.0794C226.943 40.928 222.086 45.302 222.086 50.7661C222.086 54.8366 223.818 57.2927 227.185 57.2927C229.765 57.2927 231.435 55.0436 232.318 52.2839H232.442V57.1409H240.942V40.5692C241.031 34.5601 238.817 32.5869 233.38 32.5869V32.58ZM232.442 51.0973C232.138 51.5802 231.835 51.7665 231.469 51.7665C230.924 51.7665 230.496 50.642 230.496 49.8554C230.496 47.3994 231.317 46.4542 232.442 45.0606V51.1042V51.0973Z" fill="#231F20"/>
<path d="M215.166 43.8118V32.856H206.06V57.1409H215.166V45.1502C216.746 43.6048 217.988 43.3909 219.81 43.3909C220.389 43.3909 220.81 43.6048 221.3 43.6945L221.845 33.2216C221.148 32.856 220.506 32.856 219.872 32.856C216.622 32.856 215.987 38.0165 215.166 43.8118Z" fill="#231F20"/>
<path d="M157.917 43.8118V32.856H148.811V57.1409H157.917V45.1502C159.497 43.6048 160.739 43.3909 162.561 43.3909C163.14 43.3909 163.561 43.6048 164.051 43.6945L164.596 33.2216C163.899 32.856 163.257 32.856 162.623 32.856C159.373 32.856 158.738 38.0165 157.917 43.8118Z" fill="#231F20"/>
<path d="M175.041 32.58C167.604 32.58 164.844 37.7682 164.844 44.7501C164.844 52.7669 167.666 57.41 175.014 57.41C181.692 57.41 184.638 52.8566 184.638 44.8122C184.638 37.7406 182.182 32.58 175.048 32.58H175.041ZM174.889 50.6764C173.979 50.6764 173.648 49.0345 173.648 44.4534C173.648 40.6313 174.13 39.6861 174.924 39.6861C175.717 39.6861 176.138 40.6244 176.138 44.4534C176.138 49.0345 175.807 50.6764 174.896 50.6764H174.889Z" fill="#231F20"/>
<path d="M147.472 39.9897C147.472 35.8916 145.892 32.7042 139.704 32.7042C131.99 32.7042 129.258 37.2576 129.258 44.5155C129.258 53.6224 133.66 57.3272 140.428 57.3272C143.16 57.3272 144.919 57.1478 147.079 56.3268V47.8892C145.775 48.7723 142.767 49.7726 140.676 49.7726C140.042 49.7726 139.524 49.5588 139.097 49.1655C143.954 48.9861 147.472 46.2817 147.472 39.9966V39.9897ZM138.731 48.6412C138.096 47.6684 137.82 46.0333 137.82 43.7221C137.82 40.928 137.972 39.5343 138.855 39.5343C139.524 39.5343 139.89 40.928 139.89 43.3013C139.89 46.0954 139.524 47.6132 138.738 48.6412H138.731Z" fill="#231F20"/>
<path d="M109.382 29.8204L105.981 60.1766H115.15L115.577 54.6848H119.158L119.641 60.1766H128.962L125.409 29.8204H109.382ZM116.06 48.7033L117.033 36.4987H117.613L118.648 48.7033H116.067H116.06Z" fill="#231F20"/>
</svg>
