<svg width="277" height="90" viewBox="0 0 277 90" fill="none" xmlns="http://www.w3.org/2000/svg">
<path d="M209.952 49.2497C209.622 47.5797 208.662 46.7197 207.372 46.7197C206.082 46.7197 204.742 48.1097 205.072 50.3997C205.402 52.0697 206.362 52.8397 207.652 52.8397C208.942 52.8397 210.332 51.6397 209.952 49.2497Z" fill="#231F20"/>
<path d="M185.992 47.29C185.132 47.29 183.842 41.17 183.412 35.48C183.512 32.71 183.512 30.32 183.032 27.49C182.702 25.63 181.552 25.05 180.732 24.91C180.202 24.81 179.822 24.86 179.152 24.96C179.292 26.06 179.442 27.21 179.532 28.36C179.152 28.26 178.672 28.22 178.192 28.22C173.892 28.22 169.062 33.34 169.302 40.56C169.442 45.01 171.452 52.18 174.852 52.18C177.292 52.18 180.352 46.39 181.352 40.37C181.542 42.71 181.732 44.67 182.022 46.59C182.792 51.61 183.552 52.18 184.652 52.18C186.232 52.18 187.812 48.74 188.622 44.53L187.712 44.24C187.232 45.63 186.712 47.3 185.992 47.3V47.29ZM176.052 48.49C174.142 48.49 172.322 42.42 172.182 37.16C172.042 32.38 173.282 31.33 176.202 31.33C177.632 31.33 178.732 31.47 179.982 32.05C180.222 33.87 180.462 35.68 180.702 37.41C179.932 44.2 177.742 48.5 176.062 48.5L176.052 48.49Z" fill="#231F20"/>
<path d="M195.752 37.3402C192.592 35.3302 190.112 33.9002 190.112 32.4102C190.112 30.8302 191.112 30.1602 192.502 30.1602C194.322 30.1602 195.902 30.9702 197.902 32.8902C198.622 32.0802 198.902 31.6502 198.902 30.6402C198.902 29.0602 197.472 27.2002 194.402 27.2002C191.582 27.2002 188.282 30.6402 188.282 34.1302C188.282 37.0902 190.622 38.8602 194.072 40.9702C198.232 43.5002 199.192 44.6502 199.192 46.3702C199.192 47.9002 198.042 48.9002 196.462 48.9002C194.452 48.9002 192.972 47.7502 190.772 46.2202C190.202 46.9402 189.862 47.5102 189.862 48.4202C189.862 50.0002 191.292 52.1502 194.882 52.1502C197.612 52.1502 201.142 48.1302 201.142 44.6902C201.142 41.2502 199.422 39.6202 195.742 37.3302L195.752 37.3402Z" fill="#231F20"/>
<path d="M179.012 55.7101C175.522 55.7101 172.512 57.7701 172.412 61.5401C173.462 59.7701 175.232 58.6701 177.572 58.6701C181.112 58.6701 184.742 61.3501 184.362 66.2301C183.832 72.6901 175.272 77.0401 161.362 77.0901C132.382 77.1901 102.832 61.4501 82.412 33.4301L88.052 25.9701C90.822 22.2901 91.492 21.3301 93.212 20.6601L93.402 19.5601H83.552L83.262 20.6601C86.992 21.2801 87.712 23.0001 85.272 26.3001L80.542 32.7101C79.682 33.8601 79.252 34.2401 76.762 34.8101L75.612 25.4401C75.322 23.0001 76.282 21.5201 78.622 20.6601L78.812 19.5601H67.332L67.042 20.6601C70.102 21.2301 71.682 22.2901 72.012 24.9201L74.542 45.8201C74.832 48.2601 73.922 49.7401 71.582 50.6001L71.392 51.7001H82.872L83.162 50.6001C80.102 50.0301 78.472 48.9701 78.142 46.3401L76.942 36.3501C79.862 36.1601 80.532 36.5901 81.242 37.5501C98.652 61.0301 127.292 80.0101 160.142 80.0101C177.312 80.0101 186.582 71.4001 187.112 63.9401C187.442 59.3501 183.912 55.7101 178.982 55.7101H179.012Z" fill="#231F20"/>
<path d="M106.572 52.2602C110.972 52.2602 115.942 46.1902 114.512 37.3902C113.462 30.9802 110.302 27.2002 106.672 27.2002C102.272 27.2002 97.4421 33.5602 98.7321 42.0202C99.7321 48.7102 102.942 52.2502 106.572 52.2502V52.2602ZM105.182 30.4602C107.912 30.4602 110.542 33.2802 111.592 40.0202C112.692 47.0002 111.352 49.0102 108.342 49.0102C105.612 49.0102 102.652 46.2402 101.602 39.4002C100.602 32.5102 102.172 30.4602 105.192 30.4602H105.182Z" fill="#231F20"/>
<path d="M149.322 31.85C149.702 31.85 150.042 32.09 150.322 34.48C151.092 40.41 152.522 53.85 153.282 59.49C153.522 61.31 154.282 61.98 155.242 61.98C156.672 61.98 158.732 60.31 160.792 58.39L160.412 57.43C159.312 57.96 158.502 58.39 157.882 58.39C156.832 58.39 156.402 57.34 156.012 54.18L155.722 52.08C156.252 52.18 156.922 52.27 157.632 52.27C161.502 52.27 166.432 47.11 166.242 39.69C166.102 34.38 164.092 27.21 160.692 27.21C158.252 27.21 155.242 32.76 154.092 39.12C153.802 36.16 153.472 32.43 153.042 29.84C152.752 28.07 152.272 27.31 151.412 27.31C150.072 27.31 148.252 29.65 146.682 33.29L147.452 33.82C148.262 32.58 148.882 31.86 149.322 31.86V31.85ZM159.502 30.89C161.322 30.89 163.232 36.96 163.372 43.23C163.472 47.92 162.272 49.16 159.352 49.16C157.772 49.16 156.672 49.02 155.292 48.3L154.672 43.71C155.152 35.82 157.732 30.89 159.502 30.89Z" fill="#231F20"/>
<path d="M117.952 31.85C118.332 31.85 118.622 32.09 118.952 34.48L120.192 43.9C120.192 45.67 120.092 48.06 120.242 49.83C120.382 51.7 120.962 52.17 122.112 52.17C123.262 52.17 123.972 51.79 124.552 51.31C124.172 48.49 123.742 45.57 123.212 42.75C124.502 36.63 126.842 31.51 128.472 31.51C129.242 31.51 129.522 32.51 129.952 36.15L130.862 43.85C130.862 45.67 130.762 48.06 130.912 49.83C131.052 51.7 131.632 52.17 132.782 52.17C133.932 52.17 134.652 51.79 135.222 51.31C134.842 48.49 134.412 45.57 133.882 42.75C135.172 36.58 137.322 31.51 138.852 31.51C139.622 31.51 139.852 32.51 140.282 36.15L141.572 46.57C142.192 51.59 143.102 52.16 144.102 52.16C145.772 52.16 147.262 48.72 148.122 44.51L147.262 44.22C146.642 45.65 146.262 47.28 145.542 47.28C145.162 47.28 144.872 45.94 144.542 43.31L143.342 33.46C142.772 28.73 142.142 27.29 140.522 27.29C137.412 27.29 134.642 34.42 133.542 39.53L132.822 33.46C132.292 28.73 131.722 27.29 130.142 27.29C126.792 27.29 123.972 34.61 122.822 39.72C122.492 36.66 122.102 32.55 121.672 29.82C121.382 28.05 120.902 27.29 120.042 27.29C118.702 27.29 116.882 29.63 115.312 33.27L116.082 33.8C116.892 32.56 117.512 31.84 117.942 31.84L117.952 31.85Z" fill="#231F20"/>
</svg>
