<svg width="277" height="90" viewBox="0 0 277 90" fill="none" xmlns="http://www.w3.org/2000/svg">
<path d="M165.42 33.7489C167.381 33.7489 168.714 32.451 168.714 30.5253C168.714 28.5995 167.381 27.1958 165.42 27.1958C163.459 27.1958 162.161 28.529 162.161 30.5253C162.161 32.5215 163.424 33.7489 165.42 33.7489Z" fill="#231F20"/>
<path d="M153.005 42.3336L149.253 41.2473C147.292 40.6548 146.763 40.2316 146.763 39.2863C146.763 38.3411 147.778 37.7415 149.5 37.7415C151.355 37.7415 153.464 38.4046 154.825 40.4784H156.892L156.681 35.2515H154.473L154.049 36.6199H154.014C153.245 36.0909 151.665 35.3573 149.316 35.3573C145.281 35.322 142.199 37.2477 142.199 40.9299C142.199 43.8079 144.195 45.6984 147.002 46.5025L151.207 47.6946C153.062 48.259 153.802 48.6751 153.802 49.832C153.802 50.883 153.238 51.6519 150.889 51.6519C148.54 51.6519 146.156 50.354 145.034 48.3577H142.721L142.827 53.9303H144.999L145.528 52.5266H145.634C146.544 53.2602 148.787 54.276 150.889 54.276C155.481 54.276 158.395 52.1739 158.395 48.0685C158.395 44.9859 156.709 43.4058 152.998 42.3195L153.005 42.3336Z" fill="#231F20"/>
<path d="M192.31 50.2553V41.8399C192.31 37.0009 189.228 35.4561 186.138 35.4561C183.683 35.4561 181.793 36.4718 180.459 38.9619L180.601 36.4718L179.303 35.5971C177.059 35.844 174.852 36.0556 172.608 36.1615V38.193L173.483 38.3693C174.323 38.5457 174.852 39.103 174.852 40.683V50.2553C174.852 50.8831 174.393 51.2358 173.942 51.3063L172.644 51.5179V53.5495H182.632V51.4826L181.687 51.3063C180.953 51.1652 180.671 50.8478 180.671 50.2553V43.1378C180.671 39.8083 182.428 38.8631 183.895 38.8631C185.362 38.8631 186.455 39.8083 186.455 42.7569V50.2623C186.455 50.8901 186.032 51.2075 185.581 51.3133L184.424 51.525V53.5565H194.342V51.4897L193.008 51.2781C192.55 51.2075 192.31 50.8548 192.31 50.2623V50.2553Z" fill="#231F20"/>
<path d="M168.609 50.2551V36.4787L167.346 35.604C165.138 35.8509 162.895 36.0625 160.617 36.1683V38.1999L161.386 38.3762C162.225 38.5526 162.754 39.1098 162.754 40.443V50.2621C162.754 50.8899 162.366 51.2426 161.879 51.2779L160.652 51.5248V53.5563H170.676V51.4895L169.342 51.2426C168.884 51.1721 168.609 50.8547 168.609 50.2621V50.2551Z" fill="#231F20"/>
<path d="M213.973 43.3496C213.973 38.4047 211.031 35.3574 205.557 35.3574C201.734 35.3574 196.161 37.53 196.161 44.7886C196.161 51.1019 200.295 54.2902 206.15 54.2902C208.851 54.2902 211.687 53.2392 213.966 50.6786L212.844 48.7176C210.848 50.1919 209.127 50.7844 207.377 50.7844C204.534 50.7844 202.432 49.3101 202.256 45.0707H213.966C213.966 45.0707 213.966 43.7728 213.966 43.3496H213.973ZM207.906 42.5454V42.5807H202.298C202.58 38.5105 203.843 37.7417 205.31 37.7417C207.032 37.7417 208.012 38.9338 207.906 42.5454Z" fill="#231F20"/>
<path d="M138.037 32.0276C135.582 32.0276 134.002 33.5371 133.515 36.1259C132.323 35.7027 130.849 35.4628 129.17 35.4628C123.739 35.4628 120.543 37.7413 120.543 41.7056C120.543 44.5131 122.159 46.4741 125.029 47.384V47.5604C122.751 48.5761 121.241 49.6272 121.241 51.7998C121.241 53.2035 122.645 54.6073 124.359 55.2703C121.622 55.5172 119.732 56.6035 119.732 58.4587C119.732 60.8782 121.834 62.804 128.669 62.804C134.912 62.804 139.991 59.9612 139.991 54.9177C139.991 52.7098 138.206 50.7135 132.909 50.3961L127.124 50.0786C126.532 50.0434 125.897 49.7259 125.897 49.0629C125.897 48.6749 126.179 48.2587 126.772 47.7649C127.505 47.8707 128.317 47.9413 129.156 47.9413C134.693 47.9413 137.818 45.5923 137.818 41.6985C137.818 39.7728 136.908 38.0869 135.222 36.9653C135.575 35.4911 136.485 35.0749 137.042 35.0749C137.36 35.0749 137.395 35.1454 137.67 35.2865L137.317 37.0711C137.6 37.4238 138.404 37.7695 139.173 37.7695C140.047 37.7695 141.557 37.177 141.557 35.0325C141.557 33.5935 140.682 32.0205 138.016 32.0205L138.037 32.0276ZM125.982 55.6583C126.052 55.6936 126.158 55.6936 126.229 55.6936L131.032 55.9757C133.346 56.1168 134.679 56.8504 134.679 57.9367C134.679 59.2699 133.205 60.4268 130.017 60.4268C126.581 60.4268 125.213 59.2699 125.213 57.6546C125.213 56.9562 125.46 56.3214 125.982 55.6583ZM129.1 45.7334C127.484 45.7334 126.504 44.4355 126.504 41.6985C126.504 38.7853 127.484 37.6637 129.1 37.6637C130.92 37.6637 131.907 38.7853 131.907 41.7338C131.907 44.4355 130.927 45.7334 129.1 45.7334Z" fill="#231F20"/>
<path d="M79.5243 44.3018L74.65 30.3491H63.5048V32.4512L64.5911 32.6628C66.1006 32.945 66.4463 33.7491 66.4463 34.8707V48.0193C66.4463 50.2272 65.9878 51.1371 64.4853 51.3487L63.0815 51.5604V53.5566H73.6343V51.5604L71.9484 51.384C70.4035 51.2077 69.7405 50.2624 69.7405 48.0193V34.9412L75.9832 51.8073H79.6654L86.3243 34.8707V49.2467C86.3243 50.6504 85.3791 50.9678 83.8696 51.3487L83.4463 51.4193V53.5566H95.297V51.4193L94.6339 51.3487C93.0538 51.0666 92.5318 50.6857 92.5318 49.2114V34.7296C92.5318 33.608 92.9198 32.7686 94.387 32.557L95.3322 32.4159V30.3491H84.9206L79.5243 44.3018Z" fill="#231F20"/>
<path d="M116.057 51.2782C115.464 51.2782 115.182 50.7844 115.182 49.8745V41.4238C115.182 36.9022 112.692 35.3574 107.437 35.3574C102.182 35.3574 98.8805 37.1773 98.8805 40.2317C98.8805 41.6707 99.7199 42.7923 101.617 42.7923C103.303 42.7923 104.425 42.1645 104.771 41.4238L103.825 38.2354C104.524 37.918 105.158 37.7064 106.315 37.7064C108.347 37.7064 109.363 38.3342 109.363 41.6707V42.9686C108.1 43.1803 106.873 43.3919 106.386 43.4977C99.3037 45.113 98.1821 47.3209 98.1821 49.4935C98.1821 52.0189 100.143 54.2973 103.861 54.2973C106.386 54.2973 108.735 53.3873 110.343 50.474C110.555 52.3645 111.465 54.2973 114.096 54.2973C117.496 54.2973 119.041 53.3168 119.041 48.1251H117.115C117.115 50.3682 116.833 51.2782 116.064 51.2782H116.057ZM109.363 46.2981C109.327 49.557 108.135 50.9608 106.386 50.9608C104.735 50.9608 104.037 49.5218 104.037 48.2944C104.037 46.7143 105.194 45.8043 107.895 45.3529C108.389 45.2823 108.841 45.1765 109.37 45.106V46.2981H109.363Z" fill="#231F20"/>
</svg>
