<svg width="277" height="90" viewBox="0 0 277 90" fill="none" xmlns="http://www.w3.org/2000/svg">
<path d="M199.038 31.8613C195.93 31.8613 193.183 32.441 190.789 33.6003C188.394 34.7597 186.521 36.4399 185.16 38.6577C183.807 40.8756 183.127 43.5135 183.127 46.5883C183.127 51.0156 184.48 54.502 187.193 57.0475C189.907 59.593 193.687 60.8615 198.543 60.8615C203.399 60.8615 207.439 59.593 210.17 57.0475C212.892 54.502 214.261 50.982 214.261 46.4875C214.261 41.9929 212.992 38.1873 210.472 35.6586C207.943 33.1299 204.138 31.8697 199.047 31.8697L199.038 31.8613ZM202.138 53.5779C201.424 55.3001 200.282 56.157 198.694 56.157C197.106 56.157 196.039 55.3001 195.3 53.5779C194.552 51.8557 194.183 49.4446 194.183 46.3446C194.183 43.043 194.552 40.59 195.3 38.9854C196.048 37.3808 197.207 36.5827 198.795 36.5827C200.383 36.5827 201.433 37.3976 202.138 39.0358C202.852 40.674 203.205 43.2111 203.205 46.6471C203.205 49.5538 202.852 51.8641 202.138 53.5863V53.5779Z" fill="#231F20"/>
<path d="M112.248 29.8785C114.062 29.8785 115.465 29.3913 116.465 28.4168C117.456 27.4423 117.952 26.0477 117.952 24.2247C117.952 22.4017 117.465 20.9651 116.49 19.9906C115.516 19.0161 114.104 18.5288 112.256 18.5288C110.408 18.5288 109.03 19.0245 108.039 20.0158C107.048 21.0071 106.552 22.4101 106.552 24.2331C106.552 26.0561 107.048 27.4507 108.039 28.4252C109.03 29.3997 110.433 29.8869 112.256 29.8869L112.248 29.8785Z" fill="#231F20"/>
<path d="M176.339 54.6614L169.055 43.757L176.238 37.4646C178.187 37.0698 179.447 36.7589 180.002 36.5237V32.4072H163.443V36.5237C164.401 36.885 165.989 37.2378 168.198 37.5654L160.965 45.9916L161.015 47.3778L168.501 60.1641H181.489V55.9468C180.993 55.7452 180.229 55.5268 179.187 55.2747C178.145 55.0311 177.196 54.8211 176.339 54.653V54.6614Z" fill="#231F20"/>
<path d="M89.0527 43.4123C94.0429 41.7909 96.538 38.6573 96.538 33.9948C96.538 30.9536 95.3955 28.7778 93.1188 27.4504C90.8422 26.1315 87.465 25.4678 83.004 25.4678H62.8333V29.139C63.791 29.6011 65.0511 30.0295 66.5969 30.4244V55.2073C65.0427 55.6021 63.791 56.0306 62.8333 56.4926V60.1639H81.0718V56.4926C80.2149 56.0642 78.9884 55.6525 77.4006 55.2577V46.8819H80.3241L86.6165 60.1639H99.848V56.4926C98.8231 56.0642 97.5041 55.6693 95.8828 55.2997L89.0443 43.4039L89.0527 43.4123ZM84.0206 39.3714C83.2729 40.4467 82.0127 41.3793 80.2317 42.1689L77.409 41.6733V30.4748H79.8369C83.3737 30.4748 85.1379 32.0794 85.1379 35.2801C85.1379 36.9351 84.7682 38.2961 84.0206 39.3714Z" fill="#231F20"/>
<path d="M159.041 22.0488L158.344 21.6035C156.462 21.6035 154.295 21.6959 151.85 21.8807C149.405 22.0656 147.204 22.2672 145.255 22.5024V26.9129L148.624 27.2574V54.9638C146.969 55.3251 145.734 55.6779 144.911 56.0056V60.1725H161.562V56.0056C160.864 55.7451 160.024 55.4595 159.033 55.1655V22.0488H159.041Z" fill="#231F20"/>
<path d="M139.509 54.2663C137.098 54.2663 135.888 52.8633 135.888 50.049V37.7584H142.483V31.0712L135.888 32.659V25.0225H129.646L126.874 32.4069H122.262V37.7584H125.488V50.2506C125.488 53.7202 126.193 56.3078 127.622 58.0048C129.041 59.7102 131.293 60.5587 134.359 60.5587C136.174 60.5587 137.913 60.1806 139.568 59.4161C141.223 58.66 142.676 57.5847 143.928 56.1901L142.643 53.6614C141.651 54.0563 140.609 54.2579 139.517 54.2579L139.509 54.2663Z" fill="#231F20"/>
<path d="M117.305 32.4069L116.759 32.0625C110.711 32.1969 106.006 32.4405 102.637 32.8102V36.9267L106.846 38.0188V55.5181C104.695 55.9465 103.36 56.2826 102.83 56.5094V60.1806H121.321V56.5094C120.792 56.2826 119.456 55.9465 117.305 55.5181V32.4237V32.4069Z" fill="#231F20"/>
</svg>
