<svg width="277" height="90" viewBox="0 0 277 90" fill="none" xmlns="http://www.w3.org/2000/svg">
<path d="M73.3815 24.4805C70.4839 24.4805 67.0894 24.7753 63.5012 25.1712V59.335H70.5766V47.787C80.2631 46.9026 86.2098 41.8404 86.2098 33.9227C86.2098 26.5947 81.2486 24.4805 73.3815 24.4805ZM77.2224 41.3939C76.7338 41.8825 75.403 42.4721 73.1877 42.4721C72.3538 42.4721 71.3683 42.371 70.585 42.1773V29.2479C71.2252 29.1468 71.958 29.0963 72.6486 29.0963C76.6327 29.0963 78.7469 30.6714 78.7469 35.3883C78.7469 38.0921 78.0562 40.5516 77.2224 41.3855V41.3939Z" fill="#231F20"/>
<path d="M128.881 42.6239C125.832 40.5603 124.214 39.4737 124.214 38.1513C124.214 37.3679 124.855 36.7783 125.79 36.7783C127.803 36.7783 129.529 38.943 131.787 38.943C133.556 38.943 135.274 37.6122 135.274 35.8433C135.274 33.6281 132.57 32.2046 128.931 32.2046C122.833 32.2046 118.605 36.1382 118.605 40.8045C118.605 43.3146 119.54 44.9318 123.962 47.9304C127.996 50.6848 129.513 51.7124 129.513 52.8495C129.513 53.5402 129.066 53.9276 126.666 53.9276C123.911 53.9276 121.603 53.776 119.885 53.776C118.605 53.776 117.965 54.2646 117.965 55.3006C117.965 57.3137 120.517 59.9248 124.745 59.9248C130.346 59.9754 135.316 54.9637 135.316 50.1457C135.316 47.4419 133.446 45.7236 128.872 42.6239H128.881Z" fill="#231F20"/>
<path d="M111.824 21.6334C109.222 21.6334 107.596 23.3012 107.596 25.4154C107.596 27.7738 109.222 30.9662 111.378 30.9662C113.197 30.9662 115.261 28.6077 115.261 25.6596C115.261 23.0569 113.93 21.625 111.816 21.625L111.824 21.6334Z" fill="#231F20"/>
<path d="M102.778 32.5415C100.419 32.5415 97.7661 37.1658 96.1404 42.3712V32.7858H89.1577V59.3352H96.1404V45.673C96.1404 42.9187 98.7937 43.3651 101.102 42.5228C102.87 41.8827 104.74 40.4592 104.74 36.3319C104.74 33.7292 103.999 32.5499 102.778 32.5499V32.5415Z" fill="#231F20"/>
<path d="M152.086 37.705C153.459 37.705 154.201 35.7845 154.201 34.0662C154.201 32.9375 153.805 32.1457 152.533 32.1457C152.044 32.1457 151.404 32.1457 149.046 32.4406L146.392 32.7859V27.3278L145.609 27.0835C142.56 29.9305 139.511 32.0447 136.462 33.7209V35.0517L139.511 35.5402V53.5824C139.511 57.6592 141.768 59.925 145.559 59.925C149.046 59.925 152.002 58.0045 154.209 54.4668L153.375 53.5824C152.095 54.2731 150.823 54.6184 149.593 54.6184C147.774 54.6184 146.401 53.8772 146.401 51.325V36.0877C149.551 37.1659 151.025 37.7134 152.103 37.7134L152.086 37.705Z" fill="#231F20"/>
<path d="M114.873 32.7856H107.891V59.3351H114.873V32.7856Z" fill="#231F20"/>
<path d="M213.583 41.2426C213.583 35.6413 211.031 32.1963 205.665 32.1963C198.733 32.1963 193.182 37.9492 193.182 47.5347C193.182 55.4944 196.821 59.925 203.256 59.925C207.881 59.925 211.764 57.078 213.381 53.5319L212.547 52.7485C210.677 53.8267 208.563 54.4668 206.398 54.4668C202.709 54.4668 200.553 52.698 200.207 47.4841L208.167 45.1762C213.179 43.7022 213.575 43.4579 213.575 41.2426H213.583ZM200.207 43.2558C200.308 40.4088 200.603 38.143 200.991 37.705C201.386 37.2164 202.465 36.8711 203.543 36.8711C205.901 36.8711 206.735 38.4462 206.735 42.1776C206.735 43.062 206.491 43.2136 200.199 43.2558H200.207Z" fill="#231F20"/>
<path d="M183.547 32.1959C180.497 32.1959 177.844 33.67 175.486 36.618V32.7855H169V59.335H175.983V38.5385C176.817 37.9994 178.198 37.6035 179.47 37.6035C181.879 37.6035 182.957 38.9344 182.957 41.7814V59.3266H189.94V40.0041C189.94 34.7481 187.581 32.1875 183.547 32.1875V32.1959Z" fill="#231F20"/>
<path d="M161.133 21.6334C158.53 21.6334 156.904 23.3012 156.904 25.4154C156.904 27.7738 158.53 30.9662 160.686 30.9662C162.506 30.9662 164.569 28.6077 164.569 25.6596C164.569 23.0569 163.238 21.625 161.133 21.625V21.6334Z" fill="#231F20"/>
<path d="M164.182 32.7856H157.199V59.3351H164.182V32.7856Z" fill="#231F20"/>
</svg>
