<svg width="277" height="90" viewBox="0 0 277 90" fill="none" xmlns="http://www.w3.org/2000/svg">
<path d="M149.432 32.0001C148.932 31.5301 148.172 31.0701 147.102 30.6301C145.772 30.0901 144.422 29.8101 143.052 29.8101C140.832 29.8101 138.792 30.5001 136.912 31.8701C135.042 33.2401 133.392 35.0401 131.982 37.2501C130.572 39.4701 129.472 41.8501 128.682 44.3901C127.892 46.9301 127.502 49.3701 127.502 51.7101C127.502 53.4401 127.792 55.1401 128.382 56.7901C128.962 58.4401 129.842 59.8001 131.012 60.8701C132.182 61.9401 133.592 62.4701 135.242 62.4701C136.612 62.4701 137.882 62.0001 139.052 61.0501C140.222 60.1001 141.302 58.8801 142.292 57.3901C143.212 56.0001 144.022 54.5101 144.712 52.9401C144.612 53.9001 144.562 54.8601 144.562 55.8201C144.562 56.8301 144.682 57.8801 144.922 58.9601C145.162 60.0501 145.602 61.2201 146.252 62.4701L152.182 61.2601L148.072 51.0401L154.182 30.7801L149.432 32.0001ZM144.042 50.2901C143.212 52.3701 142.142 54.2501 140.832 55.9401C139.582 57.5501 138.082 58.8401 136.342 59.8301C135.702 59.3501 135.162 58.6601 134.722 57.7501C134.212 56.7001 133.852 55.5401 133.632 54.2701C133.412 53.0001 133.302 51.8201 133.302 50.7301C133.302 48.1101 133.602 45.5301 134.212 42.9901C134.812 40.4501 135.722 38.1601 136.932 36.1301C138.142 34.0901 139.652 32.5501 141.472 31.5001C143.242 31.9801 144.522 32.7401 145.312 33.7701C146.102 34.8001 146.492 36.2601 146.492 38.1501C146.492 40.0401 146.292 41.9201 145.892 44.0201C145.492 46.1201 144.872 48.2001 144.052 50.2801L144.042 50.2901Z" fill="#231F20"/>
<path d="M178.392 31.4198C177.242 30.3498 175.822 29.8198 174.132 29.8198C172.762 29.8198 171.492 30.2898 170.322 31.2398C169.152 32.1898 168.072 33.4098 167.082 34.8998C166.222 36.1998 165.462 37.5798 164.802 39.0198C164.822 38.7398 164.842 38.4698 164.852 38.1898C164.872 37.6498 164.882 37.1298 164.882 36.6498C164.882 35.6798 164.782 34.5998 164.582 33.4098C164.382 32.2198 163.982 31.1798 163.372 30.2998L157.442 33.0798L161.132 41.9098L158.112 52.1898C157.792 53.3598 157.372 54.7798 156.872 56.4498C156.372 58.1198 155.932 59.8698 155.572 61.6798C155.212 63.4898 155.032 65.2498 155.032 66.9398C155.032 68.4298 155.172 69.8098 155.452 71.0798C155.732 72.3498 156.202 73.5098 156.842 74.5598L163.252 73.4098L159.322 65.6698C159.322 64.4198 159.322 63.1598 159.352 61.8898C159.362 61.0998 159.392 60.2898 159.412 59.4898C159.772 59.8298 160.212 60.1898 160.742 60.5598C161.532 61.0998 162.412 61.5598 163.402 61.9198C164.392 62.2798 165.372 62.4598 166.332 62.4598C168.552 62.4598 170.592 61.7698 172.472 60.3998C174.342 59.0298 175.992 57.2398 177.402 55.0198C178.812 52.7998 179.912 50.4098 180.702 47.8498C181.492 45.2898 181.882 42.8398 181.882 40.4998C181.882 38.7698 181.592 37.0798 181.002 35.4498C180.422 33.8198 179.552 32.4698 178.402 31.3998L178.392 31.4198ZM175.162 49.2298C174.562 51.8098 173.652 54.1198 172.442 56.1498C171.232 58.1898 169.722 59.7298 167.902 60.7798C166.172 60.3398 164.902 59.5698 164.092 58.4798C163.282 57.3898 162.882 55.9198 162.882 54.0698C162.882 52.0498 163.092 49.9798 163.512 47.8398C163.932 45.6998 164.582 43.6298 165.452 41.6098C166.322 39.5898 167.412 37.7698 168.722 36.1398C169.972 34.5898 171.412 33.3498 173.042 32.3898C173.712 32.8798 174.262 33.5698 174.682 34.4998C175.162 35.5698 175.522 36.7298 175.742 37.9798C175.962 39.2298 176.072 40.3998 176.072 41.4898C176.072 44.0698 175.772 46.6498 175.162 49.2298Z" fill="#231F20"/>
<path d="M129.052 30.2098C128.512 29.9498 127.892 29.8198 127.212 29.8198C125.962 29.8198 124.732 30.3298 123.522 31.3598C122.312 32.3898 121.202 33.6698 120.192 35.1998C119.492 36.2698 118.852 37.3498 118.282 38.4498C118.312 36.9898 118.242 35.5498 118.082 34.1098C117.882 32.3798 117.562 31.1098 117.112 30.2998L111.182 33.0798L114.952 42.0898C114.122 43.2598 113.342 44.5698 112.632 46.0198C111.822 47.6698 111.182 49.3198 110.692 50.9498C110.212 52.5798 109.962 54.0398 109.962 55.3298C109.962 56.7798 110.062 58.0998 110.262 59.2898C110.462 60.4798 110.762 61.5398 111.172 62.4598L117.222 61.2498C116.742 59.7198 116.362 58.2398 116.102 56.8098C115.842 55.3798 115.712 53.8398 115.712 52.1798C115.712 50.5198 115.922 48.7198 116.342 47.0098C116.762 45.2998 117.322 43.6698 118.002 42.1398C118.682 40.6098 119.412 39.2698 120.182 38.1198C120.942 36.9698 121.672 36.1098 122.362 35.5498L126.772 37.5498H126.892L130.462 31.0798C130.062 30.7598 129.582 30.4698 129.042 30.1998L129.052 30.2098Z" fill="#231F20"/>
<path d="M190.502 47.8101L206.242 40.8901C206.562 40.2501 206.822 39.5801 207.032 38.8901C207.232 38.2101 207.332 37.4801 207.332 36.7101C207.332 35.3401 206.982 34.1401 206.272 33.1101C205.562 32.0801 204.642 31.2801 203.492 30.6901C202.342 30.1101 201.062 29.8101 199.652 29.8101C197.752 29.8101 195.922 30.4101 194.152 31.6201C192.382 32.8301 190.792 34.4201 189.402 36.4001C188.012 38.3801 186.912 40.5401 186.102 42.9001C185.292 45.2601 184.892 47.5901 184.892 49.8801C184.892 53.5501 185.752 56.5601 187.462 58.9201C189.172 61.2801 191.682 62.4601 194.992 62.4601C196.042 62.4601 197.172 62.1201 198.382 61.4301C199.592 60.7501 200.802 59.8601 202.012 58.7701C203.222 57.6801 204.312 56.5301 205.282 55.3201L201.892 52.4201L195.832 61.0701C194.632 60.7601 193.652 60.1501 192.912 59.2001C192.002 58.0301 191.372 56.5301 191.002 54.6901C190.642 52.8601 190.462 50.8901 190.462 48.7901C190.462 48.5501 190.462 48.2801 190.492 47.9701C190.492 47.9001 190.502 47.8501 190.512 47.7801L190.502 47.8101ZM192.332 39.1301C193.182 36.7901 194.222 34.9201 195.472 33.5101C196.482 32.3701 197.582 31.6501 198.782 31.3201C199.422 31.6301 199.982 32.0901 200.462 32.7201C201.172 33.6501 201.522 34.9201 201.522 36.5301C201.522 37.7801 201.282 38.7801 200.792 39.5201C200.312 40.2701 199.622 40.9001 198.732 41.4201L190.652 46.0801C191.022 43.5301 191.572 41.2001 192.322 39.1201L192.332 39.1301Z" fill="#231F20"/>
<path d="M103.072 22.87C101.822 21.3 100.132 20.05 97.9922 19.12C95.8522 18.19 93.1722 17.73 89.9522 17.73C88.7422 17.73 87.3222 17.8 85.6922 17.94C84.0622 18.08 82.4422 18.24 80.8522 18.42C79.2622 18.6 77.8622 18.77 76.6522 18.93L77.9822 26.79L69.7622 62.23H72.8522C74.1022 62.23 75.4322 62.22 76.8422 62.2C78.2522 62.18 79.5822 62.16 80.8322 62.14C82.0822 62.12 83.0922 62.09 83.8522 62.05C87.6022 61.81 90.9022 60.87 93.7422 59.24C96.5822 57.61 98.9522 55.48 100.852 52.86C102.752 50.24 104.172 47.33 105.112 44.12C106.062 40.91 106.532 37.62 106.532 34.23C106.532 32.17 106.272 30.16 105.742 28.18C105.222 26.2 104.332 24.43 103.082 22.86L103.072 22.87ZM99.1422 42.73C98.5322 45.45 97.5922 48.04 96.3022 50.5C95.0122 52.96 93.3322 55.06 91.2522 56.79C89.1722 58.52 86.6422 59.65 83.6622 60.18C83.0622 60.06 82.2922 59.83 81.3622 59.48C80.4322 59.14 79.5122 58.76 78.5822 58.36C77.8622 58.05 77.2322 57.76 76.6822 57.5L84.1422 20.15C84.4022 20.12 84.6622 20.1 84.9022 20.08C85.9722 20 87.1322 19.96 88.3822 19.96C90.5222 19.96 92.3222 20.39 93.7922 21.26C95.2622 22.13 96.4622 23.3 97.3922 24.77C98.3222 26.24 98.9922 27.86 99.4222 29.64C99.8422 31.41 100.062 33.21 100.062 35.02C100.062 37.44 99.7622 40.01 99.1522 42.73H99.1422Z" fill="#231F20"/>
</svg>
