<svg width="277" height="90" viewBox="0 0 277 90" fill="none" xmlns="http://www.w3.org/2000/svg">
<path d="M98.3489 34.8829C102.398 34.8829 103.954 33.9202 103.954 32.0835C103.954 30.2469 102.398 29.2842 98.3489 29.2842C94.3001 29.2842 92.7434 30.1854 92.7434 32.0835C92.7434 33.9816 94.3001 34.8829 98.3489 34.8829Z" fill="#231F20"/>
<path d="M122.539 41.8539C119.487 41.6696 116.715 41.8198 116.715 40.98C116.715 40.2016 118.709 39.8602 122.198 39.8602C125.093 39.8602 126.684 40.106 128.548 40.4816L127.455 36.4327C125.305 36.2484 122.751 36.1187 119.733 36.1187C111.485 36.1187 107.061 38.5493 107.061 42.8439C107.061 47.9511 110.707 48.9479 115.869 49.2278C118.518 49.3849 120.723 49.1664 120.723 49.9447C120.723 50.7231 118.853 51.0645 114.653 51.0645C112.441 51.0645 109.451 50.5661 106.686 50.1291L107.778 54.1779C110.796 54.5534 113.909 54.7992 117.992 54.7992C126.274 54.7992 130.384 52.71 130.384 48.074C130.384 43.4379 127.517 42.1612 122.539 41.8471V41.8539Z" fill="#231F20"/>
<path d="M104.112 36.1255L91.8149 36.4396C92.7776 39.0204 93.0576 41.731 93.0576 45.4658C93.0576 49.2005 92.7776 52.0067 91.8149 54.492H104.89C103.77 51.6244 103.647 48.4222 103.647 43.9091C103.647 40.7 103.866 38.4947 104.112 36.1255Z" fill="#231F20"/>
<path d="M160.993 36.4395L158.474 46.681L155.954 36.4395H145.679L146.211 38.6789L144.252 46.681L141.732 36.4395H129.9C132.139 41.6422 134.106 47.3023 135.847 54.4987H145.965L148.144 46.5922L150.076 54.4987H160.351C162.093 47.3092 164.059 41.6422 166.298 36.4395H161.007H160.993Z" fill="#231F20"/>
<path d="M190.352 43.1307C190.352 37.8666 187.177 36.1255 179.21 36.1255C175.659 36.1255 171.89 36.6239 169.186 37.3681L167.63 42.0383C170.368 40.9458 173.297 40.4816 175.912 40.4816C178.527 40.4816 179.769 40.9458 179.769 41.9154C179.769 45.3702 164.885 41.9768 164.885 50.013C164.885 52.7851 167.186 54.8061 172.949 54.8061C175.905 54.8061 178.52 54.3077 180.548 52.3481L181.326 54.4988H191.909C190.666 53.2562 190.352 51.6312 190.352 45.3156V43.1375V43.1307ZM179.763 48.5792C179.763 50.1974 178.766 50.7572 177.585 50.7572C176.465 50.7572 175.782 50.1018 175.782 49.1049C175.782 47.2068 178.52 47.0498 179.769 46.367V48.5792H179.763Z" fill="#231F20"/>
<path d="M210.651 36.4395L207.196 46.0938L203.741 36.4395H190.045C193.841 42.1064 196.333 47.0838 199.105 54.4987L195.336 60.7256H206.39L208.76 54.4987C211.559 47.0907 214.024 42.1064 217.82 36.4395H210.658H210.651Z" fill="#231F20"/>
<path d="M77.7704 31.1484H59.2742C60.2096 34.2619 60.5168 38.2492 60.5168 42.8238C60.5168 47.3984 60.2027 51.3857 59.2742 54.4992H77.7704C86.2368 54.4992 89.4799 50.7303 89.4799 42.8238C89.4799 34.9173 86.2436 31.1484 77.7704 31.1484ZM73.5987 49.829C71.9464 49.829 71.4206 49.2077 71.4206 47.808V35.8186H73.4143C76.8418 35.8186 77.9616 37.2524 77.9616 42.8238C77.9616 48.3952 76.9033 49.829 73.6055 49.829H73.5987Z" fill="#231F20"/>
</svg>
