<svg width="277" height="90" viewBox="0 0 277 90" fill="none" xmlns="http://www.w3.org/2000/svg">
<path d="M71.6131 30.8426H72.4503V31.6798H71.6131V30.8426ZM70.7759 31.6798H71.6131V32.517H70.7759V31.6798ZM76.6363 28.331H77.4735V29.1682H76.6363V28.331ZM77.4735 28.331H78.3108V29.1682H77.4735V28.331ZM78.3108 28.331H79.148V29.1682H78.3108V28.331ZM78.3108 29.1682H79.148V30.0054H78.3108V29.1682ZM77.4735 29.1682H78.3108V30.0054H77.4735V29.1682ZM76.6363 29.1682H77.4735V30.0054H76.6363V29.1682ZM75.7991 29.1682H76.6363V30.0054H75.7991V29.1682ZM74.9619 29.1682H75.7991V30.0054H74.9619V29.1682ZM79.148 29.1682H79.9852V30.0054H79.148V29.1682ZM79.9852 29.1682H80.8224V30.0054H79.9852V29.1682ZM80.8224 29.1682H81.6596V30.0054H80.8224V29.1682ZM81.6596 29.1682H82.4968V30.0054H81.6596V29.1682ZM82.4968 29.1682H83.334V30.0054H82.4968V29.1682ZM80.8224 28.331H81.6596V29.1682H80.8224V28.331ZM79.9852 28.331H80.8224V29.1682H79.9852V28.331ZM79.148 28.331H79.9852V29.1682H79.148V28.331ZM77.4735 36.7031H78.3108V37.5403H77.4735V36.7031ZM76.6363 36.7031H77.4735V37.5403H76.6363V36.7031ZM76.6363 37.5403H77.4735V38.3775H76.6363V37.5403ZM75.7991 37.5403H76.6363V38.3775H75.7991V37.5403ZM74.9619 36.7031H75.7991V37.5403H74.9619V36.7031ZM75.7991 36.7031H76.6363V37.5403H75.7991V36.7031ZM74.9619 37.5403H75.7991V38.3775H74.9619V37.5403ZM74.9619 38.3775H75.7991V39.2147H74.9619V38.3775ZM75.7991 38.3775H76.6363V39.2147H75.7991V38.3775ZM76.6363 38.3775H77.4735V39.2147H76.6363V38.3775ZM77.4735 38.3775H78.3108V39.2147H77.4735V38.3775ZM77.4735 37.5403H78.3108V38.3775H77.4735V37.5403ZM79.9852 35.0287H80.8224V35.8659H79.9852V35.0287ZM80.8224 35.8659H81.6596V36.7031H80.8224V35.8659ZM80.8224 35.0287H81.6596V35.8659H80.8224V35.0287ZM81.6596 35.0287H82.4968V35.8659H81.6596V35.0287ZM82.4968 35.0287H83.334V35.8659H82.4968V35.0287ZM82.4968 35.8659H83.334V36.7031H82.4968V35.8659ZM81.6596 35.8659H82.4968V36.7031H81.6596V35.8659ZM83.334 34.1915H84.1712V35.0287H83.334V34.1915ZM84.1712 33.3543H85.0084V34.1915H84.1712V33.3543ZM84.1712 34.1915H85.0084V35.0287H84.1712V34.1915ZM84.1712 35.0287H85.0084V35.8659H84.1712V35.0287ZM84.1712 35.8659H85.0084V36.7031H84.1712V35.8659ZM84.1712 36.7031H85.0084V37.5403H84.1712V36.7031ZM83.334 37.5403H84.1712V38.3775H83.334V37.5403ZM83.334 36.7031H84.1712V37.5403H83.334V36.7031ZM83.334 35.8659H84.1712V36.7031H83.334V35.8659ZM83.334 35.0287H84.1712V35.8659H83.334V35.0287ZM83.334 38.3775H84.1712V39.2147H83.334V38.3775ZM83.334 39.2147H84.1712V40.0519H83.334V39.2147ZM84.1712 39.2147H85.0084V40.0519H84.1712V39.2147ZM84.1712 38.3775H85.0084V39.2147H84.1712V38.3775ZM84.1712 37.5403H85.0084V38.3775H84.1712V37.5403ZM84.1712 40.0519H85.0084V40.8891H84.1712V40.0519ZM84.1712 40.8891H85.0084V41.7263H84.1712V40.8891ZM83.334 40.8891H84.1712V41.7263H83.334V40.8891ZM83.334 40.0519H84.1712V40.8891H83.334V40.0519ZM82.4968 38.3775H83.334V39.2147H82.4968V38.3775ZM81.6596 38.3775H82.4968V39.2147H81.6596V38.3775ZM80.8224 38.3775H81.6596V39.2147H80.8224V38.3775ZM79.9852 38.3775H80.8224V39.2147H79.9852V38.3775ZM79.9852 39.2147H80.8224V40.0519H79.9852V39.2147ZM82.4968 39.2147H83.334V40.0519H82.4968V39.2147ZM81.6596 39.2147H82.4968V40.0519H81.6596V39.2147ZM80.8224 39.2147H81.6596V40.0519H80.8224V39.2147ZM85.0084 32.517H85.8456V33.3543H85.0084V32.517ZM85.0084 31.6798H85.8456V32.517H85.0084V31.6798ZM85.8456 31.6798H86.6828V32.517H85.8456V31.6798ZM85.8456 32.517H86.6828V33.3543H85.8456V32.517ZM85.8456 33.3543H86.6828V34.1915H85.8456V33.3543ZM85.0084 34.1915H85.8456V35.0287H85.0084V34.1915ZM85.0084 35.0287H85.8456V35.8659H85.0084V35.0287ZM85.0084 35.8659H85.8456V36.7031H85.0084V35.8659ZM85.0084 36.7031H85.8456V37.5403H85.0084V36.7031ZM85.0084 37.5403H85.8456V38.3775H85.0084V37.5403ZM85.0084 33.3543H85.8456V34.1915H85.0084V33.3543ZM85.8456 34.1915H86.6828V35.0287H85.8456V34.1915ZM85.8456 35.0287H86.6828V35.8659H85.8456V35.0287ZM85.8456 35.8659H86.6828V36.7031H85.8456V35.8659ZM85.8456 36.7031H86.6828V37.5403H85.8456V36.7031ZM85.8456 37.5403H86.6828V38.3775H85.8456V37.5403ZM85.8456 38.3775H86.6828V39.2147H85.8456V38.3775ZM85.8456 39.2147H86.6828V40.0519H85.8456V39.2147ZM85.0084 39.2147H85.8456V40.0519H85.0084V39.2147ZM85.0084 40.0519H85.8456V40.8891H85.0084V40.0519ZM85.0084 40.8891H85.8456V41.7263H85.0084V40.8891ZM85.0084 38.3775H85.8456V39.2147H85.0084V38.3775ZM85.8456 40.8891H86.6828V41.7263H85.8456V40.8891ZM85.8456 40.0519H86.6828V40.8891H85.8456V40.0519ZM88.3573 35.0287H89.1945V35.8659H88.3573V35.0287ZM89.1945 35.0287H90.0317V35.8659H89.1945V35.0287ZM89.1945 35.8659H90.0317V36.7031H89.1945V35.8659ZM89.1945 36.7031H90.0317V37.5403H89.1945V36.7031ZM89.1945 37.5403H90.0317V38.3775H89.1945V37.5403ZM88.3573 37.5403H89.1945V38.3775H88.3573V37.5403ZM88.3573 36.7031H89.1945V37.5403H88.3573V36.7031ZM88.3573 35.8659H89.1945V36.7031H88.3573V35.8659ZM88.3573 38.3775H89.1945V39.2147H88.3573V38.3775ZM88.3573 39.2147H89.1945V40.0519H88.3573V39.2147ZM88.3573 40.0519H89.1945V40.8891H88.3573V40.0519ZM88.3573 40.8891H89.1945V41.7263H88.3573V40.8891ZM89.1945 40.0519H90.0317V40.8891H89.1945V40.0519ZM89.1945 39.2147H90.0317V40.0519H89.1945V39.2147ZM89.1945 38.3775H90.0317V39.2147H89.1945V38.3775ZM89.1945 40.8891H90.0317V41.7263H89.1945V40.8891ZM85.0084 30.8426H85.8456V31.6798H85.0084V30.8426ZM85.8456 30.0054H86.6828V30.8426H85.8456V30.0054ZM86.6828 30.0054H87.5201V30.8426H86.6828V30.0054ZM87.5201 30.0054H88.3573V30.8426H87.5201V30.0054ZM88.3573 30.0054H89.1945V30.8426H88.3573V30.0054ZM89.1945 30.0054H90.0317V30.8426H89.1945V30.0054ZM89.1945 30.8426H90.0317V31.6798H89.1945V30.8426ZM88.3573 30.8426H89.1945V31.6798H88.3573V30.8426ZM87.5201 30.8426H88.3573V31.6798H87.5201V30.8426ZM86.6828 30.8426H87.5201V31.6798H86.6828V30.8426ZM85.8456 30.8426H86.6828V31.6798H85.8456V30.8426ZM88.3573 31.6798H89.1945V32.517H88.3573V31.6798ZM88.3573 32.517H89.1945V33.3543H88.3573V32.517ZM88.3573 33.3543H89.1945V34.1915H88.3573V33.3543ZM88.3573 34.1915H89.1945V35.0287H88.3573V34.1915ZM89.1945 34.1915H90.0317V35.0287H89.1945V34.1915ZM89.1945 33.3543H90.0317V34.1915H89.1945V33.3543ZM89.1945 32.517H90.0317V33.3543H89.1945V32.517ZM89.1945 31.6798H90.0317V32.517H89.1945V31.6798ZM90.0317 30.0054H90.8689V30.8426H90.0317V30.0054ZM90.8689 30.0054H91.7061V30.8426H90.8689V30.0054ZM90.8689 30.8426H91.7061V31.6798H90.8689V30.8426ZM90.0317 30.8426H90.8689V31.6798H90.0317V30.8426ZM91.7061 29.1682H92.5433V30.0054H91.7061V29.1682ZM92.5433 28.331H93.3805V29.1682H92.5433V28.331ZM92.5433 29.1682H93.3805V30.0054H92.5433V29.1682ZM79.9852 30.0054H80.8224V30.8426H79.9852V30.0054ZM80.8224 30.0054H81.6596V30.8426H80.8224V30.0054ZM81.6596 30.0054H82.4968V30.8426H81.6596V30.0054ZM82.4968 30.0054H83.334V30.8426H82.4968V30.0054ZM83.334 30.8426H84.1712V31.6798H83.334V30.8426ZM84.1712 30.8426H85.0084V31.6798H84.1712V30.8426ZM84.1712 30.0054H85.0084V30.8426H84.1712V30.0054ZM83.334 30.0054H84.1712V30.8426H83.334V30.0054ZM81.6596 30.8426H82.4968V31.6798H81.6596V30.8426ZM82.4968 30.8426H83.334V31.6798H82.4968V30.8426ZM82.4968 47.5868H83.334V48.424H82.4968V47.5868ZM81.6596 47.5868H82.4968V48.424H81.6596V47.5868ZM81.6596 48.424H82.4968V49.2612H81.6596V48.424ZM82.4968 48.424H83.334V49.2612H82.4968V48.424ZM80.8224 47.5868H81.6596V48.424H80.8224V47.5868ZM79.9852 47.5868H80.8224V48.424H79.9852V47.5868ZM80.8224 48.424H81.6596V49.2612H80.8224V48.424ZM82.4968 45.0752H83.334V45.9124H82.4968V45.0752ZM80.8224 45.9124H81.6596V46.7496H80.8224V45.9124ZM79.9852 45.9124H80.8224V46.7496H79.9852V45.9124ZM79.9852 46.7496H80.8224V47.5868H79.9852V46.7496ZM80.8224 46.7496H81.6596V47.5868H80.8224V46.7496ZM79.148 45.9124H79.9852V46.7496H79.148V45.9124ZM78.3108 45.9124H79.148V46.7496H78.3108V45.9124ZM78.3108 46.7496H79.148V47.5868H78.3108V46.7496ZM79.148 46.7496H79.9852V47.5868H79.148V46.7496ZM77.4735 45.9124H78.3108V46.7496H77.4735V45.9124ZM79.148 45.0752H79.9852V45.9124H79.148V45.0752ZM78.3108 44.238H79.148V45.0752H78.3108V44.238ZM78.3108 45.0752H79.148V45.9124H78.3108V45.0752ZM77.4735 44.238H78.3108V45.0752H77.4735V44.238ZM76.6363 44.238H77.4735V45.0752H76.6363V44.238ZM76.6363 45.0752H77.4735V45.9124H76.6363V45.0752ZM77.4735 45.0752H78.3108V45.9124H77.4735V45.0752ZM77.4735 43.4008H78.3108V44.238H77.4735V43.4008ZM77.4735 42.5636H78.3108V43.4008H77.4735V42.5636ZM77.4735 41.7263H78.3108V42.5636H77.4735V41.7263ZM77.4735 40.8891H78.3108V41.7263H77.4735V40.8891ZM77.4735 40.0519H78.3108V40.8891H77.4735V40.0519ZM76.6363 40.0519H77.4735V40.8891H76.6363V40.0519ZM76.6363 39.2147H77.4735V40.0519H76.6363V39.2147ZM77.4735 39.2147H78.3108V40.0519H77.4735V39.2147ZM76.6363 40.8891H77.4735V41.7263H76.6363V40.8891ZM76.6363 41.7263H77.4735V42.5636H76.6363V41.7263ZM76.6363 42.5636H77.4735V43.4008H76.6363V42.5636ZM76.6363 43.4008H77.4735V44.238H76.6363V43.4008ZM75.7991 43.4008H76.6363V44.238H75.7991V43.4008ZM74.9619 42.5636H75.7991V43.4008H74.9619V42.5636ZM74.9619 41.7263H75.7991V42.5636H74.9619V41.7263ZM75.7991 40.8891H76.6363V41.7263H75.7991V40.8891ZM75.7991 40.0519H76.6363V40.8891H75.7991V40.0519ZM75.7991 39.2147H76.6363V40.0519H75.7991V39.2147ZM74.9619 39.2147H75.7991V40.0519H74.9619V39.2147ZM74.9619 40.0519H75.7991V40.8891H74.9619V40.0519ZM74.9619 40.8891H75.7991V41.7263H74.9619V40.8891ZM75.7991 42.5636H76.6363V43.4008H75.7991V42.5636ZM75.7991 41.7263H76.6363V42.5636H75.7991V41.7263ZM83.334 43.4008H84.1712V44.238H83.334V43.4008ZM84.1712 43.4008H85.0084V44.238H84.1712V43.4008ZM84.1712 44.238H85.0084V45.0752H84.1712V44.238ZM83.334 45.0752H84.1712V45.9124H83.334V45.0752ZM83.334 44.238H84.1712V45.0752H83.334V44.238ZM87.5201 45.0752H88.3573V45.9124H87.5201V45.0752ZM88.3573 43.4008H89.1945V44.238H88.3573V43.4008ZM89.1945 43.4008H90.0317V44.238H89.1945V43.4008ZM86.6828 46.7496H87.5201V47.5868H86.6828V46.7496ZM86.6828 45.9124H87.5201V46.7496H86.6828V45.9124ZM87.5201 45.9124H88.3573V46.7496H87.5201V45.9124ZM89.1945 44.238H90.0317V45.0752H89.1945V44.238ZM88.3573 44.238H89.1945V45.0752H88.3573V44.238ZM88.3573 45.0752H89.1945V45.9124H88.3573V45.0752ZM83.334 42.5636H84.1712V43.4008H83.334V42.5636ZM84.1712 42.5636H85.0084V43.4008H84.1712V42.5636ZM88.3573 42.5636H89.1945V43.4008H88.3573V42.5636ZM89.1945 42.5636H90.0317V43.4008H89.1945V42.5636ZM85.8456 47.5868H86.6828V48.424H85.8456V47.5868ZM85.0084 47.5868H85.8456V48.424H85.0084V47.5868ZM84.1712 47.5868H85.0084V48.424H84.1712V47.5868ZM83.334 47.5868H84.1712V48.424H83.334V47.5868ZM83.334 48.424H84.1712V49.2612H83.334V48.424ZM84.1712 48.424H85.0084V49.2612H84.1712V48.424ZM85.0084 48.424H85.8456V49.2612H85.0084V48.424ZM85.8456 46.7496H86.6828V47.5868H85.8456V46.7496ZM85.8456 41.7263H86.6828V42.5636H85.8456V41.7263ZM85.8456 42.5636H86.6828V43.4008H85.8456V42.5636ZM85.0084 43.4008H85.8456V44.238H85.0084V43.4008ZM85.0084 42.5636H85.8456V43.4008H85.0084V42.5636ZM85.0084 41.7263H85.8456V42.5636H85.0084V41.7263ZM83.334 41.7263H84.1712V42.5636H83.334V41.7263ZM84.1712 41.7263H85.0084V42.5636H84.1712V41.7263ZM85.8456 43.4008H86.6828V44.238H85.8456V43.4008ZM85.0084 44.238H85.8456V45.0752H85.0084V44.238ZM84.1712 45.0752H85.0084V45.9124H84.1712V45.0752ZM88.3573 41.7263H89.1945V42.5636H88.3573V41.7263ZM89.1945 41.7263H90.0317V42.5636H89.1945V41.7263ZM81.6596 45.9124H82.4968V46.7496H81.6596V45.9124ZM82.4968 45.9124H83.334V46.7496H82.4968V45.9124ZM91.7061 30.0054H92.5433V30.8426H91.7061V30.0054ZM83.334 33.3543H84.1712V34.1915H83.334V33.3543ZM71.6131 31.6798H72.4503V32.517H71.6131V31.6798ZM85.0084 30.0054H85.8456V30.8426H85.0084V30.0054ZM73.2875 30.0054H74.1247V30.8426H73.2875V30.0054ZM72.4503 30.8426H73.2875V31.6798H72.4503V30.8426ZM74.9619 30.0054H75.7991V30.8426H74.9619V30.0054ZM79.148 30.0054H79.9852V30.8426H79.148V30.0054ZM78.3108 30.0054H79.148V30.8426H78.3108V30.0054ZM75.7991 30.0054H76.6363V30.8426H75.7991V30.0054ZM76.6363 30.0054H77.4735V30.8426H76.6363V30.0054ZM77.4735 30.0054H78.3108V30.8426H77.4735V30.0054ZM84.1712 29.1682H85.0084V30.0054H84.1712V29.1682ZM83.334 29.1682H84.1712V30.0054H83.334V29.1682ZM85.0084 29.1682H85.8456V30.0054H85.0084V29.1682ZM85.8456 29.1682H86.6828V30.0054H85.8456V29.1682ZM81.6596 28.331H82.4968V29.1682H81.6596V28.331ZM82.4968 28.331H83.334V29.1682H82.4968V28.331ZM70.7759 32.517H71.6131V33.3543H70.7759V32.517ZM75.7991 44.238H76.6363V45.0752H75.7991V44.238ZM79.148 47.5868H79.9852V48.424H79.148V47.5868ZM79.9852 35.8659H80.8224V36.7031H79.9852V35.8659ZM72.4503 30.0054H73.2875V30.8426H72.4503V30.0054ZM74.1247 29.1682H74.9619V30.0054H74.1247V29.1682ZM75.7991 28.331H76.6363V29.1682H75.7991V28.331ZM73.2875 29.1682H74.1247V30.0054H73.2875V29.1682ZM74.1247 28.331H74.9619V29.1682H74.1247V28.331ZM74.9619 28.331H75.7991V29.1682H74.9619V28.331ZM84.1712 31.6798H85.0084V32.517H84.1712V31.6798ZM83.334 31.6798H84.1712V32.517H83.334V31.6798ZM82.4968 31.6798H83.334V32.517H82.4968V31.6798ZM74.1247 30.0054H74.9619V30.8426H74.1247V30.0054ZM79.9852 30.8426H80.8224V31.6798H79.9852V30.8426ZM80.8224 30.8426H81.6596V31.6798H80.8224V30.8426ZM70.7759 35.8659H71.6131V36.7031H70.7759V35.8659ZM70.7759 35.0287H71.6131V35.8659H70.7759V35.0287ZM71.6131 35.0287H72.4503V35.8659H71.6131V35.0287ZM72.4503 34.1915H73.2875V35.0287H72.4503V34.1915ZM73.2875 34.1915H74.1247V35.0287H73.2875V34.1915ZM73.2875 33.3543H74.1247V34.1915H73.2875V33.3543ZM72.4503 33.3543H73.2875V34.1915H72.4503V33.3543ZM74.1247 33.3543H74.9619V34.1915H74.1247V33.3543ZM74.9619 33.3543H75.7991V34.1915H74.9619V33.3543ZM75.7991 35.0287H76.6363V35.8659H75.7991V35.0287ZM74.9619 35.8659H75.7991V36.7031H74.9619V35.8659ZM74.1247 35.8659H74.9619V36.7031H74.1247V35.8659ZM74.1247 35.0287H74.9619V35.8659H74.1247V35.0287ZM74.1247 34.1915H74.9619V35.0287H74.1247V34.1915ZM74.9619 34.1915H75.7991V35.0287H74.9619V34.1915ZM74.9619 35.0287H75.7991V35.8659H74.9619V35.0287ZM76.6363 35.0287H77.4735V35.8659H76.6363V35.0287ZM76.6363 35.8659H77.4735V36.7031H76.6363V35.8659ZM75.7991 35.8659H76.6363V36.7031H75.7991V35.8659ZM71.6131 34.1915H72.4503V35.0287H71.6131V34.1915ZM73.2875 35.0287H74.1247V35.8659H73.2875V35.0287ZM77.4735 35.0287H78.3108V35.8659H77.4735V35.0287ZM77.4735 35.8659H78.3108V36.7031H77.4735V35.8659ZM75.7991 34.1915H76.6363V35.0287H75.7991V34.1915ZM76.6363 34.1915H77.4735V35.0287H76.6363V34.1915ZM75.7991 33.3543H76.6363V34.1915H75.7991V33.3543ZM95.893 35.0287H96.7302V35.8659H95.893V35.0287ZM95.893 35.8659H96.7302V36.7031H95.893V35.8659ZM95.0558 35.8659H95.893V36.7031H95.0558V35.8659ZM96.7302 35.0287H97.5674V35.8659H96.7302V35.0287ZM97.5674 35.8659H98.4046V36.7031H97.5674V35.8659ZM97.5674 36.7031H98.4046V37.5403H97.5674V36.7031ZM96.7302 36.7031H97.5674V37.5403H96.7302V36.7031ZM96.7302 35.8659H97.5674V36.7031H96.7302V35.8659ZM94.2185 36.7031H95.0558V37.5403H94.2185V36.7031ZM93.3813 36.7031H94.2185V37.5403H93.3813V36.7031ZM93.3813 37.5403H94.2185V38.3775H93.3813V37.5403ZM94.2185 37.5403H95.0558V38.3775H94.2185V37.5403ZM95.893 36.7031H96.7302V37.5403H95.893V36.7031ZM95.0558 36.7031H95.893V37.5403H95.0558V36.7031ZM95.0558 37.5403H95.893V38.3775H95.0558V37.5403ZM95.893 37.5403H96.7302V38.3775H95.893V37.5403ZM96.7302 37.5403H97.5674V38.3775H96.7302V37.5403ZM97.5674 37.5403H98.4046V38.3775H97.5674V37.5403ZM98.4046 36.7031H99.2418V37.5403H98.4046V36.7031ZM99.2418 36.7031H100.079V37.5403H99.2418V36.7031ZM99.2418 37.5403H100.079V38.3775H99.2418V37.5403ZM98.4046 37.5403H99.2418V38.3775H98.4046V37.5403ZM100.079 36.7031H100.916V37.5403H100.079V36.7031ZM100.916 36.7031H101.753V37.5403H100.916V36.7031ZM100.916 37.5403H101.753V38.3775H100.916V37.5403ZM100.079 37.5403H100.916V38.3775H100.079V37.5403ZM102.591 35.0287H103.428V35.8659H102.591V35.0287ZM102.591 35.8659H103.428V36.7031H102.591V35.8659ZM101.753 35.8659H102.591V36.7031H101.753V35.8659ZM103.428 35.0287H104.265V35.8659H103.428V35.0287ZM104.265 35.8659H105.102V36.7031H104.265V35.8659ZM103.428 35.8659H104.265V36.7031H103.428V35.8659ZM105.102 36.7031H105.939V37.5403H105.102V36.7031ZM105.939 36.7031H106.777V37.5403H105.939V36.7031ZM105.939 37.5403H106.777V38.3775H105.939V37.5403ZM105.102 37.5403H105.939V38.3775H105.102V37.5403ZM105.102 38.3775H105.939V39.2147H105.102V38.3775ZM105.939 38.3775H106.777V39.2147H105.939V38.3775ZM105.939 39.2147H106.777V40.0519H105.939V39.2147ZM105.102 39.2147H105.939V40.0519H105.102V39.2147ZM106.777 36.7031H107.614V37.5403H106.777V36.7031ZM107.614 36.7031H108.451V37.5403H107.614V36.7031ZM107.614 37.5403H108.451V38.3775H107.614V37.5403ZM106.777 37.5403H107.614V38.3775H106.777V37.5403ZM104.265 36.7031H105.102V37.5403H104.265V36.7031ZM103.428 36.7031H104.265V37.5403H103.428V36.7031ZM102.591 36.7031H103.428V37.5403H102.591V36.7031ZM101.753 36.7031H102.591V37.5403H101.753V36.7031ZM101.753 37.5403H102.591V38.3775H101.753V37.5403ZM102.591 37.5403H103.428V38.3775H102.591V37.5403ZM103.428 37.5403H104.265V38.3775H103.428V37.5403ZM104.265 37.5403H105.102V38.3775H104.265V37.5403ZM103.428 38.3775H104.265V39.2147H103.428V38.3775ZM103.428 39.2147H104.265V40.0519H103.428V39.2147ZM104.265 39.2147H105.102V40.0519H104.265V39.2147ZM104.265 38.3775H105.102V39.2147H104.265V38.3775ZM103.428 40.0519H104.265V40.8891H103.428V40.0519ZM103.428 40.8891H104.265V41.7263H103.428V40.8891ZM104.265 40.8891H105.102V41.7263H104.265V40.8891ZM104.265 41.7263H105.102V42.5636H104.265V41.7263ZM105.102 41.7263H105.939V42.5636H105.102V41.7263ZM105.102 40.8891H105.939V41.7263H105.102V40.8891ZM105.939 40.8891H106.777V41.7263H105.939V40.8891ZM105.939 40.0519H106.777V40.8891H105.939V40.0519ZM105.102 40.0519H105.939V40.8891H105.102V40.0519ZM104.265 40.0519H105.102V40.8891H104.265V40.0519ZM103.428 41.7263H104.265V42.5636H103.428V41.7263ZM105.939 41.7263H106.777V42.5636H105.939V41.7263ZM96.7302 38.3775H97.5674V39.2147H96.7302V38.3775ZM97.5674 38.3775H98.4046V39.2147H97.5674V38.3775ZM97.5674 39.2147H98.4046V40.0519H97.5674V39.2147ZM96.7302 39.2147H97.5674V40.0519H96.7302V39.2147ZM98.4046 38.3775H99.2418V39.2147H98.4046V38.3775ZM99.2418 38.3775H100.079V39.2147H99.2418V38.3775ZM99.2418 39.2147H100.079V40.0519H99.2418V39.2147ZM98.4046 39.2147H99.2418V40.0519H98.4046V39.2147ZM97.5674 40.0519H98.4046V40.8891H97.5674V40.0519ZM96.7302 40.0519H97.5674V40.8891H96.7302V40.0519ZM96.7302 40.8891H97.5674V41.7263H96.7302V40.8891ZM96.7302 41.7263H97.5674V42.5636H96.7302V41.7263ZM97.5674 41.7263H98.4046V42.5636H97.5674V41.7263ZM98.4046 41.7263H99.2418V42.5636H98.4046V41.7263ZM99.2418 41.7263H100.079V42.5636H99.2418V41.7263ZM99.2418 40.8891H100.079V41.7263H99.2418V40.8891ZM99.2418 40.0519H100.079V40.8891H99.2418V40.0519ZM98.4046 40.0519H99.2418V40.8891H98.4046V40.0519ZM98.4046 40.8891H99.2418V41.7263H98.4046V40.8891ZM97.5674 40.8891H98.4046V41.7263H97.5674V40.8891ZM103.428 42.5636H104.265V43.4008H103.428V42.5636ZM103.428 43.4008H104.265V44.238H103.428V43.4008ZM104.265 43.4008H105.102V44.238H104.265V43.4008ZM104.265 42.5636H105.102V43.4008H104.265V42.5636ZM102.591 44.238H103.428V45.0752H102.591V44.238ZM103.428 44.238H104.265V45.0752H103.428V44.238ZM104.265 44.238H105.102V45.0752H104.265V44.238ZM105.102 44.238H105.939V45.0752H105.102V44.238ZM105.939 44.238H106.777V45.0752H105.939V44.238ZM105.939 43.4008H106.777V44.238H105.939V43.4008ZM105.939 42.5636H106.777V43.4008H105.939V42.5636ZM105.102 42.5636H105.939V43.4008H105.102V42.5636ZM105.102 43.4008H105.939V44.238H105.102V43.4008ZM104.265 45.0752H105.102V45.9124H104.265V45.0752ZM103.428 45.0752H104.265V45.9124H103.428V45.0752ZM103.428 45.9124H104.265V46.7496H103.428V45.9124ZM104.265 45.9124H105.102V46.7496H104.265V45.9124ZM103.428 46.7496H104.265V47.5868H103.428V46.7496ZM104.265 46.7496H105.102V47.5868H104.265V46.7496ZM103.428 47.5868H104.265V48.424H103.428V47.5868ZM104.265 47.5868H105.102V48.424H104.265V47.5868ZM105.939 45.0752H106.777V45.9124H105.939V45.0752ZM105.102 45.0752H105.939V45.9124H105.102V45.0752ZM102.591 45.0752H103.428V45.9124H102.591V45.0752ZM101.753 45.0752H102.591V45.9124H101.753V45.0752ZM103.428 48.424H104.265V49.2612H103.428V48.424ZM102.591 47.5868H103.428V48.424H102.591V47.5868ZM101.753 47.5868H102.591V48.424H101.753V47.5868ZM101.753 48.424H102.591V49.2612H101.753V48.424ZM102.591 48.424H103.428V49.2612H102.591V48.424ZM100.916 47.5868H101.753V48.424H100.916V47.5868ZM100.079 47.5868H100.916V48.424H100.079V47.5868ZM100.079 48.424H100.916V49.2612H100.079V48.424ZM100.916 48.424H101.753V49.2612H100.916V48.424ZM99.2418 47.5868H100.079V48.424H99.2418V47.5868ZM98.4046 47.5868H99.2418V48.424H98.4046V47.5868ZM98.4046 48.424H99.2418V49.2612H98.4046V48.424ZM99.2418 48.424H100.079V49.2612H99.2418V48.424ZM99.2418 46.7496H100.079V47.5868H99.2418V46.7496ZM99.2418 45.9124H100.079V46.7496H99.2418V45.9124ZM98.4046 45.9124H99.2418V46.7496H98.4046V45.9124ZM98.4046 46.7496H99.2418V47.5868H98.4046V46.7496ZM99.2418 45.0752H100.079V45.9124H99.2418V45.0752ZM99.2418 44.238H100.079V45.0752H99.2418V44.238ZM98.4046 44.238H99.2418V45.0752H98.4046V44.238ZM98.4046 45.0752H99.2418V45.9124H98.4046V45.0752ZM99.2418 43.4008H100.079V44.238H99.2418V43.4008ZM99.2418 42.5636H100.079V43.4008H99.2418V42.5636ZM98.4046 42.5636H99.2418V43.4008H98.4046V42.5636ZM98.4046 43.4008H99.2418V44.238H98.4046V43.4008ZM97.5674 42.5636H98.4046V43.4008H97.5674V42.5636ZM97.5674 43.4008H98.4046V44.238H97.5674V43.4008ZM97.5674 44.238H98.4046V45.0752H97.5674V44.238ZM96.7302 42.5636H97.5674V43.4008H96.7302V42.5636ZM96.7302 43.4008H97.5674V44.238H96.7302V43.4008ZM96.7302 44.238H97.5674V45.0752H96.7302V44.238ZM96.7302 45.0752H97.5674V45.9124H96.7302V45.0752ZM96.7302 45.9124H97.5674V46.7496H96.7302V45.9124ZM96.7302 46.7496H97.5674V47.5868H96.7302V46.7496ZM97.5674 46.7496H98.4046V47.5868H97.5674V46.7496ZM97.5674 45.9124H98.4046V46.7496H97.5674V45.9124ZM97.5674 45.0752H98.4046V45.9124H97.5674V45.0752ZM96.7302 47.5868H97.5674V48.424H96.7302V47.5868ZM97.5674 47.5868H98.4046V48.424H97.5674V47.5868ZM97.5674 48.424H98.4046V49.2612H97.5674V48.424ZM96.7302 48.424H97.5674V49.2612H96.7302V48.424ZM95.893 48.424H96.7302V49.2612H95.893V48.424ZM95.0558 48.424H95.893V49.2612H95.0558V48.424ZM95.893 47.5868H96.7302V48.424H95.893V47.5868ZM94.2185 49.2612H95.0558V50.0984H94.2185V49.2612ZM93.3813 50.0984H94.2185V50.9356H93.3813V50.0984ZM94.2185 50.0984H95.0558V50.9356H94.2185V50.0984ZM94.2185 50.9356H95.0558V51.7729H94.2185V50.9356ZM94.2185 51.7729H95.0558V52.6101H94.2185V51.7729ZM93.3813 51.7729H94.2185V52.6101H93.3813V51.7729ZM93.3813 50.9356H94.2185V51.7729H93.3813V50.9356ZM95.893 52.6101H96.7302V53.4473H95.893V52.6101ZM95.893 53.4473H96.7302V54.2845H95.893V53.4473ZM95.0558 52.6101H95.893V53.4473H95.0558V52.6101ZM95.0558 53.4473H95.893V54.2845H95.0558V53.4473ZM96.7302 53.4473H97.5674V54.2845H96.7302V53.4473ZM97.5674 52.6101H98.4046V53.4473H97.5674V52.6101ZM98.4046 52.6101H99.2418V53.4473H98.4046V52.6101ZM99.2418 52.6101H100.079V53.4473H99.2418V52.6101ZM96.7302 52.6101H97.5674V53.4473H96.7302V52.6101ZM97.5674 53.4473H98.4046V54.2845H97.5674V53.4473ZM98.4046 53.4473H99.2418V54.2845H98.4046V53.4473ZM99.2418 53.4473H100.079V54.2845H99.2418V53.4473ZM100.079 53.4473H100.916V54.2845H100.079V53.4473ZM100.079 52.6101H100.916V53.4473H100.079V52.6101ZM100.079 51.7729H100.916V52.6101H100.079V51.7729ZM100.916 51.7729H101.753V52.6101H100.916V51.7729ZM100.916 50.9356H101.753V51.7729H100.916V50.9356ZM101.753 51.7729H102.591V52.6101H101.753V51.7729ZM102.591 51.7729H103.428V52.6101H102.591V51.7729ZM102.591 50.9356H103.428V51.7729H102.591V50.9356ZM101.753 50.9356H102.591V51.7729H101.753V50.9356ZM103.428 50.9356H104.265V51.7729H103.428V50.9356ZM104.265 50.9356H105.102V51.7729H104.265V50.9356ZM104.265 51.7729H105.102V52.6101H104.265V51.7729ZM103.428 51.7729H104.265V52.6101H103.428V51.7729ZM102.591 52.6101H103.428V53.4473H102.591V52.6101ZM101.753 52.6101H102.591V53.4473H101.753V52.6101ZM101.753 53.4473H102.591V54.2845H101.753V53.4473ZM102.591 53.4473H103.428V54.2845H102.591V53.4473ZM100.916 52.6101H101.753V53.4473H100.916V52.6101ZM100.916 53.4473H101.753V54.2845H100.916V53.4473ZM95.893 49.2612H96.7302V50.0984H95.893V49.2612ZM95.0558 49.2612H95.893V50.0984H95.0558V49.2612ZM95.0558 50.0984H95.893V50.9356H95.0558V50.0984ZM95.893 50.0984H96.7302V50.9356H95.893V50.0984ZM97.5674 49.2612H98.4046V50.0984H97.5674V49.2612ZM96.7302 50.0984H97.5674V50.9356H96.7302V50.0984ZM96.7302 49.2612H97.5674V50.0984H96.7302V49.2612ZM103.428 52.6101H104.265V53.4473H103.428V52.6101ZM94.2185 52.6101H95.0558V53.4473H94.2185V52.6101ZM95.0558 51.7729H95.893V52.6101H95.0558V51.7729ZM95.0558 50.9356H95.893V51.7729H95.0558V50.9356ZM95.893 50.9356H96.7302V51.7729H95.893V50.9356ZM105.102 45.9124H105.939V46.7496H105.102V45.9124ZM105.102 46.7496H105.939V47.5868H105.102V46.7496ZM105.939 45.9124H106.777V46.7496H105.939V45.9124ZM113.465 48.424H114.302V49.2612H113.465V48.424ZM114.302 48.424H115.139V49.2612H114.302V48.424ZM112.627 47.5868H113.465V48.424H112.627V47.5868ZM113.465 47.5868H114.302V48.424H113.465V47.5868ZM114.302 47.5868H115.139V48.424H114.302V47.5868ZM115.139 47.5868H115.976V48.424H115.139V47.5868ZM112.627 46.7496H113.465V47.5868H112.627V46.7496ZM112.627 45.9124H113.465V46.7496H112.627V45.9124ZM113.465 45.9124H114.302V46.7496H113.465V45.9124ZM113.465 46.7496H114.302V47.5868H113.465V46.7496ZM114.302 46.7496H115.139V47.5868H114.302V46.7496ZM115.139 46.7496H115.976V47.5868H115.139V46.7496ZM115.139 45.9124H115.976V46.7496H115.139V45.9124ZM114.302 45.9124H115.139V46.7496H114.302V45.9124ZM113.465 45.0752H114.302V45.9124H113.465V45.0752ZM114.302 45.0752H115.139V45.9124H114.302V45.0752ZM115.139 45.0752H115.976V45.9124H115.139V45.0752ZM115.139 44.238H115.976V45.0752H115.139V44.238ZM114.302 44.238H115.139V45.0752H114.302V44.238ZM113.465 44.238H114.302V45.0752H113.465V44.238ZM113.465 43.4008H114.302V44.238H113.465V43.4008ZM113.465 42.5636H114.302V43.4008H113.465V42.5636ZM113.465 41.7263H114.302V42.5636H113.465V41.7263ZM113.465 40.8891H114.302V41.7263H113.465V40.8891ZM113.465 40.0519H114.302V40.8891H113.465V40.0519ZM114.302 40.0519H115.139V40.8891H114.302V40.0519ZM115.139 40.0519H115.976V40.8891H115.139V40.0519ZM115.139 40.8891H115.976V41.7263H115.139V40.8891ZM115.139 41.7263H115.976V42.5636H115.139V41.7263ZM115.139 42.5636H115.976V43.4008H115.139V42.5636ZM114.302 42.5636H115.139V43.4008H114.302V42.5636ZM114.302 43.4008H115.139V44.238H114.302V43.4008ZM114.302 41.7263H115.139V42.5636H114.302V41.7263ZM114.302 40.8891H115.139V41.7263H114.302V40.8891ZM115.139 43.4008H115.976V44.238H115.139V43.4008ZM115.139 39.2147H115.976V40.0519H115.139V39.2147ZM115.139 38.3775H115.976V39.2147H115.139V38.3775ZM115.139 37.5403H115.976V38.3775H115.139V37.5403ZM115.139 36.7031H115.976V37.5403H115.139V36.7031ZM115.139 35.8659H115.976V36.7031H115.139V35.8659ZM113.465 35.8659H114.302V36.7031H113.465V35.8659ZM114.302 36.7031H115.139V37.5403H114.302V36.7031ZM114.302 37.5403H115.139V38.3775H114.302V37.5403ZM114.302 38.3775H115.139V39.2147H114.302V38.3775ZM114.302 39.2147H115.139V40.0519H114.302V39.2147ZM113.465 39.2147H114.302V40.0519H113.465V39.2147ZM113.465 38.3775H114.302V39.2147H113.465V38.3775ZM113.465 37.5403H114.302V38.3775H113.465V37.5403ZM113.465 36.7031H114.302V37.5403H113.465V36.7031ZM114.302 35.8659H115.139V36.7031H114.302V35.8659ZM112.627 45.0752H113.465V45.9124H112.627V45.0752ZM112.627 44.238H113.465V45.0752H112.627V44.238ZM112.627 43.4008H113.465V44.238H112.627V43.4008ZM112.627 42.5636H113.465V43.4008H112.627V42.5636ZM112.627 41.7263H113.465V42.5636H112.627V41.7263ZM112.627 40.8891H113.465V41.7263H112.627V40.8891ZM112.627 40.0519H113.465V40.8891H112.627V40.0519ZM112.627 39.2147H113.465V40.0519H112.627V39.2147ZM112.627 38.3775H113.465V39.2147H112.627V38.3775ZM112.627 37.5403H113.465V38.3775H112.627V37.5403ZM112.627 35.8659H113.465V36.7031H112.627V35.8659ZM112.627 36.7031H113.465V37.5403H112.627V36.7031ZM113.465 35.0287H114.302V35.8659H113.465V35.0287ZM114.302 35.0287H115.139V35.8659H114.302V35.0287ZM111.79 36.7031H112.627V37.5403H111.79V36.7031ZM119.325 47.5868H120.162V48.424H119.325V47.5868ZM120.162 47.5868H120.999V48.424H120.162V47.5868ZM119.325 46.7496H120.162V47.5868H119.325V46.7496ZM120.162 45.9124H120.999V46.7496H120.162V45.9124ZM120.162 46.7496H120.999V47.5868H120.162V46.7496ZM120.999 46.7496H121.837V47.5868H120.999V46.7496ZM121.837 46.7496H122.674V47.5868H121.837V46.7496ZM121.837 45.9124H122.674V46.7496H121.837V45.9124ZM122.674 46.7496H123.511V47.5868H122.674V46.7496ZM120.999 45.9124H121.837V46.7496H120.999V45.9124ZM120.162 45.0752H120.999V45.9124H120.162V45.0752ZM120.999 45.0752H121.837V45.9124H120.999V45.0752ZM121.837 45.0752H122.674V45.9124H121.837V45.0752ZM121.837 44.238H122.674V45.0752H121.837V44.238ZM120.999 44.238H121.837V45.0752H120.999V44.238ZM120.162 44.238H120.999V45.0752H120.162V44.238ZM120.162 43.4008H120.999V44.238H120.162V43.4008ZM120.162 42.5636H120.999V43.4008H120.162V42.5636ZM120.162 41.7263H120.999V42.5636H120.162V41.7263ZM120.162 40.8891H120.999V41.7263H120.162V40.8891ZM120.162 40.0519H120.999V40.8891H120.162V40.0519ZM120.999 40.0519H121.837V40.8891H120.999V40.0519ZM121.837 40.0519H122.674V40.8891H121.837V40.0519ZM121.837 40.8891H122.674V41.7263H121.837V40.8891ZM121.837 41.7263H122.674V42.5636H121.837V41.7263ZM121.837 42.5636H122.674V43.4008H121.837V42.5636ZM120.999 42.5636H121.837V43.4008H120.999V42.5636ZM120.999 43.4008H121.837V44.238H120.999V43.4008ZM120.999 41.7263H121.837V42.5636H120.999V41.7263ZM120.999 40.8891H121.837V41.7263H120.999V40.8891ZM121.837 43.4008H122.674V44.238H121.837V43.4008ZM121.837 39.2147H122.674V40.0519H121.837V39.2147ZM121.837 38.3775H122.674V39.2147H121.837V38.3775ZM121.837 37.5403H122.674V38.3775H121.837V37.5403ZM121.837 36.7031H122.674V37.5403H121.837V36.7031ZM121.837 35.8659H122.674V36.7031H121.837V35.8659ZM120.162 35.8659H120.999V36.7031H120.162V35.8659ZM120.999 36.7031H121.837V37.5403H120.999V36.7031ZM120.999 37.5403H121.837V38.3775H120.999V37.5403ZM120.999 38.3775H121.837V39.2147H120.999V38.3775ZM120.999 39.2147H121.837V40.0519H120.999V39.2147ZM120.162 39.2147H120.999V40.0519H120.162V39.2147ZM120.162 38.3775H120.999V39.2147H120.162V38.3775ZM120.162 37.5403H120.999V38.3775H120.162V37.5403ZM120.162 36.7031H120.999V37.5403H120.162V36.7031ZM120.999 35.8659H121.837V36.7031H120.999V35.8659ZM119.325 44.238H120.162V45.0752H119.325V44.238ZM119.325 43.4008H120.162V44.238H119.325V43.4008ZM119.325 42.5636H120.162V43.4008H119.325V42.5636ZM119.325 41.7263H120.162V42.5636H119.325V41.7263ZM119.325 40.8891H120.162V41.7263H119.325V40.8891ZM119.325 40.0519H120.162V40.8891H119.325V40.0519ZM119.325 39.2147H120.162V40.0519H119.325V39.2147ZM119.325 38.3775H120.162V39.2147H119.325V38.3775ZM119.325 37.5403H120.162V38.3775H119.325V37.5403ZM119.325 35.8659H120.162V36.7031H119.325V35.8659ZM119.325 36.7031H120.162V37.5403H119.325V36.7031ZM123.511 45.9124H124.348V46.7496H123.511V45.9124ZM120.162 35.0287H120.999V35.8659H120.162V35.0287ZM120.999 35.0287H121.837V35.8659H120.999V35.0287ZM118.488 36.7031H119.325V37.5403H118.488V36.7031ZM122.674 36.7031H123.511V37.5403H122.674V36.7031ZM110.953 37.5403H111.79V38.3775H110.953V37.5403ZM111.79 37.5403H112.627V38.3775H111.79V37.5403ZM116.813 36.7031H117.651V37.5403H116.813V36.7031ZM117.651 36.7031H118.488V37.5403H117.651V36.7031ZM117.651 35.8659H118.488V36.7031H117.651V35.8659ZM118.488 35.8659H119.325V36.7031H118.488V35.8659ZM118.488 35.0287H119.325V35.8659H118.488V35.0287ZM119.325 35.0287H120.162V35.8659H119.325V35.0287ZM115.976 36.7031H116.813V37.5403H115.976V36.7031ZM118.488 37.5403H119.325V38.3775H118.488V37.5403ZM122.674 45.9124H123.511V46.7496H122.674V45.9124ZM110.953 36.7031H111.79V37.5403H110.953V36.7031ZM123.511 37.5403H124.348V38.3775H123.511V37.5403ZM122.674 37.5403H123.511V38.3775H122.674V37.5403ZM123.511 36.7031H124.348V37.5403H123.511V36.7031ZM117.651 37.5403H118.488V38.3775H117.651V37.5403ZM116.813 37.5403H117.651V38.3775H116.813V37.5403ZM115.976 37.5403H116.813V38.3775H115.976V37.5403ZM112.627 48.424H113.465V49.2612H112.627V48.424ZM119.325 48.424H120.162V49.2612H119.325V48.424ZM115.139 48.424H115.976V49.2612H115.139V48.424ZM115.139 49.2612H115.976V50.0984H115.139V49.2612ZM115.139 50.0984H115.976V50.9356H115.139V50.0984ZM115.139 50.9356H115.976V51.7729H115.139V50.9356ZM112.627 53.4473H113.465V54.2845H112.627V53.4473ZM112.627 52.6101H113.465V53.4473H112.627V52.6101ZM112.627 51.7729H113.465V52.6101H112.627V51.7729ZM112.627 50.9356H113.465V51.7729H112.627V50.9356ZM112.627 50.0984H113.465V50.9356H112.627V50.0984ZM112.627 49.2612H113.465V50.0984H112.627V49.2612ZM113.465 49.2612H114.302V50.0984H113.465V49.2612ZM114.302 49.2612H115.139V50.0984H114.302V49.2612ZM114.302 50.0984H115.139V50.9356H114.302V50.0984ZM114.302 50.9356H115.139V51.7729H114.302V50.9356ZM113.465 50.9356H114.302V51.7729H113.465V50.9356ZM113.465 51.7729H114.302V52.6101H113.465V51.7729ZM113.465 50.0984H114.302V50.9356H113.465V50.0984ZM113.465 52.6101H114.302V53.4473H113.465V52.6101ZM114.302 51.7729H115.139V52.6101H114.302V51.7729ZM119.325 45.9124H120.162V46.7496H119.325V45.9124ZM119.325 45.0752H120.162V45.9124H119.325V45.0752ZM115.976 46.7496H116.813V47.5868H115.976V46.7496ZM116.813 46.7496H117.651V47.5868H116.813V46.7496ZM117.651 46.7496H118.488V47.5868H117.651V46.7496ZM118.488 46.7496H119.325V47.5868H118.488V46.7496ZM118.488 45.9124H119.325V46.7496H118.488V45.9124ZM117.651 45.9124H118.488V46.7496H117.651V45.9124ZM116.813 45.9124H117.651V46.7496H116.813V45.9124ZM115.976 45.9124H116.813V46.7496H115.976V45.9124ZM123.511 46.7496H124.348V47.5868H123.511V46.7496ZM111.79 45.9124H112.627V46.7496H111.79V45.9124ZM110.953 46.7496H111.79V47.5868H110.953V46.7496ZM111.79 46.7496H112.627V47.5868H111.79V46.7496ZM110.953 47.5868H111.79V48.424H110.953V47.5868ZM110.116 48.424H110.953V49.2612H110.116V48.424ZM110.116 47.5868H110.953V48.424H110.116V47.5868ZM111.79 47.5868H112.627V48.424H111.79V47.5868ZM110.953 48.424H111.79V49.2612H110.953V48.424ZM120.999 47.5868H121.837V48.424H120.999V47.5868ZM120.162 48.424H120.999V49.2612H120.162V48.424ZM111.79 35.8659H112.627V36.7031H111.79V35.8659ZM112.627 35.0287H113.465V35.8659H112.627V35.0287ZM128.518 47.5868H129.355V48.424H128.518V47.5868ZM128.518 46.7496H129.355V47.5868H128.518V46.7496ZM128.518 45.9124H129.355V46.7496H128.518V45.9124ZM128.518 45.0752H129.355V45.9124H128.518V45.0752ZM128.518 44.238H129.355V45.0752H128.518V44.238ZM128.518 43.4008H129.355V44.238H128.518V43.4008ZM128.518 42.5636H129.355V43.4008H128.518V42.5636ZM128.518 41.7263H129.355V42.5636H128.518V41.7263ZM128.518 40.8891H129.355V41.7263H128.518V40.8891ZM128.518 40.0519H129.355V40.8891H128.518V40.0519ZM129.355 40.0519H130.192V40.8891H129.355V40.0519ZM130.192 40.0519H131.03V40.8891H130.192V40.0519ZM127.681 40.0519H128.518V40.8891H127.681V40.0519ZM127.681 40.8891H128.518V41.7263H127.681V40.8891ZM127.681 41.7263H128.518V42.5636H127.681V41.7263ZM127.681 42.5636H128.518V43.4008H127.681V42.5636ZM127.681 43.4008H128.518V44.238H127.681V43.4008ZM127.681 44.238H128.518V45.0752H127.681V44.238ZM127.681 45.0752H128.518V45.9124H127.681V45.0752ZM127.681 45.9124H128.518V46.7496H127.681V45.9124ZM127.681 46.7496H128.518V47.5868H127.681V46.7496ZM129.355 46.7496H130.192V47.5868H129.355V46.7496ZM130.192 46.7496H131.03V47.5868H130.192V46.7496ZM130.192 45.9124H131.03V46.7496H130.192V45.9124ZM130.192 45.0752H131.03V45.9124H130.192V45.0752ZM130.192 44.238H131.03V45.0752H130.192V44.238ZM130.192 43.4008H131.03V44.238H130.192V43.4008ZM130.192 42.5636H131.03V43.4008H130.192V42.5636ZM130.192 41.7263H131.03V42.5636H130.192V41.7263ZM130.192 40.8891H131.03V41.7263H130.192V40.8891ZM129.355 40.8891H130.192V41.7263H129.355V40.8891ZM129.355 41.7263H130.192V42.5636H129.355V41.7263ZM129.355 42.5636H130.192V43.4008H129.355V42.5636ZM129.355 43.4008H130.192V44.238H129.355V43.4008ZM129.355 44.238H130.192V45.0752H129.355V44.238ZM129.355 45.0752H130.192V45.9124H129.355V45.0752ZM129.355 45.9124H130.192V46.7496H129.355V45.9124ZM129.355 47.5868H130.192V48.424H129.355V47.5868ZM130.192 47.5868H131.03V48.424H130.192V47.5868ZM130.192 48.424H131.03V49.2612H130.192V48.424ZM129.355 48.424H130.192V49.2612H129.355V48.424ZM131.03 46.7496H131.867V47.5868H131.03V46.7496ZM131.867 46.7496H132.704V47.5868H131.867V46.7496ZM132.704 46.7496H133.541V47.5868H132.704V46.7496ZM130.192 39.2147H131.03V40.0519H130.192V39.2147ZM130.192 38.3775H131.03V39.2147H130.192V38.3775ZM130.192 37.5403H131.03V38.3775H130.192V37.5403ZM130.192 36.7031H131.03V37.5403H130.192V36.7031ZM127.681 38.3775H128.518V39.2147H127.681V38.3775ZM127.681 39.2147H128.518V40.0519H127.681V39.2147ZM128.518 39.2147H129.355V40.0519H128.518V39.2147ZM128.518 38.3775H129.355V39.2147H128.518V38.3775ZM129.355 38.3775H130.192V39.2147H129.355V38.3775ZM129.355 37.5403H130.192V38.3775H129.355V37.5403ZM129.355 36.7031H130.192V37.5403H129.355V36.7031ZM129.355 39.2147H130.192V40.0519H129.355V39.2147ZM131.867 35.0287H132.704V35.8659H131.867V35.0287ZM131.867 35.8659H132.704V36.7031H131.867V35.8659ZM131.03 35.8659H131.867V36.7031H131.03V35.8659ZM132.704 35.0287H133.541V35.8659H132.704V35.0287ZM133.541 35.0287H134.378V35.8659H133.541V35.0287ZM133.541 35.8659H134.378V36.7031H133.541V35.8659ZM132.704 35.8659H133.541V36.7031H132.704V35.8659ZM133.541 36.7031H134.378V37.5403H133.541V36.7031ZM135.216 36.7031H136.053V37.5403H135.216V36.7031ZM135.216 37.5403H136.053V38.3775H135.216V37.5403ZM134.378 37.5403H135.216V38.3775H134.378V37.5403ZM134.378 36.7031H135.216V37.5403H134.378V36.7031ZM128.518 37.5403H129.355V38.3775H128.518V37.5403ZM126.844 46.7496H127.681V47.5868H126.844V46.7496ZM126.006 46.7496H126.844V47.5868H126.006V46.7496ZM126.006 45.9124H126.844V46.7496H126.006V45.9124ZM126.844 45.9124H127.681V46.7496H126.844V45.9124ZM131.03 45.9124H131.867V46.7496H131.03V45.9124ZM131.867 45.9124H132.704V46.7496H131.867V45.9124ZM132.704 45.9124H133.541V46.7496H132.704V45.9124ZM133.541 45.9124H134.378V46.7496H133.541V45.9124ZM131.03 48.424H131.867V49.2612H131.03V48.424ZM131.03 47.5868H131.867V48.424H131.03V47.5868ZM131.867 47.5868H132.704V48.424H131.867V47.5868ZM132.704 36.7031H133.541V37.5403H132.704V36.7031ZM133.541 37.5403H134.378V38.3775H133.541V37.5403ZM135.216 38.3775H136.053V39.2147H135.216V38.3775ZM134.378 38.3775H135.216V39.2147H134.378V38.3775ZM135.216 39.2147H136.053V40.0519H135.216V39.2147ZM134.378 35.0287H135.216V35.8659H134.378V35.0287ZM135.216 35.8659H136.053V36.7031H135.216V35.8659ZM134.378 35.8659H135.216V36.7031H134.378V35.8659ZM136.053 36.7031H136.89V37.5403H136.053V36.7031ZM136.053 37.5403H136.89V38.3775H136.053V37.5403ZM136.053 38.3775H136.89V39.2147H136.053V38.3775ZM133.541 40.0519H134.378V40.8891H133.541V40.0519ZM132.704 40.0519H133.541V40.8891H132.704V40.0519ZM131.867 40.0519H132.704V40.8891H131.867V40.0519ZM131.03 40.0519H131.867V40.8891H131.03V40.0519ZM131.03 40.8891H131.867V41.7263H131.03V40.8891ZM131.867 40.8891H132.704V41.7263H131.867V40.8891ZM132.704 40.8891H133.541V41.7263H132.704V40.8891ZM133.541 40.8891H134.378V41.7263H133.541V40.8891ZM134.378 40.0519H135.216V40.8891H134.378V40.0519ZM134.378 40.8891H135.216V41.7263H134.378V40.8891ZM136.053 39.2147H136.89V40.0519H136.053V39.2147ZM131.03 36.7031H131.867V37.5403H131.03V36.7031ZM130.192 35.8659H131.03V36.7031H130.192V35.8659ZM131.03 35.0287H131.867V35.8659H131.03V35.0287ZM141.069 48.424H141.906V49.2612H141.069V48.424ZM141.906 48.424H142.743V49.2612H141.906V48.424ZM140.232 47.5868H141.069V48.424H140.232V47.5868ZM141.069 47.5868H141.906V48.424H141.069V47.5868ZM141.906 47.5868H142.743V48.424H141.906V47.5868ZM142.743 47.5868H143.58V48.424H142.743V47.5868ZM139.394 46.7496H140.232V47.5868H139.394V46.7496ZM140.232 46.7496H141.069V47.5868H140.232V46.7496ZM140.232 45.9124H141.069V46.7496H140.232V45.9124ZM141.069 45.9124H141.906V46.7496H141.069V45.9124ZM141.069 46.7496H141.906V47.5868H141.069V46.7496ZM141.906 46.7496H142.743V47.5868H141.906V46.7496ZM142.743 46.7496H143.58V47.5868H142.743V46.7496ZM142.743 45.9124H143.58V46.7496H142.743V45.9124ZM143.58 46.7496H144.418V47.5868H143.58V46.7496ZM141.906 45.9124H142.743V46.7496H141.906V45.9124ZM141.069 45.0752H141.906V45.9124H141.069V45.0752ZM141.906 45.0752H142.743V45.9124H141.906V45.0752ZM142.743 45.0752H143.58V45.9124H142.743V45.0752ZM142.743 44.238H143.58V45.0752H142.743V44.238ZM141.906 44.238H142.743V45.0752H141.906V44.238ZM141.069 44.238H141.906V45.0752H141.069V44.238ZM141.069 43.4008H141.906V44.238H141.069V43.4008ZM141.069 42.5636H141.906V43.4008H141.069V42.5636ZM141.069 41.7263H141.906V42.5636H141.069V41.7263ZM141.069 40.8891H141.906V41.7263H141.069V40.8891ZM141.069 40.0519H141.906V40.8891H141.069V40.0519ZM141.906 40.0519H142.743V40.8891H141.906V40.0519ZM142.743 40.0519H143.58V40.8891H142.743V40.0519ZM142.743 40.8891H143.58V41.7263H142.743V40.8891ZM142.743 41.7263H143.58V42.5636H142.743V41.7263ZM142.743 42.5636H143.58V43.4008H142.743V42.5636ZM141.906 42.5636H142.743V43.4008H141.906V42.5636ZM141.906 43.4008H142.743V44.238H141.906V43.4008ZM141.906 41.7263H142.743V42.5636H141.906V41.7263ZM141.906 40.8891H142.743V41.7263H141.906V40.8891ZM142.743 43.4008H143.58V44.238H142.743V43.4008ZM142.743 39.2147H143.58V40.0519H142.743V39.2147ZM142.743 38.3775H143.58V39.2147H142.743V38.3775ZM142.743 37.5403H143.58V38.3775H142.743V37.5403ZM142.743 36.7031H143.58V37.5403H142.743V36.7031ZM142.743 35.8659H143.58V36.7031H142.743V35.8659ZM141.069 35.8659H141.906V36.7031H141.069V35.8659ZM141.906 36.7031H142.743V37.5403H141.906V36.7031ZM141.906 37.5403H142.743V38.3775H141.906V37.5403ZM141.906 38.3775H142.743V39.2147H141.906V38.3775ZM141.906 39.2147H142.743V40.0519H141.906V39.2147ZM141.069 39.2147H141.906V40.0519H141.069V39.2147ZM141.069 38.3775H141.906V39.2147H141.069V38.3775ZM141.069 37.5403H141.906V38.3775H141.069V37.5403ZM141.069 36.7031H141.906V37.5403H141.069V36.7031ZM141.906 35.8659H142.743V36.7031H141.906V35.8659ZM140.232 45.0752H141.069V45.9124H140.232V45.0752ZM140.232 44.238H141.069V45.0752H140.232V44.238ZM140.232 43.4008H141.069V44.238H140.232V43.4008ZM140.232 42.5636H141.069V43.4008H140.232V42.5636ZM140.232 41.7263H141.069V42.5636H140.232V41.7263ZM140.232 40.8891H141.069V41.7263H140.232V40.8891ZM140.232 40.0519H141.069V40.8891H140.232V40.0519ZM140.232 39.2147H141.069V40.0519H140.232V39.2147ZM140.232 38.3775H141.069V39.2147H140.232V38.3775ZM140.232 37.5403H141.069V38.3775H140.232V37.5403ZM140.232 35.8659H141.069V36.7031H140.232V35.8659ZM140.232 36.7031H141.069V37.5403H140.232V36.7031ZM141.906 35.0287H142.743V35.8659H141.906V35.0287ZM139.394 36.7031H140.232V37.5403H139.394V36.7031ZM147.766 48.424H148.604V49.2612H147.766V48.424ZM148.604 48.424H149.441V49.2612H148.604V48.424ZM146.929 47.5868H147.766V48.424H146.929V47.5868ZM147.766 47.5868H148.604V48.424H147.766V47.5868ZM148.604 47.5868H149.441V48.424H148.604V47.5868ZM149.441 47.5868H150.278V48.424H149.441V47.5868ZM146.092 46.7496H146.929V47.5868H146.092V46.7496ZM146.929 46.7496H147.766V47.5868H146.929V46.7496ZM146.929 45.9124H147.766V46.7496H146.929V45.9124ZM147.766 45.9124H148.604V46.7496H147.766V45.9124ZM147.766 46.7496H148.604V47.5868H147.766V46.7496ZM148.604 46.7496H149.441V47.5868H148.604V46.7496ZM149.441 46.7496H150.278V47.5868H149.441V46.7496ZM149.441 45.9124H150.278V46.7496H149.441V45.9124ZM150.278 46.7496H151.115V47.5868H150.278V46.7496ZM148.604 45.9124H149.441V46.7496H148.604V45.9124ZM147.766 45.0752H148.604V45.9124H147.766V45.0752ZM148.604 45.0752H149.441V45.9124H148.604V45.0752ZM149.441 45.0752H150.278V45.9124H149.441V45.0752ZM149.441 44.238H150.278V45.0752H149.441V44.238ZM148.604 44.238H149.441V45.0752H148.604V44.238ZM147.766 44.238H148.604V45.0752H147.766V44.238ZM147.766 43.4008H148.604V44.238H147.766V43.4008ZM147.766 42.5636H148.604V43.4008H147.766V42.5636ZM147.766 41.7263H148.604V42.5636H147.766V41.7263ZM147.766 40.8891H148.604V41.7263H147.766V40.8891ZM147.766 40.0519H148.604V40.8891H147.766V40.0519ZM148.604 40.0519H149.441V40.8891H148.604V40.0519ZM149.441 40.0519H150.278V40.8891H149.441V40.0519ZM149.441 40.8891H150.278V41.7263H149.441V40.8891ZM149.441 41.7263H150.278V42.5636H149.441V41.7263ZM149.441 42.5636H150.278V43.4008H149.441V42.5636ZM148.604 42.5636H149.441V43.4008H148.604V42.5636ZM148.604 43.4008H149.441V44.238H148.604V43.4008ZM148.604 41.7263H149.441V42.5636H148.604V41.7263ZM148.604 40.8891H149.441V41.7263H148.604V40.8891ZM149.441 43.4008H150.278V44.238H149.441V43.4008ZM149.441 39.2147H150.278V40.0519H149.441V39.2147ZM149.441 38.3775H150.278V39.2147H149.441V38.3775ZM149.441 37.5403H150.278V38.3775H149.441V37.5403ZM149.441 36.7031H150.278V37.5403H149.441V36.7031ZM149.441 35.8659H150.278V36.7031H149.441V35.8659ZM147.766 35.8659H148.604V36.7031H147.766V35.8659ZM148.604 36.7031H149.441V37.5403H148.604V36.7031ZM148.604 37.5403H149.441V38.3775H148.604V37.5403ZM148.604 38.3775H149.441V39.2147H148.604V38.3775ZM148.604 39.2147H149.441V40.0519H148.604V39.2147ZM147.766 39.2147H148.604V40.0519H147.766V39.2147ZM147.766 38.3775H148.604V39.2147H147.766V38.3775ZM147.766 37.5403H148.604V38.3775H147.766V37.5403ZM147.766 36.7031H148.604V37.5403H147.766V36.7031ZM148.604 35.8659H149.441V36.7031H148.604V35.8659ZM146.929 45.0752H147.766V45.9124H146.929V45.0752ZM146.929 44.238H147.766V45.0752H146.929V44.238ZM146.929 43.4008H147.766V44.238H146.929V43.4008ZM146.929 42.5636H147.766V43.4008H146.929V42.5636ZM146.929 41.7263H147.766V42.5636H146.929V41.7263ZM146.929 40.8891H147.766V41.7263H146.929V40.8891ZM146.929 40.0519H147.766V40.8891H146.929V40.0519ZM146.929 39.2147H147.766V40.0519H146.929V39.2147ZM146.929 38.3775H147.766V39.2147H146.929V38.3775ZM146.929 37.5403H147.766V38.3775H146.929V37.5403ZM146.929 35.8659H147.766V36.7031H146.929V35.8659ZM146.929 36.7031H147.766V37.5403H146.929V36.7031ZM147.766 35.0287H148.604V35.8659H147.766V35.0287ZM148.604 35.0287H149.441V35.8659H148.604V35.0287ZM146.092 36.7031H146.929V37.5403H146.092V36.7031ZM138.557 37.5403H139.394V38.3775H138.557V37.5403ZM139.394 37.5403H140.232V38.3775H139.394V37.5403ZM144.418 36.7031H145.255V37.5403H144.418V36.7031ZM145.255 36.7031H146.092V37.5403H145.255V36.7031ZM145.255 35.8659H146.092V36.7031H145.255V35.8659ZM146.092 35.8659H146.929V36.7031H146.092V35.8659ZM146.092 35.0287H146.929V35.8659H146.092V35.0287ZM146.929 35.0287H147.766V35.8659H146.929V35.0287ZM143.58 36.7031H144.418V37.5403H143.58V36.7031ZM146.092 37.5403H146.929V38.3775H146.092V37.5403ZM138.557 45.9124H139.394V46.7496H138.557V45.9124ZM139.394 45.9124H140.232V46.7496H139.394V45.9124ZM145.255 45.9124H146.092V46.7496H145.255V45.9124ZM146.092 45.9124H146.929V46.7496H146.092V45.9124ZM150.278 45.9124H151.115V46.7496H150.278V45.9124ZM138.557 36.7031H139.394V37.5403H138.557V36.7031ZM143.58 45.9124H144.418V46.7496H143.58V45.9124ZM145.255 37.5403H146.092V38.3775H145.255V37.5403ZM144.418 37.5403H145.255V38.3775H144.418V37.5403ZM143.58 37.5403H144.418V38.3775H143.58V37.5403ZM154.464 48.424H155.301V49.2612H154.464V48.424ZM155.301 48.424H156.139V49.2612H155.301V48.424ZM153.627 47.5868H154.464V48.424H153.627V47.5868ZM154.464 47.5868H155.301V48.424H154.464V47.5868ZM155.301 47.5868H156.139V48.424H155.301V47.5868ZM156.139 47.5868H156.976V48.424H156.139V47.5868ZM152.79 46.7496H153.627V47.5868H152.79V46.7496ZM153.627 46.7496H154.464V47.5868H153.627V46.7496ZM153.627 45.9124H154.464V46.7496H153.627V45.9124ZM154.464 45.9124H155.301V46.7496H154.464V45.9124ZM154.464 46.7496H155.301V47.5868H154.464V46.7496ZM155.301 46.7496H156.139V47.5868H155.301V46.7496ZM156.139 46.7496H156.976V47.5868H156.139V46.7496ZM156.139 45.9124H156.976V46.7496H156.139V45.9124ZM156.976 46.7496H157.813V47.5868H156.976V46.7496ZM155.301 45.9124H156.139V46.7496H155.301V45.9124ZM154.464 45.0752H155.301V45.9124H154.464V45.0752ZM155.301 45.0752H156.139V45.9124H155.301V45.0752ZM156.139 45.0752H156.976V45.9124H156.139V45.0752ZM156.139 44.238H156.976V45.0752H156.139V44.238ZM155.301 44.238H156.139V45.0752H155.301V44.238ZM154.464 44.238H155.301V45.0752H154.464V44.238ZM154.464 43.4008H155.301V44.238H154.464V43.4008ZM154.464 42.5636H155.301V43.4008H154.464V42.5636ZM154.464 41.7263H155.301V42.5636H154.464V41.7263ZM154.464 40.8891H155.301V41.7263H154.464V40.8891ZM154.464 40.0519H155.301V40.8891H154.464V40.0519ZM155.301 40.0519H156.139V40.8891H155.301V40.0519ZM156.139 40.0519H156.976V40.8891H156.139V40.0519ZM156.139 40.8891H156.976V41.7263H156.139V40.8891ZM156.139 41.7263H156.976V42.5636H156.139V41.7263ZM156.139 42.5636H156.976V43.4008H156.139V42.5636ZM155.301 42.5636H156.139V43.4008H155.301V42.5636ZM155.301 43.4008H156.139V44.238H155.301V43.4008ZM155.301 41.7263H156.139V42.5636H155.301V41.7263ZM155.301 40.8891H156.139V41.7263H155.301V40.8891ZM156.139 43.4008H156.976V44.238H156.139V43.4008ZM156.139 39.2147H156.976V40.0519H156.139V39.2147ZM156.139 38.3775H156.976V39.2147H156.139V38.3775ZM156.139 37.5403H156.976V38.3775H156.139V37.5403ZM156.139 36.7031H156.976V37.5403H156.139V36.7031ZM156.139 35.8659H156.976V36.7031H156.139V35.8659ZM154.464 35.8659H155.301V36.7031H154.464V35.8659ZM155.301 36.7031H156.139V37.5403H155.301V36.7031ZM155.301 37.5403H156.139V38.3775H155.301V37.5403ZM155.301 38.3775H156.139V39.2147H155.301V38.3775ZM155.301 39.2147H156.139V40.0519H155.301V39.2147ZM154.464 39.2147H155.301V40.0519H154.464V39.2147ZM154.464 38.3775H155.301V39.2147H154.464V38.3775ZM154.464 37.5403H155.301V38.3775H154.464V37.5403ZM154.464 36.7031H155.301V37.5403H154.464V36.7031ZM155.301 35.8659H156.139V36.7031H155.301V35.8659ZM153.627 45.0752H154.464V45.9124H153.627V45.0752ZM153.627 44.238H154.464V45.0752H153.627V44.238ZM153.627 43.4008H154.464V44.238H153.627V43.4008ZM153.627 42.5636H154.464V43.4008H153.627V42.5636ZM153.627 41.7263H154.464V42.5636H153.627V41.7263ZM153.627 40.8891H154.464V41.7263H153.627V40.8891ZM153.627 40.0519H154.464V40.8891H153.627V40.0519ZM153.627 39.2147H154.464V40.0519H153.627V39.2147ZM153.627 38.3775H154.464V39.2147H153.627V38.3775ZM153.627 37.5403H154.464V38.3775H153.627V37.5403ZM153.627 35.8659H154.464V36.7031H153.627V35.8659ZM153.627 36.7031H154.464V37.5403H153.627V36.7031ZM157.813 45.9124H158.65V46.7496H157.813V45.9124ZM154.464 35.0287H155.301V35.8659H154.464V35.0287ZM155.301 35.0287H156.139V35.8659H155.301V35.0287ZM152.79 36.7031H153.627V37.5403H152.79V36.7031ZM156.976 36.7031H157.813V37.5403H156.976V36.7031ZM151.115 36.7031H151.952V37.5403H151.115V36.7031ZM151.952 36.7031H152.79V37.5403H151.952V36.7031ZM151.952 35.8659H152.79V36.7031H151.952V35.8659ZM152.79 35.8659H153.627V36.7031H152.79V35.8659ZM152.79 35.0287H153.627V35.8659H152.79V35.0287ZM153.627 35.0287H154.464V35.8659H153.627V35.0287ZM150.278 36.7031H151.115V37.5403H150.278V36.7031ZM152.79 37.5403H153.627V38.3775H152.79V37.5403ZM151.952 45.9124H152.79V46.7496H151.952V45.9124ZM152.79 45.9124H153.627V46.7496H152.79V45.9124ZM156.976 45.9124H157.813V46.7496H156.976V45.9124ZM157.813 37.5403H158.65V38.3775H157.813V37.5403ZM156.976 37.5403H157.813V38.3775H156.976V37.5403ZM157.813 36.7031H158.65V37.5403H157.813V36.7031ZM151.952 37.5403H152.79V38.3775H151.952V37.5403ZM151.115 37.5403H151.952V38.3775H151.115V37.5403ZM150.278 37.5403H151.115V38.3775H150.278V37.5403ZM138.557 46.7496H139.394V47.5868H138.557V46.7496ZM140.232 48.424H141.069V49.2612H140.232V48.424ZM145.255 46.7496H146.092V47.5868H145.255V46.7496ZM146.929 48.424H147.766V49.2612H146.929V48.424ZM151.952 46.7496H152.79V47.5868H151.952V46.7496ZM153.627 48.424H154.464V49.2612H153.627V48.424ZM139.394 35.8659H140.232V36.7031H139.394V35.8659ZM140.232 35.0287H141.069V35.8659H140.232V35.0287ZM141.069 35.0287H141.906V35.8659H141.069V35.0287ZM162.83 47.5868H163.668V48.424H162.83V47.5868ZM162.83 46.7496H163.668V47.5868H162.83V46.7496ZM162.83 45.9124H163.668V46.7496H162.83V45.9124ZM162.83 45.0752H163.668V45.9124H162.83V45.0752ZM162.83 44.238H163.668V45.0752H162.83V44.238ZM162.83 43.4008H163.668V44.238H162.83V43.4008ZM162.83 42.5636H163.668V43.4008H162.83V42.5636ZM162.83 41.7263H163.668V42.5636H162.83V41.7263ZM162.83 40.8891H163.668V41.7263H162.83V40.8891ZM162.83 40.0519H163.668V40.8891H162.83V40.0519ZM163.668 40.0519H164.505V40.8891H163.668V40.0519ZM164.505 40.0519H165.342V40.8891H164.505V40.0519ZM161.993 40.0519H162.83V40.8891H161.993V40.0519ZM161.993 40.8891H162.83V41.7263H161.993V40.8891ZM161.993 41.7263H162.83V42.5636H161.993V41.7263ZM161.993 42.5636H162.83V43.4008H161.993V42.5636ZM161.993 43.4008H162.83V44.238H161.993V43.4008ZM161.993 44.238H162.83V45.0752H161.993V44.238ZM161.993 45.0752H162.83V45.9124H161.993V45.0752ZM161.993 45.9124H162.83V46.7496H161.993V45.9124ZM161.993 46.7496H162.83V47.5868H161.993V46.7496ZM163.668 46.7496H164.505V47.5868H163.668V46.7496ZM164.505 46.7496H165.342V47.5868H164.505V46.7496ZM164.505 45.9124H165.342V46.7496H164.505V45.9124ZM164.505 45.0752H165.342V45.9124H164.505V45.0752ZM164.505 44.238H165.342V45.0752H164.505V44.238ZM164.505 43.4008H165.342V44.238H164.505V43.4008ZM164.505 42.5636H165.342V43.4008H164.505V42.5636ZM164.505 41.7263H165.342V42.5636H164.505V41.7263ZM164.505 40.8891H165.342V41.7263H164.505V40.8891ZM163.668 40.8891H164.505V41.7263H163.668V40.8891ZM163.668 41.7263H164.505V42.5636H163.668V41.7263ZM163.668 42.5636H164.505V43.4008H163.668V42.5636ZM163.668 43.4008H164.505V44.238H163.668V43.4008ZM163.668 44.238H164.505V45.0752H163.668V44.238ZM163.668 45.0752H164.505V45.9124H163.668V45.0752ZM163.668 45.9124H164.505V46.7496H163.668V45.9124ZM163.668 47.5868H164.505V48.424H163.668V47.5868ZM164.505 47.5868H165.342V48.424H164.505V47.5868ZM164.505 48.424H165.342V49.2612H164.505V48.424ZM163.668 48.424H164.505V49.2612H163.668V48.424ZM165.342 46.7496H166.179V47.5868H165.342V46.7496ZM166.179 46.7496H167.017V47.5868H166.179V46.7496ZM167.017 46.7496H167.854V47.5868H167.017V46.7496ZM164.505 39.2147H165.342V40.0519H164.505V39.2147ZM164.505 38.3775H165.342V39.2147H164.505V38.3775ZM164.505 37.5403H165.342V38.3775H164.505V37.5403ZM164.505 36.7031H165.342V37.5403H164.505V36.7031ZM161.993 38.3775H162.83V39.2147H161.993V38.3775ZM161.993 39.2147H162.83V40.0519H161.993V39.2147ZM162.83 39.2147H163.668V40.0519H162.83V39.2147ZM162.83 38.3775H163.668V39.2147H162.83V38.3775ZM163.668 38.3775H164.505V39.2147H163.668V38.3775ZM163.668 37.5403H164.505V38.3775H163.668V37.5403ZM163.668 36.7031H164.505V37.5403H163.668V36.7031ZM163.668 39.2147H164.505V40.0519H163.668V39.2147ZM166.179 35.0287H167.017V35.8659H166.179V35.0287ZM166.179 35.8659H167.017V36.7031H166.179V35.8659ZM165.342 35.8659H166.179V36.7031H165.342V35.8659ZM167.017 35.0287H167.854V35.8659H167.017V35.0287ZM167.854 35.0287H168.691V35.8659H167.854V35.0287ZM167.854 35.8659H168.691V36.7031H167.854V35.8659ZM167.017 35.8659H167.854V36.7031H167.017V35.8659ZM167.854 36.7031H168.691V37.5403H167.854V36.7031ZM169.528 36.7031H170.365V37.5403H169.528V36.7031ZM169.528 37.5403H170.365V38.3775H169.528V37.5403ZM168.691 37.5403H169.528V38.3775H168.691V37.5403ZM168.691 36.7031H169.528V37.5403H168.691V36.7031ZM162.83 37.5403H163.668V38.3775H162.83V37.5403ZM161.156 46.7496H161.993V47.5868H161.156V46.7496ZM160.319 46.7496H161.156V47.5868H160.319V46.7496ZM160.319 45.9124H161.156V46.7496H160.319V45.9124ZM161.156 45.9124H161.993V46.7496H161.156V45.9124ZM165.342 45.9124H166.179V46.7496H165.342V45.9124ZM166.179 45.9124H167.017V46.7496H166.179V45.9124ZM167.017 45.9124H167.854V46.7496H167.017V45.9124ZM167.854 45.9124H168.691V46.7496H167.854V45.9124ZM165.342 48.424H166.179V49.2612H165.342V48.424ZM165.342 47.5868H166.179V48.424H165.342V47.5868ZM166.179 47.5868H167.017V48.424H166.179V47.5868ZM167.017 36.7031H167.854V37.5403H167.017V36.7031ZM167.854 37.5403H168.691V38.3775H167.854V37.5403ZM169.528 38.3775H170.365V39.2147H169.528V38.3775ZM168.691 38.3775H169.528V39.2147H168.691V38.3775ZM169.528 39.2147H170.365V40.0519H169.528V39.2147ZM168.691 35.0287H169.528V35.8659H168.691V35.0287ZM169.528 35.8659H170.365V36.7031H169.528V35.8659ZM168.691 35.8659H169.528V36.7031H168.691V35.8659ZM170.365 36.7031H171.203V37.5403H170.365V36.7031ZM170.365 37.5403H171.203V38.3775H170.365V37.5403ZM170.365 38.3775H171.203V39.2147H170.365V38.3775ZM167.854 40.0519H168.691V40.8891H167.854V40.0519ZM167.017 40.0519H167.854V40.8891H167.017V40.0519ZM166.179 40.0519H167.017V40.8891H166.179V40.0519ZM165.342 40.0519H166.179V40.8891H165.342V40.0519ZM165.342 40.8891H166.179V41.7263H165.342V40.8891ZM166.179 40.8891H167.017V41.7263H166.179V40.8891ZM167.017 40.8891H167.854V41.7263H167.017V40.8891ZM167.854 40.8891H168.691V41.7263H167.854V40.8891ZM168.691 40.0519H169.528V40.8891H168.691V40.0519ZM168.691 40.8891H169.528V41.7263H168.691V40.8891ZM170.365 39.2147H171.203V40.0519H170.365V39.2147ZM165.342 36.7031H166.179V37.5403H165.342V36.7031ZM164.505 35.8659H165.342V36.7031H164.505V35.8659ZM165.342 35.0287H166.179V35.8659H165.342V35.0287ZM174.544 41.7263H175.381V42.5636H174.544V41.7263ZM174.544 42.5636H175.381V43.4008H174.544V42.5636ZM174.544 43.4008H175.381V44.238H174.544V43.4008ZM174.544 44.238H175.381V45.0752H174.544V44.238ZM174.544 45.0752H175.381V45.9124H174.544V45.0752ZM175.381 45.0752H176.218V45.9124H175.381V45.0752ZM176.218 45.0752H177.056V45.9124H176.218V45.0752ZM176.218 44.238H177.056V45.0752H176.218V44.238ZM177.056 44.238H177.893V45.0752H177.056V44.238ZM177.056 43.4008H177.893V44.238H177.056V43.4008ZM177.056 41.7263H177.893V42.5636H177.056V41.7263ZM176.218 41.7263H177.056V42.5636H176.218V41.7263ZM176.218 42.5636H177.056V43.4008H176.218V42.5636ZM176.218 43.4008H177.056V44.238H176.218V43.4008ZM177.056 42.5636H177.893V43.4008H177.056V42.5636ZM175.381 42.5636H176.218V43.4008H175.381V42.5636ZM175.381 41.7263H176.218V42.5636H175.381V41.7263ZM175.381 43.4008H176.218V44.238H175.381V43.4008ZM175.381 44.238H176.218V45.0752H175.381V44.238ZM173.707 46.7496H174.544V47.5868H173.707V46.7496ZM172.87 46.7496H173.707V47.5868H172.87V46.7496ZM172.87 45.9124H173.707V46.7496H172.87V45.9124ZM173.707 45.9124H174.544V46.7496H173.707V45.9124ZM174.544 45.9124H175.381V46.7496H174.544V45.9124ZM174.544 46.7496H175.381V47.5868H174.544V46.7496ZM175.381 46.7496H176.218V47.5868H175.381V46.7496ZM176.218 46.7496H177.056V47.5868H176.218V46.7496ZM177.056 46.7496H177.893V47.5868H177.056V46.7496ZM177.056 45.9124H177.893V46.7496H177.056V45.9124ZM177.056 45.0752H177.893V45.9124H177.056V45.0752ZM176.218 45.9124H177.056V46.7496H176.218V45.9124ZM175.381 45.9124H176.218V46.7496H175.381V45.9124ZM176.218 47.5868H177.056V48.424H176.218V47.5868ZM176.218 48.424H177.056V49.2612H176.218V48.424ZM177.056 48.424H177.893V49.2612H177.056V48.424ZM177.056 47.5868H177.893V48.424H177.056V47.5868ZM177.893 46.7496H178.73V47.5868H177.893V46.7496ZM177.893 45.9124H178.73V46.7496H177.893V45.9124ZM178.73 45.9124H179.567V46.7496H178.73V45.9124ZM178.73 46.7496H179.567V47.5868H178.73V46.7496ZM178.73 47.5868H179.567V48.424H178.73V47.5868ZM178.73 48.424H179.567V49.2612H178.73V48.424ZM177.893 48.424H178.73V49.2612H177.893V48.424ZM177.893 47.5868H178.73V48.424H177.893V47.5868ZM179.567 45.9124H180.405V46.7496H179.567V45.9124ZM180.405 45.9124H181.242V46.7496H180.405V45.9124ZM180.405 46.7496H181.242V47.5868H180.405V46.7496ZM179.567 46.7496H180.405V47.5868H179.567V46.7496ZM181.242 45.9124H182.079V46.7496H181.242V45.9124ZM182.079 45.9124H182.916V46.7496H182.079V45.9124ZM181.242 46.7496H182.079V47.5868H181.242V46.7496ZM181.242 45.0752H182.079V45.9124H181.242V45.0752ZM181.242 44.238H182.079V45.0752H181.242V44.238ZM182.079 44.238H182.916V45.0752H182.079V44.238ZM182.079 45.0752H182.916V45.9124H182.079V45.0752ZM182.916 44.238H183.753V45.0752H182.916V44.238ZM183.753 43.4008H184.591V44.238H183.753V43.4008ZM183.753 42.5636H184.591V43.4008H183.753V42.5636ZM183.753 41.7263H184.591V42.5636H183.753V41.7263ZM182.916 41.7263H183.753V42.5636H182.916V41.7263ZM182.079 41.7263H182.916V42.5636H182.079V41.7263ZM182.079 42.5636H182.916V43.4008H182.079V42.5636ZM181.242 42.5636H182.079V43.4008H181.242V42.5636ZM181.242 43.4008H182.079V44.238H181.242V43.4008ZM182.079 43.4008H182.916V44.238H182.079V43.4008ZM182.916 43.4008H183.753V44.238H182.916V43.4008ZM182.916 42.5636H183.753V43.4008H182.916V42.5636ZM181.242 41.7263H182.079V42.5636H181.242V41.7263ZM175.381 47.5868H176.218V48.424H175.381V47.5868ZM179.567 47.5868H180.405V48.424H179.567V47.5868ZM182.916 45.0752H183.753V45.9124H182.916V45.0752ZM183.753 44.238H184.591V45.0752H183.753V44.238ZM180.405 47.5868H181.242V48.424H180.405V47.5868ZM179.567 48.424H180.405V49.2612H179.567V48.424ZM177.056 35.0287H177.893V35.8659H177.056V35.0287ZM177.056 35.8659H177.893V36.7031H177.056V35.8659ZM177.056 36.7031H177.893V37.5403H177.056V36.7031ZM177.056 37.5403H177.893V38.3775H177.056V37.5403ZM177.056 38.3775H177.893V39.2147H177.056V38.3775ZM177.056 39.2147H177.893V40.0519H177.056V39.2147ZM177.056 40.0519H177.893V40.8891H177.056V40.0519ZM177.056 40.8891H177.893V41.7263H177.056V40.8891ZM176.218 40.8891H177.056V41.7263H176.218V40.8891ZM175.381 40.8891H176.218V41.7263H175.381V40.8891ZM175.381 40.0519H176.218V40.8891H175.381V40.0519ZM174.544 40.0519H175.381V40.8891H174.544V40.0519ZM174.544 39.2147H175.381V40.0519H174.544V39.2147ZM175.381 39.2147H176.218V40.0519H175.381V39.2147ZM174.544 40.8891H175.381V41.7263H174.544V40.8891ZM175.381 38.3775H176.218V39.2147H175.381V38.3775ZM176.218 38.3775H177.056V39.2147H176.218V38.3775ZM176.218 39.2147H177.056V40.0519H176.218V39.2147ZM176.218 40.0519H177.056V40.8891H176.218V40.0519ZM176.218 37.5403H177.056V38.3775H176.218V37.5403ZM176.218 36.7031H177.056V37.5403H176.218V36.7031ZM176.218 35.8659H177.056V36.7031H176.218V35.8659ZM175.381 36.7031H176.218V37.5403H175.381V36.7031ZM175.381 37.5403H176.218V38.3775H175.381V37.5403ZM174.544 37.5403H175.381V38.3775H174.544V37.5403ZM174.544 38.3775H175.381V39.2147H174.544V38.3775ZM181.242 40.8891H182.079V41.7263H181.242V40.8891ZM181.242 40.0519H182.079V40.8891H181.242V40.0519ZM181.242 39.2147H182.079V40.0519H181.242V39.2147ZM181.242 38.3775H182.079V39.2147H181.242V38.3775ZM181.242 37.5403H182.079V38.3775H181.242V37.5403ZM181.242 36.7031H182.079V37.5403H181.242V36.7031ZM181.242 35.8659H182.079V36.7031H181.242V35.8659ZM181.242 35.0287H182.079V35.8659H181.242V35.0287ZM182.079 35.0287H182.916V35.8659H182.079V35.0287ZM182.916 35.0287H183.753V35.8659H182.916V35.0287ZM183.753 35.0287H184.591V35.8659H183.753V35.0287ZM183.753 35.8659H184.591V36.7031H183.753V35.8659ZM183.753 36.7031H184.591V37.5403H183.753V36.7031ZM183.753 37.5403H184.591V38.3775H183.753V37.5403ZM183.753 38.3775H184.591V39.2147H183.753V38.3775ZM183.753 39.2147H184.591V40.0519H183.753V39.2147ZM183.753 40.0519H184.591V40.8891H183.753V40.0519ZM183.753 40.8891H184.591V41.7263H183.753V40.8891ZM182.916 40.8891H183.753V41.7263H182.916V40.8891ZM182.079 40.8891H182.916V41.7263H182.079V40.8891ZM182.079 40.0519H182.916V40.8891H182.079V40.0519ZM182.079 39.2147H182.916V40.0519H182.079V39.2147ZM182.079 38.3775H182.916V39.2147H182.079V38.3775ZM182.079 37.5403H182.916V38.3775H182.079V37.5403ZM182.079 36.7031H182.916V37.5403H182.079V36.7031ZM182.916 35.8659H183.753V36.7031H182.916V35.8659ZM182.916 36.7031H183.753V37.5403H182.916V36.7031ZM182.916 37.5403H183.753V38.3775H182.916V37.5403ZM182.916 38.3775H183.753V39.2147H182.916V38.3775ZM182.916 39.2147H183.753V40.0519H182.916V39.2147ZM182.916 40.0519H183.753V40.8891H182.916V40.0519ZM182.079 35.8659H182.916V36.7031H182.079V35.8659ZM182.916 34.1915H183.753V35.0287H182.916V34.1915ZM182.079 33.3543H182.916V34.1915H182.079V33.3543ZM181.242 32.517H182.079V33.3543H181.242V32.517ZM180.405 31.6798H181.242V32.517H180.405V31.6798ZM179.567 30.8426H180.405V31.6798H179.567V30.8426ZM178.73 30.0054H179.567V30.8426H178.73V30.0054ZM177.893 34.1915H178.73V35.0287H177.893V34.1915ZM178.73 35.0287H179.567V35.8659H178.73V35.0287ZM179.567 35.8659H180.405V36.7031H179.567V35.8659ZM180.405 36.7031H181.242V37.5403H180.405V36.7031ZM180.405 35.8659H181.242V36.7031H180.405V35.8659ZM180.405 35.0287H181.242V35.8659H180.405V35.0287ZM180.405 34.1915H181.242V35.0287H180.405V34.1915ZM180.405 33.3543H181.242V34.1915H180.405V33.3543ZM179.567 34.1915H180.405V35.0287H179.567V34.1915ZM179.567 35.0287H180.405V35.8659H179.567V35.0287ZM178.73 34.1915H179.567V35.0287H178.73V34.1915ZM178.73 33.3543H179.567V34.1915H178.73V33.3543ZM178.73 32.517H179.567V33.3543H178.73V32.517ZM179.567 32.517H180.405V33.3543H179.567V32.517ZM180.405 32.517H181.242V33.3543H180.405V32.517ZM179.567 33.3543H180.405V34.1915H179.567V33.3543ZM181.242 33.3543H182.079V34.1915H181.242V33.3543ZM181.242 34.1915H182.079V35.0287H181.242V34.1915ZM182.079 34.1915H182.916V35.0287H182.079V34.1915ZM177.056 33.3543H177.893V34.1915H177.056V33.3543ZM175.381 29.1682H176.218V30.0054H175.381V29.1682ZM175.381 30.0054H176.218V30.8426H175.381V30.0054ZM175.381 30.8426H176.218V31.6798H175.381V30.8426ZM177.893 30.0054H178.73V30.8426H177.893V30.0054ZM177.056 30.0054H177.893V30.8426H177.056V30.0054ZM176.218 30.0054H177.056V30.8426H176.218V30.0054ZM176.218 29.1682H177.056V30.0054H176.218V29.1682ZM177.056 29.1682H177.893V30.0054H177.056V29.1682ZM178.73 30.8426H179.567V31.6798H178.73V30.8426ZM177.893 30.8426H178.73V31.6798H177.893V30.8426ZM177.056 30.8426H177.893V31.6798H177.056V30.8426ZM176.218 30.8426H177.056V31.6798H176.218V30.8426ZM176.218 31.6798H177.056V32.517H176.218V31.6798ZM177.056 31.6798H177.893V32.517H177.056V31.6798ZM177.056 32.517H177.893V33.3543H177.056V32.517ZM177.893 32.517H178.73V33.3543H177.893V32.517ZM177.893 31.6798H178.73V32.517H177.893V31.6798ZM177.893 33.3543H178.73V34.1915H177.893V33.3543ZM178.73 31.6798H179.567V32.517H178.73V31.6798ZM179.567 31.6798H180.405V32.517H179.567V31.6798ZM176.218 32.517H177.056V33.3543H176.218V32.517ZM175.381 31.6798H176.218V32.517H175.381V31.6798ZM174.544 30.8426H175.381V31.6798H174.544V30.8426ZM174.544 30.0054H175.381V30.8426H174.544V30.0054ZM177.893 29.1682H178.73V30.0054H177.893V29.1682ZM177.056 28.331H177.893V29.1682H177.056V28.331ZM176.218 28.331H177.056V29.1682H176.218V28.331ZM188.776 48.424H189.613V49.2612H188.776V48.424ZM189.613 48.424H190.45V49.2612H189.613V48.424ZM187.939 47.5868H188.776V48.424H187.939V47.5868ZM188.776 47.5868H189.613V48.424H188.776V47.5868ZM189.613 47.5868H190.45V48.424H189.613V47.5868ZM190.45 47.5868H191.287V48.424H190.45V47.5868ZM187.101 46.7496H187.939V47.5868H187.101V46.7496ZM187.939 46.7496H188.776V47.5868H187.939V46.7496ZM187.939 45.9124H188.776V46.7496H187.939V45.9124ZM188.776 45.9124H189.613V46.7496H188.776V45.9124ZM188.776 46.7496H189.613V47.5868H188.776V46.7496ZM189.613 46.7496H190.45V47.5868H189.613V46.7496ZM190.45 46.7496H191.287V47.5868H190.45V46.7496ZM190.45 45.9124H191.287V46.7496H190.45V45.9124ZM189.613 45.9124H190.45V46.7496H189.613V45.9124ZM188.776 45.0752H189.613V45.9124H188.776V45.0752ZM189.613 45.0752H190.45V45.9124H189.613V45.0752ZM190.45 45.0752H191.287V45.9124H190.45V45.0752ZM190.45 44.238H191.287V45.0752H190.45V44.238ZM189.613 44.238H190.45V45.0752H189.613V44.238ZM188.776 44.238H189.613V45.0752H188.776V44.238ZM188.776 43.4008H189.613V44.238H188.776V43.4008ZM188.776 42.5636H189.613V43.4008H188.776V42.5636ZM188.776 41.7263H189.613V42.5636H188.776V41.7263ZM188.776 40.8891H189.613V41.7263H188.776V40.8891ZM188.776 40.0519H189.613V40.8891H188.776V40.0519ZM189.613 40.0519H190.45V40.8891H189.613V40.0519ZM190.45 40.0519H191.287V40.8891H190.45V40.0519ZM190.45 40.8891H191.287V41.7263H190.45V40.8891ZM190.45 41.7263H191.287V42.5636H190.45V41.7263ZM190.45 42.5636H191.287V43.4008H190.45V42.5636ZM189.613 42.5636H190.45V43.4008H189.613V42.5636ZM189.613 43.4008H190.45V44.238H189.613V43.4008ZM189.613 41.7263H190.45V42.5636H189.613V41.7263ZM189.613 40.8891H190.45V41.7263H189.613V40.8891ZM190.45 43.4008H191.287V44.238H190.45V43.4008ZM190.45 39.2147H191.287V40.0519H190.45V39.2147ZM190.45 38.3775H191.287V39.2147H190.45V38.3775ZM190.45 37.5403H191.287V38.3775H190.45V37.5403ZM190.45 36.7031H191.287V37.5403H190.45V36.7031ZM190.45 35.8659H191.287V36.7031H190.45V35.8659ZM188.776 35.8659H189.613V36.7031H188.776V35.8659ZM189.613 36.7031H190.45V37.5403H189.613V36.7031ZM189.613 37.5403H190.45V38.3775H189.613V37.5403ZM189.613 38.3775H190.45V39.2147H189.613V38.3775ZM189.613 39.2147H190.45V40.0519H189.613V39.2147ZM188.776 39.2147H189.613V40.0519H188.776V39.2147ZM188.776 38.3775H189.613V39.2147H188.776V38.3775ZM188.776 37.5403H189.613V38.3775H188.776V37.5403ZM188.776 36.7031H189.613V37.5403H188.776V36.7031ZM189.613 35.8659H190.45V36.7031H189.613V35.8659ZM187.939 45.0752H188.776V45.9124H187.939V45.0752ZM187.939 44.238H188.776V45.0752H187.939V44.238ZM187.939 43.4008H188.776V44.238H187.939V43.4008ZM187.939 42.5636H188.776V43.4008H187.939V42.5636ZM187.939 41.7263H188.776V42.5636H187.939V41.7263ZM187.939 40.8891H188.776V41.7263H187.939V40.8891ZM187.939 40.0519H188.776V40.8891H187.939V40.0519ZM187.939 39.2147H188.776V40.0519H187.939V39.2147ZM187.939 38.3775H188.776V39.2147H187.939V38.3775ZM187.939 37.5403H188.776V38.3775H187.939V37.5403ZM187.939 35.8659H188.776V36.7031H187.939V35.8659ZM187.939 36.7031H188.776V37.5403H187.939V36.7031ZM192.125 45.9124H192.962V46.7496H192.125V45.9124ZM188.776 35.0287H189.613V35.8659H188.776V35.0287ZM189.613 35.0287H190.45V35.8659H189.613V35.0287ZM187.939 31.6798H188.776V32.517H187.939V31.6798ZM188.776 31.6798H189.613V32.517H188.776V31.6798ZM189.613 31.6798H190.45V32.517H189.613V31.6798ZM190.45 31.6798H191.287V32.517H190.45V31.6798ZM190.45 30.8426H191.287V31.6798H190.45V30.8426ZM190.45 30.0054H191.287V30.8426H190.45V30.0054ZM190.45 29.1682H191.287V30.0054H190.45V29.1682ZM189.613 29.1682H190.45V30.0054H189.613V29.1682ZM188.776 29.1682H189.613V30.0054H188.776V29.1682ZM187.939 29.1682H188.776V30.0054H187.939V29.1682ZM187.939 30.0054H188.776V30.8426H187.939V30.0054ZM187.939 30.8426H188.776V31.6798H187.939V30.8426ZM188.776 30.8426H189.613V31.6798H188.776V30.8426ZM189.613 30.8426H190.45V31.6798H189.613V30.8426ZM189.613 30.0054H190.45V30.8426H189.613V30.0054ZM188.776 30.0054H189.613V30.8426H188.776V30.0054ZM191.287 46.7496H192.125V47.5868H191.287V46.7496ZM187.101 36.7031H187.939V37.5403H187.101V36.7031ZM186.264 36.7031H187.101V37.5403H186.264V36.7031ZM186.264 37.5403H187.101V38.3775H186.264V37.5403ZM187.101 37.5403H187.939V38.3775H187.101V37.5403ZM191.287 36.7031H192.125V37.5403H191.287V36.7031ZM192.125 36.7031H192.962V37.5403H192.125V36.7031ZM192.125 37.5403H192.962V38.3775H192.125V37.5403ZM191.287 37.5403H192.125V38.3775H191.287V37.5403ZM186.264 45.9124H187.101V46.7496H186.264V45.9124ZM187.101 45.9124H187.939V46.7496H187.101V45.9124ZM191.287 45.9124H192.125V46.7496H191.287V45.9124ZM186.264 46.7496H187.101V47.5868H186.264V46.7496ZM187.939 48.424H188.776V49.2612H187.939V48.424ZM197.143 38.3775H197.98V39.2147H197.143V38.3775ZM197.98 38.3775H198.817V39.2147H197.98V38.3775ZM197.98 39.2147H198.817V40.0519H197.98V39.2147ZM198.817 38.3775H199.655V39.2147H198.817V38.3775ZM196.306 38.3775H197.143V39.2147H196.306V38.3775ZM196.306 39.2147H197.143V40.0519H196.306V39.2147ZM196.306 40.8891H197.143V41.7263H196.306V40.8891ZM196.306 41.7263H197.143V42.5636H196.306V41.7263ZM196.306 42.5636H197.143V43.4008H196.306V42.5636ZM196.306 43.4008H197.143V44.238H196.306V43.4008ZM196.306 44.238H197.143V45.0752H196.306V44.238ZM196.306 45.0752H197.143V45.9124H196.306V45.0752ZM197.143 45.0752H197.98V45.9124H197.143V45.0752ZM197.98 45.0752H198.817V45.9124H197.98V45.0752ZM197.98 44.238H198.817V45.0752H197.98V44.238ZM198.817 44.238H199.655V45.0752H198.817V44.238ZM198.817 43.4008H199.655V44.238H198.817V43.4008ZM198.817 41.7263H199.655V42.5636H198.817V41.7263ZM198.817 40.8891H199.655V41.7263H198.817V40.8891ZM198.817 40.0519H199.655V40.8891H198.817V40.0519ZM198.817 39.2147H199.655V40.0519H198.817V39.2147ZM197.98 40.0519H198.817V40.8891H197.98V40.0519ZM197.98 40.8891H198.817V41.7263H197.98V40.8891ZM197.98 41.7263H198.817V42.5636H197.98V41.7263ZM197.98 42.5636H198.817V43.4008H197.98V42.5636ZM197.98 43.4008H198.817V44.238H197.98V43.4008ZM198.817 42.5636H199.655V43.4008H198.817V42.5636ZM197.143 42.5636H197.98V43.4008H197.143V42.5636ZM197.143 41.7263H197.98V42.5636H197.143V41.7263ZM197.143 40.8891H197.98V41.7263H197.143V40.8891ZM197.143 40.0519H197.98V40.8891H197.143V40.0519ZM197.143 39.2147H197.98V40.0519H197.143V39.2147ZM196.306 40.0519H197.143V40.8891H196.306V40.0519ZM197.143 43.4008H197.98V44.238H197.143V43.4008ZM197.143 44.238H197.98V45.0752H197.143V44.238ZM195.469 46.7496H196.306V47.5868H195.469V46.7496ZM194.631 46.7496H195.469V47.5868H194.631V46.7496ZM194.631 45.9124H195.469V46.7496H194.631V45.9124ZM195.469 45.9124H196.306V46.7496H195.469V45.9124ZM196.306 45.9124H197.143V46.7496H196.306V45.9124ZM196.306 46.7496H197.143V47.5868H196.306V46.7496ZM197.143 46.7496H197.98V47.5868H197.143V46.7496ZM197.98 46.7496H198.817V47.5868H197.98V46.7496ZM198.817 46.7496H199.655V47.5868H198.817V46.7496ZM198.817 45.9124H199.655V46.7496H198.817V45.9124ZM198.817 45.0752H199.655V45.9124H198.817V45.0752ZM197.98 45.9124H198.817V46.7496H197.98V45.9124ZM197.143 45.9124H197.98V46.7496H197.143V45.9124ZM197.98 47.5868H198.817V48.424H197.98V47.5868ZM197.98 48.424H198.817V49.2612H197.98V48.424ZM198.817 48.424H199.655V49.2612H198.817V48.424ZM198.817 47.5868H199.655V48.424H198.817V47.5868ZM199.655 46.7496H200.492V47.5868H199.655V46.7496ZM199.655 45.9124H200.492V46.7496H199.655V45.9124ZM200.492 45.9124H201.329V46.7496H200.492V45.9124ZM200.492 46.7496H201.329V47.5868H200.492V46.7496ZM200.492 47.5868H201.329V48.424H200.492V47.5868ZM200.492 48.424H201.329V49.2612H200.492V48.424ZM199.655 48.424H200.492V49.2612H199.655V48.424ZM199.655 47.5868H200.492V48.424H199.655V47.5868ZM201.329 45.9124H202.166V46.7496H201.329V45.9124ZM202.166 45.9124H203.003V46.7496H202.166V45.9124ZM202.166 46.7496H203.003V47.5868H202.166V46.7496ZM201.329 46.7496H202.166V47.5868H201.329V46.7496ZM203.003 45.9124H203.841V46.7496H203.003V45.9124ZM203.841 45.9124H204.678V46.7496H203.841V45.9124ZM203.003 46.7496H203.841V47.5868H203.003V46.7496ZM203.003 45.0752H203.841V45.9124H203.003V45.0752ZM203.003 44.238H203.841V45.0752H203.003V44.238ZM203.841 44.238H204.678V45.0752H203.841V44.238ZM203.841 45.0752H204.678V45.9124H203.841V45.0752ZM204.678 44.238H205.515V45.0752H204.678V44.238ZM205.515 43.4008H206.352V44.238H205.515V43.4008ZM205.515 42.5636H206.352V43.4008H205.515V42.5636ZM205.515 41.7263H206.352V42.5636H205.515V41.7263ZM204.678 41.7263H205.515V42.5636H204.678V41.7263ZM203.841 41.7263H204.678V42.5636H203.841V41.7263ZM203.841 42.5636H204.678V43.4008H203.841V42.5636ZM203.003 42.5636H203.841V43.4008H203.003V42.5636ZM203.003 43.4008H203.841V44.238H203.003V43.4008ZM203.841 43.4008H204.678V44.238H203.841V43.4008ZM204.678 43.4008H205.515V44.238H204.678V43.4008ZM204.678 42.5636H205.515V43.4008H204.678V42.5636ZM203.003 41.7263H203.841V42.5636H203.003V41.7263ZM203.003 40.8891H203.841V41.7263H203.003V40.8891ZM203.841 40.8891H204.678V41.7263H203.841V40.8891ZM203.841 40.0519H204.678V40.8891H203.841V40.0519ZM204.678 40.0519H205.515V40.8891H204.678V40.0519ZM205.515 40.0519H206.352V40.8891H205.515V40.0519ZM205.515 40.8891H206.352V41.7263H205.515V40.8891ZM204.678 40.8891H205.515V41.7263H204.678V40.8891ZM203.003 40.0519H203.841V40.8891H203.003V40.0519ZM203.003 39.2147H203.841V40.0519H203.003V39.2147ZM203.841 39.2147H204.678V40.0519H203.841V39.2147ZM203.841 38.3775H204.678V39.2147H203.841V38.3775ZM204.678 38.3775H205.515V39.2147H204.678V38.3775ZM205.515 38.3775H206.352V39.2147H205.515V38.3775ZM205.515 39.2147H206.352V40.0519H205.515V39.2147ZM204.678 39.2147H205.515V40.0519H204.678V39.2147ZM203.003 38.3775H203.841V39.2147H203.003V38.3775ZM199.655 35.0287H200.492V35.8659H199.655V35.0287ZM199.655 35.8659H200.492V36.7031H199.655V35.8659ZM200.492 35.8659H201.329V36.7031H200.492V35.8659ZM200.492 35.0287H201.329V35.8659H200.492V35.0287ZM198.817 36.7031H199.655V37.5403H198.817V36.7031ZM197.98 36.7031H198.817V37.5403H197.98V36.7031ZM198.817 37.5403H199.655V38.3775H198.817V37.5403ZM197.98 37.5403H198.817V38.3775H197.98V37.5403ZM201.329 35.0287H202.166V35.8659H201.329V35.0287ZM202.166 35.0287H203.003V35.8659H202.166V35.0287ZM202.166 35.8659H203.003V36.7031H202.166V35.8659ZM201.329 35.8659H202.166V36.7031H201.329V35.8659ZM203.003 35.0287H203.841V35.8659H203.003V35.0287ZM203.841 35.0287H204.678V35.8659H203.841V35.0287ZM203.841 35.8659H204.678V36.7031H203.841V35.8659ZM203.003 35.8659H203.841V36.7031H203.003V35.8659ZM206.352 37.5403H207.189V38.3775H206.352V37.5403ZM206.352 36.7031H207.189V37.5403H206.352V36.7031ZM207.189 36.7031H208.027V37.5403H207.189V36.7031ZM207.189 37.5403H208.027V38.3775H207.189V37.5403ZM205.515 36.7031H206.352V37.5403H205.515V36.7031ZM204.678 36.7031H205.515V37.5403H204.678V36.7031ZM203.841 36.7031H204.678V37.5403H203.841V36.7031ZM203.003 36.7031H203.841V37.5403H203.003V36.7031ZM203.841 37.5403H204.678V38.3775H203.841V37.5403ZM204.678 37.5403H205.515V38.3775H204.678V37.5403ZM205.515 37.5403H206.352V38.3775H205.515V37.5403ZM203.003 37.5403H203.841V38.3775H203.003V37.5403ZM197.143 47.5868H197.98V48.424H197.143V47.5868ZM204.678 35.8659H205.515V36.7031H204.678V35.8659ZM197.143 37.5403H197.98V38.3775H197.143V37.5403ZM201.329 47.5868H202.166V48.424H201.329V47.5868ZM204.678 45.0752H205.515V45.9124H204.678V45.0752ZM205.515 44.238H206.352V45.0752H205.515V44.238ZM205.515 45.0752H206.352V45.9124H205.515V45.0752ZM205.515 45.9124H206.352V46.7496H205.515V45.9124ZM204.678 45.9124H205.515V46.7496H204.678V45.9124ZM206.352 45.9124H207.189V46.7496H206.352V45.9124ZM207.189 45.9124H208.027V46.7496H207.189V45.9124ZM207.189 46.7496H208.027V47.5868H207.189V46.7496ZM206.352 46.7496H207.189V47.5868H206.352V46.7496ZM204.678 46.7496H205.515V47.5868H204.678V46.7496ZM203.841 46.7496H204.678V47.5868H203.841V46.7496ZM205.515 46.7496H206.352V47.5868H205.515V46.7496ZM204.678 47.5868H205.515V48.424H204.678V47.5868ZM203.841 47.5868H204.678V48.424H203.841V47.5868ZM205.515 47.5868H206.352V48.424H205.515V47.5868ZM206.352 47.5868H207.189V48.424H206.352V47.5868ZM205.515 48.424H206.352V49.2612H205.515V48.424ZM203.841 48.424H204.678V49.2612H203.841V48.424ZM204.678 48.424H205.515V49.2612H204.678V48.424ZM198.817 35.8659H199.655V36.7031H198.817V35.8659Z" fill="black"/>
</svg>
