<svg width="277" height="90" viewBox="0 0 277 90" fill="none" xmlns="http://www.w3.org/2000/svg">
<path d="M128.885 44.5369L129.91 41.0969C130.877 37.8971 128.794 35.8979 126.593 35.8979C124.036 35.8979 122.537 37.6634 122.654 40.5971L122.829 45.0627C122.537 45.4716 122.121 45.6209 121.745 45.6209C120.862 45.6209 120.337 44.7966 120.512 43.5374L121.07 39.63C121.336 37.7802 120.421 36.3393 118.37 36.3393H114.904C113.437 36.3393 112.671 37.1896 112.671 38.5396C112.671 39.3899 112.905 39.8637 113.346 40.5971L114.255 42.1549L113.788 44.5045C112.905 48.9116 115.579 51.5273 119.077 51.5273C121.044 51.5273 122.809 50.4109 123.777 48.7948C123.984 50.4693 124.776 51.06 126.509 51.06H128.8C130.475 51.06 131.241 50.1513 131.241 48.7948C131.241 48.1457 130.89 47.3279 130.475 46.7372L128.891 44.5369H128.885Z" fill="#231F20"/>
<path d="M90.9862 44.6538L92.1351 39.6301C92.544 37.8062 91.7261 36.3394 89.8698 36.3394H85.9625C84.4956 36.3394 83.7297 37.1896 83.7297 38.5397C83.7297 39.3899 83.9634 39.8637 84.4048 40.5972L85.1382 41.8629L84.4891 47.7693C84.2814 49.6191 85.1642 51.06 87.2217 51.06H90.6876C92.1545 51.06 92.9204 50.2098 92.9204 48.8597C92.9204 48.0094 92.6868 47.5356 92.2454 46.8022L90.9797 44.6603L90.9862 44.6538Z" fill="#231F20"/>
<path d="M105.616 35.9044C103.909 35.9044 102.65 36.4301 101.741 37.3128V32.698C101.683 30.4977 100.741 29.3164 98.8916 29.3164H95.2504C93.8679 29.3164 92.9592 30.1407 92.9592 31.3999C92.9592 32.2242 93.2253 32.8083 93.7251 33.4574L96.3668 36.839L94.2833 45.5364H94.3158L94.1405 46.4191C93.5823 49.8267 95.9644 51.709 97.9894 51.709C99.4304 51.6765 100.78 51.0339 101.488 49.8007C102.397 50.8847 103.753 51.5337 105.629 51.5337C109.504 51.5337 112.119 47.8016 112.119 43.6866C112.119 39.5715 109.504 35.9044 105.629 35.9044H105.616ZM104.882 45.1535C104.707 46.0621 104.175 46.4451 103.383 46.4451C102.591 46.4451 102.001 45.7116 101.767 44.9198V42.5118C101.975 41.6615 102.559 40.9281 103.383 40.9281C104.207 40.9281 104.707 41.2786 104.882 42.1937C105.032 43.2193 105.032 44.1604 104.882 45.1599V45.1535Z" fill="#231F20"/>
<path d="M80.2637 40.5455C81.3476 39.4291 81.9707 38.105 81.9707 36.4629C81.9707 33.4383 79.5302 30.498 74.9803 30.498H66.3413C64.4915 30.498 63.492 31.8481 63.492 33.3215C63.492 34.0549 63.7581 34.7299 64.141 35.4374L65.6988 38.462L63.6153 46.4844C62.8494 49.4506 65.4976 51.0667 67.7563 51.0667H75.6878C79.6535 51.0667 83.0611 48.8924 83.0611 44.9591C83.0611 42.7263 81.7695 41.227 80.2701 40.552L80.2637 40.5455ZM71.5663 34.9895H73.0331C73.6822 34.9895 74.2404 35.4893 74.3572 36.4889C74.3897 36.7225 74.3897 37.1379 74.3572 37.3132C74.2404 38.0791 73.8315 38.6957 73.0331 38.6957H71.6506L71.5598 34.996L71.5663 34.9895ZM74.8894 45.3355C74.7986 46.1858 74.156 46.6272 73.6238 46.6272H71.8583L71.7675 42.6874H73.5589C74.2079 42.6874 74.7661 43.0963 74.8829 44.0699C74.9414 44.5956 74.9414 44.8033 74.8829 45.3355H74.8894Z" fill="#231F20"/>
<path d="M88.5197 35.3723C90.4864 35.3723 92.0766 33.7885 92.0766 31.8154C92.0766 29.8423 90.4929 28.291 88.5197 28.291C86.5466 28.291 84.9629 29.8488 84.9629 31.8154C84.9629 33.7821 86.5466 35.3723 88.5197 35.3723Z" fill="#231F20"/>
<path d="M210.53 35.8135C209.53 35.781 208.122 36.138 207.563 37.6958L206.798 39.7793C206.888 37.8126 206.389 36.3392 204.532 36.3392H202.39C200.924 36.3392 200.158 37.1895 200.158 38.5395C200.158 39.3898 200.391 39.8636 200.833 40.5971L201.566 41.8627L200.917 47.7692C200.709 49.619 201.592 51.0599 203.65 51.0599H207.116C208.583 51.0599 209.348 50.2096 209.348 48.8596C209.348 48.0093 209.115 47.5355 208.673 46.8021L207.408 44.6861L210.906 42.3041C212.315 41.337 213.606 40.5971 213.606 39.0458C213.639 37.4297 212.315 35.8135 210.523 35.8135H210.53Z" fill="#231F20"/>
<path d="M143.781 35.9044C142.074 35.9044 140.814 36.4301 139.906 37.3128V32.698C139.847 30.4977 138.906 29.3164 137.056 29.3164H133.415C132.033 29.3164 131.124 30.1407 131.124 31.3999C131.124 32.2242 131.39 32.8083 131.89 33.4574L134.532 36.839L132.448 45.5364H132.481L132.305 46.4191C131.747 49.8267 134.129 51.709 136.154 51.709C137.595 51.6765 138.945 51.0339 139.653 49.8007C140.561 50.8847 141.918 51.5337 143.794 51.5337C147.669 51.5337 150.284 47.8016 150.284 43.6866C150.284 39.5715 147.669 35.9044 143.794 35.9044H143.781ZM143.047 45.1535C142.872 46.0621 142.34 46.4451 141.548 46.4451C140.756 46.4451 140.165 45.7116 139.932 44.9198V42.5118C140.139 41.6615 140.724 40.9281 141.548 40.9281C142.372 40.9281 142.872 41.2786 143.047 42.1937C143.197 43.2193 143.197 44.1604 143.047 45.1599V45.1535Z" fill="#231F20"/>
<path d="M166.316 45.5689L166.491 44.9783C166.9 43.5958 167.166 42.0705 167.166 41.0385C167.134 37.3064 163.259 35.8979 159.501 35.8979C156.502 35.8979 154.269 36.4886 153.452 37.1052C152.627 37.7218 152.335 38.3124 152.335 39.1627C152.335 40.1623 153.069 41.6032 154.776 41.6032C155.658 41.6032 156.184 41.3695 156.801 41.045L159.267 39.8377C159.942 40.013 160.208 40.7205 160.208 41.3955V42.1873H156.242C152.926 42.2198 150.953 44.0696 150.953 46.6853C150.953 49.301 153.185 51.5338 155.801 51.5338C157.093 51.5338 158.417 51.3261 159.708 50.5667L161.234 49.684L162.908 50.7679C163.759 51.3261 164.375 51.5338 165.466 51.5338C166.907 51.5338 168.081 50.5667 168.081 49.0349C168.081 48.3859 167.815 47.8277 167.348 47.0942L166.322 45.5689H166.316ZM160.202 46.7113L159.994 46.8281C159.702 47.0034 159.377 47.1202 158.994 47.1202C158.319 47.1202 157.911 46.6788 157.911 45.887C157.911 45.3872 158.319 44.6797 159.144 44.6797H160.202V46.7048V46.7113Z" fill="#231F20"/>
<path d="M181.562 38.7798C181.562 37.2545 180.413 35.8396 177.979 36.3718L176.98 36.5795L176.805 33.7301C176.746 32.3801 175.922 31.7051 174.922 31.7051C174.215 31.7051 173.572 31.9972 172.923 32.6722L170.632 35.0802C169.133 36.6379 168.224 37.3714 168.224 38.8707C168.224 40.0195 169.107 41.3112 171.249 41.454L170.483 44.3033C169.749 47.5356 171.132 51.5274 176.123 51.5274C179.589 51.5274 181.03 49.6191 181.03 48.0873C181.03 46.5556 179.589 46.0039 178.298 46.0039H177.623L177.272 40.8049L177.979 41.071C180.212 41.8953 181.562 40.2207 181.562 38.7798Z" fill="#231F20"/>
<path d="M190.76 35.9043C185.944 35.9043 182.121 39.4027 182.121 43.6606C182.121 47.9184 185.411 51.5337 190.76 51.5337C195.459 51.5337 199.366 47.9768 199.366 43.6606C199.366 39.6039 195.926 35.9043 190.76 35.9043ZM192.343 45.5948C192.226 46.3282 191.636 46.9448 190.786 46.9448C189.935 46.9448 189.345 46.3282 189.202 45.5948C188.994 44.2707 188.994 43.1283 189.202 41.8042C189.351 41.0708 189.935 40.4542 190.786 40.4542C191.636 40.4542 192.226 41.0708 192.343 41.8042C192.551 43.1283 192.551 44.2707 192.343 45.5948Z" fill="#231F20"/>
</svg>
