<?xml version="1.0" encoding="UTF-8"?>
<svg id="Layer_1" data-name="Layer 1" xmlns="http://www.w3.org/2000/svg" viewBox="0 0 360 100">
  <path d="M117,35.06c-4.2-1.62-6.72-1.8-9.96-1.8-9.36,0-17.46,6-17.46,16.02,0,7.38,6.66,14.34,14.34,14.34,6.48,0,11.58-2.88,15.66-8.16l3,6.42c-4.8,4.08-9.36,6.54-16.02,6.48-10.74-.18-21.12-7.32-21.12-22.32,0-12.06,8.28-19.08,20.34-19.08,3.18,0,5.46.18,9.06,1.2l2.16,6.9Z"/>
  <path d="M123.96,50.24c0-8.16,5.28-14.52,14.34-14.52,10.62,0,18.3,8.28,18.3,18.42,0,8.64-6.78,14.58-14.16,14.58-11.28,0-18.48-9.06-18.48-18.48ZM138.9,63.92c7.44,0,12.9-4.26,12.9-13.14,0-6.48-4.26-10.2-10.62-10.2-8.28,0-12.42,5.76-12.42,12.84,0,6.66,4.08,10.5,10.14,10.5Z"/>
  <path d="M164.46,61.64v-18.48h-5.4l-1.98-5.76h7.74l.84,2.58c2.76-2.64,5.76-3.78,8.94-3.78,9.42,0,13.68,5.4,13.68,12.3v13.14h3.72l1.92,5.76h-11.46l-1.98-5.76h4.14v-12.54c0-5.46-2.94-7.5-8.64-7.5-3.06,0-5.82,1.32-7.8,3.6v16.44h3l1.92,5.76h-12.72l-1.98-5.76h6.06Z"/>
  <path d="M197.4,37.4v-9.42h.66l12.42,15.12h-9.36v16.02c0,2.46,1.32,3.66,3.12,3.66,2.4,0,4.5-1.38,7.32-4.14l3,5.16c-2.4,2.76-5.34,4.38-8.58,4.38-6.12,0-8.58-3.78-8.58-10.38v-14.64h-4.68l-1.98-5.76h6.66Z"/>
  <path d="M222.96,61.64v-18.48h-4.08l-1.98-5.76h7.86l1.08,3.18h.06c2.1-2.94,5.4-4.56,9.42-4.56l1.68,5.34c-5.28,0-7.8,1.5-10.32,6.24v14.04h4.8l1.92,5.76h-14.52l-1.98-5.76h6.06Z"/>
  <path d="M250.19,36.2c7.8,0,12.18,3.18,12.18,10.2v13.44c0,1.38.42,2.28,1.74,2.28,1.08,0,2.28-.3,4.44-2.28l1.74,5.04c-3.54,2.52-4.74,3-6.96,3-2.58,0-3.66-2.16-3.84-5.46-2.82,3.66-6.3,5.88-11.22,5.88-6.3,0-9.72-4.86-9.72-10.02,0-7.14,6.6-11.64,20.88-11.7-.54-3.48-4.44-5.22-7.44-5.22-3.9,0-6.24.6-9.96,2.34l-2.46-5.16c4.02-1.62,7.02-2.34,10.62-2.34ZM245.75,63.02c5.28,0,9.12-1.62,13.74-7.74v-3.6c-11.64.78-17.82,2.58-17.82,7.62,0,1.86,1.5,3.72,4.08,3.72Z"/>
</svg>