<?xml version="1.0" encoding="UTF-8"?>
<svg id="Layer_1" data-name="Layer 1" xmlns="http://www.w3.org/2000/svg" viewBox="0 0 360 100">
  <path d="M99.62,63.25v-21.77c0-11.34,4.41-17.08,16.1-17.08,3.99,0,7,.49,9.8,1.26v8.54h-15.4v30.1h8.05v-15.61h-4.9v-4.9h15.4v29.61h-10.5v-5.6h-.91c-1.47,3.99-4.13,6.3-8.61,6.3-5.46,0-9.03-3.15-9.03-10.85Z"/>
  <path d="M132.31,35.25h8.47l1.47,4.2h.7c2.03-3.08,5.11-4.9,9.8-4.9,6.16,0,8.26,3.64,8.26,8.89v29.96h-10.5v-30.45h-7.7v30.45h-10.5v-38.15Z"/>
  <path d="M172.49,74.1c-5.46,0-8.19-3.15-8.19-9.8v-5.81c0-6.79,3.36-10.22,11.55-10.22h5.25v-4.97h-13.72v-7c3.01-.98,5.67-1.4,9.45-1.4,8.82,0,14.07,4.27,14.07,12.81v25.69h-8.4l-.98-4.55h-1.33c-1.05,3.22-3.78,5.25-7.7,5.25ZM181.1,65.35v-12.88h-7v12.88h7Z"/>
  <path d="M195.24,35.25h7.98l1.82,5.25h1.12c1.75-4.27,3.71-5.95,9.03-5.95v9.45h-9.45v29.4h-10.5v-38.15Z"/>
  <path d="M217.08,23.69h10.64v49.71h-10.64V23.69Z"/>
  <path d="M241.86,75.43l-12.39-40.46,11.06.28,6.93,24.57h2.1v-24.57h10.57l-12.95,52.16-11.13-4.76,5.81-7.21Z"/>
</svg>