<?xml version="1.0" encoding="UTF-8"?>
<svg id="Layer_1" data-name="Layer 1" xmlns="http://www.w3.org/2000/svg" viewBox="0 0 360 100">
  <path d="M80.52,66.2c1.24-.28,2.22-.64,2.94-1.08.72-.44,1.26-1.13,1.62-2.07.36-.94.58-2.29.66-4.05l1.38-26.4c.08-1.88-.26-3.17-1.02-3.87-.76-.7-1.9-1.13-3.42-1.29v-1.2h7.8l-1.92,34.14c-.08,1.32.05,2.33.39,3.03.34.7.9,1.25,1.68,1.65.78.4,1.79.78,3.03,1.14v1.2h-13.14v-1.2ZM90.54,33.68h-2.04v-7.44h6.06l6.9,25.86h.48l7.14-25.86h3l-1.8,7.44h-.54l-8.58,30.72h-2.34l-8.28-30.72ZM106.02,66.2c1.44-.28,2.59-.64,3.45-1.08.86-.44,1.48-1.05,1.86-1.83.38-.78.53-1.81.45-3.09l-1.92-33.96h10.62v1.2c-1.6.16-2.79.61-3.57,1.35-.78.74-1.11,2.13-.99,4.17l1.68,26.04c.12,1.68.37,3,.75,3.96.38.96.95,1.67,1.71,2.13.76.46,1.72.83,2.88,1.11v1.2h-16.92v-1.2Z"/>
  <path d="M138.3,51.74c-2.08.24-3.78.66-5.1,1.26-1.32.6-2.3,1.39-2.94,2.37-.64.98-.96,2.19-.96,3.63,0,1.64.4,2.89,1.2,3.75.8.86,2.06,1.29,3.78,1.29.8,0,1.52-.06,2.16-.18.64-.12,1.3-.28,1.98-.48l.24.36c-.76,1.36-1.74,2.41-2.94,3.15-1.2.74-2.56,1.11-4.08,1.11-2.48,0-4.39-.67-5.73-2.01-1.34-1.34-2.01-3.15-2.01-5.43,0-2.12.64-3.95,1.92-5.49,1.28-1.54,3.01-2.75,5.19-3.63,2.18-.88,4.61-1.38,7.29-1.5v1.8ZM140.58,39.62c1.56,1.88,2.34,4.6,2.34,8.16v14.04c0,1.48.68,2.22,2.04,2.22.72,0,1.33-.28,1.83-.84.5-.56.91-1.54,1.23-2.94l.84.12c-.08,2.44-.71,4.32-1.89,5.64-1.18,1.32-2.59,1.98-4.23,1.98-1.72,0-3.04-.54-3.96-1.62-.92-1.08-1.38-2.6-1.38-4.56v-17.04c0-2.12-.31-3.52-.93-4.2-.62-.68-1.79-1.02-3.51-1.02-.96,0-2.05.12-3.27.36-1.22.24-2.25.58-3.09,1.02l1.26-1.32c1.08.44,2.01,1.15,2.79,2.13.78.98,1.17,2.17,1.17,3.57,0,1-.31,1.81-.93,2.43-.62.62-1.41.93-2.37.93s-1.84-.36-2.52-1.08c-.68-.72-1.02-1.7-1.02-2.94,0-2.4.77-4.31,2.31-5.73,1.54-1.42,3.65-2.13,6.33-2.13,3.08,0,5.4.94,6.96,2.82Z"/>
  <path d="M154.26,66.2c-1.44-1.2-2.58-2.93-3.42-5.19-.84-2.26-1.26-4.97-1.26-8.13s.37-5.83,1.11-8.25c.74-2.42,1.92-4.33,3.54-5.73,1.62-1.4,3.77-2.1,6.45-2.1,2.08,0,3.79.64,5.13,1.92,1.34,1.28,2.01,2.92,2.01,4.92,0,1.48-.34,2.71-1.02,3.69-.68.98-1.56,1.47-2.64,1.47-.88,0-1.65-.33-2.31-.99s-.99-1.49-.99-2.49c0-1.28.4-2.4,1.2-3.36.8-.96,1.88-1.7,3.24-2.22l-.24.6c-.88-.28-1.69-.48-2.43-.6-.74-.12-1.59-.18-2.55-.18-1.32,0-2.34.33-3.06.99-.72.66-1.22,1.85-1.5,3.57-.28,1.72-.42,4.16-.42,7.32s.21,5.47.63,7.17c.42,1.7,1.05,2.88,1.89,3.54.84.66,1.9.99,3.18.99.96,0,1.82-.18,2.58-.54.76-.36,1.47-1.06,2.13-2.1.66-1.04,1.27-2.56,1.83-4.56l.96.18c-.44,4.16-1.42,7.18-2.94,9.06-1.52,1.88-3.62,2.82-6.3,2.82-1.76,0-3.36-.6-4.8-1.8Z"/>
  <path d="M169.08,66.32c.88-.32,1.54-.71,1.98-1.17.44-.46.74-1.15.9-2.07.16-.92.24-2.18.24-3.78v-27.78c0-.92-.09-1.63-.27-2.13-.18-.5-.54-.9-1.08-1.2s-1.35-.57-2.43-.81v-.78l9.18-3.36v37.86c0,1.36.09,2.38.27,3.06.18.68.47,1.16.87,1.44.4.28.92.52,1.56.72v1.08h-11.22v-1.08ZM183.96,66.44c.8-.28,1.4-.62,1.8-1.02.4-.4.67-.97.81-1.71.14-.74.21-1.75.21-3.03v-16.02c0-1.4-.27-2.33-.81-2.79-.54-.46-1.59-.69-3.15-.69-1.12,0-2.09.05-2.91.15-.82.1-1.69.27-2.61.51l-.18-.36c.84-1.36,2.06-2.48,3.66-3.36,1.6-.88,3.32-1.32,5.16-1.32,2.16,0,3.74.55,4.74,1.65,1,1.1,1.5,2.61,1.5,4.53v17.7c0,1.36.09,2.4.27,3.12.18.72.47,1.27.87,1.65.4.38.92.71,1.56.99v.96h-10.92v-.96Z"/>
  <path d="M201.06,51.02l8.88-.9c.24-3.88.15-6.64-.27-8.28-.42-1.64-1.41-2.46-2.97-2.46-1.08,0-1.94.32-2.58.96-.64.64-1.09,1.79-1.35,3.45-.26,1.66-.39,4.03-.39,7.11,0,3.28.22,5.81.66,7.59.44,1.78,1.12,3.01,2.04,3.69.92.68,2.08,1.02,3.48,1.02,1.2,0,2.2-.17,3-.51.8-.34,1.52-.95,2.16-1.83.64-.88,1.26-2.14,1.86-3.78l1.14.18c-.48,2.6-1.19,4.69-2.13,6.27-.94,1.58-2.04,2.72-3.3,3.42-1.26.7-2.65,1.05-4.17,1.05-2.16,0-4.01-.6-5.55-1.8-1.54-1.2-2.71-2.93-3.51-5.19-.8-2.26-1.2-4.95-1.2-8.07,0-3.48.43-6.42,1.29-8.82.86-2.4,2.1-4.22,3.72-5.46,1.62-1.24,3.53-1.86,5.73-1.86,1.84,0,3.35.49,4.53,1.47,1.18.98,2.07,2.27,2.67,3.87s.95,3.34,1.05,5.22c.1,1.88-.03,3.72-.39,5.52h-14.4v-1.86Z"/>
  <path d="M221.75,35.51c.96-.82,1.69-1.97,2.19-3.45.5-1.48.85-3.42,1.05-5.82h1.5v13.08h-8.64v-1.92c1.64-.44,2.94-1.07,3.9-1.89ZM226.5,37.4v19.44c0,2.52.2,4.17.6,4.95.4.78,1.2,1.17,2.4,1.17,1,0,1.72-.24,2.16-.72.44-.48.66-1.36.66-2.64v-7.98h2.04v7.86c0,3.12-.61,5.32-1.83,6.6-1.22,1.28-2.77,1.92-4.65,1.92-2.32,0-4.03-.78-5.13-2.34-1.1-1.56-1.65-3.56-1.65-6v-22.26h5.4ZM225.36,37.4h8.58v1.92h-8.58v-1.92Z"/>
  <path d="M239.33,35.51c.96-.82,1.69-1.97,2.19-3.45.5-1.48.85-3.42,1.05-5.82h1.5v13.08h-8.64v-1.92c1.64-.44,2.94-1.07,3.9-1.89ZM244.07,37.4v19.44c0,2.52.2,4.17.6,4.95.4.78,1.2,1.17,2.4,1.17,1,0,1.72-.24,2.16-.72.44-.48.66-1.36.66-2.64v-7.98h2.04v7.86c0,3.12-.61,5.32-1.83,6.6-1.22,1.28-2.77,1.92-4.65,1.92-2.32,0-4.03-.78-5.13-2.34-1.1-1.56-1.65-3.56-1.65-6v-22.26h5.4ZM242.93,37.4h8.58v1.92h-8.58v-1.92Z"/>
  <path d="M258.95,51.02l8.88-.9c.24-3.88.15-6.64-.27-8.28-.42-1.64-1.41-2.46-2.97-2.46-1.08,0-1.94.32-2.58.96-.64.64-1.09,1.79-1.35,3.45-.26,1.66-.39,4.03-.39,7.11,0,3.28.22,5.81.66,7.59.44,1.78,1.12,3.01,2.04,3.69.92.68,2.08,1.02,3.48,1.02,1.2,0,2.2-.17,3-.51.8-.34,1.52-.95,2.16-1.83.64-.88,1.26-2.14,1.86-3.78l1.14.18c-.48,2.6-1.19,4.69-2.13,6.27-.94,1.58-2.04,2.72-3.3,3.42-1.26.7-2.65,1.05-4.17,1.05-2.16,0-4.01-.6-5.55-1.8s-2.71-2.93-3.51-5.19c-.8-2.26-1.2-4.95-1.2-8.07,0-3.48.43-6.42,1.29-8.82.86-2.4,2.1-4.22,3.72-5.46,1.62-1.24,3.53-1.86,5.73-1.86,1.84,0,3.35.49,4.53,1.47,1.18.98,2.07,2.27,2.67,3.87.6,1.6.95,3.34,1.05,5.22.1,1.88-.03,3.72-.39,5.52h-14.4v-1.86Z"/>
</svg>