<?xml version="1.0" encoding="UTF-8"?>
<svg id="Layer_1" data-name="Layer 1" xmlns="http://www.w3.org/2000/svg" viewBox="0 0 360 100">
  <path d="M88.83,28.4h6.36c.54,0,1.08.3,1.32.78l10.74,21.36,10.2-21.3c.18-.54.72-.84,1.26-.84h5.7c.54,0,.9.36.9.9v40.2c0,.54-.36.9-.9.9h-7.2c-.54,0-.9-.36-.9-.9v-21.72l-7.26,14.52c-.24.48-.78.78-1.32.78h-3c-.54,0-1.08-.3-1.32-.78l-7.38-14.16v21.36c0,.54-.36.9-.9.9h-6.3c-.54,0-.9-.36-.9-.9V29.3c0-.54.36-.9.9-.9Z"/>
  <path d="M130.89,69.56l10.8-40.32c.12-.48.6-.84,1.14-.84h11.7c.54,0,1.02.36,1.14.84l10.8,40.32c.12.48-.12.84-.66.84h-7.56c-.54,0-.96-.36-1.14-.9l-1.92-7.56h-13.14l-1.86,7.56c-.18.54-.6.9-1.14.9h-7.5c-.54,0-.78-.36-.66-.84ZM153.26,54.44l-4.8-18.96-4.62,18.96h9.42Z"/>
  <path d="M172.05,69.5V29.3c0-.54.36-.9.9-.9h14.46c8.82,0,14.94,4.62,14.94,16.2v9c0,13.5-7.38,16.8-14.7,16.8h-14.7c-.54,0-.9-.36-.9-.9ZM193.04,57.26v-15.6c0-3.36-1.8-5.76-5.64-5.76h-6.06v26.7h6.3c4.32,0,5.4-1.5,5.4-5.34Z"/>
  <path d="M208.47,69.5V29.3c0-.54.36-.9.9-.9h14.46c8.82,0,14.94,4.62,14.94,16.2v9c0,13.5-7.38,16.8-14.7,16.8h-14.7c-.54,0-.9-.36-.9-.9ZM229.46,57.26v-15.6c0-3.36-1.8-5.76-5.64-5.76h-6.06v26.7h6.3c4.32,0,5.4-1.5,5.4-5.34Z"/>
  <path d="M241.53,28.4h7.68c.54,0,1.02.36,1.2.84l6.54,17.22,5.64-17.22c.18-.48.66-.84,1.2-.84h6.96c.54,0,.78.36.6.84l-10.5,27.48v12.78c0,.54-.36.9-.9.9h-7.2c-.54,0-.9-.36-.9-.9v-12.36l-10.92-27.9c-.18-.48.06-.84.6-.84Z"/>
</svg>