<?xml version="1.0" encoding="UTF-8"?>
<svg id="Layer_1" data-name="Layer 1" xmlns="http://www.w3.org/2000/svg" viewBox="0 0 360 100">
  <path d="M123.87,74.29c-1.03-.35-1.96-.83-2.8-1.43l.49-1.33c.89.51,1.77.91,2.66,1.19.89.28,1.89.42,3.01.42,1.35,0,2.56-.48,3.6-1.44,1.05-.96,1.58-2.42,1.58-4.38,0-1.54-.19-3-.56-4.38-.37-1.38-.84-2.76-1.4-4.17l-6.37-18.27c-.42-1.31-.76-2.42-1.02-3.33-.26-.91-.38-1.97-.38-3.18,0-1.07.23-2.04.7-2.91.47-.86,1.14-1.56,2.03-2.1.89-.54,1.94-.81,3.15-.81.79,0,1.52.07,2.17.21.65.14,1.33.42,2.03.84l-.49,1.33c-.61-.28-1.17-.49-1.68-.63-.51-.14-1.1-.21-1.75-.21-1.12,0-1.97.35-2.56,1.05-.58.7-.88,1.68-.88,2.94,0,.89.09,1.7.28,2.45.19.75.44,1.56.77,2.45l6.3,17.78c.56,1.59,1.04,2.94,1.44,4.06.4,1.12.7,2.17.91,3.15.21.98.31,2.08.31,3.29,0,1.31-.3,2.58-.91,3.82-.61,1.24-1.49,2.23-2.66,2.97-1.17.75-2.61,1.12-4.34,1.12-1.4,0-2.61-.17-3.64-.53Z"/>
  <path d="M139.59,71.43c-1.05-2.26-1.58-6.08-1.58-11.45,0-4.9.52-8.42,1.58-10.57,1.05-2.15,2.48-3.22,4.3-3.22.75,0,1.44.14,2.06.42.63.28,1.16.68,1.58,1.19l-.35.14v-3.78c0-1.96-.21-3.31-.63-4.06-.42-.75-1.26-1.12-2.52-1.12-1.17,0-2.29.26-3.36.77l-.49-1.12c.56-.42,1.17-.72,1.82-.91.65-.19,1.33-.28,2.03-.28,2.19,0,3.73.68,4.62,2.03.89,1.35,1.33,3.38,1.33,6.09v28.84h-2.24l-.28-4.34h-.28c-.33,1.59-.84,2.78-1.54,3.57-.7.79-1.52,1.19-2.45,1.19-1.35,0-2.56-1.13-3.6-3.39ZM146.31,70.69c.58-1.63.88-3.87.88-6.72v-15.75l.21.49c-.51-.47-1-.79-1.47-.98-.47-.19-1-.28-1.61-.28-.75,0-1.36.36-1.85,1.08-.49.72-.88,1.97-1.15,3.75-.28,1.77-.42,4.32-.42,7.63,0,3.59.1,6.33.31,8.23.21,1.89.54,3.2.98,3.92.44.72.99,1.08,1.65,1.08,1.07,0,1.9-.82,2.48-2.45Z"/>
  <path d="M156.84,70.2h-.91l-.21,4.2h-1.68V27.15h2.8v43.05ZM156.84,65.51c0,2.99.28,5.02.84,6.09.56,1.07,1.28,1.61,2.17,1.61.79,0,1.48-.55,2.07-1.64.58-1.1,1.04-2.95,1.36-5.57.33-2.61.49-6.21.49-10.78,0-3.17-.06-5.79-.18-7.84-.12-2.05-.34-3.69-.67-4.9-.33-1.21-.73-2.07-1.23-2.55-.49-.49-1.08-.74-1.78-.74-.79,0-1.52.33-2.17.98-.65.65-1.17,1.56-1.54,2.73l-.21-.63c.28-1.54.88-2.72,1.78-3.54.91-.82,1.81-1.22,2.7-1.22,1.35,0,2.47.5,3.36,1.5.89,1,1.56,2.8,2.03,5.39.47,2.59.7,6.2.7,10.82s-.23,8.57-.7,11.44c-.47,2.87-1.17,4.94-2.1,6.2-.93,1.26-2.12,1.89-3.57,1.89-1.21,0-2.22-.61-3.01-1.82-.79-1.21-1.24-2.82-1.33-4.83l.98-2.59Z"/>
  <path d="M172.98,73.1c-.86-1.14-1.53-2.66-2-4.55-.47-1.89-.79-3.94-.98-6.16-.19-2.22-.28-4.38-.28-6.48,0-1.96.09-4,.28-6.12.19-2.12.51-4.12.98-5.98.47-1.87,1.13-3.4,2-4.58.86-1.19,2-1.79,3.4-1.79s2.46.59,3.32,1.79c.86,1.19,1.53,2.72,2,4.58.47,1.87.79,3.86.98,5.98.19,2.12.28,4.17.28,6.12,0,2.1-.09,4.26-.28,6.48-.19,2.22-.51,4.27-.98,6.16-.47,1.89-1.13,3.41-2,4.55-.86,1.14-1.97,1.71-3.32,1.71s-2.53-.57-3.4-1.71ZM178.75,71.01c.51-1.52.84-3.58.98-6.2.14-2.61.21-5.58.21-8.89s-.07-6.03-.21-8.57c-.14-2.54-.47-4.58-.98-6.12-.51-1.54-1.31-2.31-2.38-2.31s-1.93.77-2.42,2.31c-.49,1.54-.82,3.58-.98,6.12-.16,2.54-.25,5.4-.25,8.57s.08,6.28.25,8.89c.16,2.61.49,4.68.98,6.2.49,1.52,1.29,2.27,2.42,2.27s1.87-.76,2.38-2.27Z"/>
  <path d="M184.42,37.86h9.52l.35,1.4h-9.87v-1.4ZM187.92,73.18c-.75-1.1-1.12-2.51-1.12-4.24v-36.47l2.8-.77v39.06c0,1.73.72,2.59,2.17,2.59.61,0,1.09-.07,1.44-.21.35-.14.81-.35,1.37-.63l.49,1.05c-.61.42-1.19.73-1.75.95-.56.21-1.21.31-1.96.31-1.54,0-2.68-.55-3.43-1.64Z"/>
  <path d="M197.05,71.43c-1.05-2.26-1.58-6.08-1.58-11.45,0-4.9.52-8.42,1.58-10.57,1.05-2.15,2.48-3.22,4.3-3.22.75,0,1.44.14,2.06.42.63.28,1.16.68,1.58,1.19l-.35.14v-3.78c0-1.96-.21-3.31-.63-4.06-.42-.75-1.26-1.12-2.52-1.12-1.17,0-2.29.26-3.36.77l-.49-1.12c.56-.42,1.17-.72,1.82-.91.65-.19,1.33-.28,2.03-.28,2.19,0,3.73.68,4.62,2.03.89,1.35,1.33,3.38,1.33,6.09v28.84h-2.24l-.28-4.34h-.28c-.33,1.59-.84,2.78-1.54,3.57-.7.79-1.52,1.19-2.45,1.19-1.35,0-2.56-1.13-3.6-3.39ZM203.77,70.69c.58-1.63.88-3.87.88-6.72v-15.75l.21.49c-.51-.47-1-.79-1.47-.98-.47-.19-1-.28-1.61-.28-.75,0-1.36.36-1.85,1.08-.49.72-.88,1.97-1.15,3.75-.28,1.77-.42,4.32-.42,7.63,0,3.59.1,6.33.31,8.23.21,1.89.54,3.2.98,3.92.44.72.99,1.08,1.65,1.08,1.07,0,1.9-.82,2.48-2.45Z"/>
  <path d="M220.57,70.62c-.3,1.26-.77,2.26-1.4,3.01-.63.75-1.51,1.12-2.62,1.12s-2.18-.57-3.04-1.71c-.86-1.14-1.53-3.06-2-5.74-.47-2.68-.7-6.31-.7-10.88,0-4.95.25-8.79.73-11.51.49-2.73,1.2-4.64,2.14-5.74.93-1.1,1.98-1.64,3.15-1.64s2.14.37,2.91,1.12,1.29,1.63,1.57,2.66l-.07.7c-.47-.84-.98-1.52-1.54-2.03-.56-.51-1.28-.77-2.17-.77-.7,0-1.28.32-1.75.95-.47.63-.88,1.63-1.23,3.01-.35,1.38-.6,3.16-.73,5.35-.14,2.19-.21,4.83-.21,7.91,0,4.2.13,7.53.38,9.98.26,2.45.64,4.2,1.16,5.25.51,1.05,1.14,1.57,1.89,1.57,1.07,0,1.94-.76,2.59-2.27.65-1.52.98-3.33.98-5.42l.7.84c-.19,1.59-.43,3.01-.73,4.27ZM214.55,83.92c-.82-.33-1.65-.84-2.48-1.54l.56-1.12c.65.47,1.29.83,1.92,1.08.63.26,1.41.38,2.35.38,2.47,0,3.71-1.59,3.71-4.76v-37.52h.21l.42-2.59h2.17v38.92c0,2.19-.48,4.01-1.43,5.46-.96,1.45-2.56,2.17-4.8,2.17-.93,0-1.81-.16-2.62-.49Z"/>
  <path d="M229.5,72.44c-.89-1.59-1.49-3.78-1.82-6.58s-.49-6.04-.49-9.73c0-4.62.23-8.3.7-11.03.47-2.73,1.16-4.69,2.07-5.88.91-1.19,2.02-1.79,3.33-1.79s2.31.49,3.15,1.47c.84.98,1.49,2.42,1.96,4.31.47,1.89.7,4.28.7,7.17,0,3.31-.28,5.93-.84,7.84-.56,1.91-1.29,3.25-2.21,4.03-.91.77-1.92,1.15-3.04,1.15-.89,0-1.68-.16-2.38-.49-.7-.33-1.33-.77-1.89-1.33l.35-.49c.65.37,1.25.63,1.79.77.54.14,1.16.21,1.85.21.93,0,1.68-.29,2.24-.88.56-.58.95-1.71,1.16-3.39s.31-4.13.31-7.35-.14-5.73-.42-7.38c-.28-1.66-.65-2.76-1.12-3.33-.47-.56-.98-.84-1.54-.84-.47,0-.9.21-1.29.63s-.73,1.23-1.01,2.42c-.28,1.19-.49,2.92-.63,5.18s-.21,5.26-.21,9c0,4.01.06,7.29.17,9.83.12,2.54.42,4.41.91,5.6s1.27,1.79,2.34,1.79c.79,0,1.5-.13,2.13-.38.63-.26,1.25-.6,1.86-1.02l.42,1.19c-.65.51-1.34.92-2.07,1.22s-1.55.46-2.48.46c-1.77,0-3.1-.79-3.99-2.38Z"/>
</svg>