<?xml version="1.0" encoding="utf-8"?>
<!-- Generator: Adobe Illustrator 27.8.1, SVG Export Plug-In . SVG Version: 6.00 Build 0)  -->
<svg version="1.1" id="Layer_1" xmlns="http://www.w3.org/2000/svg" xmlns:xlink="http://www.w3.org/1999/xlink" x="0px" y="0px"
	 viewBox="0 0 1920 1280" style="enable-background:new 0 0 1920 1280;" xml:space="preserve">
<style type="text/css">
	.st0{fill:#C4D0D9;}
</style>
<rect x="-1.6" y="-1.6" class="st0" width="1922.2" height="1281.1"/>
<g>
	<g>
		<path d="M698.8,583.9l-8.6-8.8c2.1-2.2,4.7-4.8,7.6-7.7c2.9-2.9,6-5.9,9.2-9.1c3.2-3.2,6.3-6.3,9.3-9.4c3-3.1,5.8-6,8.3-8.6
			l9.6,4.3c-0.6,3.2-1.3,6.6-1.9,10.1c-0.6,3.5-1.5,7.8-2.5,12.7c-1,5-2.2,11.1-3.6,18.4c-1.4,7.3-3.2,16.3-5.4,27.1
			c-2.2,10.8-4.8,23.8-7.8,39l-13.6-1.4c1-6,2.2-12.1,3.8-18.5c1.6-6.3,3.4-12.7,5.3-19.1c1.9-6.4,3.9-12.7,5.8-18.8
			c2-6.1,3.8-12,5.6-17.5c1.8-5.5,3.3-10.6,4.6-15.3c1.3-4.6,2.3-8.7,3-12.2l2.2-0.5c-2.3,2.7-5,5.7-7.8,9c-2.9,3.4-5.8,6.7-8.8,10
			c-3,3.3-5.7,6.4-8.2,9.2C702.6,579.6,700.5,581.9,698.8,583.9z"/>
		<path d="M738.1,653.8l-2.9-13.8c9.8-3.1,18.8-6.9,26.9-11.5c8.1-4.6,15.1-9.6,21-15c5.9-5.4,10.5-11.4,13.8-17.8
			c3.3-6.5,4.9-13.1,4.9-20.1c0-5.3-1-9.7-2.9-13.1c-1.9-3.4-4.7-5.9-8.5-7.6c-3.7-1.7-8.5-2.5-14.4-2.5c-6.4,0-11.8,0.9-16.2,2.6
			c-4.4,1.7-7.8,4.1-10.2,7c-2.3,3-3.5,6.5-3.5,10.4c0,2.7,0.5,5,1.6,7c1.1,2,2.8,3.8,5.3,5.4c2.5,1.7,5.8,3.3,10,4.8
			c4.2,1.5,9.4,3.2,15.6,4.9l-2.2,10.7c-7.5-1.8-13.9-4.3-19.4-7.4c-5.5-3.1-9.7-6.9-12.7-11.5c-3-4.6-4.5-9.8-4.5-15.7
			c0-6.2,1.5-11.6,4.6-16.2c3-4.6,7.1-8.1,12.3-10.6c5.2-2.5,11-3.7,17.4-3.7c7,0,13.2,1.4,18.5,4.3c5.3,2.9,9.4,7,12.3,12.5
			c2.9,5.4,4.4,12.1,4.4,20c0,8.3-1.7,16.4-5,24.2s-8.2,15.1-14.6,21.8c-6.4,6.7-13.9,12.7-22.6,17.8
			C758.2,646.1,748.6,650.4,738.1,653.8z"/>
		<path d="M802.9,651.4l-0.6-11.8c7.3-6.2,14.1-11.8,20.4-16.9c6.3-5.1,12.1-9.8,17.4-14.1c5.2-4.3,9.7-8.3,13.4-12.1
			c3.7-3.7,6.5-7.3,8.5-10.6c2-3.3,3-6.7,3-10.1c0-3.2-0.6-5.9-1.8-8.2c-1.2-2.3-3.4-4.3-6.4-6c-3-1.7-7.2-3.1-12.6-4.1
			c-5.3-1-12.1-1.8-20.3-2.3l1.9-14.1c10.6,0.3,19.2,2,26,5c6.8,3,11.8,7.2,15,12.5c3.3,5.3,4.9,11.4,4.9,18.5c0,4.7-1,9.2-2.9,13.6
			c-1.9,4.4-4.8,8.6-8.6,12.7c-3.8,4.1-8.5,8.2-13.8,12.4c-5.4,4.2-11.4,8.4-18.1,12.6c-6.7,4.3-14.1,8.9-22.2,13.8l0.2-3.2
			c4.1-0.2,8.8-0.4,14.2-0.6c5.4-0.2,10.9-0.4,16.6-0.6c5.7-0.3,11-0.5,16-0.8c5-0.3,9.2-0.4,12.5-0.4l0.2,13.3
			c-2.9,0-6.8,0.1-11.8,0.2c-5,0.1-10.6,0.2-16.6,0.4c-6.1,0.2-12.1,0.3-18.1,0.5C813,651.1,807.6,651.3,802.9,651.4z"/>
		<path d="M908.5,653c-6.3,0-11.8-1.6-16.5-4.7c-4.7-3.1-8.4-7.5-11.1-13.1c-2.7-5.6-4.1-12.1-4.1-19.4c0-6.9,1.1-13.9,3.4-21
			c2.2-7.1,5.7-13.9,10.2-20.4c4.6-6.5,10.5-12.7,17.7-18.5c7.2-5.8,15.8-11,25.7-15.4l6.6,12.2c-10,4.6-18.6,9.5-25.6,14.8
			s-12.7,10.9-17.1,16.9c-4.4,6-7.5,12-9.5,18.2c-2,6.1-3,12.3-3,18.5c0,7.7,1.6,13.3,4.8,16.8c3.2,3.5,7.7,5.3,13.6,5.3
			c6,0,11.3-1.5,16-4.4c4.7-2.9,8.5-7.4,11.5-13.4c3-6,4.9-13.9,5.7-23.5c0.8-9.7,0.4-21.1-1.2-34.3L949,565
			c2,14.7,2.5,27.6,1.3,38.6c-1.2,11-3.6,20.2-7.4,27.4c-3.7,7.3-8.5,12.7-14.3,16.4C922.8,651.1,916.1,653,908.5,653z"/>
		<path d="M991.2,631.2l-9.8-7.5l24.8-22.2l3.5,3.7c-1.6,3-3.4,6-5.4,9c-2,3-4.1,6-6.2,8.9C996,625.9,993.7,628.7,991.2,631.2z
			 M1024.4,631.4l-36.2-54.6l10.6-5.8l35.5,53.6L1024.4,631.4z M1016.8,600.8l-3.7-3.4c1.9-3,3.9-6,5.9-9c2-3,4.1-5.9,6.3-8.9
			c2.2-2.9,4.5-5.8,7-8.6l9.6,7.5L1016.8,600.8z"/>
		<path d="M1080.5,583.9l-8.6-8.8c2.1-2.2,4.7-4.8,7.6-7.7c2.9-2.9,6-5.9,9.2-9.1s6.3-6.3,9.3-9.4c3-3.1,5.8-6,8.3-8.6l9.6,4.3
			c-0.6,3.2-1.3,6.6-1.9,10.1c-0.6,3.5-1.5,7.8-2.5,12.7c-1,5-2.2,11.1-3.6,18.4c-1.4,7.3-3.2,16.3-5.4,27.1
			c-2.2,10.8-4.8,23.8-7.8,39l-13.6-1.4c1-6,2.2-12.1,3.8-18.5c1.6-6.3,3.4-12.7,5.3-19.1c1.9-6.4,3.9-12.7,5.8-18.8
			c2-6.1,3.8-12,5.6-17.5c1.8-5.5,3.3-10.6,4.6-15.3c1.3-4.6,2.3-8.7,3-12.2l2.2-0.5c-2.3,2.7-5,5.7-7.8,9c-2.9,3.4-5.8,6.7-8.8,10
			c-3,3.3-5.7,6.4-8.2,9.2C1084.3,579.6,1082.2,581.9,1080.5,583.9z"/>
		<path d="M1107.9,651.4l-0.6-11.8c7.3-6.2,14.1-11.8,20.4-16.9c6.3-5.1,12.1-9.8,17.4-14.1c5.2-4.3,9.7-8.3,13.4-12.1
			c3.7-3.7,6.5-7.3,8.5-10.6c2-3.3,3-6.7,3-10.1c0-3.2-0.6-5.9-1.8-8.2c-1.2-2.3-3.4-4.3-6.4-6c-3-1.7-7.2-3.1-12.6-4.1
			c-5.3-1-12.1-1.8-20.3-2.3l1.9-14.1c10.6,0.3,19.2,2,26,5c6.8,3,11.8,7.2,15,12.5c3.3,5.3,4.9,11.4,4.9,18.5c0,4.7-1,9.2-2.9,13.6
			c-1.9,4.4-4.8,8.6-8.6,12.7c-3.8,4.1-8.5,8.2-13.8,12.4c-5.4,4.2-11.4,8.4-18.1,12.6c-6.7,4.3-14.1,8.9-22.2,13.8l0.2-3.2
			c4.1-0.2,8.8-0.4,14.2-0.6c5.4-0.2,10.9-0.4,16.6-0.6c5.7-0.3,11-0.5,16-0.8c5-0.3,9.2-0.4,12.5-0.4l0.2,13.3
			c-2.9,0-6.8,0.1-11.8,0.2c-5,0.1-10.6,0.2-16.6,0.4c-6.1,0.2-12.1,0.3-18.1,0.5C1117.9,651.1,1112.6,651.3,1107.9,651.4z"/>
		<path d="M1215.9,652.8c-5.9,0-11.4-0.8-16.5-2.5c-5.1-1.7-9.6-3.9-13.5-6.8c-3.9-2.9-7-6.1-9.2-9.8c3.7-4.5,7.7-9,11.9-13.7
			c4.2-4.6,8.5-9.4,12.9-14.2c4.4-4.8,8.7-9.6,13-14.4l1.6-1.6c7.3-8.2,14.3-16.4,21.3-24.6c6.9-8.2,13.2-15.9,18.9-23.2l10.4,7.5
			c-4.3,4.9-8.7,10-13.2,15.2c-4.5,5.2-9.3,10.4-14.2,15.6c-4.9,5.2-10,10.4-15.4,15.6l-1.1,1.3c-4.3,4.3-8.7,8.6-13.2,13
			c-4.5,4.4-9,8.7-13.4,12.9c-4.4,4.2-8.7,8.3-12.9,12.5v-3.2c2.3,2,5.1,3.8,8.3,5.3c3.2,1.5,6.7,2.6,10.5,3.4
			c3.8,0.8,7.6,1.2,11.4,1.2c5.3,0,10-0.9,14-2.6c4-1.7,7.1-4.1,9.3-7.1c2.2-3,3.3-6.5,3.3-10.3c0-3.3-0.9-6.3-2.6-9.1
			c-1.7-2.8-4-5.4-6.9-8c-2.9-2.6-6.1-5.1-9.8-7.7l-6.2-4.3c-3.9-2.3-7.5-4.9-10.8-7.6c-3.3-2.7-5.8-5.6-7.7-8.6
			c-1.9-3-2.8-6.3-2.8-9.8c0-4.6,1.7-8.9,5.2-12.9c3.5-4,8.7-7.3,15.7-10c7-2.7,15.7-4.3,26-4.8L1240,552
			c-8.5,0.5-15.5,1.7-20.9,3.6c-5.4,1.9-9.4,4.1-11.9,6.8c-2.6,2.7-3.8,5.7-3.8,9c0,3.1,1.4,6.1,4.1,9.1c2.7,3,6.2,6,10.3,9.1
			l6.2,4.5c5.2,3,10,6.1,14.2,9.4c4.3,3.3,7.6,6.7,10,10.4c2.4,3.7,3.6,7.7,3.6,11.9c0,5.2-1.5,9.9-4.5,14.1
			c-3,4.2-7.1,7.4-12.5,9.6C1229.6,651.7,1223.2,652.8,1215.9,652.8z"/>
		<path d="M1291.2,653c-6.3,0-11.8-1.6-16.5-4.7c-4.7-3.1-8.4-7.5-11.1-13.1s-4.1-12.1-4.1-19.4c0-6.9,1.1-13.9,3.4-21
			c2.2-7.1,5.7-13.9,10.2-20.4c4.6-6.5,10.5-12.7,17.7-18.5c7.2-5.8,15.8-11,25.7-15.4l6.6,12.2c-10,4.6-18.6,9.5-25.6,14.8
			s-12.7,10.9-17.1,16.9c-4.4,6-7.5,12-9.5,18.2c-2,6.1-3,12.3-3,18.5c0,7.7,1.6,13.3,4.8,16.8c3.2,3.5,7.7,5.3,13.6,5.3
			c6,0,11.3-1.5,16-4.4c4.7-2.9,8.5-7.4,11.5-13.4c3-6,4.9-13.9,5.7-23.5c0.8-9.7,0.4-21.1-1.2-34.3l13.4-2.2
			c2,14.7,2.5,27.6,1.3,38.6c-1.2,11-3.6,20.2-7.4,27.4c-3.7,7.3-8.5,12.7-14.3,16.4C1305.5,651.1,1298.8,653,1291.2,653z"/>
	</g>
</g>
<g>
	<path d="M1839.6,74.9l9.4,8.5c-1.4,1.6-3.7,4.1-6.8,7.5c-3.1,3.4-6.8,7.5-11,12.1c-4.2,4.6-8.7,9.6-13.4,14.8
		c-4.7,5.3-9.5,10.6-14.3,15.9c-4.8,5.3-9.4,10.3-13.6,14.9c-4.3,4.6-7.9,8.7-11.1,12.2c-3.1,3.5-5.5,6.1-7.1,7.9l-9.7-8.6
		L1839.6,74.9z M1806,49.2c5.1-0.1,10.3,0,15.8,0.1c5.5,0.2,11,0.5,16.5,0.9c5.5,0.4,11.2,0.9,17,1.6c5.8,0.6,11.6,1.4,17.6,2.4
		c-2.3,13.2-4.4,26.2-6.3,39.1c-1.9,12.9-3.7,25.9-5.5,39.2l-13.1-2.7c1.2-8.3,2.5-16.5,3.8-24.6c1.3-8.1,2.8-16.2,4.3-24.3
		c1.5-8.1,3.1-16.2,4.8-24.4l2.8,2.4c-3.3-0.4-6.8-0.6-10.5-0.3c-3.7,0.2-7.4,0.6-11.2,1c-3.8,0.5-7.7,1-11.7,1.7
		c-4,0.6-8.1,1.1-12.1,1.5c-4,0.3-8.1,0.6-12.3,0.6L1806,49.2z"/>
</g>
<g>
	<path d="M112.3,1201.6c-5,0.5-10.3,0.9-15.7,1.1s-11,0.4-16.5,0.5c-5.6,0-11.2,0-17-0.2c-5.8-0.2-11.7-0.5-17.7-1
		c1.2-13.3,2.3-26.5,3.1-39.5c0.9-13,1.6-26.2,2.4-39.5l13.3,1.6c-0.5,8.4-1.1,16.6-1.8,24.8c-0.7,8.2-1.5,16.3-2.3,24.5
		c-0.9,8.2-1.8,16.4-2.8,24.7l-3-2.1c3.3,0.2,6.8,0,10.5-0.5c3.7-0.5,7.4-1.2,11.1-1.9c3.7-0.8,7.6-1.6,11.5-2.6
		c4-1,7.9-1.8,11.9-2.5c4-0.7,8.1-1.2,12.2-1.6L112.3,1201.6z M76.7,1178.8l-10.1-7.7c1.3-1.7,3.4-4.4,6.2-8.1
		c2.8-3.7,6.2-8,10-12.9c3.8-4.9,7.9-10.2,12.2-15.9c4.3-5.7,8.6-11.3,13-17c4.4-5.7,8.5-11,12.4-16c3.9-5,7.2-9.3,10-13.1
		c2.8-3.8,5-6.6,6.4-8.4l10.4,7.8L76.7,1178.8z"/>
</g>
<g>
	<path d="M37.9,111.5c-0.4-5-0.6-10.3-0.7-15.8c-0.1-5.5-0.1-11,0-16.5c0.1-5.6,0.3-11.2,0.6-17c0.3-5.8,0.8-11.7,1.4-17.7
		c13.3,1.6,26.4,3,39.4,4.1c13,1.2,26.1,2.3,39.5,3.3l-2,13.3c-8.4-0.7-16.6-1.5-24.7-2.4c-8.1-0.9-16.3-1.9-24.5-3
		c-8.2-1.1-16.4-2.2-24.6-3.4l2.2-3c-0.3,3.3-0.2,6.8,0.3,10.5c0.4,3.7,1,7.4,1.7,11.1c0.7,3.7,1.4,7.6,2.3,11.6c0.9,4,1.6,8,2.2,12
		c0.6,4,1,8.1,1.3,12.2L37.9,111.5z M61.6,76.5l7.9-9.9c1.7,1.3,4.3,3.5,7.9,6.4c3.6,2.9,7.8,6.4,12.7,10.3c4.8,4,10,8.1,15.6,12.6
		c5.5,4.4,11.1,8.9,16.6,13.4c5.5,4.5,10.8,8.8,15.6,12.8c4.9,4,9.2,7.4,12.8,10.4c3.7,2.9,6.4,5.1,8.3,6.6l-8,10.2L61.6,76.5z"/>
</g>
<g>
	<path d="M1838.5,1167.7l-7.6,10.1c-1.7-1.3-4.4-3.3-8.1-6.1c-3.7-2.8-8-6.1-13-9.9c-5-3.8-10.3-7.8-16-12.1
		c-5.7-4.2-11.4-8.5-17.1-12.9c-5.7-4.3-11.1-8.4-16.1-12.2c-5-3.8-9.4-7.1-13.2-9.9c-3.8-2.8-6.6-4.9-8.5-6.3l7.7-10.5
		L1838.5,1167.7z M1861,1131.9c0.5,5,1,10.3,1.3,15.7c0.3,5.5,0.5,11,0.6,16.5c0.1,5.6,0.1,11.2,0,17c-0.1,5.8-0.4,11.7-0.8,17.7
		c-13.4-1.1-26.5-2-39.5-2.8c-13-0.7-26.2-1.4-39.6-2l1.5-13.3c8.4,0.4,16.6,1,24.8,1.6c8.2,0.6,16.3,1.3,24.6,2.1
		c8.2,0.8,16.5,1.6,24.7,2.6l-2.1,3c0.1-3.3-0.1-6.8-0.6-10.5c-0.6-3.7-1.2-7.3-2-11.1c-0.8-3.7-1.7-7.6-2.7-11.5
		c-1-4-1.9-7.9-2.6-11.9c-0.7-4-1.3-8-1.7-12.2L1861,1131.9z"/>
</g>
</svg>
